<svg width="660" height="553" viewBox="0 0 660 553" fill="none" xmlns="http://www.w3.org/2000/svg">
<path fill-rule="evenodd" clip-rule="evenodd" d="M311.26 55.6443C378.5 14.4843 487.42 3.16431 542.22 0.0543061C560.64 -0.985694 576 13.0443 575.99 30.7543V196.093C555.97 192.909 535.057 201.618 523.563 219.906C513.767 235.491 513.136 254.355 520.358 269.995C506.148 269.091 491.962 274.022 481.378 283.845V218.045C481.378 171.084 424.744 148.464 392.13 181.075L392.128 181.077L318.316 254.872H303.99V68.8143C303.99 63.5343 306.62 58.4843 311.26 55.6443ZM272 254.872V68.6343C272 63.3443 269.38 58.4943 264.73 55.6443C197.5 14.4843 88.58 3.17431 33.78 0.0543061C15.36 -0.985694 0 13.0443 0 30.7543V368.604C0 384.844 13.13 398.384 30.02 399.264C65.3461 401.12 126.459 406.497 183.706 422.093V307.153C183.706 278.274 207.109 254.872 235.988 254.872H272Z" fill="white"/>
<path d="M413.341 202.29L330.741 284.872H235.988C223.677 284.872 213.706 294.843 213.706 307.154V440.844C213.706 453.145 223.677 463.125 235.988 463.125H330.741L413.341 545.707C427.295 559.661 451.378 549.857 451.378 529.952V218.045C451.378 198.122 427.276 188.355 413.341 202.29ZM659.34 373.999C659.34 315.017 629.575 260.789 579.711 228.945C569.322 222.316 555.544 225.398 548.962 235.871C542.38 246.343 545.453 260.204 555.842 266.842C592.746 290.414 614.777 330.466 614.777 373.999C614.777 417.532 592.746 457.583 555.842 481.155C545.453 487.784 542.38 501.645 548.962 512.127C555.006 521.745 568.57 526.183 579.711 519.052C629.575 487.208 659.34 432.989 659.34 373.999ZM527.72 302.632C516.969 296.756 503.405 300.627 497.445 311.406C491.512 322.184 495.44 335.73 506.218 341.681C518.204 348.263 525.65 360.658 525.65 373.999C525.65 387.349 518.204 399.734 506.228 406.316C495.449 412.267 491.522 425.813 497.454 436.592C503.424 447.417 516.997 451.26 527.729 445.365C553.938 430.928 570.223 403.587 570.223 373.989C570.223 344.392 553.938 317.06 527.72 302.632Z" fill="#97DAFF"/>
</svg>
