<svg width="660" height="554" viewBox="0 0 660 554" fill="none" xmlns="http://www.w3.org/2000/svg">
<path fill-rule="evenodd" clip-rule="evenodd" d="M311.443 56.4773C378.683 15.3173 487.603 3.99731 542.403 0.887314C560.823 -0.152686 576.183 13.8773 576.173 31.5873V196.926C556.153 193.742 535.24 202.451 523.746 220.739C513.95 236.324 513.319 255.188 520.541 270.828C506.331 269.924 492.145 274.855 481.561 284.678V218.878C481.561 171.917 424.927 149.297 392.313 181.908L392.311 181.91L318.499 255.705H304.173V69.6473C304.173 64.3673 306.803 59.3173 311.443 56.4773ZM272.183 255.705V69.4673C272.183 64.1773 269.563 59.3273 264.913 56.4773C197.683 15.3173 88.7631 4.00731 33.9631 0.887314C15.5431 -0.152686 0.183105 13.8773 0.183105 31.5873V369.437C0.183105 385.677 13.3131 399.217 30.2031 400.097C65.5292 401.953 126.642 407.33 183.889 422.926V307.986C183.889 279.107 207.292 255.705 236.171 255.705H272.183Z" fill="black"/>
<path d="M413.524 203.123L330.924 285.705H236.171C223.86 285.705 213.889 295.676 213.889 307.987V441.677C213.889 453.978 223.86 463.958 236.171 463.958H330.924L413.524 546.54C427.478 560.494 451.561 550.69 451.561 530.785V218.878C451.561 198.955 427.459 189.188 413.524 203.123ZM659.523 374.832C659.523 315.85 629.758 261.622 579.894 229.778C569.505 223.149 555.728 226.231 549.145 236.704C542.563 247.176 545.636 261.037 556.025 267.675C592.929 291.248 614.96 331.299 614.96 374.832C614.96 418.365 592.929 458.416 556.025 481.988C545.636 488.617 542.563 502.478 549.145 512.96C555.189 522.578 568.753 527.016 579.894 519.885C629.758 488.041 659.523 433.822 659.523 374.832ZM527.903 303.465C517.152 297.589 503.588 301.46 497.628 312.239C491.696 323.017 495.623 336.563 506.401 342.514C518.387 349.096 525.833 361.491 525.833 374.832C525.833 388.182 518.387 400.567 506.411 407.149C495.632 413.1 491.705 426.646 497.637 437.425C503.607 448.25 517.18 452.093 527.913 446.198C554.121 431.761 570.406 404.42 570.406 374.822C570.406 345.225 554.121 317.893 527.903 303.465Z" fill="#0082C9"/>
</svg>
