<svg xmlns="http://www.w3.org/2000/svg" width="1000" height="1000" viewBox="0 0 1000 1000"><path class="st1" d="M843.77886 524.88744 880.276 501.83162 843.77886 478.86523c-17.00235-10.68208-30.88888-21.80904-41.21473-33.11451-9.88096-10.68206-18.15968-24.12333-24.65806-39.87966-6.85421-16.37895-11.75036-36.49708-14.5986-59.64157-3.0279-24.47957-4.53992-53.85527-4.53992-87.23694 0-34.8058-0.71245-60.79853-2.2264-79.49216-1.69206-21.72037-5.51915-37.92159-11.4832-49.49384-7.29949-14.06465-18.07062-23.94561-31.95715-29.46476-9.97002-3.916526-23.50072-6.854208-41.21512-8.81267-6.23121-0.89056-11.12736-3.740352-15.84501-9.524735-4.89614-5.964035-7.38854-15.311043-7.38854-27.862527 0-18.248344 3.82941-36.0518 49.84968-36.0518 28.30741 0 53.23225 5.607817 74.1515 16.735171 20.6517 10.949237 36.40803 26.171235 48.33612 46.556149 11.92847 20.384922 18.07062 44.241472 18.33779 71.035712 2.84979 158.1836 5.78593 189.8736 8.18966 199.93266 6.76518 28.04064 17.0019 49.40478 31.156 65.16073 12.72932 14.15371 28.21841 26.79424 46.02186 37.47631 12.90734 7.74439 22.25434 15.13294 27.95127 21.98715 1.603 1.87017 5.16331 8.10062 5.16331 24.65768 0 17.09139-5.34106 27.95158-17.35854 35.34012-26.97238 16.55706-46.37811 31.067-59.19637 44.33053-14.4209 14.86578-24.56869 33.47034-30.17683 55.19072-4.98481 19.40568-7.92251 46.73387-8.81267 83.40907-0.89056 34.44996-1.87018 77.53409-2.93885 129.25317-0.89056 41.92717-13.61976 74.24056-38.81139 98.89824-25.28105 24.65767-58.66273 36.67519-101.92497 36.67519-18.15968 0-31.60095-3.47319-39.79061-10.23717-6.8546-5.69688-10.05907-14.24277-10.05907-26.8833 0-8.01156 1.33584-14.95483 4.09464-21.2751 2.40451-5.43008 5.16331-9.43567 8.36779-11.92808 3.0279-2.31546 6.40931-3.6513 10.68206-4.18408 18.42647-2.49357 32.22434-5.60782 42.37208-9.70285 14.1541-5.78592 25.28106-16.82422 32.13527-31.86811 5.51915-11.92808 8.90173-27.86252 10.41529-48.42517 1.33584-17.89251 1.95924-43.08451 1.95924-76.82202 0.71244-47.26822 3.38412-84.3883 8.1006-110.38143 4.1837-23.58977 12.19526-43.88564 23.67845-60.44269 11.57224-16.82423 29.46475-32.9364 53.23226-47.89122zm-680.5 125.78114c2.49357 10.05907 5.34104 41.74907 8.18967 199.93305 0.27104 26.79424 6.49798 50.65079 18.33741 71.03571 11.83941 20.38492 27.68441 35.60691 48.33649 46.55615 20.91887 11.12697 45.84371 16.73517 74.15151 16.73517 46.02182 0 49.84968-17.80346 49.84968-36.05219 0-12.55148-2.49357-21.98716-7.38855-27.86213-4.71803-5.69727-9.61379-8.63495-15.845-9.52512-17.7144-1.95924-31.24511-4.89576-41.12606-8.81268-13.88692-5.51915-24.65767-15.40011-31.95716-29.46476-5.96443-11.57224-9.79191-27.68441-11.4832-49.49345-1.51395-18.78268-2.2264-44.7758-2.2264-79.49255 0-33.38128-1.51395-62.75698-4.53992-87.23693-2.93885-23.1445-7.83344-43.17319-14.68765-59.55253-6.49838-15.75594-14.7771-29.19758-24.65806-39.87966-10.4149-11.30508-24.21239-22.43243-41.21473-33.1145l-36.49708-22.96638 36.49708-23.05544c23.67844-14.95482 41.57095-31.06699 53.32132-47.89122 11.48318-16.55744 19.49474-36.85331 23.67843-60.44309 4.71803-25.99273 7.38856-63.20226 8.10061-110.38142 0-33.73751 0.62339-58.84007 1.95923-76.82164 1.51395-20.65209 4.89576-36.49708 10.41491-48.42556 6.85461-15.04387 17.98157-26.08218 32.04623-31.8681 10.05907-4.09464 23.9456-7.299501 42.37245-9.702847 4.27275-0.534336 7.65534-1.870176 10.68207-4.183696 3.20602-2.493568 6.05311-6.498382 8.3674-11.928477 2.84979-6.409315 4.18408-13.352592 4.18408-21.364145 0-12.640529-3.20602-21.186033-10.05907-26.883294-8.27872-6.765158-21.63132-10.236793-39.87967-10.236793-43.35168 0-76.73296 12.017139-101.92497 36.675192-25.19201 24.657677-37.92121 56.97067-38.81138 98.89785-1.06867 51.71908-2.04829 94.8036-2.93885 129.25317-0.97962 36.6752-3.82941 64.00339-8.81267 83.40908-5.60821 21.72036-15.75594 40.32494-30.17682 55.19071-12.9077 13.26392-32.31339 27.77347-59.285742 44.33092-12.017139 7.38816-17.358176 18.24835-17.358176 35.33974 0 16.64611 3.651296 22.78827 5.162925 24.65767 5.697261 6.76555 15.043878 14.15371 27.951586 21.98754 17.803457 10.68207 33.292227 23.32222 46.021807 37.47593 14.24277 15.84539 24.3909 37.12048 31.24511 65.16072z" style="stroke-width:11;stroke:#000"/></svg>