<svg viewBox="0 0 32 32" xmlns="http://www.w3.org/2000/svg" fill-rule="evenodd" clip-rule="evenodd" stroke-linejoin="round" stroke-miterlimit="1.414"><path d="M16.097 2.686c-7.64 0-13.834 6.194-13.834 13.835 0 6.113 3.964 11.298 9.462 13.128.692.127.944-.301.944-.667 0-.328-.012-1.199-.019-2.353-3.848.836-4.66-1.855-4.66-1.855-.629-1.598-1.536-2.023-1.536-2.023-1.256-.859.095-.842.095-.842 1.388.099 2.119 1.426 2.119 1.426 1.234 2.114 3.238 1.504 4.027 1.15.125-.894.482-1.504.878-1.85-3.072-.349-6.302-1.536-6.302-6.838 0-1.51.539-2.745 1.424-3.712-.143-.35-.617-1.756.135-3.661 0 0 1.162-.372 3.805 1.418a13.228 13.228 0 0 1 3.464-.465c1.174.005 2.358.158 3.463.465 2.642-1.79 3.801-1.418 3.801-1.418.755 1.905.28 3.311.137 3.661.887.967 1.423 2.202 1.423 3.712 0 5.316-3.235 6.485-6.317 6.827.497.428.939 1.272.939 2.563 0 1.849-.017 3.341-.017 3.795 0 .37.249.8.951.665 5.494-1.833 9.454-7.015 9.454-13.126 0-7.641-6.195-13.835-13.836-13.835" fill="#696969"/></svg>