<?xml version="1.0" encoding="UTF-8" standalone="no"?>
<!-- Generator: Adobe Illustrator 21.0.2, SVG Export Plug-In . SVG Version: 6.00 Build 0)  -->

<svg
   xmlns:dc="http://purl.org/dc/elements/1.1/"
   xmlns:cc="http://creativecommons.org/ns#"
   xmlns:rdf="http://www.w3.org/1999/02/22-rdf-syntax-ns#"
   xmlns:svg="http://www.w3.org/2000/svg"
   xmlns="http://www.w3.org/2000/svg"
   xmlns:sodipodi="http://sodipodi.sourceforge.net/DTD/sodipodi-0.dtd"
   xmlns:inkscape="http://www.inkscape.org/namespaces/inkscape"
   version="1.1"
   x="0px"
   y="0px"
   viewBox="0 0 35 35"
   xml:space="preserve"
   id="svg2"
   inkscape:version="0.91 r13725"
   sodipodi:docname="loader.svg"
   width="35"
   height="35"><metadata
     id="metadata17"><rdf:RDF><cc:Work
         rdf:about=""><dc:format>image/svg+xml</dc:format><dc:type
           rdf:resource="http://purl.org/dc/dcmitype/StillImage" /><dc:title></dc:title></cc:Work></rdf:RDF></metadata><defs
     id="defs15" /><sodipodi:namedview
     pagecolor="#ff5cff"
     bordercolor="#666666"
     borderopacity="1"
     objecttolerance="10"
     gridtolerance="10"
     guidetolerance="10"
     inkscape:pageopacity="0"
     inkscape:pageshadow="2"
     inkscape:window-width="1050"
     inkscape:window-height="734"
     id="namedview13"
     showgrid="false"
     inkscape:zoom="5.6568543"
     inkscape:cx="12.764749"
     inkscape:cy="7.5762217"
     inkscape:window-x="0"
     inkscape:window-y="0"
     inkscape:window-maximized="0"
     inkscape:current-layer="iconFg" /><style
     type="text/css"
     id="style4">
	.icon_x002D_canvas_x002D_transparent{opacity:0;fill:#F6F6F6;}
	.st0{fill:#AA278F;}
	.st1{fill:#FFFFFF;}
</style><g
     id="canvas"
     transform="translate(0,19)"><path
       class="icon_x002D_canvas_x002D_transparent"
       d="m -68,16 -16,0 0,-16 16,0 0,16 z m 16,20 -32,0 0,32 32,0 0,-32 z m 16,100 -48,0 0,-48 48,0 0,48 z m 16,84 -64,0 0,-64 64,0 0,64 z M 32,68 0,68 0,36 32,36 32,68 Z M 16,0 0,0 0,16 16,16 16,0 Z m 32,88 -48,0 0,48 48,0 0,-48 z m 16,68 -64,0 0,64 64,0 0,-64 z"
       id="path7"
       inkscape:connector-curvature="0"
       style="opacity:0;fill:#f6f6f6" /></g><g
     id="iconBg"
     transform="translate(0,19)" /><g
     id="iconFg"
     transform="translate(0,19)"><path
       class="st1"
       d="m 30.434382,-0.59169964 0.94259,-0.59544096 -0.94259,-0.593142 c -0.439109,-0.27588 -0.797753,-0.563255 -1.064437,-0.855228 -0.255189,-0.27588 -0.468996,-0.623029 -0.636823,-1.029952 -0.177023,-0.423016 -0.303468,-0.94259 -0.377036,-1.54033 -0.07817,-0.632225 -0.117249,-1.390895 -0.117249,-2.25302 0,-0.898909 -0.01839,-1.570217 -0.05748,-2.053007 -0.04368,-0.5609554 -0.142538,-0.9793744 -0.296571,-1.2782434 -0.188518,-0.363242 -0.466697,-0.618431 -0.825341,-0.760969 -0.257488,-0.101156 -0.606936,-0.177023 -1.064437,-0.227601 -0.16093,-0.02299 -0.287375,-0.09656 -0.409222,-0.245993 -0.126445,-0.154033 -0.190817,-0.395428 -0.190817,-0.719587 0,-0.471295 0.09886,-0.931095 1.28744,-0.931095 0.731082,0 1.374802,0.144837 1.915067,0.432212 0.533368,0.282777 0.940291,0.675906 1.248357,1.202377 0.308066,0.526471 0.466697,1.142603 0.473594,1.834602 0.07357,4.0853224 0.149435,4.9037664 0.211508,5.1635534 0.174724,0.724185 0.439109,1.275945 0.80465,1.682868 0.328757,0.365541 0.728783,0.691999 1.188583,0.967879 0.333355,0.200013 0.57475,0.39083 0.721886,0.567853 0.04138,0.048279 0.133342,0.209209 0.133342,0.636823 0,0.44140796 -0.13794,0.72188596 -0.448305,0.91270296 -0.696597,0.427614 -1.197779,0.802351 -1.528835,1.144902 C 31.029823,1.2543974 30.767737,1.7348884 30.6229,2.2958444 c -0.128744,0.501182 -0.204611,1.206975 -0.227601,2.154163 -0.02299,0.889713 -0.04828,2.002429 -0.07587,3.338148 -0.02299,1.082829 -0.351747,1.9173661 -1.002364,2.5541886 -0.652916,0.636823 -1.515041,0.947188 -2.632355,0.947188 -0.468996,0 -0.816145,-0.08966 -1.027653,-0.264385 -0.177023,-0.147136 -0.259787,-0.36784 -0.259787,-0.694298 0,-0.20691 0.03449,-0.3862315 0.105754,-0.5494605 0.06207,-0.140239 0.133342,-0.243694 0.216106,-0.308066 0.07817,-0.059774 0.165528,-0.094259 0.27588,-0.1080531 0.475893,-0.064372 0.832238,-0.144837 1.094324,-0.250591 0.365541,-0.149435 0.652916,-0.434511 0.829939,-0.823042 0.142538,-0.308066 0.2299,-0.719587 0.268983,-1.250656 0.03449,-0.462099 0.05058,-1.112716 0.05058,-1.984037 0.01839,-1.220769 0.08736,-2.179452 0.209209,-2.85076 0.108053,-0.609235 0.314963,-1.1334071 0.611534,-1.56102104 0.29887,-0.434511 0.760969,-0.85063 1.374802,-1.236862 z m -19.102391,7.49474004 12.021471,0 c 0.475893,0 0.862125,-0.386232 0.862125,-0.864424 l 0,-4.264645 c -0.154033,-0.517275 -0.595441,-0.565554 -1.009261,-0.172425 -0.03678,0 -0.450604,0.508079 -1.40239,0.508079 -1.135706,-0.034485 -2.062203,-0.87362 -2.234628,-1.97024304 l -0.0115,0 c -0.0092,-0.080465 -0.0092,-0.524172 0,-0.604637 l 0.0115,0 c 0.172425,-1.09432396 1.098922,-1.93575796 2.234628,-1.97024296 0.951786,0 1.363307,0.508079 1.40239,0.508079 0.402325,0.381634 0.848331,0.289674 1.009261,-0.167827 l 0.0023,-3.945084 c 0,-0.400026 -0.27588,-0.756371 -0.646019,-0.852929 -0.06897,0.018392 -3.745071,0 -3.745071,0 -0.905806,0.073568 -1.223068,-0.535667 -0.719587,-1.066736 0,-0.036784 0.508079,-0.450604 0.508079,-1.40239 -0.03449,-1.1357054 -0.875919,-2.0622024 -1.970243,-2.2346274 l 0,-0.0115 c -0.08047,-0.0092 -0.524172,-0.0092 -0.604637,0 l 0,0.0115 c -1.094324,0.172425 -1.935758,1.098922 -1.972542,2.2346274 0,0.951786 0.508079,1.363307 0.508079,1.40239 0.50578,0.531069 0.294272,1.115015 -0.714989,1.066736 0,0 -3.676101,0.018392 -3.745071,0 -0.372438,0.096558 -0.648318,0.450604 -0.648318,0.852929 l 0,12.078946 c 0,0.475893 0.386232,0.864424 0.864424,0.864424 z M 4.2096888,2.6567874 c 0.064372,0.259787 0.13794,1.078231 0.211508,5.163554 0.0069,0.691999 0.167827,1.308131 0.473594,1.8346021 0.305767,0.5264705 0.714989,0.9195995 1.248357,1.2023765 0.540265,0.287375 1.183985,0.432212 1.915067,0.432212 1.1885832,0 1.2874402,-0.4598 1.2874402,-0.931095 0,-0.324159 -0.064372,-0.5678525 -0.190817,-0.7195865 C 9.032991,9.4917145 8.906546,9.4158474 8.7456158,9.3928574 c -0.457501,-0.050578 -0.806949,-0.126445 -1.062138,-0.227601 -0.358644,-0.142538 -0.636823,-0.397727 -0.825341,-0.760969 -0.154033,-0.29887 -0.25289,-0.714989 -0.296571,-1.278244 -0.039083,-0.485089 -0.057475,-1.156397 -0.057475,-2.053007 0,-0.862125 -0.039083,-1.620795 -0.117249,-2.25302 -0.075867,-0.59774 -0.202312,-1.115015 -0.379335,-1.538031 -0.167827,-0.40692304 -0.381634,-0.75407204 -0.636823,-1.02995204 -0.268983,-0.291973 -0.625328,-0.579348 -1.064437,-0.855228 l -0.94259,-0.59314196 0.94259,-0.595441 c 0.611534,-0.386232 1.073633,-0.802351 1.377101,-1.236862 0.296571,-0.427614 0.503481,-0.951786 0.611534,-1.561021 0.121847,-0.671308 0.190817,-1.63229 0.209209,-2.85076 0,-0.871321 0.016093,-1.519639 0.050578,-1.984037 0.039083,-0.5333679 0.126445,-0.9425894 0.268983,-1.2506564 0.177023,-0.38853 0.464398,-0.673607 0.82764,-0.823041 0.259787,-0.105754 0.618431,-0.188519 1.094324,-0.250591 0.110352,-0.01379 0.1977142,-0.04828 0.2758802,-0.108053 0.082764,-0.06437 0.156332,-0.167828 0.216106,-0.308066 0.073568,-0.165529 0.108053,-0.34485 0.108053,-0.55176 0,-0.326459 -0.082764,-0.547162 -0.259787,-0.694299 -0.2138072,-0.174724 -0.5586572,-0.264385 -1.0299522,-0.264385 -1.119613,0 -1.981738,0.310366 -2.632355,0.947189 -0.650617,0.636822 -0.979374,1.471359 -1.002364,2.554188 -0.027588,1.3357194 -0.052877,2.4484354 -0.075867,3.3381484 -0.025289,0.947188 -0.098857,1.652981 -0.227601,2.154163 -0.144837,0.560956 -0.406923,1.041447 -0.779361,1.42538 -0.333355,0.342551 -0.834537,0.717288 -1.531134,1.144902 -0.310365,0.190817 -0.448305,0.471295 -0.448305,0.912703 0,0.42991296 0.094259,0.58854396 0.133342,0.63682296 0.147136,0.174724 0.388531,0.365541 0.721886,0.567853 0.4598,0.27588 0.859826,0.602338 1.188583,0.96787895 0.36784,0.40922209 0.629926,0.95868309 0.806949,1.68286809 z"
       id="path11"
       inkscape:connector-curvature="0"
       style="fill:#ffffff"
       sodipodi:nodetypes="ccccccscccccsscscccscsccccccscsccccccccccssscccccccccccccccccccccccsssccscsscccccscccccccccccccccscsscccccscccc" /></g></svg>