<?xml version="1.0" encoding="UTF-8" standalone="no"?>
<!-- Generator: Adobe Illustrator 21.0.2, SVG Export Plug-In . SVG Version: 6.00 Build 0)  -->

<svg
   xmlns:dc="http://purl.org/dc/elements/1.1/"
   xmlns:cc="http://creativecommons.org/ns#"
   xmlns:rdf="http://www.w3.org/1999/02/22-rdf-syntax-ns#"
   xmlns:svg="http://www.w3.org/2000/svg"
   xmlns="http://www.w3.org/2000/svg"
   xmlns:sodipodi="http://sodipodi.sourceforge.net/DTD/sodipodi-0.dtd"
   xmlns:inkscape="http://www.inkscape.org/namespaces/inkscape"
   version="1.1"
   x="0px"
   y="0px"
   viewBox="0 0 32 32"
   style="enable-background:new 0 0 32 32;"
   xml:space="preserve"
   id="svg2"
   inkscape:version="0.91 r13725"
   sodipodi:docname="avatar.svg"><metadata
     id="metadata19"><rdf:RDF><cc:Work
         rdf:about=""><dc:format>image/svg+xml</dc:format><dc:type
           rdf:resource="http://purl.org/dc/dcmitype/StillImage" /><dc:title></dc:title></cc:Work></rdf:RDF></metadata><defs
     id="defs17" /><sodipodi:namedview
     pagecolor="#ffffff"
     bordercolor="#666666"
     borderopacity="1"
     objecttolerance="10"
     gridtolerance="10"
     guidetolerance="10"
     inkscape:pageopacity="0"
     inkscape:pageshadow="2"
     inkscape:window-width="997"
     inkscape:window-height="661"
     id="namedview15"
     showgrid="false"
     inkscape:zoom="5.2149125"
     inkscape:cx="16"
     inkscape:cy="16"
     inkscape:window-x="0"
     inkscape:window-y="0"
     inkscape:window-maximized="0"
     inkscape:current-layer="svg2" /><style
     type="text/css"
     id="style4">
	.icon_x002D_canvas_x002D_transparent{opacity:0;fill:#F6F6F6;}
	.st0{fill:#AA278F;}
	.st1{fill:#FFFFFF;}
</style><g
     id="canvas"><path
       class="icon_x002D_canvas_x002D_transparent"
       d="M16-20H0v-16h16V-20z M32,0H0v32h32V0z M48,100H0V52h48V100z M64,184H0v-64   h64V184z M116,32H84V0h32V32z M100-36H84v16h16V-36z M132,52H84v48h48V52z M148,120H84v64h64V120z"
       id="path7" /></g><g
     id="iconBg"><path
       class="st0"
       d="m 32,15.994 0,-0.005 0,-0.006 c 0,-0.108 -0.005,-0.209 -0.016,-0.303 l -0.001,0 C 31.951,15.395 31.871,15.176 31.744,15.024 31.573,14.82 31.285,14.589 30.88,14.333 30.474,14.077 30.145,13.801 29.894,13.506 29.642,13.21 29.452,12.772 29.324,12.19 29.275,11.963 29.237,11.471 29.212,10.717 l 0,-2.021 c 0,-0.38 -0.031,-0.723 -0.076,-1.049 C 29.135,7.584 29.134,7.524 29.132,7.459 29.123,6.677 28.952,5.984 28.619,5.381 28.286,4.777 27.814,4.31 27.203,3.98 26.592,3.65 25.898,3.485 25.122,3.485 l -18.846,0 -0.005,0 c 0,0 -0.674,0.067 -0.962,0.201 C 5.125,3.771 4.954,3.872 4.788,3.981 4.496,4.14 4.229,4.334 3.99,4.571 3.297,5.259 2.929,6.172 2.877,7.305 2.821,7.703 2.789,8.128 2.789,8.588 l 0,2.558 c -0.019,0.495 -0.079,0.953 -0.183,1.373 -0.104,0.419 -0.282,0.762 -0.532,1.033 -0.071,0.062 -0.138,0.127 -0.202,0.196 -0.265,0.238 -0.638,0.511 -1.13,0.823 -0.404,0.262 -0.64,0.633 -0.715,1.108 l 0,0 C 0.026,15.686 0.026,15.694 0.025,15.702 0.012,15.794 0.003,15.889 0.002,15.989 0.001,15.995 0,16 0,16.006 l 0,0.005 0,0.006 c 0,0.108 0.005,0.209 0.016,0.303 l 0.001,0 c 0.032,0.285 0.112,0.504 0.239,0.656 0.171,0.204 0.459,0.435 0.864,0.691 0.406,0.256 0.735,0.532 0.986,0.827 0.252,0.296 0.442,0.734 0.57,1.316 0.049,0.227 0.087,0.719 0.112,1.473 l 0,2.019 c 0,0.38 0.031,0.723 0.076,1.049 0.001,0.063 0.002,0.123 0.004,0.188 0.009,0.782 0.18,1.475 0.513,2.078 0.333,0.604 0.805,1.071 1.416,1.401 0.611,0.33 1.305,0.495 2.081,0.495 l 18.852,0 c 0.35,0 0.673,-0.067 0.961,-0.201 0.184,-0.085 0.356,-0.187 0.521,-0.296 0.291,-0.159 0.559,-0.353 0.798,-0.59 0.693,-0.688 1.061,-1.601 1.113,-2.734 0.056,-0.398 0.088,-0.823 0.088,-1.283 l 0,-2.558 c 0.019,-0.495 0.079,-0.953 0.183,-1.373 0.104,-0.419 0.282,-0.762 0.532,-1.033 0.071,-0.062 0.138,-0.127 0.202,-0.196 0.265,-0.238 0.638,-0.511 1.13,-0.823 0.404,-0.262 0.64,-0.633 0.715,-1.108 l 0.002,0 c 10e-4,-0.007 10e-4,-0.015 0.002,-0.023 C 31.99,16.203 31.999,16.108 32,16.008 31.999,16.005 32,16 32,15.994 Z"
       id="path10"
       inkscape:connector-curvature="0"
       style="fill:#aa278f"
       sodipodi:nodetypes="scscccccccscccssccccccscccccccccscscccccccscccsssccccscccccccccs" /></g><g
     id="iconFg"><path
       class="st1"
       d="m 27.366,16.522 0.819,-0.518 -0.821,-0.516 c -0.382,-0.24 -0.693,-0.49 -0.927,-0.744 -0.221,-0.241 -0.408,-0.543 -0.554,-0.896 -0.153,-0.368 -0.264,-0.819 -0.328,-1.339 -0.068,-0.551 -0.103,-1.21 -0.103,-1.961 0,-0.781 -0.016,-1.365 -0.05,-1.786 C 25.363,8.273 25.279,7.91 25.144,7.65 24.98,7.335 24.738,7.112 24.426,6.989 24.203,6.9 23.899,6.835 23.502,6.79 23.361,6.771 23.251,6.705 23.146,6.577 23.036,6.444 22.981,6.233 22.981,5.95 c 0,-0.41 0.086,-0.811 1.121,-0.811 0.636,0 1.196,0.127 1.666,0.376 0.464,0.247 0.818,0.589 1.085,1.046 0.267,0.458 0.406,0.995 0.413,1.597 0.064,3.554 0.129,4.265 0.184,4.492 0.153,0.63 0.382,1.109 0.701,1.464 0.287,0.319 0.635,0.602 1.035,0.843 0.29,0.175 0.501,0.341 0.627,0.493 0.035,0.043 0.116,0.181 0.116,0.554 0,0.383 -0.12,0.628 -0.39,0.794 -0.606,0.373 -1.041,0.699 -1.331,0.997 -0.324,0.334 -0.552,0.752 -0.678,1.24 -0.112,0.437 -0.177,1.05 -0.198,1.875 -0.02,0.773 -0.042,1.741 -0.066,2.904 -0.021,0.941 -0.306,1.668 -0.873,2.222 -0.568,0.554 -1.317,0.823 -2.291,0.823 -0.409,0 -0.71,-0.077 -0.895,-0.23 -0.155,-0.128 -0.226,-0.32 -0.226,-0.604 0,-0.179 0.03,-0.336 0.093,-0.479 0.053,-0.122 0.117,-0.212 0.188,-0.268 0.068,-0.053 0.143,-0.082 0.24,-0.094 0.414,-0.055 0.725,-0.127 0.951,-0.219 0.317,-0.131 0.567,-0.378 0.723,-0.716 0.124,-0.269 0.2,-0.625 0.233,-1.089 0.029,-0.402 0.044,-0.968 0.044,-1.725 0.016,-1.061 0.077,-1.896 0.182,-2.481 0.095,-0.53 0.274,-0.987 0.533,-1.359 0.261,-0.375 0.665,-0.736 1.198,-1.073 z m -16.618,6.519 10.458,0 c 0.415,0 0.751,-0.336 0.751,-0.751 l -0.001,-3.709 c -0.134,-0.449 -0.518,-0.492 -0.878,-0.15 -0.033,0 -0.393,0.443 -1.22,0.443 -0.988,-0.031 -1.794,-0.763 -1.944,-1.715 l -0.011,0 c -0.007,-0.07 -0.007,-0.456 0,-0.526 l 0.011,0 c 0.15,-0.953 0.956,-1.685 1.944,-1.715 0.827,0 1.187,0.443 1.22,0.443 0.35,0.332 0.738,0.252 0.879,-0.147 l 10e-4,-3.432 c 0,-0.349 -0.239,-0.657 -0.562,-0.741 -0.061,0.016 -3.259,0 -3.259,0 -0.786,0.065 -1.063,-0.466 -0.624,-0.928 0,-0.033 0.443,-0.393 0.443,-1.22 C 17.925,7.905 17.193,7.099 16.241,6.949 l 0,-0.011 c -0.07,-0.007 -0.456,-0.007 -0.526,0 l 0,0.011 C 14.762,7.099 14.03,7.905 14,8.893 c 0,0.827 0.443,1.187 0.443,1.22 0.439,0.462 0.254,0.97 -0.624,0.928 0,0 -3.198,0.016 -3.259,0 -0.323,0.084 -0.562,0.393 -0.562,0.741 l 0,10.508 c -10e-4,0.415 0.335,0.751 0.75,0.751 z M 4.551,19.349 c 0.055,0.227 0.12,0.938 0.184,4.492 0.007,0.602 0.146,1.138 0.413,1.597 0.267,0.458 0.622,0.8 1.085,1.046 0.47,0.25 1.03,0.376 1.666,0.376 1.035,0 1.121,-0.4 1.121,-0.811 0,-0.283 -0.056,-0.493 -0.165,-0.627 C 8.749,25.294 8.639,25.228 8.499,25.209 8.102,25.164 7.798,25.099 7.574,25.01 7.262,24.886 7.021,24.664 6.856,24.349 6.721,24.09 6.637,23.726 6.598,23.237 6.565,22.816 6.548,22.232 6.548,21.451 6.548,20.7 6.513,20.041 6.445,19.49 6.38,18.97 6.27,18.52 6.116,18.151 5.969,17.797 5.783,17.495 5.562,17.255 5.329,17.001 5.017,16.751 4.635,16.511 L 3.814,15.995 4.633,15.477 C 5.166,15.14 5.569,14.779 5.832,14.402 6.091,14.03 6.27,13.573 6.365,13.043 6.47,12.458 6.531,11.624 6.547,10.562 6.547,9.805 6.561,9.239 6.591,8.837 6.624,8.373 6.7,8.017 6.824,7.748 6.98,7.411 7.23,7.164 7.547,7.033 7.773,6.941 8.084,6.87 8.498,6.814 8.595,6.802 8.67,6.773 8.738,6.72 8.81,6.665 8.874,6.575 8.927,6.453 8.989,6.31 9.02,6.154 9.02,5.974 9.02,5.69 8.948,5.498 8.794,5.37 8.608,5.217 8.307,5.14 7.899,5.14 6.925,5.14 6.176,5.409 5.608,5.963 5.041,6.517 4.756,7.244 4.735,8.185 4.711,9.348 4.69,10.316 4.67,11.089 c -0.021,0.825 -0.086,1.438 -0.198,1.875 -0.126,0.488 -0.354,0.905 -0.679,1.24 -0.289,0.298 -0.725,0.624 -1.331,0.997 -0.27,0.166 -0.39,0.41 -0.39,0.794 0,0.373 0.081,0.511 0.116,0.554 0.127,0.153 0.338,0.319 0.627,0.493 0.4,0.24 0.748,0.524 1.035,0.843 0.319,0.355 0.548,0.834 0.701,1.464 z"
       id="path13"
       inkscape:connector-curvature="0"
       style="fill:#ffffff"
       sodipodi:nodetypes="ccccccscccccsscccccccsccccccscsccccccccccssccccccccccccccccccccccccscsccccsscccccscccccccccccccccscsccccccscccc" /></g></svg>