<?xml version="1.0" encoding="UTF-8" standalone="no"?>
<!-- Generator: Adobe Illustrator 21.0.2, SVG Export Plug-In . SVG Version: 6.00 Build 0)  -->

<svg
   xmlns:dc="http://purl.org/dc/elements/1.1/"
   xmlns:cc="http://creativecommons.org/ns#"
   xmlns:rdf="http://www.w3.org/1999/02/22-rdf-syntax-ns#"
   xmlns:svg="http://www.w3.org/2000/svg"
   xmlns="http://www.w3.org/2000/svg"
   xmlns:sodipodi="http://sodipodi.sourceforge.net/DTD/sodipodi-0.dtd"
   xmlns:inkscape="http://www.inkscape.org/namespaces/inkscape"
   version="1.1"
   x="0px"
   y="0px"
   viewBox="0 0 32 32"
   style="enable-background:new 0 0 32 32;"
   xml:space="preserve"
   id="svg2"
   inkscape:version="0.91 r13725"
   sodipodi:docname="logo-inverted.svg"
   shape-rendering="crispEdges"
   inkscape:export-filename="/Users/sam/pxt/docs/static/mixer/social-thumb.png"
   inkscape:export-xdpi="998.57275"
   inkscape:export-ydpi="998.57275"><metadata
     id="metadata19"><rdf:RDF><cc:Work
         rdf:about=""><dc:format>image/svg+xml</dc:format><dc:type
           rdf:resource="http://purl.org/dc/dcmitype/StillImage" /><dc:title></dc:title></cc:Work></rdf:RDF></metadata><defs
     id="defs17" /><sodipodi:namedview
     pagecolor="#aa278f"
     bordercolor="#666666"
     borderopacity="1"
     objecttolerance="10"
     gridtolerance="10"
     guidetolerance="10"
     inkscape:pageopacity="1"
     inkscape:pageshadow="2"
     inkscape:window-width="1456"
     inkscape:window-height="1139"
     id="namedview15"
     showgrid="false"
     inkscape:zoom="14.75"
     inkscape:cx="20.529189"
     inkscape:cy="14.591808"
     inkscape:window-x="0"
     inkscape:window-y="0"
     inkscape:window-maximized="0"
     inkscape:current-layer="iconFg" /><style
     type="text/css"
     id="style4">
	.icon_x002D_canvas_x002D_transparent{opacity:0;fill:#F6F6F6;}
	.st0{fill:#AA278F;}
	.st1{fill:#FFFFFF;}
</style><g
     transform="matrix(1.690678,0,0,2.0456086,-11.050848,-16.185319)"
     id="iconBg" /><g
     transform="translate(-4.1344657e-7,0.5433727)"
     id="iconFg"><path
       class="st1"
       d="m 22.638105,16.313251 0.478307,-0.311049 -0.479475,-0.309848 c -0.223093,-0.144115 -0.404722,-0.294235 -0.541381,-0.446757 -0.129066,-0.144716 -0.238277,-0.326061 -0.323543,-0.538031 -0.08935,-0.220976 -0.15418,-0.491793 -0.191557,-0.804043 -0.03971,-0.330864 -0.06016,-0.726581 -0.06016,-1.177542 0,-0.468975 -0.0093,-0.819656 -0.0292,-1.072457 -0.02277,-0.293635 -0.07184,-0.51161 -0.150675,-0.667735 -0.09578,-0.189151 -0.23711,-0.323058 -0.419321,-0.396917 -0.130236,-0.05344 -0.307776,-0.09247 -0.539629,-0.119496 -0.08235,-0.01141 -0.146587,-0.05104 -0.207909,-0.127902 -0.06424,-0.07986 -0.09636,-0.206565 -0.09636,-0.3765013 0,-0.246197 0.05023,-0.4869897 0.654679,-0.4869897 0.371432,0 0.69848,0.076261 0.972967,0.2257807 0.270982,0.1483186 0.477722,0.3536833 0.633654,0.6281023 0.155931,0.27502 0.237109,0.597478 0.241197,0.958967 0.03738,2.134108 0.07534,2.561049 0.107459,2.697358 0.08935,0.378302 0.223093,0.665932 0.409394,0.879103 0.167611,0.191553 0.370848,0.361489 0.604454,0.506205 0.169363,0.105084 0.292591,0.204764 0.366176,0.296037 0.02044,0.02582 0.06774,0.108687 0.06774,0.332666 0,0.229984 -0.07008,0.377102 -0.227765,0.476781 -0.353912,0.22398 -0.607958,0.419736 -0.777322,0.598679 -0.189221,0.200561 -0.322375,0.451561 -0.395961,0.744596 -0.06541,0.26241 -0.103371,0.630504 -0.115635,1.125901 -0.01168,0.464171 -0.02453,1.045436 -0.03854,1.743794 -0.01226,0.565053 -0.178707,1.001602 -0.509843,1.334268 -0.33172,0.332666 -0.769146,0.494196 -1.337975,0.494196 -0.238862,0 -0.414649,-0.04624 -0.522692,-0.138111 -0.09052,-0.07686 -0.131987,-0.192154 -0.131987,-0.36269 0,-0.107486 0.01752,-0.201761 0.05431,-0.287631 0.03096,-0.07326 0.06833,-0.127301 0.109794,-0.160928 0.03971,-0.03183 0.08352,-0.04924 0.140164,-0.05645 0.241781,-0.03302 0.423409,-0.07626 0.555396,-0.131505 0.185133,-0.07866 0.331136,-0.226982 0.422243,-0.429944 0.07242,-0.161529 0.116802,-0.375301 0.136074,-0.653923 0.01694,-0.241394 0.0257,-0.581265 0.0257,-1.035829 0.0093,-0.63711 0.04497,-1.13851 0.10629,-1.489791 0.05549,-0.318255 0.16002,-0.592675 0.311279,-0.816054 0.152427,-0.22518 0.388369,-0.441953 0.699648,-0.644315 z m -9.705136,3.914532 6.107613,0 c 0.242366,0 0.438594,-0.201762 0.438594,-0.450962 l -5.84e-4,-2.227181 c -0.07826,-0.269616 -0.302519,-0.295437 -0.512764,-0.09007 -0.01927,0 -0.229517,0.266012 -0.712496,0.266012 -0.577006,-0.01861 -1.04772,-0.458165 -1.135323,-1.029823 l -0.0065,0 c -0.0041,-0.04203 -0.0041,-0.273819 0,-0.315853 l 0.0065,0 c 0.0876,-0.572257 0.558317,-1.011809 1.135323,-1.029823 0.482979,0 0.693224,0.266013 0.712496,0.266013 0.204404,0.199359 0.431002,0.15132 0.513348,-0.08827 l 5.84e-4,-2.060849 c 0,-0.209567 -0.139579,-0.394515 -0.328216,-0.444956 -0.03562,0.0096 -1.903299,0 -1.903299,0 -0.459035,0.03903 -0.620807,-0.279823 -0.364425,-0.557246 0,-0.01982 0.258718,-0.235989 0.258718,-0.732586 -0.0181,-0.593274 -0.445602,-1.077261 -1.001583,-1.167333 l 0,-0.0066 c -0.04088,-0.0042 -0.26631,-0.0042 -0.307191,0 l 0,0.0066 c -0.556565,0.09007 -0.984063,0.574059 -1.001583,1.167333 0,0.496597 0.258718,0.71277 0.258718,0.732586 0.256381,0.277423 0.148339,0.582466 -0.364424,0.557246 0,0 -1.867676,0.0096 -1.903301,0 -0.188636,0.05044 -0.328215,0.235989 -0.328215,0.444956 l 0,6.309847 c -5.84e-4,0.2492 0.195645,0.450962 0.43801,0.450962 z M 9.3138375,18.010809 c 0.032121,0.136309 0.070081,0.56325 0.1074585,2.697358 0.00409,0.361489 0.085266,0.683346 0.2411975,0.958967 0.1559317,0.27502 0.3632565,0.480384 0.6336545,0.628102 0.274486,0.15012 0.601534,0.22578 0.972967,0.22578 0.604453,0 0.654678,-0.240192 0.654678,-0.486988 0,-0.169937 -0.0327,-0.296038 -0.09636,-0.376502 -0.06191,-0.07686 -0.126146,-0.116493 -0.207908,-0.127903 -0.231853,-0.02702 -0.409394,-0.06606 -0.540213,-0.119495 -0.182212,-0.07446 -0.322959,-0.207766 -0.419321,-0.396917 -0.07884,-0.155525 -0.127899,-0.3741 -0.150676,-0.667735 -0.01927,-0.252802 -0.0292,-0.603482 -0.0292,-1.072457 0,-0.450961 -0.02044,-0.846678 -0.06015,-1.177542 -0.03796,-0.31225 -0.102202,-0.582466 -0.19214,-0.804043 -0.08585,-0.21257 -0.194477,-0.393916 -0.3235439,-0.538031 C 9.7682,16.600881 9.5859878,16.450761 9.3628947,16.306645 L 8.8834196,15.996798 9.3617267,15.685749 c 0.3112791,-0.202362 0.5466366,-0.419135 0.7002323,-0.645517 0.151259,-0.223378 0.255798,-0.497797 0.311279,-0.816052 0.06132,-0.351281 0.09695,-0.852082 0.10629,-1.489792 0,-0.454563 0.0082,-0.794436 0.0257,-1.035829 0.01927,-0.278623 0.06366,-0.492393 0.136076,-0.653923 0.09111,-0.202362 0.237109,-0.35068 0.422241,-0.429343 0.131988,-0.05524 0.313615,-0.09788 0.555397,-0.131505 0.05665,-0.0072 0.10045,-0.02462 0.140163,-0.05645 0.04205,-0.03303 0.07943,-0.08707 0.110379,-0.160329 0.03621,-0.08587 0.05431,-0.179543 0.05431,-0.2876296 0,-0.1705364 -0.04205,-0.2858287 -0.131987,-0.3626901 -0.108627,-0.091874 -0.284415,-0.1381105 -0.522692,-0.1381105 -0.568829,0 -1.006255,0.1615292 -1.3379751,0.4941953 -0.3311356,0.3326659 -0.4975794,0.7692149 -0.5098437,1.3342679 -0.014016,0.698359 -0.026281,1.279623 -0.037961,1.743794 -0.012264,0.495397 -0.050225,0.863491 -0.1156346,1.125901 -0.073585,0.293035 -0.2067408,0.543435 -0.3965451,0.744596 -0.1687799,0.178943 -0.4234099,0.374699 -0.777322,0.598679 -0.1576837,0.09968 -0.2277653,0.246196 -0.2277653,0.476781 0,0.223979 0.047305,0.306846 0.067745,0.332666 0.074169,0.09187 0.1973966,0.191554 0.3661764,0.296037 0.2336054,0.144115 0.4368421,0.314652 0.6044539,0.506205 0.1863003,0.213171 0.3200394,0.500801 0.4093935,0.879103 z"
       id="path13"
       inkscape:connector-curvature="0"
       style="fill:#ffffff"
       sodipodi:nodetypes="ccccccscccccsscccccccsccccccscsccccccccccssccccccccccccccccccccccccscsccccsscccccscccccccccccccccscsccccccscccc" /></g></svg>