<svg xmlns="http://www.w3.org/2000/svg" viewBox="0 0 128 128" preserveAspectRatio="xMinYMin" width="35" height="35">
   <path fill="#ff7d00" d="M 0,0L 128,0L 128,128L 0,128L 0,0 Z"/>
   <path fill="#ffffff" d="M 51.985,58.1691C 51.985,59.6357 51.4567,60.8842 50.3998,61.9164C 49.3429,62.9477 48.0762,63.4634 46.5998,63.4634C 45.1232,63.4634 43.8713,62.9477 42.8447,61.9164C 41.8185,60.8842 41.305,59.6357 41.305,58.1691C 41.305,56.6723 41.8185,55.4001 42.8447,54.3539C 43.8713,53.307 45.1232,52.784 46.5998,52.784C 48.0762,52.784 49.3429,53.307 50.3998,54.3539C 51.4567,55.4001 51.985,56.6723 51.985,58.1691 Z M 85.7388,58.1693C 85.7388,59.6359 85.2105,60.8852 84.1536,61.9166C 83.0969,62.9487 81.8301,63.4636 80.3536,63.4636C 78.8771,63.4636 77.6252,62.9487 76.5986,61.9166C 75.5724,60.8852 75.0589,59.6359 75.0589,58.1693C 75.0589,56.6732 75.5724,55.401 76.5986,54.3549C 77.6252,53.308 78.8771,52.7841 80.3536,52.7841C 81.8301,52.7841 83.0969,53.308 84.1536,54.3549C 85.2105,55.401 85.7388,56.6732 85.7388,58.1693 Z M 35.7868,96.2088C 33.7134,96.2018 31.755,95.75 30.0008,94.9148C 25.1335,93.0967 22.6999,89.0302 22.6999,82.715L 22.6999,69.8285C 22.6999,64.0491 20.2045,61.0169 15.2137,60.7321L 15.2137,55.4396C 20.2045,55.1548 22.6999,52.0629 22.6999,46.1641L 22.6999,33.6357C 22.6999,25.9603 26.1988,21.5623 33.1965,20.4417C 34.3478,20.1696 35.5564,20.0414 36.7986,20.0749L 44.4647,20.0749L 50.7208,20.1307L 55.0306,20.1985L 56.4995,20.2541L 57.025,20.2541L 57.3948,20.3219L 57.9201,20.5008L 58.1827,20.68L 58.5421,20.9824L 59.1264,21.7108L 59.4374,23.2233L 59.4374,23.6493L 59.3302,24.1307L 58.7566,25.5198L 57.9685,27.5136L 56.3441,31.3225L 56.2851,31.5137L 56.2369,31.6251C 56.2453,31.6081 56.0141,32.7599 56.4407,33.9893C 56.8758,35.2186 57.7309,36.4649 59.1264,37.1932C 60.6856,37.9966 60.7676,38.2798 63.4848,38.1007L 63.5333,38.1007C 65.0525,38.0256 65.702,37.6845 66.0632,37.4401L 67.1141,36.4091C 67.86,35.7 68.2046,33.2246 67.8433,32.2302L 67.8433,32.1745L 65.0127,23.8838L 64.7982,23.3465L 64.7982,22.7974L 65.0127,21.7108L 65.3719,20.9824L 65.7419,20.5564L 66.0632,20.3219L 66.6854,20.0193L 67.1141,19.8959L 67.5805,19.8281L 68.6314,19.8281L 71.6764,19.8281L 74.6729,19.8959L 75.7238,19.8959L 76.0936,19.8959L 91.0665,19.8959L 94.2441,20.259C 100.977,21.4657 104.344,25.7827 104.344,33.2102L 104.344,46.0969C 104.344,51.8763 106.839,54.9084 111.83,55.1932L 111.83,60.4857C 106.839,60.7705 104.344,63.8624 104.344,69.7612L 104.344,82.2894C 104.344,89.4443 101.303,93.7511 95.2228,95.2102L 92.0735,96.0279L 72.0893,95.9722L 73.617,100.33L 73.617,100.386C 74.9137,104.035 74.2896,108.505 71.3601,111.276L 71.3012,111.331L 71.1941,111.455C 71.8604,110.944 70.8411,111.956 69.7252,112.732C 68.6262,113.487 67.0416,114.121 64.8415,114.245C 61.5421,114.443 59.6299,113.591 58.1672,112.843L 58.1188,112.788C 55.4751,111.389 53.7352,108.989 52.8653,106.491C 52.0183,104.081 51.8545,101.577 52.9135,99.2995L 52.9725,99.0528L 54.0714,96.3303L 35.7868,96.2088 Z M 50.5712,90.4492L 56.1247,90.528L 57.5936,90.5837L 58.1191,90.5837L 58.4888,90.6513L 59.0142,90.8304L 59.2769,91.0096L 59.6363,91.3119L 60.2205,92.0403L 60.5316,93.5529L 60.5316,93.9788L 60.4244,94.4603L 59.8507,95.8493L 59.0626,97.8432L 57.4381,101.652L 57.3792,101.843L 57.331,101.955C 57.3395,101.938 57.1082,103.089 57.5349,104.319C 57.9698,105.548 58.8251,106.794 60.2205,107.523C 61.7798,108.326 61.8618,108.609 64.5788,108.43L 64.6273,108.43C 66.1467,108.355 66.796,108.014 67.1574,107.77L 68.2081,106.739C 68.9542,106.03 69.2988,103.554 68.9373,102.56L 68.9373,102.504L 66.1067,94.2134L 65.8923,93.6762L 65.8923,93.1269L 66.1067,92.0403L 66.466,91.3119L 66.8359,90.886L 67.1574,90.6513L 67.7794,90.3488L 68.2081,90.2254L 68.6747,90.1577L 69.7254,90.1577L 72.7704,90.1577L 90.9482,90.2254C 92.3861,90.1718 93.6567,89.8274 94.7279,89.2805C 96.7717,87.94 97.7934,85.4766 97.7934,81.8899L 97.7934,69.1688C 97.7934,63.0954 100.103,59.365 104.724,57.9775L 104.724,57.7983C 100.103,56.5028 97.7934,52.809 97.7934,46.7172L 97.7934,34.2027C 97.7934,31.0053 97.2352,28.7197 96.1193,27.346L 95.7772,26.9707C 94.4815,26.1881 92.8576,25.6986 91.067,25.6986L 71.6284,25.643L 70.9958,25.643L 72.5236,30.0012L 72.5236,30.057C 73.8201,33.706 73.196,38.1755 70.2666,40.9464L 70.2076,41.002L 70.1006,41.1255C 70.7668,40.6149 69.7476,41.6263 68.6316,42.403C 67.5327,43.1581 65.9481,43.7921 63.7479,43.9155C 60.4486,44.1139 58.5363,43.2621 57.0737,42.5144L 57.0253,42.4587C 54.3817,41.0599 52.6418,38.6596 51.7718,36.1622C 50.9249,33.752 50.761,31.2474 51.82,28.9703L 51.8789,28.7235L 52.9779,26.0012L 50.6623,25.9456L 44.4651,25.8778L 36.6917,25.8778C 34.7627,25.8178 33.1042,26.2681 31.7849,27.0379C 30.0955,28.4421 29.2508,30.7746 29.2508,34.0356L 29.2508,46.7569C 29.2508,52.8304 26.9405,56.5608 22.32,57.9482L 22.32,58.1275C 26.9405,59.423 29.2508,63.1166 29.2508,69.2083L 29.2508,81.7229C 29.2508,84.9205 29.8088,87.2059 30.9249,88.5796L 32.2888,89.719C 33.3447,90.1529 34.5474,90.4065 35.8363,90.4065L 50.5712,90.4492 Z"/>
</svg>
