<?xml version="1.0" encoding="UTF-8" standalone="no"?>
<!-- Created with Inkscape (http://www.inkscape.org/) -->

<svg
   xmlns:dc="http://purl.org/dc/elements/1.1/"
   xmlns:cc="http://creativecommons.org/ns#"
   xmlns:rdf="http://www.w3.org/1999/02/22-rdf-syntax-ns#"
   xmlns:svg="http://www.w3.org/2000/svg"
   xmlns="http://www.w3.org/2000/svg"
   xmlns:sodipodi="http://sodipodi.sourceforge.net/DTD/sodipodi-0.dtd"
   xmlns:inkscape="http://www.inkscape.org/namespaces/inkscape"
   id="svg3753"
   version="1.1"
   inkscape:version="0.91 r13725"
   xml:space="preserve"
   width="130"
   height="50"
   viewBox="0 0 130 50"
   sodipodi:docname="chibitronics_logo_white.svg"><metadata
     id="metadata3759"><rdf:RDF><cc:Work
         rdf:about=""><dc:format>image/svg+xml</dc:format><dc:type
           rdf:resource="http://purl.org/dc/dcmitype/StillImage" /><dc:title></dc:title></cc:Work></rdf:RDF></metadata><defs
     id="defs3757"><clipPath
       clipPathUnits="userSpaceOnUse"
       id="clipPath3767"><path
         d="m 0,56.693 141.732,0 L 141.732,0 0,0 0,56.693 Z"
         id="path3769"
         inkscape:connector-curvature="0" /></clipPath></defs><sodipodi:namedview
     pagecolor="#ff557e"
     bordercolor="#666666"
     borderopacity="1"
     objecttolerance="10"
     gridtolerance="10"
     guidetolerance="10"
     inkscape:pageopacity="0"
     inkscape:pageshadow="2"
     inkscape:window-width="1469"
     inkscape:window-height="999"
     id="namedview3755"
     showgrid="false"
     inkscape:zoom="5.6568543"
     inkscape:cx="66.08403"
     inkscape:cy="44.733707"
     inkscape:window-x="0"
     inkscape:window-y="0"
     inkscape:window-maximized="0"
     inkscape:current-layer="g3765" /><g
     id="g3761"
     inkscape:groupmode="layer"
     inkscape:label="chibitronics_logo_red_R-mark"
     transform="matrix(1.25,0,0,-1.25,0,49.999968)"><g
       id="g3763"><g
         id="g3765"
         clip-path="url(#clipPath3767)"><g
           id="g3771"
           transform="translate(2.3589383,26.229604)" /><g
           id="g3775"
           transform="translate(14.905037,36.894704)"
           style="fill:#ffffff"><path
             id="path3777"
             style="fill:#ffffff;fill-opacity:1;fill-rule:nonzero;stroke:none"
             d="m 0,0 c -5.881,0 -10.665,-4.784 -10.665,-10.665 l 0,-13.237 c 0,-5.881 4.784,-10.664 10.665,-10.664 l 13.237,0 c 5.881,0 10.666,4.783 10.666,10.664 l 0,13.237 C 23.903,-4.784 19.118,0 13.237,0 L 0,0 Z m -12.5461,-10.6651 c 0,6.917 5.6290003,12.546 12.5460003,12.546 l 13.2369997,0 c 6.918,0 12.546,-5.629 12.546,-12.546 l 0,-13.237 c 0,-6.917 -5.628,-12.545 -12.546,-12.545 l -13.2369997,0 c -6.917,0 -12.5460003,5.628 -12.5460003,12.545 l 0,13.237 z"
             inkscape:connector-curvature="0" /></g><g
           id="g3779"
           transform="translate(18.875037,6.5827033)"><path
             d="m 0,0 c -1.962,0 -3.557,1.595 -3.557,3.557 l 1.874,0 c 0,-0.927 0.756,-1.685 1.683,-1.685 0.928,0 1.684,0.758 1.684,1.685 l 1.874,0 C 3.558,1.595 1.963,0 0,0"
             style="fill:#ffffff;fill-opacity:1;fill-rule:nonzero;stroke:none"
             id="path3781"
             inkscape:connector-curvature="0" /></g><g
           id="g3783"
           transform="translate(24.117237,6.5827033)"><path
             d="m 0,0 c -1.962,0 -3.558,1.595 -3.558,3.557 l 1.874,0 c 0,-0.927 0.756,-1.685 1.684,-1.685 0.929,0 1.683,0.758 1.683,1.685 l 1.876,0 C 3.559,1.595 1.963,0 0,0"
             style="fill:#ffffff;fill-opacity:1;fill-rule:nonzero;stroke:none"
             id="path3785"
             inkscape:connector-curvature="0" /></g><path
           d="m 16.715537,16.237304 -8.710999,0 0,1.872 8.710999,0 0,-1.872 z"
           style="fill:#ffffff;fill-opacity:1;fill-rule:nonzero;stroke:none"
           id="path3787"
           inkscape:connector-curvature="0" /><path
           d="m 34.987537,16.237304 -8.713,0 0,1.872 8.713,0 0,-1.872 z"
           style="fill:#ffffff;fill-opacity:1;fill-rule:nonzero;stroke:none"
           id="path3789"
           inkscape:connector-curvature="0" /><path
           d="m 13.298537,12.818304 -1.874,0 0,8.712 1.874,0 0,-8.712 z"
           style="fill:#ffffff;fill-opacity:1;fill-rule:nonzero;stroke:none"
           id="path3791"
           inkscape:connector-curvature="0" /><g
           id="g3793"
           transform="translate(55.829037,20.716504)"><path
             d="m 0,0 c 0.086,-0.07 0.13,-0.14 0.13,-0.205 0,-0.064 -0.033,-0.15 -0.098,-0.26 C -0.032,-0.573 -0.17,-0.736 -0.38,-0.952 -0.589,-1.17 -0.878,-1.414 -1.246,-1.688 -1.614,-1.963 -2.09,-2.195 -2.676,-2.381 -3.261,-2.57 -3.885,-2.664 -4.55,-2.664 c -1.516,0 -2.782,0.499 -3.802,1.494 -1.017,0.999 -1.528,2.337 -1.528,4.019 0,1.683 0.511,3.013 1.528,3.987 1.02,0.975 2.264,1.463 3.737,1.463 1.474,0 2.585,-0.535 3.335,-1.603 l 0.025,0 -0.025,1.19 c 0,0.188 0.096,0.282 0.283,0.282 l 0.824,0 C 0,8.168 0.086,8.074 0.086,7.886 l 0,-3.683 C 0.086,4.031 0,3.943 -0.173,3.943 l -0.997,0 c -0.173,0 -0.261,0.088 -0.261,0.26 l 0,0.368 C -1.445,5.092 -1.74,5.59 -2.32,6.068 -2.896,6.543 -3.629,6.782 -4.516,6.782 -5.405,6.782 -6.216,6.427 -6.954,5.72 -7.691,5.012 -8.06,4.048 -8.06,2.827 c 0,-1.219 0.36,-2.188 1.085,-2.901 0.721,-0.716 1.53,-1.072 2.425,-1.072 0.896,0 1.657,0.19 2.285,0.573 0.63,0.382 1.053,0.755 1.268,1.117 0.1,0.172 0.223,0.194 0.368,0.063 L 0,0 Z"
             style="fill:#ffffff;fill-opacity:1;fill-rule:nonzero;stroke:none"
             id="path3795"
             inkscape:connector-curvature="0" /></g><g
           id="g3797"
           transform="translate(69.087537,18.204604)"><path
             d="m 0,0 -2.06,0 c -0.621,0 -0.93,0.303 -0.93,0.911 l 0,5.697 c 0,0.837 -0.203,1.486 -0.608,1.949 -0.403,0.463 -0.996,0.692 -1.776,0.692 -0.59,0 -1.043,-0.09 -1.355,-0.27 C -7.038,8.8 -7.274,8.641 -7.432,8.503 -7.592,8.366 -7.721,8.232 -7.821,8.101 -7.996,7.872 -8.141,7.632 -8.255,7.387 l 0,-5.936 1.149,0 c 0.187,0 0.282,-0.086 0.282,-0.259 l 0,-0.931 C -6.824,0.087 -6.919,0 -7.106,0 l -4.139,0 c -0.188,0 -0.281,0.087 -0.281,0.261 l 0,0.931 c 0,0.173 0.093,0.259 0.281,0.259 l 1.192,0 0,12.652 -1.192,0 c -0.188,0 -0.281,0.087 -0.281,0.259 l 0,0.933 c 0,0.173 0.093,0.26 0.281,0.26 l 2.732,0 c 0.171,0 0.258,-0.087 0.258,-0.26 l 0,-4.831 c 0,-0.477 -0.031,-0.917 -0.087,-1.323 l 0.043,0 c 0.707,1.112 1.836,1.67 3.382,1.67 1.154,0 2.056,-0.341 2.706,-1.019 0.65,-0.679 0.981,-1.595 0.998,-2.751 l 0,-5.59 1.213,0 c 0.186,0 0.281,-0.086 0.281,-0.259 l 0,-0.931 C 0.281,0.087 0.186,0 0,0"
             style="fill:#ffffff;fill-opacity:1;fill-rule:nonzero;stroke:none"
             id="path3799"
             inkscape:connector-curvature="0" /></g><g
           id="g3801"
           transform="translate(75.301737,18.204604)"><path
             d="m 0,0 -4.137,0 c -0.186,0 -0.281,0.087 -0.281,0.261 l 0,0.931 c 0,0.173 0.095,0.259 0.281,0.259 l 1.194,0 0,7.756 -1.194,0 c -0.186,0 -0.281,0.087 -0.281,0.259 l 0,0.932 c 0,0.175 0.095,0.262 0.281,0.262 l 2.731,0 c 0.173,0 0.259,-0.087 0.259,-0.262 l 0,-8.947 1.147,0 c 0.191,0 0.284,-0.086 0.284,-0.259 l 0,-0.931 C 0.284,0.087 0.191,0 0,0 m -1.222,13.865 c 0.24,-0.244 0.357,-0.535 0.357,-0.867 0,-0.332 -0.117,-0.614 -0.357,-0.844 -0.237,-0.231 -0.523,-0.347 -0.857,-0.347 -0.331,0 -0.616,0.116 -0.855,0.347 -0.237,0.23 -0.357,0.512 -0.357,0.844 0,0.332 0.12,0.623 0.357,0.867 0.239,0.244 0.524,0.369 0.855,0.369 0.334,0 0.62,-0.125 0.857,-0.369"
             style="fill:#ffffff;fill-opacity:1;fill-rule:nonzero;stroke:none"
             id="path3803"
             inkscape:connector-curvature="0" /></g><g
           id="g3805"
           transform="translate(80.048237,18.204604)"><path
             d="m 0,0 -1.105,0 c -0.172,0 -0.259,0.087 -0.259,0.261 l 0,13.842 -1.213,0 c -0.19,0 -0.283,0.087 -0.283,0.259 l 0,0.933 c 0,0.173 0.093,0.26 0.283,0.26 l 2.664,0 c 0.187,0 0.281,-0.087 0.281,-0.26 l 0,-5.763 -0.065,-0.844 0.065,0 c 0.245,0.592 0.671,1.093 1.28,1.504 0.607,0.412 1.356,0.619 2.251,0.619 1.459,0 2.635,-0.503 3.52,-1.507 C 8.308,8.3 8.753,6.979 8.753,5.339 8.753,3.701 8.302,2.376 7.398,1.365 6.495,0.354 5.322,-0.152 3.877,-0.152 2.967,-0.152 2.211,0.061 1.605,0.488 0.995,0.913 0.564,1.43 0.303,2.036 l -0.023,0 0,-1.775 C 0.28,0.087 0.188,0 0,0 M 0.326,5.361 C 0.326,4.156 0.641,3.187 1.268,2.458 1.895,1.73 2.693,1.365 3.66,1.365 c 0.971,0 1.763,0.368 2.385,1.105 0.619,0.736 0.931,1.701 0.931,2.891 0,1.192 -0.318,2.145 -0.954,2.86 C 5.386,8.937 4.598,9.294 3.649,9.294 2.703,9.294 1.913,8.939 1.28,8.232 0.641,7.525 0.326,6.567 0.326,5.361"
             style="fill:#ffffff;fill-opacity:1;fill-rule:nonzero;stroke:none"
             id="path3807"
             inkscape:connector-curvature="0" /></g><g
           id="g3809"
           transform="translate(94.779637,18.204604)"><path
             d="m 0,0 -4.138,0 c -0.187,0 -0.281,0.087 -0.281,0.261 l 0,0.931 c 0,0.173 0.094,0.259 0.281,0.259 l 1.193,0 0,7.756 -1.193,0 c -0.187,0 -0.281,0.087 -0.281,0.259 l 0,0.932 c 0,0.175 0.094,0.262 0.281,0.262 l 2.729,0 c 0.177,0 0.263,-0.087 0.263,-0.262 l 0,-8.947 1.146,0 c 0.187,0 0.282,-0.086 0.282,-0.259 l 0,-0.931 C 0.282,0.087 0.187,0 0,0 m -1.224,13.865 c 0.239,-0.244 0.359,-0.535 0.359,-0.867 0,-0.332 -0.12,-0.614 -0.359,-0.844 -0.24,-0.231 -0.521,-0.347 -0.857,-0.347 -0.33,0 -0.616,0.116 -0.855,0.347 -0.237,0.23 -0.355,0.512 -0.355,0.844 0,0.332 0.118,0.623 0.355,0.867 0.239,0.244 0.525,0.369 0.855,0.369 0.336,0 0.617,-0.125 0.857,-0.369"
             style="fill:#ffffff;fill-opacity:1;fill-rule:nonzero;stroke:none"
             id="path3811"
             inkscape:connector-curvature="0" /></g><g
           id="g3813"
           transform="translate(51.432537,6.3406033)"><path
             d="m 0,0 c 0.042,-0.041 0.061,-0.084 0.061,-0.13 0,-0.046 -0.03,-0.099 -0.091,-0.162 -0.449,-0.397 -1.01,-0.594 -1.687,-0.594 -0.679,0 -1.233,0.221 -1.665,0.664 -0.432,0.443 -0.649,1.085 -0.649,1.932 l 0,4 -0.855,0 C -5.03,5.71 -5.1,5.777 -5.1,5.909 l 0,0.626 c 0,0.131 0.07,0.199 0.214,0.199 l 0.855,0 0,1.543 c 0,0.14 0.071,0.212 0.214,0.212 l 0.856,0 c 0.129,0 0.196,-0.072 0.196,-0.212 l 0,-1.543 1.94,0 c 0.142,0 0.216,-0.068 0.216,-0.199 l 0,-0.626 c 0,-0.132 -0.074,-0.199 -0.216,-0.199 l -1.94,0 0,-3.969 c 0,-0.511 0.117,-0.895 0.346,-1.154 0.228,-0.26 0.533,-0.389 0.915,-0.389 0.381,0 0.67,0.096 0.863,0.289 0.102,0.092 0.195,0.088 0.274,-0.014 L 0,0 Z"
             style="fill:#ffffff;fill-opacity:1;fill-rule:nonzero;stroke:none"
             id="path3815"
             inkscape:connector-curvature="0" /></g><g
           id="g3817"
           transform="translate(55.448837,5.5609031)"><path
             d="m 0,0 -2.916,0 c -0.132,0 -0.199,0.062 -0.199,0.183 l 0,0.657 c 0,0.122 0.067,0.183 0.199,0.183 l 0.841,0 0,5.467 -0.841,0 c -0.132,0 -0.199,0.061 -0.199,0.183 l 0,0.657 c 0,0.123 0.067,0.183 0.199,0.183 l 1.787,0 c 0.132,0 0.198,-0.06 0.198,-0.183 l 0,-1.909 0.046,0 c 0.031,0.164 0.137,0.388 0.321,0.672 0.182,0.285 0.384,0.522 0.603,0.71 0.218,0.188 0.534,0.36 0.946,0.511 0.412,0.154 0.878,0.23 1.398,0.23 0.134,0 0.197,-0.066 0.197,-0.198 l 0,-0.811 C 2.58,6.405 2.517,6.338 2.383,6.338 l -0.322,0 C 1.185,6.338 0.489,6.057 -0.03,5.498 -0.549,4.937 -0.81,4.301 -0.81,3.588 l 0,-2.565 0.81,0 c 0.133,0 0.2,-0.061 0.2,-0.183 l 0,-0.657 C 0.2,0.062 0.133,0 0,0"
             style="fill:#ffffff;fill-opacity:1;fill-rule:nonzero;stroke:none"
             id="path3819"
             inkscape:connector-curvature="0" /></g><g
           id="g3821"
           transform="translate(65.054237,6.5233033)"><path
             d="m 0,0 c -0.71,-0.712 -1.622,-1.069 -2.731,-1.069 -1.113,0 -2.024,0.354 -2.735,1.06 -0.714,0.708 -1.07,1.651 -1.07,2.827 0,1.175 0.363,2.11 1.085,2.802 0.722,0.692 1.63,1.038 2.726,1.038 1.095,0 2,-0.349 2.718,-1.047 C 0.711,4.915 1.07,3.984 1.07,2.818 1.07,1.65 0.715,0.714 0,0 m -5.253,2.81 c 0,-0.835 0.245,-1.512 0.736,-2.031 C -4.03,0.26 -3.431,0 -2.725,0 c 0.708,0 1.306,0.26 1.795,0.779 0.489,0.519 0.732,1.196 0.732,2.031 0,0.835 -0.247,1.505 -0.741,2.016 -0.493,0.508 -1.086,0.763 -1.779,0.763 -0.692,0 -1.287,-0.255 -1.786,-0.763 C -5.002,4.315 -5.253,3.645 -5.253,2.81"
             style="fill:#ffffff;fill-opacity:1;fill-rule:nonzero;stroke:none"
             id="path3823"
             inkscape:connector-curvature="0" /></g><g
           id="g3825"
           transform="translate(75.378637,5.5609031)"><path
             d="m 0,0 -1.452,0 c -0.437,0 -0.655,0.213 -0.655,0.642 l 0,4.016 c 0,0.591 -0.145,1.048 -0.429,1.374 C -2.82,6.358 -3.237,6.519 -3.788,6.519 -4.572,6.519 -5.182,6.2 -5.621,5.559 -5.672,5.498 -5.738,5.385 -5.818,5.222 l 0,-4.199 0.807,0 c 0.134,0 0.201,-0.061 0.201,-0.183 l 0,-0.657 C -4.81,0.062 -4.877,0 -5.011,0 l -2.914,0 c -0.134,0 -0.201,0.062 -0.201,0.183 l 0,0.657 c 0,0.122 0.067,0.183 0.201,0.183 l 0.839,0 0,5.467 -0.839,0 c -0.134,0 -0.201,0.061 -0.201,0.183 l 0,0.657 c 0,0.123 0.067,0.183 0.201,0.183 l 1.785,0 c 0.133,0 0.2,-0.06 0.2,-0.183 l -0.031,-1.038 0.044,0 c 0.53,0.886 1.351,1.328 2.459,1.328 0.815,0 1.452,-0.238 1.91,-0.717 0.459,-0.479 0.691,-1.125 0.701,-1.939 l 0,-3.941 0.857,0 c 0.132,0 0.198,-0.061 0.198,-0.183 l 0,-0.657 C 0.198,0.062 0.132,0 0,0"
             style="fill:#ffffff;fill-opacity:1;fill-rule:nonzero;stroke:none"
             id="path3827"
             inkscape:connector-curvature="0" /></g><g
           id="g3829"
           transform="translate(79.759637,5.5609031)"><path
             d="m 0,0 -2.917,0 c -0.13,0 -0.197,0.062 -0.197,0.183 l 0,0.657 c 0,0.122 0.067,0.183 0.197,0.183 l 0.841,0 0,5.467 -0.841,0 c -0.13,0 -0.197,0.061 -0.197,0.183 l 0,0.657 c 0,0.123 0.067,0.183 0.197,0.183 l 1.926,0 c 0.121,0 0.183,-0.06 0.183,-0.183 l 0,-6.307 0.808,0 c 0.133,0 0.199,-0.061 0.199,-0.183 l 0,-0.657 C 0.199,0.062 0.133,0 0,0 M -0.861,9.773 C -0.694,9.6 -0.609,9.398 -0.609,9.164 -0.609,8.928 -0.694,8.73 -0.861,8.567 -1.029,8.404 -1.231,8.324 -1.465,8.324 c -0.233,0 -0.435,0.08 -0.602,0.243 -0.168,0.163 -0.252,0.361 -0.252,0.597 0,0.234 0.084,0.436 0.252,0.609 0.167,0.173 0.369,0.26 0.602,0.26 0.234,0 0.436,-0.087 0.604,-0.26"
             style="fill:#ffffff;fill-opacity:1;fill-rule:nonzero;stroke:none"
             id="path3831"
             inkscape:connector-curvature="0" /></g><g
           id="g3833"
           transform="translate(87.900337,7.3334033)"><path
             d="m 0,0 c 0.061,-0.051 0.091,-0.101 0.091,-0.146 0,-0.045 -0.02,-0.107 -0.067,-0.184 -0.046,-0.075 -0.144,-0.19 -0.292,-0.343 -0.147,-0.153 -0.352,-0.326 -0.611,-0.52 -0.259,-0.193 -0.595,-0.355 -1.006,-0.489 -0.413,-0.132 -0.854,-0.197 -1.323,-0.197 -1.068,0 -1.962,0.351 -2.678,1.053 -0.717,0.705 -1.077,1.646 -1.077,2.833 0,1.186 0.36,2.123 1.077,2.81 0.716,0.688 1.594,1.032 2.632,1.032 1.041,0 1.823,-0.378 2.354,-1.131 l 0.015,0 -0.015,0.839 c 0,0.133 0.066,0.199 0.197,0.199 l 0.582,0 C 0,5.756 0.061,5.69 0.061,5.557 l 0,-2.596 C 0.061,2.839 0,2.777 -0.121,2.777 l -0.704,0 c -0.123,0 -0.183,0.062 -0.183,0.184 l 0,0.26 C -1.017,3.587 -1.227,3.939 -1.633,4.275 -2.042,4.61 -2.557,4.78 -3.184,4.78 -3.811,4.78 -4.381,4.531 -4.9,4.03 -5.423,3.532 -5.679,2.853 -5.679,1.992 c 0,-0.861 0.255,-1.542 0.761,-2.045 0.51,-0.505 1.079,-0.757 1.71,-0.757 0.632,0 1.169,0.135 1.613,0.405 0.443,0.269 0.741,0.531 0.892,0.785 0.073,0.123 0.158,0.138 0.261,0.047 L 0,0 Z"
             style="fill:#ffffff;fill-opacity:1;fill-rule:nonzero;stroke:none"
             id="path3835"
             inkscape:connector-curvature="0" /></g><g
           id="g3837"
           transform="translate(92.559437,5.4544031)"><path
             d="m 0,0 c -0.684,0 -1.229,0.126 -1.635,0.381 -0.408,0.256 -0.663,0.494 -0.763,0.718 l -0.031,0 c 0.02,-0.499 0.031,-0.763 0.031,-0.793 0,-0.133 -0.073,-0.2 -0.216,-0.2 l -0.518,0 c -0.133,0 -0.199,0.067 -0.199,0.2 l 0,2.291 c 0,0.131 0.066,0.196 0.199,0.196 l 0.596,0 c 0.144,0 0.213,-0.065 0.213,-0.196 l 0,-0.307 c 0.101,-0.304 0.316,-0.585 0.642,-0.84 0.387,-0.305 0.87,-0.457 1.45,-0.457 1.14,0 1.712,0.398 1.712,1.188 0,0.277 -0.158,0.499 -0.473,0.667 C 0.69,3.015 0.306,3.156 -0.147,3.267 -0.599,3.379 -1.05,3.508 -1.497,3.65 -1.946,3.791 -2.329,4.023 -2.644,4.345 -2.96,4.664 -3.116,5.07 -3.116,5.558 c 0,0.662 0.238,1.189 0.718,1.581 0.477,0.392 1.089,0.588 1.832,0.588 1.008,0 1.729,-0.295 2.167,-0.886 l 0.032,0 C 1.612,7.208 1.601,7.395 1.601,7.407 c 0,0.131 0.068,0.198 0.201,0.198 l 0.488,0 c 0.132,0 0.197,-0.067 0.197,-0.198 l 0,-2.124 C 2.487,5.152 2.422,5.086 2.29,5.086 l -0.596,0 c -0.145,0 -0.213,0.066 -0.213,0.197 l 0,0.215 C 1.481,5.772 1.32,6.044 1,6.315 0.678,6.584 0.261,6.719 -0.244,6.719 -0.753,6.719 -1.151,6.612 -1.437,6.398 -1.722,6.184 -1.866,5.906 -1.866,5.566 c 0,-0.34 0.163,-0.607 0.485,-0.793 C -1.063,4.584 -0.675,4.434 -0.214,4.329 0.243,4.223 0.702,4.103 1.159,3.97 1.618,3.836 2.006,3.617 2.327,3.313 2.648,3.008 2.808,2.585 2.808,2.045 2.808,1.508 2.576,1.03 2.114,0.617 1.649,0.206 0.947,0 0,0"
             style="fill:#ffffff;fill-opacity:1;fill-rule:nonzero;stroke:none"
             id="path3839"
             inkscape:connector-curvature="0" /></g><g
           id="g3841"
           transform="translate(99.751737,36.327004)"><path
             d="m 0,0 c -0.112,0.106 -0.256,0.16 -0.432,0.16 l -0.592,0 0,-1.112 0.592,0 c 0.176,0 0.32,0.052 0.432,0.156 0.112,0.104 0.168,0.236 0.168,0.396 0,0.16 -0.056,0.293 -0.168,0.4 m 0.184,-2.624 -0.728,1.296 -0.48,0 0,-1.296 -0.44,0 0,3.176 1.08,0 c 0.138,0 0.268,-0.024 0.388,-0.072 C 0.124,0.432 0.229,0.365 0.32,0.28 0.411,0.194 0.482,0.093 0.536,-0.024 0.589,-0.142 0.616,-0.267 0.616,-0.4 0.616,-0.635 0.552,-0.824 0.424,-0.968 0.296,-1.112 0.133,-1.213 -0.064,-1.272 l 0.76,-1.352 -0.512,0 z M 1.728,-0.08 C 1.6,0.218 1.425,0.48 1.204,0.704 0.982,0.928 0.724,1.105 0.428,1.236 0.132,1.366 -0.184,1.432 -0.52,1.432 -0.856,1.432 -1.172,1.366 -1.468,1.236 -1.764,1.105 -2.021,0.928 -2.24,0.704 -2.459,0.48 -2.632,0.218 -2.76,-0.08 c -0.128,-0.299 -0.192,-0.619 -0.192,-0.96 0,-0.341 0.064,-0.662 0.192,-0.96 0.128,-0.299 0.301,-0.56 0.52,-0.784 0.219,-0.224 0.476,-0.402 0.772,-0.532 0.296,-0.131 0.612,-0.196 0.948,-0.196 0.336,0 0.652,0.065 0.948,0.196 0.296,0.13 0.554,0.308 0.776,0.532 0.221,0.224 0.396,0.485 0.524,0.784 0.128,0.298 0.192,0.619 0.192,0.96 0,0.341 -0.064,0.661 -0.192,0.96 m 0.42,-2.088 C 1.996,-2.52 1.789,-2.827 1.528,-3.088 1.267,-3.35 0.96,-3.556 0.608,-3.708 0.256,-3.86 -0.12,-3.936 -0.52,-3.936 c -0.4,0 -0.776,0.076 -1.128,0.228 -0.352,0.152 -0.659,0.358 -0.92,0.62 -0.262,0.261 -0.468,0.568 -0.62,0.92 -0.152,0.352 -0.228,0.728 -0.228,1.128 0,0.4 0.076,0.776 0.228,1.128 0.152,0.352 0.358,0.659 0.62,0.92 0.261,0.261 0.568,0.468 0.92,0.62 0.352,0.152 0.728,0.228 1.128,0.228 0.4,0 0.776,-0.076 1.128,-0.228 C 0.96,1.476 1.267,1.269 1.528,1.008 1.789,0.747 1.996,0.44 2.148,0.088 2.3,-0.264 2.376,-0.64 2.376,-1.04 2.376,-1.44 2.3,-1.816 2.148,-2.168"
             style="fill:#ffffff;fill-opacity:1;fill-rule:nonzero;stroke:none"
             id="path3843"
             inkscape:connector-curvature="0" /></g></g></g></g></svg>