<?xml version="1.0" encoding="UTF-8" standalone="no"?>
<!-- Generator: Adobe Illustrator 21.0.0, SVG Export Plug-In . SVG Version: 6.00 Build 0)  -->

<svg
   xmlns:dc="http://purl.org/dc/elements/1.1/"
   xmlns:cc="http://creativecommons.org/ns#"
   xmlns:rdf="http://www.w3.org/1999/02/22-rdf-syntax-ns#"
   xmlns:svg="http://www.w3.org/2000/svg"
   xmlns="http://www.w3.org/2000/svg"
   xmlns:sodipodi="http://sodipodi.sourceforge.net/DTD/sodipodi-0.dtd"
   xmlns:inkscape="http://www.inkscape.org/namespaces/inkscape"
   version="1.1"
   id="repeat"
   x="0px"
   y="0px"
   viewBox="0 0 24 24"
   style="enable-background:new 0 0 24 24;"
   xml:space="preserve"
   inkscape:version="0.91 r13725"
   sodipodi:docname="remove.svg"><metadata
     id="metadata15"><rdf:RDF><cc:Work
         rdf:about=""><dc:format>image/svg+xml</dc:format><dc:type
           rdf:resource="http://purl.org/dc/dcmitype/StillImage" /></cc:Work></rdf:RDF></metadata><defs
     id="defs13" /><sodipodi:namedview
     pagecolor="#ffffff"
     bordercolor="#666666"
     borderopacity="1"
     objecttolerance="10"
     gridtolerance="10"
     guidetolerance="10"
     inkscape:pageopacity="0"
     inkscape:pageshadow="2"
     inkscape:window-width="1829"
     inkscape:window-height="950"
     id="namedview11"
     showgrid="false"
     inkscape:zoom="19.666667"
     inkscape:cx="-4.7288134"
     inkscape:cy="12"
     inkscape:window-x="0"
     inkscape:window-y="0"
     inkscape:window-maximized="0"
     inkscape:current-layer="repeat" /><style
     type="text/css"
     id="style3">
	.st0{fill:#CF8B17;}
	.st1{fill:#FFFFFF;}
</style><title
     id="title5">repeat</title><path
     class="st1"
     d="m -4.9457627,10.237288 -2.6,0 c 0,1.5 -0.3,2.9 -1,4.2 -0.8,1.6 -2.1000003,2.8 -3.7000003,3.6 -1.5,0.8 -3.3,1.1 -4.9,0.8 -1.6,-0.2 -3.2,-1 -4.4,-2.1 -0.4,-0.3 -0.4,-0.9 -0.1,-1.2 0.3,-0.4 0.9,-0.4 1.2,-0.1 l 0,0 c 1,0.7 2.2,1.1 3.4,1.1 1.2,0 2.3,-0.3 3.3,-1 0.9,-0.6 1.6,-1.5 2,-2.6 0.3,-0.9 0.4,-1.8 0.2,-2.8 l -2.4,0 c -0.4,0 -0.7,-0.2999999 -0.7,-0.6999999 0,-0.2 0.1,-0.3 0.2,-0.4 l 4.4,-4.4 c 0.3000003,-0.3 0.7000003,-0.3 0.9000003,0 l 4.4,4.4 c 0.3,0.3 0.4,0.6 0.3,0.9 -0.1,0.2999999 -0.3,0.2999999 -0.5,0.2999999 z"
     id="path9"
     inkscape:connector-curvature="0"
     style="fill:#ffffff" /><rect
     style="opacity:1;fill:#ffffff;fill-opacity:1;fill-rule:nonzero;stroke:none;stroke-width:1;stroke-linecap:square;stroke-linejoin:round;stroke-miterlimit:4;stroke-dasharray:none;stroke-dashoffset:0;stroke-opacity:0.07843137"
     id="rect4143-1"
     width="7.4745765"
     height="15.305085"
     x="8.7966108"
     y="3.75"
     rx="2"
     ry="2"
     transform="matrix(0,1,1,0,0,0)" /></svg>