<?xml version="1.0" encoding="utf-8"?>
<!-- Generator: Adobe Illustrator 19.0.0, SVG Export Plug-In . SVG Version: 6.00 Build 0)  -->
<svg version="1.1" id="图层_1" xmlns="http://www.w3.org/2000/svg" xmlns:xlink="http://www.w3.org/1999/xlink" x="0px" y="0px"
	 width="160px" height="30.6px" viewBox="0 0 160 30.6" style="enable-background:new 0 0 160 30.6;" xml:space="preserve">
<style type="text/css">
	.st0{fill:#FFFFFF;}
</style>
<g id="XMLID_4010_">
	<g id="XMLID_4044_">
		<g id="XMLID_4045_">
			<g id="XMLID_4070_">
				<path id="XMLID_4075_" class="st0" d="M14.7,29.8c-5.2-3.6-9.2-8.7-11.4-14.7c-0.9-2.5-1.5-5.3-1.8-8.1c-1,2.1-1.6,4.5-1.6,7
					c0,8.2,6,15,13.9,16.3c0.7,0.1,1.4,0.2,2.1,0.2c-0.3-0.2-0.5-0.3-0.7-0.5C15,30,14.9,29.9,14.7,29.8z"/>
				<path id="XMLID_4073_" class="st0" d="M8.6,14.1c0,5.9,3.1,11,7.7,14c-2.1-4.2-3.4-8.9-3.4-13.9c0-5.1,1.3-9.9,3.5-14.1
					C11.7,2.9,8.6,8.1,8.6,14.1z"/>
				<path id="XMLID_4072_" class="st0" d="M34.8,7c-0.2,2.8-0.8,5.5-1.7,8c-2.2,6.1-6.3,11.3-11.5,14.8c-0.1,0.1-0.3,0.2-0.4,0.3
					c-0.2,0.2-0.5,0.3-0.7,0.5c0.7,0,1.4-0.1,2.1-0.2c7.9-1.3,13.9-8.1,13.9-16.3C36.3,11.5,35.8,9.1,34.8,7z"/>
				<path id="XMLID_4071_" class="st0" d="M27.7,14.1c0-5.9-3.1-11.1-7.8-14c2.2,4.2,3.5,9,3.5,14.1c0,5-1.2,9.7-3.3,13.9
					C24.7,25.1,27.7,19.9,27.7,14.1z"/>
			</g>
		</g>
	</g>
	<g id="XMLID_4011_">
		<g id="XMLID_4030_">
			<path id="XMLID_4041_" class="st0" d="M102,9.3c-0.1,0-0.1-0.1-0.2-0.1c-0.1,0-0.1-0.1-0.2-0.1c0,0-0.1-0.1-0.2-0.1
				c-1.3-0.9-2.9-1.4-4.6-1.6c-5.6-0.6-10.6,3.5-11.2,9.1c-0.4,4.2,1.7,8.1,5.2,10c0.2,0.1,0.4,0.2,0.6,0.3c0.1,0.1,0.3,0.1,0.4,0.2
				c4.5,1.9,9.6,1,13.1-2.1l-1-1l-1.6-1.7c-0.9,0.8-2.1,1.4-3.4,1.7c-0.6,0.1-1.2,0.2-1.8,0.2c0,0-0.1,0-0.1,0c-0.1,0-0.1,0-0.2,0
				c-0.2,0-0.3,0-0.5,0c-0.5,0-1-0.1-1.6-0.3c-2.1-0.7-3.6-2.3-4.2-4.3h0.9h9.4h2.3h1.2h1.5c0.1-0.3,0.1-0.6,0.1-0.9
				C106.5,14.9,104.8,11.4,102,9.3z M90.9,15.7c0-0.1,0-0.1,0-0.2c0.3-1.2,0.9-2.2,1.7-2.9c0,0,0.1-0.1,0.1-0.1c0,0,0.1-0.1,0.1-0.1
				c0,0,0.1-0.1,0.1-0.1c1.2-1,2.9-1.4,4.5-1c2.2,0.5,3.9,2.3,4.3,4.4H90.9z"/>
			<path id="XMLID_4038_" class="st0" d="M124.3,9.3c-0.1,0-0.1-0.1-0.2-0.1c-0.1,0-0.1-0.1-0.2-0.1c-0.1,0-0.1-0.1-0.2-0.1
				c-1.3-0.9-2.9-1.4-4.6-1.6c-5.6-0.6-10.6,3.5-11.2,9.1c-0.4,4.2,1.7,8.1,5.2,10c0.2,0.1,0.4,0.2,0.6,0.3c0.1,0.1,0.3,0.1,0.4,0.2
				c4.5,1.9,9.6,1,13.1-2.1l-1-1l-1.6-1.7c-0.9,0.8-2.1,1.4-3.4,1.7c-0.6,0.1-1.2,0.2-1.8,0.2c0,0-0.1,0-0.1,0c-0.1,0-0.1,0-0.2,0
				c-0.2,0-0.3,0-0.5,0c-0.5,0-1-0.1-1.6-0.3c-2.1-0.7-3.6-2.3-4.2-4.3h0.9h9.4h2.3h1.2h1.5c0.1-0.3,0.1-0.6,0.1-0.9
				C128.8,14.9,127.1,11.4,124.3,9.3z M113.2,15.7c0-0.1,0-0.1,0-0.2c0.3-1.2,0.9-2.2,1.7-2.9c0,0,0.1-0.1,0.1-0.1
				c0,0,0.1-0.1,0.1-0.1c0,0,0.1-0.1,0.1-0.1c1.2-1,2.9-1.4,4.5-1c2.2,0.5,3.9,2.3,4.3,4.4H113.2z"/>
			<path id="XMLID_4035_" class="st0" d="M79.8,9.3c-0.1,0-0.1-0.1-0.2-0.1c-0.1,0-0.1-0.1-0.2-0.1c-0.1,0-0.1-0.1-0.2-0.1
				c-1.3-0.9-2.9-1.4-4.6-1.6c-5.6-0.6-10.7,3.5-11.2,9.1c-0.4,4.2,1.7,8.1,5.2,10c0.2,0.1,0.4,0.2,0.6,0.3c0.1,0.1,0.3,0.1,0.4,0.2
				c4.5,1.9,9.6,1,13.1-2.1l-1-1l-1.6-1.7c-0.9,0.8-2.1,1.4-3.4,1.7c-0.6,0.1-1.2,0.2-1.8,0.2c0,0-0.1,0-0.1,0c-0.1,0-0.1,0-0.2,0
				c-0.2,0-0.3,0-0.5,0c-0.5,0-1-0.1-1.6-0.3c-2.1-0.7-3.6-2.3-4.2-4.3h0.9h9.4h2.3h1.2h1.5c0.1-0.3,0.1-0.6,0.1-0.9
				C84.3,14.9,82.6,11.4,79.8,9.3z M68.6,15.7c0-0.1,0-0.1,0-0.2c0.3-1.2,0.9-2.2,1.7-2.9c0,0,0.1-0.1,0.1-0.1c0,0,0.1-0.1,0.1-0.1
				c0,0,0.1-0.1,0.1-0.1c1.2-1,2.9-1.4,4.5-1c2.2,0.5,3.9,2.3,4.3,4.4H68.6z"/>
			<path id="XMLID_4032_" class="st0" d="M146.3,4.5v6.2c-1.7-1.7-4-2.7-6.6-2.7c-5.3,0-9.6,4.5-9.6,10c0,5.5,4.3,10,9.6,10
				c2.6,0,4.9-1,6.6-2.7V28h4.5V2.7L146.3,4.5z M140.1,23.6c-3,0-5.4-2.5-5.4-5.6c0-3.1,2.4-5.6,5.4-5.6c3,0,5.4,2.5,5.4,5.6
				C145.5,21.1,143.1,23.6,140.1,23.6z"/>
			<path id="XMLID_4031_" class="st0" d="M55.3,19.7c1.2,0.1,1.9,0.7,2,1.4c0.2,1.1-0.6,2.1-1.3,2.4c-2.1,0.9-6.5,0.2-8.9-1.8
				L44.9,25c2.9,2.4,5.7,3,8.6,3c4.6,0,8.1-2,8.1-6.5c0-7-8.2-5.9-10-6.4c-0.8-0.2-1.6-0.6-1.7-2c0-1.2,0.9-2.1,1.9-2.2
				c2.5-0.4,4.7,0.5,6.6,1.9l2.5-2.9c-2.7-2-5-2.6-7.7-2.6c-4.3,0-7.8,2.4-7.8,6.4C46,19.9,53.1,19.6,55.3,19.7z"/>
		</g>
		<g id="XMLID_4012_">
			<path id="XMLID_4028_" class="st0" d="M159.3,8.5h-1.3v0.9h-0.8V8.5h-1.8c-0.5,0-0.7,0.1-0.7,0.5c0,0.2,0,0.3,0.1,0.4l-0.7,0
				C154,9.3,154,9,154,8.7c0-0.4,0.1-0.6,0.3-0.8c0.2-0.2,0.6-0.3,1.1-0.3h1.9V6.9h0.8v0.7h1L159.3,8.5z"/>
			<path id="XMLID_4026_" class="st0" d="M158.6,11.1h-2.5c-0.3,0-0.5,0-0.7,0.1c-0.2,0.1-0.3,0.1-0.4,0.2c-0.1,0.1-0.2,0.2-0.2,0.4
				c0,0.1-0.1,0.3-0.1,0.4c0,0.4,0.1,0.6,0.4,0.9c0.2,0.2,0.6,0.3,1.1,0.3h2.5v0.9h-4.6v-0.8h0.5v0c-0.2-0.1-0.3-0.3-0.5-0.5
				c-0.1-0.2-0.2-0.5-0.2-0.8c0-0.3,0-0.5,0.1-0.7c0.1-0.2,0.2-0.4,0.3-0.6c0.2-0.2,0.4-0.3,0.7-0.4c0.3-0.1,0.6-0.2,1.1-0.2h2.5
				V11.1z"/>
			<path id="XMLID_4023_" class="st0" d="M154.1,19.3h0.7v0c-0.3-0.2-0.4-0.4-0.6-0.7c-0.1-0.3-0.2-0.6-0.2-0.9c0-0.4,0.1-0.7,0.2-1
				c0.1-0.3,0.3-0.5,0.5-0.7c0.2-0.2,0.5-0.4,0.8-0.5c0.3-0.1,0.6-0.2,0.9-0.2c0.3,0,0.6,0,0.9,0.1c0.3,0.1,0.5,0.2,0.8,0.4
				c0.2,0.2,0.4,0.4,0.6,0.7c0.1,0.3,0.2,0.6,0.2,1.1c0,0.3-0.1,0.6-0.2,0.9c-0.1,0.3-0.3,0.5-0.5,0.7v0h1.6l0.3,0.9h-5.9V19.3z
				 M156.3,19.3c0.2,0,0.5,0,0.7-0.1c0.2-0.1,0.4-0.2,0.5-0.3c0.1-0.1,0.3-0.3,0.3-0.5c0.1-0.2,0.1-0.4,0.1-0.6
				c0-0.3-0.1-0.5-0.2-0.7c-0.1-0.2-0.2-0.4-0.4-0.5c-0.2-0.1-0.3-0.2-0.5-0.3c-0.2-0.1-0.4-0.1-0.6-0.1c-0.2,0-0.4,0-0.6,0.1
				c-0.2,0.1-0.4,0.2-0.5,0.3c-0.1,0.1-0.3,0.3-0.4,0.5c-0.1,0.2-0.1,0.4-0.1,0.6c0,0.2,0,0.4,0.1,0.6c0.1,0.2,0.2,0.4,0.3,0.5
				c0.1,0.1,0.3,0.3,0.5,0.3C155.9,19.3,156.1,19.3,156.3,19.3z"/>
			<path id="XMLID_4019_" class="st0" d="M159.1,22.1v-0.9h0.9v0.9H159.1z M154.1,22.1v-0.9h4.4v0.9H154.1z"/>
			<path id="XMLID_4016_" class="st0" d="M156.4,28c-0.3,0-0.6-0.1-0.9-0.2c-0.3-0.1-0.5-0.3-0.8-0.5c-0.2-0.2-0.4-0.5-0.6-0.8
				c-0.1-0.3-0.2-0.7-0.2-1c0-0.4,0.1-0.7,0.2-1c0.1-0.3,0.3-0.6,0.6-0.8c0.2-0.2,0.5-0.4,0.8-0.5c0.3-0.1,0.6-0.2,0.9-0.2
				c0.3,0,0.6,0.1,0.9,0.2c0.3,0.1,0.5,0.3,0.8,0.5c0.2,0.2,0.4,0.5,0.5,0.8c0.1,0.3,0.2,0.6,0.2,1c0,0.3-0.1,0.7-0.2,1
				c-0.1,0.3-0.3,0.6-0.5,0.8c-0.2,0.2-0.5,0.4-0.8,0.5C157,27.9,156.7,28,156.4,28z M156.4,27.1c0.2,0,0.4,0,0.6-0.1
				c0.2-0.1,0.4-0.2,0.5-0.3c0.2-0.1,0.3-0.3,0.4-0.5c0.1-0.2,0.1-0.4,0.1-0.7c0-0.2,0-0.5-0.1-0.7c-0.1-0.2-0.2-0.4-0.4-0.5
				c-0.2-0.1-0.3-0.2-0.5-0.3c-0.2-0.1-0.4-0.1-0.6-0.1c-0.2,0-0.4,0-0.6,0.1c-0.2,0.1-0.4,0.2-0.5,0.3c-0.2,0.1-0.3,0.3-0.4,0.5
				c-0.1,0.2-0.1,0.4-0.1,0.7c0,0.2,0,0.4,0.1,0.6c0.1,0.2,0.2,0.4,0.4,0.5c0.2,0.1,0.3,0.3,0.5,0.3
				C155.9,27.1,156.1,27.1,156.4,27.1z"/>
			<g id="XMLID_4013_">
				<path id="XMLID_4014_" class="st0" d="M155.1,2.7l0.3,0.6c-0.5,0.3-0.8,0.7-0.8,1.3c0,0.6,0.2,0.9,0.6,0.9c0.4,0,0.6-0.3,0.8-1
					c0.3-0.9,0.5-1.6,1.4-1.6c0.8,0,1.3,0.6,1.3,1.6c0,0.9-0.4,1.4-1,1.7l-0.4-0.6c0.5-0.3,0.7-0.7,0.7-1.2c0-0.5-0.2-0.8-0.5-0.8
					c-0.4,0-0.6,0.3-0.8,1.1c-0.3,0.9-0.5,1.6-1.4,1.6c-0.7,0-1.3-0.6-1.3-1.7C154,3.6,154.4,3,155.1,2.7z"/>
			</g>
		</g>
	</g>
</g>
</svg>
