<?xml version="1.0" encoding="utf-8"?>
<!-- Generator: Adobe Illustrator 19.0.0, SVG Export Plug-In . SVG Version: 6.00 Build 0)  -->
<svg version="1.1" id="图层_1" xmlns="http://www.w3.org/2000/svg" xmlns:xlink="http://www.w3.org/1999/xlink" x="0px" y="0px"
	 width="389.2px" height="120.5px" viewBox="0 0 389.2 120.5" style="enable-background:new 0 0 389.2 120.5;" xml:space="preserve"
	>
<style type="text/css">
	.st0{fill:#FFFFFF;}
	.st1{fill:#717071;}
	.st2{fill:#FFEB9F;}
	.st3{fill:none;stroke:#717071;stroke-width:0.3558;stroke-miterlimit:10;}
	.st4{fill:#00A3C4;}
	.st5{fill:#00D3FF;}
	.st6{fill:#F7F7F7;stroke:#595757;stroke-miterlimit:10;}
	.st7{fill:#DBDCDC;}
	.st8{fill:#B4B4B5;}
	.st9{fill:#FFFFFF;stroke:#717071;stroke-width:0.2353;stroke-miterlimit:10;}
	.st10{fill:#FFE528;}
	.st11{fill:#595757;}
	.st12{fill:#888888;}
	.st13{fill:#DE5277;}
	.st14{fill:none;stroke:#DA4C48;stroke-width:0.7085;stroke-miterlimit:10;stroke-dasharray:1.8894;}
	.st15{fill:#FFFFFF;stroke:#717071;stroke-width:0.2362;stroke-miterlimit:10;}
</style>
<g id="XMLID_605_">
	<g id="XMLID_12250_">
		<g id="XMLID_12316_">
			<g id="XMLID_13031_">
				<path id="XMLID_527_" class="st0" d="M19.4,96.2c-4.5,0-8.2-3.7-8.2-8.2V32.6c0-4.5,3.7-8.2,8.2-8.2h70.3c4.5,0,8.2,3.7,8.2,8.2
					v55.4c0,4.5-3.7,8.2-8.2,8.2H19.4z"/>
				<g id="XMLID_498_">
					<path id="XMLID_504_" class="st1" d="M89.6,24.5c4.4,0,8.1,3.6,8.1,8.1v55.4c0,4.4-3.6,8.1-8.1,8.1H19.4
						c-4.4,0-8.1-3.6-8.1-8.1V32.6c0-4.4,3.6-8.1,8.1-8.1H89.6 M89.6,24.2H19.4c-4.6,0-8.4,3.8-8.4,8.4v55.4c0,4.6,3.8,8.4,8.4,8.4
						h70.3c4.6,0,8.4-3.8,8.4-8.4V32.6C98,27.9,94.3,24.2,89.6,24.2L89.6,24.2z"/>
				</g>
			</g>
			<g id="XMLID_12884_">
				<g id="XMLID_937_">
					<g id="XMLID_976_">
						<ellipse id="XMLID_977_" class="st2" cx="43.6" cy="92" rx="2.3" ry="2.3"/>
					</g>
					<g id="XMLID_972_">
						<ellipse id="XMLID_974_" class="st0" cx="43.6" cy="92" rx="1.3" ry="1.3"/>
						<ellipse id="XMLID_973_" class="st3" cx="43.6" cy="92" rx="1.3" ry="1.3"/>
					</g>
					<g id="XMLID_970_">
						<ellipse id="XMLID_971_" class="st2" cx="36.4" cy="92" rx="2.3" ry="2.3"/>
					</g>
					<g id="XMLID_967_">
						<ellipse id="XMLID_969_" class="st0" cx="36.4" cy="92" rx="1.3" ry="1.3"/>
						<ellipse id="XMLID_968_" class="st3" cx="36.4" cy="92" rx="1.3" ry="1.3"/>
					</g>
					<g id="XMLID_965_">
						<ellipse id="XMLID_966_" class="st2" cx="29.1" cy="92" rx="2.3" ry="2.3"/>
					</g>
					<g id="XMLID_962_">
						<ellipse id="XMLID_964_" class="st0" cx="29.1" cy="92" rx="1.3" ry="1.3"/>
						<ellipse id="XMLID_963_" class="st3" cx="29.1" cy="92" rx="1.3" ry="1.3"/>
					</g>
					<g id="XMLID_960_">
						<ellipse id="XMLID_961_" class="st2" cx="50.9" cy="92" rx="2.3" ry="2.3"/>
					</g>
					<g id="XMLID_957_">
						<ellipse id="XMLID_959_" class="st0" cx="50.9" cy="92" rx="1.3" ry="1.3"/>
						<ellipse id="XMLID_958_" class="st3" cx="50.9" cy="92" rx="1.3" ry="1.3"/>
					</g>
					<g id="XMLID_955_">
						<ellipse id="XMLID_956_" class="st2" cx="58.2" cy="92" rx="2.3" ry="2.3"/>
					</g>
					<g id="XMLID_952_">
						<ellipse id="XMLID_954_" class="st0" cx="58.2" cy="92" rx="1.3" ry="1.3"/>
						<ellipse id="XMLID_953_" class="st3" cx="58.2" cy="92" rx="1.3" ry="1.3"/>
					</g>
					<g id="XMLID_950_">
						<ellipse id="XMLID_951_" class="st2" cx="65.5" cy="92" rx="2.3" ry="2.3"/>
					</g>
					<g id="XMLID_947_">
						<ellipse id="XMLID_949_" class="st0" cx="65.5" cy="92" rx="1.3" ry="1.3"/>
						<ellipse id="XMLID_948_" class="st3" cx="65.5" cy="92" rx="1.3" ry="1.3"/>
					</g>
					<g id="XMLID_945_">
						<ellipse id="XMLID_946_" class="st2" cx="72.8" cy="92" rx="2.3" ry="2.3"/>
					</g>
					<g id="XMLID_942_">
						<ellipse id="XMLID_944_" class="st0" cx="72.8" cy="92" rx="1.3" ry="1.3"/>
						<ellipse id="XMLID_943_" class="st3" cx="72.8" cy="92" rx="1.3" ry="1.3"/>
					</g>
					<rect id="XMLID_941_" x="77.7" y="89.7" class="st2" width="4.6" height="4.6"/>
					<g id="XMLID_938_">
						<ellipse id="XMLID_940_" class="st0" cx="80" cy="92" rx="1.3" ry="1.3"/>
						<ellipse id="XMLID_939_" class="st3" cx="80" cy="92" rx="1.3" ry="1.3"/>
					</g>
				</g>
			</g>
			<g id="XMLID_687_">
				<g id="XMLID_864_">
					<path id="XMLID_876_" d="M45.8,30.6c-0.3,0.5-0.6,0.8-1,1.1s-0.9,0.4-1.5,0.4s-1.1-0.1-1.5-0.4s-0.8-0.6-1-1.1
						c-0.3-0.5-0.4-1-0.4-1.6c0-0.6,0.1-1.1,0.4-1.6c0.3-0.5,0.6-0.8,1-1.1s0.9-0.4,1.5-0.4s1.1,0.1,1.5,0.4s0.8,0.6,1,1.1
						c0.3,0.5,0.4,1,0.4,1.6C46.1,29.6,46,30.2,45.8,30.6z M44.8,28c-0.2-0.3-0.4-0.6-0.6-0.7S43.5,27,43.2,27
						c-0.4,0-0.7,0.1-0.9,0.3c-0.3,0.2-0.5,0.4-0.6,0.7s-0.2,0.7-0.2,1c0,0.4,0.1,0.7,0.2,1s0.4,0.6,0.6,0.7
						c0.3,0.2,0.6,0.3,0.9,0.3c0.3,0,0.7-0.1,0.9-0.3s0.5-0.4,0.6-0.7c0.2-0.3,0.2-0.7,0.2-1C45,28.7,44.9,28.3,44.8,28z"/>
					<path id="XMLID_874_" d="M50.8,27.6c0.1,0.1,0.1,0.2,0.1,0.4v2.2c0,0.6-0.2,1.1-0.5,1.4s-0.8,0.5-1.5,0.5
						c-0.6,0-1.1-0.2-1.5-0.5S47,30.8,47,30.2V28c0-0.1,0-0.3,0.1-0.4c0.1-0.1,0.2-0.2,0.4-0.2c0.1,0,0.3,0,0.4,0.2
						c0.1,0.1,0.1,0.2,0.1,0.4v2.2c0,0.3,0.1,0.6,0.2,0.8s0.4,0.3,0.7,0.3c0.3,0,0.6-0.1,0.7-0.3c0.2-0.2,0.2-0.4,0.2-0.8V28
						c0-0.1,0-0.3,0.1-0.4c0.1-0.1,0.2-0.2,0.4-0.2C50.6,27.5,50.7,27.5,50.8,27.6z"/>
					<path id="XMLID_872_" d="M54.6,31.2c0.1,0.1,0.1,0.2,0.1,0.3c0,0.2-0.1,0.3-0.3,0.4c-0.2,0.1-0.4,0.2-0.6,0.2
						c-0.4,0-0.7-0.1-0.9-0.2c-0.2-0.2-0.4-0.5-0.4-1v-2.4h-0.4c-0.1,0-0.3,0-0.3-0.1c-0.1-0.1-0.1-0.2-0.1-0.3c0-0.1,0-0.2,0.1-0.3
						c0.1-0.1,0.2-0.1,0.3-0.1h0.4V27c0-0.1,0-0.3,0.2-0.4c0.1-0.1,0.2-0.2,0.4-0.2c0.1,0,0.3,0,0.4,0.2c0.1,0.1,0.1,0.2,0.1,0.4
						v0.5h0.6c0.1,0,0.3,0,0.3,0.1c0.1,0.1,0.1,0.2,0.1,0.3c0,0.1,0,0.2-0.1,0.3c-0.1,0.1-0.2,0.1-0.3,0.1h-0.6v2.3
						c0,0.1,0,0.2,0.1,0.3c0.1,0.1,0.2,0.1,0.3,0.1c0,0,0.1,0,0.2,0c0.1,0,0.1,0,0.2,0C54.4,31.1,54.5,31.1,54.6,31.2z"/>
					<path id="XMLID_869_" d="M59.1,27.7c0.3,0.2,0.6,0.5,0.8,0.8c0.2,0.4,0.3,0.8,0.3,1.2c0,0.5-0.1,0.9-0.3,1.2s-0.4,0.6-0.8,0.8
						c-0.3,0.2-0.7,0.3-1.1,0.3c-0.3,0-0.5-0.1-0.8-0.2c-0.2-0.1-0.4-0.2-0.6-0.4v1.7c0,0.1,0,0.3-0.1,0.4c-0.1,0.1-0.2,0.1-0.4,0.1
						c-0.2,0-0.3,0-0.4-0.1c-0.1-0.1-0.1-0.2-0.1-0.4V28c0-0.1,0-0.3,0.1-0.4c0.1-0.1,0.2-0.2,0.4-0.2c0.1,0,0.3,0,0.4,0.2
						c0.1,0.1,0.1,0.2,0.1,0.4v0c0.1-0.2,0.3-0.3,0.6-0.5c0.2-0.1,0.5-0.2,0.8-0.2C58.4,27.4,58.8,27.5,59.1,27.7z M58.8,30.8
						c0.2-0.3,0.4-0.6,0.4-1c0-0.4-0.1-0.8-0.3-1s-0.5-0.4-0.9-0.4s-0.7,0.1-0.9,0.4c-0.2,0.3-0.4,0.6-0.4,1c0,0.4,0.1,0.8,0.4,1
						c0.2,0.3,0.5,0.4,0.9,0.4C58.3,31.2,58.6,31.1,58.8,30.8z"/>
					<path id="XMLID_867_" d="M64.8,27.6c0.1,0.1,0.1,0.2,0.1,0.4v2.2c0,0.6-0.2,1.1-0.5,1.4s-0.8,0.5-1.5,0.5
						c-0.6,0-1.1-0.2-1.5-0.5S61,30.8,61,30.2V28c0-0.1,0-0.3,0.1-0.4c0.1-0.1,0.2-0.2,0.4-0.2c0.1,0,0.3,0,0.4,0.2
						c0.1,0.1,0.1,0.2,0.1,0.4v2.2c0,0.3,0.1,0.6,0.2,0.8s0.4,0.3,0.7,0.3c0.3,0,0.6-0.1,0.7-0.3c0.2-0.2,0.2-0.4,0.2-0.8V28
						c0-0.1,0-0.3,0.1-0.4c0.1-0.1,0.2-0.2,0.4-0.2C64.6,27.5,64.7,27.5,64.8,27.6z"/>
					<path id="XMLID_865_" d="M68.5,31.2c0.1,0.1,0.1,0.2,0.1,0.3c0,0.2-0.1,0.3-0.3,0.4c-0.2,0.1-0.4,0.2-0.6,0.2
						c-0.4,0-0.7-0.1-0.9-0.2c-0.2-0.2-0.4-0.5-0.4-1v-2.4h-0.4c-0.1,0-0.3,0-0.3-0.1c-0.1-0.1-0.1-0.2-0.1-0.3c0-0.1,0-0.2,0.1-0.3
						c0.1-0.1,0.2-0.1,0.3-0.1h0.4V27c0-0.1,0-0.3,0.2-0.4c0.1-0.1,0.2-0.2,0.4-0.2c0.1,0,0.3,0,0.4,0.2c0.1,0.1,0.1,0.2,0.1,0.4
						v0.5h0.6c0.1,0,0.3,0,0.3,0.1c0.1,0.1,0.1,0.2,0.1,0.3c0,0.1,0,0.2-0.1,0.3c-0.1,0.1-0.2,0.1-0.3,0.1h-0.6v2.3
						c0,0.1,0,0.2,0.1,0.3c0.1,0.1,0.2,0.1,0.3,0.1c0,0,0.1,0,0.2,0c0.1,0,0.1,0,0.2,0C68.4,31.1,68.5,31.1,68.5,31.2z"/>
				</g>
			</g>
			<g id="XMLID_12317_">
				<g id="XMLID_12685_">
					<g id="XMLID_777_">
						<g id="XMLID_802_">
							<g id="XMLID_803_">
								<path id="XMLID_804_" class="st2" d="M39,39.9h-5.6c-0.5,0-0.9-0.4-0.9-0.9v-2.7c0-0.5,0.4-0.9,0.9-0.9H39
									c0.5,0,0.9,0.4,0.9,0.9V39C39.8,39.5,39.4,39.9,39,39.9z"/>
							</g>
						</g>
						<g id="XMLID_796_">
							
								<image style="overflow:visible;opacity:0.5;" width="14" height="12" id="XMLID_801_" xlink:href="4C8AF490.png"  transform="matrix(1 0 0 1 39.3005 31.4244)">
							</image>
							<g id="XMLID_797_">
								<g id="XMLID_798_">
									<g id="XMLID_799_">
										<path id="XMLID_800_" class="st4" d="M48.9,39.9h-5.6c-0.5,0-0.9-0.4-0.9-0.9v-2.7c0-0.5,0.4-0.9,0.9-0.9h5.6
											c0.5,0,0.9,0.4,0.9,0.9V39C49.8,39.5,49.4,39.9,48.9,39.9z"/>
									</g>
								</g>
							</g>
						</g>
						<g id="XMLID_793_">
							<g id="XMLID_794_">
								<path id="XMLID_795_" class="st5" d="M43,38.7v-2.2c0-0.4,0.3-0.7,0.7-0.7h4.8c0.4,0,0.7,0.3,0.7,0.7v2.2
									c0,0.4-0.3,0.7-0.7,0.7h-4.8C43.3,39.4,43,39.1,43,38.7z"/>
							</g>
						</g>
						<g id="XMLID_790_">
							<g id="XMLID_791_">
								<path id="XMLID_792_" class="st2" d="M58.8,39.9h-5.6c-0.5,0-0.9-0.4-0.9-0.9v-2.7c0-0.5,0.4-0.9,0.9-0.9h5.6
									c0.5,0,0.9,0.4,0.9,0.9V39C59.7,39.5,59.3,39.9,58.8,39.9z"/>
							</g>
						</g>
						<g id="XMLID_784_">
							
								<image style="overflow:visible;opacity:0.5;" width="14" height="12" id="XMLID_789_" xlink:href="4C8AF491.png"  transform="matrix(1 0 0 1 59.3005 31.4244)">
							</image>
							<g id="XMLID_785_">
								<g id="XMLID_786_">
									<g id="XMLID_787_">
										<path id="XMLID_788_" class="st4" d="M68.8,39.9h-5.6c-0.5,0-0.9-0.4-0.9-0.9v-2.7c0-0.5,0.4-0.9,0.9-0.9h5.6
											c0.5,0,0.9,0.4,0.9,0.9V39C69.7,39.5,69.3,39.9,68.8,39.9z"/>
									</g>
								</g>
							</g>
						</g>
						<g id="XMLID_781_">
							<g id="XMLID_782_">
								<path id="XMLID_783_" class="st2" d="M78.7,39.9h-5.6c-0.5,0-0.9-0.4-0.9-0.9v-2.7c0-0.5,0.4-0.9,0.9-0.9h5.6
									c0.5,0,0.9,0.4,0.9,0.9V39C79.6,39.5,79.2,39.9,78.7,39.9z"/>
							</g>
						</g>
						<g id="XMLID_778_">
							<g id="XMLID_779_">
								<path id="XMLID_780_" class="st5" d="M62.9,38.7v-2.2c0-0.4,0.3-0.7,0.7-0.7h4.8c0.4,0,0.7,0.3,0.7,0.7v2.2
									c0,0.4-0.3,0.7-0.7,0.7h-4.8C63.2,39.4,62.9,39.1,62.9,38.7z"/>
							</g>
						</g>
					</g>
				</g>
				<g id="XMLID_12643_">
					
						<image style="overflow:visible;opacity:0.5;" width="54" height="11" id="XMLID_722_" xlink:href="4C8AF497.png"  transform="matrix(1 0 0 1 29.3005 40.4244)">
					</image>
					<g id="XMLID_613_">
						<g id="XMLID_689_">
							<g id="XMLID_703_">
								<g id="XMLID_704_">
									<path id="XMLID_705_" class="st4" d="M39,48h-5.6c-0.5,0-0.9-0.4-0.9-0.9v-2.7c0-0.5,0.4-0.9,0.9-0.9H39
										c0.5,0,0.9,0.4,0.9,0.9v2.7C39.8,47.6,39.4,48,39,48z"/>
								</g>
							</g>
							<g id="XMLID_700_">
								<g id="XMLID_701_">
									<path id="XMLID_702_" class="st4" d="M48.9,48h-5.6c-0.5,0-0.9-0.4-0.9-0.9v-2.7c0-0.5,0.4-0.9,0.9-0.9h5.6
										c0.5,0,0.9,0.4,0.9,0.9v2.7C49.8,47.6,49.4,48,48.9,48z"/>
								</g>
							</g>
							<g id="XMLID_697_">
								<g id="XMLID_698_">
									<path id="XMLID_699_" class="st4" d="M58.8,48h-5.6c-0.5,0-0.9-0.4-0.9-0.9v-2.7c0-0.5,0.4-0.9,0.9-0.9h5.6
										c0.5,0,0.9,0.4,0.9,0.9v2.7C59.7,47.6,59.3,48,58.8,48z"/>
								</g>
							</g>
							<g id="XMLID_694_">
								<g id="XMLID_695_">
									<path id="XMLID_696_" class="st4" d="M68.8,48h-5.6c-0.5,0-0.9-0.4-0.9-0.9v-2.7c0-0.5,0.4-0.9,0.9-0.9h5.6
										c0.5,0,0.9,0.4,0.9,0.9v2.7C69.7,47.6,69.3,48,68.8,48z"/>
								</g>
							</g>
							<g id="XMLID_690_">
								<g id="XMLID_691_">
									<path id="XMLID_692_" class="st4" d="M78.7,48h-5.6c-0.5,0-0.9-0.4-0.9-0.9v-2.7c0-0.5,0.4-0.9,0.9-0.9h5.6
										c0.5,0,0.9,0.4,0.9,0.9v2.7C79.6,47.6,79.2,48,78.7,48z"/>
								</g>
							</g>
						</g>
					</g>
				</g>
				<g id="XMLID_12603_">
					
						<image style="overflow:visible;opacity:0.5;" width="54" height="11" id="XMLID_693_" xlink:href="4C8AF492.png"  transform="matrix(1 0 0 1 29.3005 48.4244)">
					</image>
					<g id="XMLID_601_">
						<g id="XMLID_636_">
							<g id="XMLID_674_">
								<g id="XMLID_675_">
									<path id="XMLID_676_" class="st4" d="M39,56.2h-5.6c-0.5,0-0.9-0.4-0.9-0.9v-2.7c0-0.5,0.4-0.9,0.9-0.9H39
										c0.5,0,0.9,0.4,0.9,0.9v2.7C39.8,55.8,39.4,56.2,39,56.2z"/>
								</g>
							</g>
							<g id="XMLID_671_">
								<g id="XMLID_672_">
									<path id="XMLID_673_" class="st4" d="M48.9,56.2h-5.6c-0.5,0-0.9-0.4-0.9-0.9v-2.7c0-0.5,0.4-0.9,0.9-0.9h5.6
										c0.5,0,0.9,0.4,0.9,0.9v2.7C49.8,55.8,49.4,56.2,48.9,56.2z"/>
								</g>
							</g>
							<g id="XMLID_668_">
								<g id="XMLID_669_">
									<path id="XMLID_670_" class="st4" d="M58.8,56.2h-5.6c-0.5,0-0.9-0.4-0.9-0.9v-2.7c0-0.5,0.4-0.9,0.9-0.9h5.6
										c0.5,0,0.9,0.4,0.9,0.9v2.7C59.7,55.8,59.3,56.2,58.8,56.2z"/>
								</g>
							</g>
							<g id="XMLID_640_">
								<g id="XMLID_641_">
									<path id="XMLID_642_" class="st4" d="M68.8,56.2h-5.6c-0.5,0-0.9-0.4-0.9-0.9v-2.7c0-0.5,0.4-0.9,0.9-0.9h5.6
										c0.5,0,0.9,0.4,0.9,0.9v2.7C69.7,55.8,69.3,56.2,68.8,56.2z"/>
								</g>
							</g>
							<g id="XMLID_637_">
								<g id="XMLID_638_">
									<path id="XMLID_639_" class="st4" d="M78.7,56.2h-5.6c-0.5,0-0.9-0.4-0.9-0.9v-2.7c0-0.5,0.4-0.9,0.9-0.9h5.6
										c0.5,0,0.9,0.4,0.9,0.9v2.7C79.6,55.8,79.2,56.2,78.7,56.2z"/>
								</g>
							</g>
						</g>
					</g>
				</g>
				<g id="XMLID_12459_">
					<g id="XMLID_643_">
						<g id="XMLID_665_">
							<g id="XMLID_666_">
								<path id="XMLID_667_" class="st2" d="M39,64.3h-5.6c-0.5,0-0.9-0.4-0.9-0.9v-2.7c0-0.5,0.4-0.9,0.9-0.9H39
									c0.5,0,0.9,0.4,0.9,0.9v2.7C39.8,63.9,39.4,64.3,39,64.3z"/>
							</g>
						</g>
						<g id="XMLID_659_">
							
								<image style="overflow:visible;opacity:0.5;" width="14" height="11" id="XMLID_664_" xlink:href="4C8AF493.png"  transform="matrix(1 0 0 1 39.3005 56.4244)">
							</image>
							<g id="XMLID_660_">
								<g id="XMLID_661_">
									<g id="XMLID_662_">
										<path id="XMLID_663_" class="st4" d="M48.9,64.3h-5.6c-0.5,0-0.9-0.4-0.9-0.9v-2.7c0-0.5,0.4-0.9,0.9-0.9h5.6
											c0.5,0,0.9,0.4,0.9,0.9v2.7C49.8,63.9,49.4,64.3,48.9,64.3z"/>
									</g>
								</g>
							</g>
						</g>
						<g id="XMLID_653_">
							
								<image style="overflow:visible;opacity:0.5;" width="14" height="11" id="XMLID_658_" xlink:href="4C8AF49E.png"  transform="matrix(1 0 0 1 49.3005 56.4244)">
							</image>
							<g id="XMLID_654_">
								<g id="XMLID_655_">
									<g id="XMLID_656_">
										<path id="XMLID_657_" class="st4" d="M58.8,64.3h-5.6c-0.5,0-0.9-0.4-0.9-0.9v-2.7c0-0.5,0.4-0.9,0.9-0.9h5.6
											c0.5,0,0.9,0.4,0.9,0.9v2.7C59.7,63.9,59.3,64.3,58.8,64.3z"/>
									</g>
								</g>
							</g>
						</g>
						<g id="XMLID_647_">
							
								<image style="overflow:visible;opacity:0.5;" width="14" height="11" id="XMLID_652_" xlink:href="4C8AF49F.png"  transform="matrix(1 0 0 1 59.3005 56.4244)">
							</image>
							<g id="XMLID_648_">
								<g id="XMLID_649_">
									<g id="XMLID_650_">
										<path id="XMLID_651_" class="st4" d="M68.8,64.3h-5.6c-0.5,0-0.9-0.4-0.9-0.9v-2.7c0-0.5,0.4-0.9,0.9-0.9h5.6
											c0.5,0,0.9,0.4,0.9,0.9v2.7C69.7,63.9,69.3,64.3,68.8,64.3z"/>
									</g>
								</g>
							</g>
						</g>
						<g id="XMLID_644_">
							<g id="XMLID_645_">
								<path id="XMLID_646_" class="st2" d="M78.7,64.3h-5.6c-0.5,0-0.9-0.4-0.9-0.9v-2.7c0-0.5,0.4-0.9,0.9-0.9h5.6
									c0.5,0,0.9,0.4,0.9,0.9v2.7C79.6,63.9,79.2,64.3,78.7,64.3z"/>
							</g>
						</g>
					</g>
				</g>
				<g id="XMLID_12412_">
					<g id="XMLID_559_">
						<g id="XMLID_575_">
							<g id="XMLID_576_">
								<path id="XMLID_577_" class="st2" d="M39,72.5h-5.6c-0.5,0-0.9-0.4-0.9-0.9v-2.7c0-0.5,0.4-0.9,0.9-0.9H39
									c0.5,0,0.9,0.4,0.9,0.9v2.7C39.8,72.1,39.4,72.5,39,72.5z"/>
							</g>
						</g>
						<g id="XMLID_572_">
							<g id="XMLID_573_">
								<path id="XMLID_574_" class="st2" d="M48.9,72.5h-5.6c-0.5,0-0.9-0.4-0.9-0.9v-2.7c0-0.5,0.4-0.9,0.9-0.9h5.6
									c0.5,0,0.9,0.4,0.9,0.9v2.7C49.8,72.1,49.4,72.5,48.9,72.5z"/>
							</g>
						</g>
						<g id="XMLID_566_">
							
								<image style="overflow:visible;opacity:0.5;" width="14" height="12" id="XMLID_571_" xlink:href="4C8AF494.png"  transform="matrix(1 0 0 1 49.3005 64.4244)">
							</image>
							<g id="XMLID_567_">
								<g id="XMLID_568_">
									<g id="XMLID_569_">
										<rect id="XMLID_570_" x="52.4" y="68" class="st4" width="7.3" height="4.5"/>
									</g>
								</g>
							</g>
						</g>
						<g id="XMLID_563_">
							<g id="XMLID_564_">
								<path id="XMLID_565_" class="st2" d="M68.8,72.5h-5.6c-0.5,0-0.9-0.4-0.9-0.9v-2.7c0-0.5,0.4-0.9,0.9-0.9h5.6
									c0.5,0,0.9,0.4,0.9,0.9v2.7C69.7,72.1,69.3,72.5,68.8,72.5z"/>
							</g>
						</g>
						<g id="XMLID_560_">
							<g id="XMLID_561_">
								<path id="XMLID_562_" class="st2" d="M78.7,72.5h-5.6c-0.5,0-0.9-0.4-0.9-0.9v-2.7c0-0.5,0.4-0.9,0.9-0.9h5.6
									c0.5,0,0.9,0.4,0.9,0.9v2.7C79.6,72.1,79.2,72.5,78.7,72.5z"/>
							</g>
						</g>
					</g>
				</g>
				<g id="XMLID_12374_">
					<g id="XMLID_508_">
						<g id="XMLID_521_">
							<g id="XMLID_522_">
								<path id="XMLID_523_" class="st2" d="M39,80.6h-5.6c-0.5,0-0.9-0.4-0.9-0.9V77c0-0.5,0.4-0.9,0.9-0.9H39
									c0.5,0,0.9,0.4,0.9,0.9v2.7C39.8,80.3,39.4,80.6,39,80.6z"/>
							</g>
						</g>
						<g id="XMLID_518_">
							<g id="XMLID_519_">
								<path id="XMLID_520_" class="st2" d="M48.9,80.6h-5.6c-0.5,0-0.9-0.4-0.9-0.9V77c0-0.5,0.4-0.9,0.9-0.9h5.6
									c0.5,0,0.9,0.4,0.9,0.9v2.7C49.8,80.3,49.4,80.6,48.9,80.6z"/>
							</g>
						</g>
						<g id="XMLID_515_">
							<g id="XMLID_516_">
								<path id="XMLID_517_" class="st2" d="M58.8,80.6h-5.6c-0.5,0-0.9-0.4-0.9-0.9V77c0-0.5,0.4-0.9,0.9-0.9h5.6
									c0.5,0,0.9,0.4,0.9,0.9v2.7C59.7,80.3,59.3,80.6,58.8,80.6z"/>
							</g>
						</g>
						<g id="XMLID_512_">
							<g id="XMLID_513_">
								<path id="XMLID_514_" class="st2" d="M68.8,80.6h-5.6c-0.5,0-0.9-0.4-0.9-0.9V77c0-0.5,0.4-0.9,0.9-0.9h5.6
									c0.5,0,0.9,0.4,0.9,0.9v2.7C69.7,80.3,69.3,80.6,68.8,80.6z"/>
							</g>
						</g>
						<g id="XMLID_509_">
							<g id="XMLID_510_">
								<path id="XMLID_511_" class="st2" d="M78.7,80.6h-5.6c-0.5,0-0.9-0.4-0.9-0.9V77c0-0.5,0.4-0.9,0.9-0.9h5.6
									c0.5,0,0.9,0.4,0.9,0.9v2.7C79.6,80.3,79.2,80.6,78.7,80.6z"/>
							</g>
						</g>
					</g>
				</g>
				<g id="XMLID_12370_">
					<g id="XMLID_12371_">
						<path id="XMLID_224_" class="st5" d="M33.1,46.9v-2.2c0-0.4,0.3-0.7,0.7-0.7h4.8c0.4,0,0.7,0.3,0.7,0.7l0,2.2
							c0,0.4-0.3,0.7-0.7,0.7h-4.8C33.4,47.6,33.1,47.3,33.1,46.9z"/>
					</g>
				</g>
				<g id="XMLID_12366_">
					<g id="XMLID_12367_">
						<path id="XMLID_222_" class="st5" d="M43,46.9v-2.2c0-0.4,0.3-0.7,0.7-0.7h4.8c0.4,0,0.7,0.3,0.7,0.7v2.2
							c0,0.4-0.3,0.7-0.7,0.7h-4.8C43.3,47.6,43,47.3,43,46.9z"/>
					</g>
				</g>
				<g id="XMLID_12362_">
					<g id="XMLID_12363_">
						<path id="XMLID_220_" class="st5" d="M53,46.9v-2.2c0-0.4,0.3-0.7,0.7-0.7h4.8c0.4,0,0.7,0.3,0.7,0.7v2.2
							c0,0.4-0.3,0.7-0.7,0.7h-4.8C53.3,47.6,53,47.3,53,46.9z"/>
					</g>
				</g>
				<g id="XMLID_12358_">
					<g id="XMLID_12359_">
						<path id="XMLID_218_" class="st5" d="M62.9,46.9v-2.2c0-0.4,0.3-0.7,0.7-0.7h4.8c0.4,0,0.7,0.3,0.7,0.7v2.2
							c0,0.4-0.3,0.7-0.7,0.7h-4.8C63.2,47.6,62.9,47.3,62.9,46.9z"/>
					</g>
				</g>
				<g id="XMLID_12354_">
					<g id="XMLID_12355_">
						<path id="XMLID_216_" class="st5" d="M72.9,46.9v-2.2c0-0.4,0.3-0.7,0.7-0.7h4.8c0.4,0,0.7,0.3,0.7,0.7v2.2
							c0,0.4-0.3,0.7-0.7,0.7h-4.8C73.2,47.6,72.9,47.3,72.9,46.9z"/>
					</g>
				</g>
				<g id="XMLID_12350_">
					<g id="XMLID_12351_">
						<path id="XMLID_214_" class="st5" d="M33.1,55v-2.2c0-0.4,0.3-0.7,0.7-0.7h4.8c0.4,0,0.7,0.3,0.7,0.7V55
							c0,0.4-0.3,0.7-0.7,0.7h-4.8C33.4,55.7,33.1,55.4,33.1,55z"/>
					</g>
				</g>
				<g id="XMLID_12346_">
					<g id="XMLID_12347_">
						<path id="XMLID_212_" class="st5" d="M43,55v-2.2c0-0.4,0.3-0.7,0.7-0.7h4.8c0.4,0,0.7,0.3,0.7,0.7V55c0,0.4-0.3,0.7-0.7,0.7
							h-4.8C43.3,55.7,43,55.4,43,55z"/>
					</g>
				</g>
				<g id="XMLID_12342_">
					<g id="XMLID_12343_">
						<path id="XMLID_210_" class="st5" d="M53,55v-2.2c0-0.4,0.3-0.7,0.7-0.7h4.8c0.4,0,0.7,0.3,0.7,0.7V55c0,0.4-0.3,0.7-0.7,0.7
							h-4.8C53.3,55.7,53,55.4,53,55z"/>
					</g>
				</g>
				<g id="XMLID_12338_">
					<g id="XMLID_12339_">
						<path id="XMLID_208_" class="st5" d="M62.9,55v-2.2c0-0.4,0.3-0.7,0.7-0.7h4.8c0.4,0,0.7,0.3,0.7,0.7V55
							c0,0.4-0.3,0.7-0.7,0.7h-4.8C63.2,55.7,62.9,55.4,62.9,55z"/>
					</g>
				</g>
				<g id="XMLID_12334_">
					<g id="XMLID_12335_">
						<path id="XMLID_206_" class="st5" d="M43,63.2V61c0-0.4,0.3-0.7,0.7-0.7h4.8c0.4,0,0.7,0.3,0.7,0.7v2.2c0,0.4-0.3,0.7-0.7,0.7
							h-4.8C43.3,63.9,43,63.6,43,63.2z"/>
					</g>
				</g>
				<g id="XMLID_12330_">
					<g id="XMLID_12331_">
						<path id="XMLID_204_" class="st5" d="M53,63.2V61c0-0.4,0.3-0.7,0.7-0.7h4.8c0.4,0,0.7,0.3,0.7,0.7v2.2c0,0.4-0.3,0.7-0.7,0.7
							h-4.8C53.3,63.9,53,63.6,53,63.2z"/>
					</g>
				</g>
				<g id="XMLID_12326_">
					<g id="XMLID_12327_">
						<path id="XMLID_202_" class="st5" d="M53,71.3v-2.2c0-0.4,0.3-0.7,0.7-0.7h4.8c0.4,0,0.7,0.3,0.7,0.7v2.2
							c0,0.4-0.3,0.7-0.7,0.7h-4.8C53.3,72,53,71.7,53,71.3z"/>
					</g>
				</g>
				<g id="XMLID_12322_">
					<g id="XMLID_12323_">
						<path id="XMLID_200_" class="st5" d="M62.9,63.2V61c0-0.4,0.3-0.7,0.7-0.7h4.8c0.4,0,0.7,0.3,0.7,0.7v2.2
							c0,0.4-0.3,0.7-0.7,0.7h-4.8C63.2,63.9,62.9,63.6,62.9,63.2z"/>
					</g>
				</g>
				<g id="XMLID_12318_">
					<g id="XMLID_12319_">
						<path id="XMLID_198_" class="st5" d="M72.9,55v-2.2c0-0.4,0.3-0.7,0.7-0.7h4.8c0.4,0,0.7,0.3,0.7,0.7V55
							c0,0.4-0.3,0.7-0.7,0.7h-4.8C73.2,55.7,72.9,55.4,72.9,55z"/>
					</g>
				</g>
			</g>
		</g>
		<g id="XMLID_12251_">
			<g id="XMLID_12284_">
				<g id="XMLID_12285_">
					<rect id="XMLID_12315_" x="0.5" y="23" class="st6" width="22.6" height="74.5"/>
					<polygon id="XMLID_12314_" class="st7" points="7.1,90 7.1,85.2 10.9,87.6 					"/>
					<polygon id="XMLID_12313_" class="st8" points="16.6,85.2 16.6,90 12.8,87.6 					"/>
					<polygon id="XMLID_12312_" class="st8" points="7.1,34.7 7.1,29.9 10.9,32.3 					"/>
					<polygon id="XMLID_12311_" class="st7" points="16.6,29.9 16.6,34.7 12.8,32.3 					"/>
					<g id="XMLID_12286_">
						<g id="XMLID_274_">
							<rect id="XMLID_319_" x="10.4" y="82.2" class="st2" width="3.1" height="1.7"/>
							<rect id="XMLID_318_" x="10.4" y="77.6" class="st2" width="3.1" height="1.7"/>
							<rect id="XMLID_317_" x="10.4" y="73.1" class="st2" width="3.1" height="1.7"/>
							<rect id="XMLID_316_" x="10.4" y="68.5" class="st2" width="3.1" height="1.7"/>
							<rect id="XMLID_315_" x="10.4" y="64" class="st2" width="3.1" height="1.7"/>
							<rect id="XMLID_314_" x="10.4" y="59.4" class="st2" width="3.1" height="1.7"/>
							<rect id="XMLID_313_" x="10.4" y="54.9" class="st2" width="3.1" height="1.7"/>
							<rect id="XMLID_312_" x="10.4" y="50.3" class="st2" width="3.1" height="1.7"/>
							<rect id="XMLID_278_" x="10.4" y="45.8" class="st2" width="3.1" height="1.7"/>
							<rect id="XMLID_277_" x="10.4" y="41.2" class="st2" width="3.1" height="1.7"/>
							<rect id="XMLID_275_" x="10.4" y="36.7" class="st2" width="3.1" height="1.7"/>
						</g>
					</g>
				</g>
			</g>
			<g id="XMLID_12252_">
				<g id="XMLID_12253_">
					<rect id="XMLID_12283_" x="85.9" y="23" class="st6" width="22.6" height="74.5"/>
					<polygon id="XMLID_12282_" class="st7" points="101.9,30.5 101.9,35.3 98.1,32.9 					"/>
					<polygon id="XMLID_12281_" class="st8" points="92.4,35.3 92.4,30.5 96.2,32.9 					"/>
					<polygon id="XMLID_12280_" class="st8" points="101.9,85.8 101.9,90.6 98.1,88.2 					"/>
					<polygon id="XMLID_12279_" class="st7" points="92.4,90.6 92.4,85.8 96.2,88.2 					"/>
					<g id="XMLID_12254_">
						<g id="XMLID_261_">
							<rect id="XMLID_272_" x="95.5" y="36.7" class="st2" width="3.1" height="1.7"/>
							<rect id="XMLID_271_" x="95.5" y="41.2" class="st2" width="3.1" height="1.7"/>
							<rect id="XMLID_270_" x="95.5" y="45.8" class="st2" width="3.1" height="1.7"/>
							<rect id="XMLID_269_" x="95.5" y="50.3" class="st2" width="3.1" height="1.7"/>
							<rect id="XMLID_268_" x="95.5" y="54.9" class="st2" width="3.1" height="1.7"/>
							<rect id="XMLID_267_" x="95.5" y="59.4" class="st2" width="3.1" height="1.7"/>
							<rect id="XMLID_266_" x="95.5" y="64" class="st2" width="3.1" height="1.7"/>
							<rect id="XMLID_265_" x="95.5" y="68.5" class="st2" width="3.1" height="1.7"/>
							<rect id="XMLID_264_" x="95.5" y="73.1" class="st2" width="3.1" height="1.7"/>
							<rect id="XMLID_263_" x="95.5" y="77.6" class="st2" width="3.1" height="1.7"/>
							<rect id="XMLID_262_" x="95.5" y="82.2" class="st2" width="3.1" height="1.7"/>
						</g>
					</g>
				</g>
			</g>
		</g>
	</g>
	<g id="XMLID_10478_">
		<g id="XMLID_11927_">
			<g id="XMLID_11997_">
				<path id="XMLID_12249_" class="st4" d="M372.6,96h-75.2c-2.9,0-5.3-2.4-5.3-5.3V29.8c0-2.9,2.4-5.3,5.3-5.3h75.2
					c2.9,0,5.3,2.4,5.3,5.3v60.9C377.9,93.6,375.6,96,372.6,96z"/>
				<g id="XMLID_12063_">
					<g id="XMLID_12090_">
						<g id="XMLID_12091_">
							<g id="XMLID_12215_">
								<path id="XMLID_12246_" class="st2" d="M377.5,40.2H367c-0.3,0-0.5-0.2-0.5-0.5v-1.9c0-0.3,0.2-0.5,0.5-0.5h10.5
									c0.3,0,0.5,0.2,0.5,0.5v1.9C378,40,377.8,40.2,377.5,40.2z"/>
								<path id="XMLID_12243_" class="st2" d="M377.5,44.5H367c-0.3,0-0.5-0.2-0.5-0.5v-1.9c0-0.3,0.2-0.5,0.5-0.5h10.5
									c0.3,0,0.5,0.2,0.5,0.5V44C378,44.3,377.8,44.5,377.5,44.5z"/>
								<path id="XMLID_12240_" class="st2" d="M377.5,48.8H367c-0.3,0-0.5-0.2-0.5-0.5v-1.9c0-0.3,0.2-0.5,0.5-0.5h10.5
									c0.3,0,0.5,0.2,0.5,0.5v1.9C378,48.6,377.8,48.8,377.5,48.8z"/>
								<path id="XMLID_12237_" class="st2" d="M377.5,53.1H367c-0.3,0-0.5-0.2-0.5-0.5v-1.9c0-0.3,0.2-0.5,0.5-0.5h10.5
									c0.3,0,0.5,0.2,0.5,0.5v1.9C378,52.9,377.8,53.1,377.5,53.1z"/>
								<path id="XMLID_12234_" class="st2" d="M377.5,57.4H367c-0.3,0-0.5-0.2-0.5-0.5V55c0-0.3,0.2-0.5,0.5-0.5h10.5
									c0.3,0,0.5,0.2,0.5,0.5v1.9C378,57.2,377.8,57.4,377.5,57.4z"/>
								<path id="XMLID_12231_" class="st2" d="M377.5,61.7H367c-0.3,0-0.5-0.2-0.5-0.5v-1.9c0-0.3,0.2-0.5,0.5-0.5h10.5
									c0.3,0,0.5,0.2,0.5,0.5v1.9C378,61.5,377.8,61.7,377.5,61.7z"/>
								<path id="XMLID_12228_" class="st2" d="M377.5,66H367c-0.3,0-0.5-0.2-0.5-0.5v-1.9c0-0.3,0.2-0.5,0.5-0.5h10.5
									c0.3,0,0.5,0.2,0.5,0.5v1.9C378,65.8,377.8,66,377.5,66z"/>
								<path id="XMLID_12225_" class="st2" d="M377.5,70.3H367c-0.3,0-0.5-0.2-0.5-0.5v-1.9c0-0.3,0.2-0.5,0.5-0.5h10.5
									c0.3,0,0.5,0.2,0.5,0.5v1.9C378,70.1,377.8,70.3,377.5,70.3z"/>
								<path id="XMLID_12222_" class="st2" d="M377.5,74.6H367c-0.3,0-0.5-0.2-0.5-0.5v-1.9c0-0.3,0.2-0.5,0.5-0.5h10.5
									c0.3,0,0.5,0.2,0.5,0.5v1.9C378,74.3,377.8,74.6,377.5,74.6z"/>
								<path id="XMLID_12219_" class="st2" d="M377.5,78.9H367c-0.3,0-0.5-0.2-0.5-0.5v-1.9c0-0.3,0.2-0.5,0.5-0.5h10.5
									c0.3,0,0.5,0.2,0.5,0.5v1.9C378,78.6,377.8,78.9,377.5,78.9z"/>
								<path id="XMLID_12216_" class="st2" d="M377.5,83.2H367c-0.3,0-0.5-0.2-0.5-0.5v-1.9c0-0.3,0.2-0.5,0.5-0.5h10.5
									c0.3,0,0.5,0.2,0.5,0.5v1.9C378,82.9,377.8,83.2,377.5,83.2z"/>
							</g>
							<g id="XMLID_12092_">
								<g id="XMLID_441_">
									<g id="XMLID_468_">
										<path id="XMLID_469_" class="st2" d="M303.1,40.2h-10.5c-0.3,0-0.5-0.2-0.5-0.5v-1.9c0-0.3,0.2-0.5,0.5-0.5h10.5
											c0.3,0,0.5,0.2,0.5,0.5v1.9C303.5,40,303.3,40.2,303.1,40.2z"/>
									</g>
									<g id="XMLID_466_">
										<path id="XMLID_467_" class="st2" d="M303.1,44.5h-10.5c-0.3,0-0.5-0.2-0.5-0.5v-1.9c0-0.3,0.2-0.5,0.5-0.5h10.5
											c0.3,0,0.5,0.2,0.5,0.5V44C303.5,44.3,303.3,44.5,303.1,44.5z"/>
									</g>
									<g id="XMLID_464_">
										<path id="XMLID_465_" class="st2" d="M303.1,48.8h-10.5c-0.3,0-0.5-0.2-0.5-0.5v-1.9c0-0.3,0.2-0.5,0.5-0.5h10.5
											c0.3,0,0.5,0.2,0.5,0.5v1.9C303.5,48.6,303.3,48.8,303.1,48.8z"/>
									</g>
									<g id="XMLID_462_">
										<path id="XMLID_463_" class="st2" d="M303.1,53.1h-10.5c-0.3,0-0.5-0.2-0.5-0.5v-1.9c0-0.3,0.2-0.5,0.5-0.5h10.5
											c0.3,0,0.5,0.2,0.5,0.5v1.9C303.5,52.9,303.3,53.1,303.1,53.1z"/>
									</g>
									<g id="XMLID_460_">
										<path id="XMLID_461_" class="st2" d="M303.1,57.4h-10.5c-0.3,0-0.5-0.2-0.5-0.5V55c0-0.3,0.2-0.5,0.5-0.5h10.5
											c0.3,0,0.5,0.2,0.5,0.5v1.9C303.5,57.2,303.3,57.4,303.1,57.4z"/>
									</g>
									<g id="XMLID_458_">
										<path id="XMLID_459_" class="st2" d="M303.1,61.7h-10.5c-0.3,0-0.5-0.2-0.5-0.5v-1.9c0-0.3,0.2-0.5,0.5-0.5h10.5
											c0.3,0,0.5,0.2,0.5,0.5v1.9C303.5,61.5,303.3,61.7,303.1,61.7z"/>
									</g>
									<g id="XMLID_456_">
										<path id="XMLID_457_" class="st2" d="M303.1,66h-10.5c-0.3,0-0.5-0.2-0.5-0.5v-1.9c0-0.3,0.2-0.5,0.5-0.5h10.5
											c0.3,0,0.5,0.2,0.5,0.5v1.9C303.5,65.8,303.3,66,303.1,66z"/>
									</g>
									<g id="XMLID_454_">
										<path id="XMLID_455_" class="st2" d="M303.1,70.3h-10.5c-0.3,0-0.5-0.2-0.5-0.5v-1.9c0-0.3,0.2-0.5,0.5-0.5h10.5
											c0.3,0,0.5,0.2,0.5,0.5v1.9C303.5,70.1,303.3,70.3,303.1,70.3z"/>
									</g>
									<g id="XMLID_452_">
										<path id="XMLID_453_" class="st2" d="M303.1,74.6h-10.5c-0.3,0-0.5-0.2-0.5-0.5v-1.9c0-0.3,0.2-0.5,0.5-0.5h10.5
											c0.3,0,0.5,0.2,0.5,0.5v1.9C303.5,74.3,303.3,74.6,303.1,74.6z"/>
									</g>
									<g id="XMLID_450_">
										<path id="XMLID_451_" class="st2" d="M303.1,78.9h-10.5c-0.3,0-0.5-0.2-0.5-0.5v-1.9c0-0.3,0.2-0.5,0.5-0.5h10.5
											c0.3,0,0.5,0.2,0.5,0.5v1.9C303.5,78.6,303.3,78.9,303.1,78.9z"/>
									</g>
									<g id="XMLID_442_">
										<path id="XMLID_443_" class="st2" d="M303.1,83.2h-10.5c-0.3,0-0.5-0.2-0.5-0.5v-1.9c0-0.3,0.2-0.5,0.5-0.5h10.5
											c0.3,0,0.5,0.2,0.5,0.5v1.9C303.5,82.9,303.3,83.2,303.1,83.2z"/>
									</g>
								</g>
							</g>
						</g>
					</g>
					<g id="XMLID_12084_">
						<circle id="XMLID_12089_" class="st2" cx="370.7" cy="31.7" r="5"/>
						<circle id="XMLID_12085_" class="st9" cx="370.7" cy="31.7" r="3.6"/>
					</g>
					<g id="XMLID_12078_">
						<circle id="XMLID_12083_" class="st2" cx="370.7" cy="88.8" r="5"/>
						<circle id="XMLID_12079_" class="st9" cx="370.7" cy="88.8" r="3.6"/>
					</g>
					<g id="XMLID_12070_">
						<circle id="XMLID_12077_" class="st2" cx="299.2" cy="31.7" r="5"/>
						<circle id="XMLID_12071_" class="st9" cx="299.2" cy="31.7" r="3.6"/>
					</g>
					<g id="XMLID_12064_">
						<circle id="XMLID_12069_" class="st2" cx="299.2" cy="88.8" r="5"/>
						<circle id="XMLID_12065_" class="st9" cx="299.2" cy="88.8" r="3.6"/>
					</g>
				</g>
				<g id="XMLID_12007_">
					<g id="XMLID_355_">
						<g id="XMLID_411_">
							<circle id="XMLID_412_" class="st2" cx="324.1" cy="92" r="2.3"/>
						</g>
						<circle id="XMLID_410_" class="st9" cx="324.1" cy="92" r="1.3"/>
						<g id="XMLID_408_">
							<circle id="XMLID_409_" class="st2" cx="316.9" cy="92" r="2.3"/>
						</g>
						<circle id="XMLID_399_" class="st9" cx="316.9" cy="92" r="1.3"/>
						<g id="XMLID_396_">
							<circle id="XMLID_397_" class="st2" cx="309.6" cy="92" r="2.3"/>
						</g>
						<circle id="XMLID_395_" class="st9" cx="309.6" cy="92" r="1.3"/>
						<g id="XMLID_387_">
							<circle id="XMLID_390_" class="st2" cx="331.4" cy="92" r="2.3"/>
						</g>
						<circle id="XMLID_385_" class="st9" cx="331.4" cy="92" r="1.3"/>
						<g id="XMLID_377_">
							<circle id="XMLID_378_" class="st2" cx="338.6" cy="92" r="2.3"/>
						</g>
						<circle id="XMLID_376_" class="st9" cx="338.6" cy="92" r="1.3"/>
						<g id="XMLID_366_">
							<circle id="XMLID_375_" class="st2" cx="345.9" cy="92" r="2.3"/>
						</g>
						<circle id="XMLID_365_" class="st9" cx="345.9" cy="92" r="1.3"/>
						<g id="XMLID_363_">
							<circle id="XMLID_364_" class="st2" cx="353.1" cy="92" r="2.3"/>
						</g>
						<circle id="XMLID_362_" class="st9" cx="353.1" cy="92" r="1.3"/>
						<rect id="XMLID_360_" x="358" y="89.7" class="st2" width="4.6" height="4.6"/>
						<circle id="XMLID_358_" class="st9" cx="360.3" cy="92" r="1.3"/>
					</g>
				</g>
				<g id="XMLID_11999_">
					<g id="XMLID_12000_">
						<rect id="XMLID_126_" x="311" y="27.5" class="st0" width="6" height="3.1"/>
						<g id="XMLID_119_">
							<path id="XMLID_121_" class="st1" d="M316.9,27.6v2.9h-5.7v-2.9H316.9 M317.1,27.4h-0.2h-5.7h-0.2v0.2v2.9v0.2h0.2h5.7h0.2
								v-0.2v-2.9V27.4L317.1,27.4z"/>
						</g>
					</g>
				</g>
				<rect id="XMLID_11998_" x="312.6" y="27.6" class="st1" width="2.9" height="2.9"/>
			</g>
			<g id="XMLID_11951_">
				<rect id="XMLID_11996_" x="281.1" y="23" class="st6" width="22.5" height="74.5"/>
				<polygon id="XMLID_11995_" class="st7" points="287.6,90 287.6,85.2 291.4,87.6 				"/>
				<polygon id="XMLID_11994_" class="st8" points="297.1,85.2 297.1,90 293.3,87.6 				"/>
				<polygon id="XMLID_11993_" class="st8" points="287.6,34.7 287.6,29.9 291.4,32.3 				"/>
				<polygon id="XMLID_11992_" class="st7" points="297.1,29.9 297.1,34.7 293.3,32.3 				"/>
				<g id="XMLID_11952_">
					<rect id="XMLID_11991_" x="290.9" y="82.2" class="st10" width="3.1" height="1.7"/>
					<rect id="XMLID_11990_" x="290.9" y="77.6" class="st10" width="3.1" height="1.7"/>
					<rect id="XMLID_11989_" x="290.9" y="73.1" class="st10" width="3.1" height="1.7"/>
					<rect id="XMLID_11988_" x="290.9" y="68.5" class="st10" width="3.1" height="1.7"/>
					<rect id="XMLID_11987_" x="290.9" y="64" class="st10" width="3.1" height="1.7"/>
					<rect id="XMLID_11986_" x="290.9" y="59.4" class="st10" width="3.1" height="1.7"/>
					<rect id="XMLID_11985_" x="290.9" y="54.9" class="st10" width="3.1" height="1.7"/>
					<rect id="XMLID_11984_" x="290.9" y="50.3" class="st10" width="3.1" height="1.7"/>
					<rect id="XMLID_11983_" x="290.9" y="45.8" class="st10" width="3.1" height="1.7"/>
					<rect id="XMLID_11954_" x="290.9" y="41.2" class="st10" width="3.1" height="1.7"/>
					<rect id="XMLID_11953_" x="290.9" y="36.7" class="st10" width="3.1" height="1.7"/>
				</g>
			</g>
			<g id="XMLID_634_">
				<g id="XMLID_830_">
					<path id="XMLID_840_" class="st0" d="M325.8,37.2c-0.1,0.1-0.2,0.2-0.4,0.2c-0.2,0-0.3,0-0.4-0.2c-0.1-0.1-0.2-0.2-0.2-0.4v-5
						c0-0.1,0.1-0.3,0.2-0.4c0.1-0.1,0.2-0.2,0.4-0.2c0.1,0,0.3,0,0.4,0.2c0.1,0.1,0.2,0.2,0.2,0.4v5C326,37,325.9,37.1,325.8,37.2z
						"/>
					<path id="XMLID_838_" class="st0" d="M330.9,33.2c0.2,0.3,0.3,0.8,0.3,1.4v2.2c0,0.1,0,0.3-0.1,0.4c-0.1,0.1-0.2,0.2-0.4,0.2
						c-0.1,0-0.3,0-0.4-0.2c-0.1-0.1-0.1-0.2-0.1-0.4v-2.2c0-0.3-0.1-0.6-0.2-0.7c-0.1-0.2-0.4-0.3-0.7-0.3c-0.3,0-0.6,0.1-0.8,0.3
						c-0.2,0.2-0.3,0.4-0.3,0.7v2.2c0,0.1,0,0.3-0.1,0.4c-0.1,0.1-0.2,0.2-0.4,0.2c-0.2,0-0.3,0-0.4-0.2c-0.1-0.1-0.1-0.2-0.1-0.4
						v-3.5c0-0.1,0-0.3,0.1-0.4c0.1-0.1,0.2-0.2,0.4-0.2c0.1,0,0.3,0,0.4,0.2c0.1,0.1,0.1,0.2,0.1,0.4v0.1c0.2-0.2,0.4-0.4,0.6-0.5
						c0.3-0.1,0.5-0.2,0.8-0.2C330.2,32.7,330.6,32.8,330.9,33.2z"/>
					<path id="XMLID_835_" class="st0" d="M335.8,33c0.3,0.2,0.6,0.5,0.8,0.8c0.2,0.4,0.3,0.8,0.3,1.2c0,0.5-0.1,0.9-0.3,1.2
						c-0.2,0.4-0.4,0.6-0.8,0.8s-0.7,0.3-1.1,0.3c-0.3,0-0.5-0.1-0.8-0.2c-0.2-0.1-0.4-0.2-0.6-0.4v1.7c0,0.1,0,0.3-0.1,0.4
						c-0.1,0.1-0.2,0.1-0.4,0.1s-0.3,0-0.4-0.1c-0.1-0.1-0.1-0.2-0.1-0.4v-5.3c0-0.1,0-0.3,0.1-0.4c0.1-0.1,0.2-0.2,0.4-0.2
						s0.3,0,0.4,0.2c0.1,0.1,0.1,0.2,0.1,0.4v0c0.1-0.2,0.3-0.3,0.6-0.5c0.2-0.1,0.5-0.2,0.8-0.2C335.1,32.7,335.5,32.8,335.8,33z
						 M335.5,36.1c0.2-0.3,0.4-0.6,0.4-1c0-0.4-0.1-0.8-0.4-1c-0.2-0.3-0.5-0.4-0.9-0.4c-0.4,0-0.7,0.1-0.9,0.4s-0.4,0.6-0.4,1
						c0,0.4,0.1,0.8,0.4,1s0.5,0.4,0.9,0.4C335,36.5,335.3,36.4,335.5,36.1z"/>
					<path id="XMLID_833_" class="st0" d="M341.5,32.9c0.1,0.1,0.1,0.2,0.1,0.4v2.2c0,0.6-0.2,1.1-0.5,1.4c-0.3,0.3-0.8,0.5-1.5,0.5
						c-0.6,0-1.1-0.2-1.5-0.5s-0.5-0.8-0.5-1.4v-2.2c0-0.1,0-0.3,0.1-0.4c0.1-0.1,0.2-0.2,0.4-0.2s0.3,0,0.4,0.2
						c0.1,0.1,0.1,0.2,0.1,0.4v2.2c0,0.3,0.1,0.6,0.2,0.8c0.2,0.2,0.4,0.3,0.7,0.3c0.3,0,0.6-0.1,0.7-0.3s0.2-0.4,0.2-0.8v-2.2
						c0-0.1,0-0.3,0.1-0.4c0.1-0.1,0.2-0.2,0.4-0.2C341.3,32.8,341.4,32.8,341.5,32.9z"/>
					<path id="XMLID_831_" class="st0" d="M345.2,36.5c0.1,0.1,0.1,0.2,0.1,0.3c0,0.2-0.1,0.3-0.3,0.4c-0.2,0.1-0.4,0.2-0.6,0.2
						c-0.4,0-0.7-0.1-0.9-0.2c-0.2-0.2-0.4-0.5-0.4-1v-2.4h-0.4c-0.1,0-0.3,0-0.3-0.1c-0.1-0.1-0.1-0.2-0.1-0.3c0-0.1,0-0.2,0.1-0.3
						s0.2-0.1,0.3-0.1h0.4v-0.5c0-0.1,0.1-0.3,0.2-0.4c0.1-0.1,0.2-0.2,0.4-0.2c0.1,0,0.3,0,0.4,0.2c0.1,0.1,0.1,0.2,0.1,0.4v0.5
						h0.6c0.1,0,0.3,0,0.3,0.1c0.1,0.1,0.1,0.2,0.1,0.3c0,0.1,0,0.2-0.1,0.3c-0.1,0.1-0.2,0.1-0.3,0.1h-0.6v2.3c0,0.1,0,0.2,0.1,0.3
						c0.1,0.1,0.1,0.1,0.3,0.1c0,0,0.1,0,0.2,0c0.1,0,0.1,0,0.2,0C345.1,36.4,345.2,36.4,345.2,36.5z"/>
				</g>
			</g>
			<g id="XMLID_11929_">
				<g id="XMLID_11930_">
					<rect id="XMLID_11947_" x="366.2" y="23" class="st6" width="22.5" height="74.5"/>
					<polygon id="XMLID_11946_" class="st7" points="372.8,90 372.8,85.2 376.5,87.6 					"/>
					<polygon id="XMLID_11945_" class="st8" points="382.2,85.2 382.2,90 378.4,87.6 					"/>
					<polygon id="XMLID_11944_" class="st8" points="372.8,34.7 372.8,29.9 376.5,32.3 					"/>
					<polygon id="XMLID_11943_" class="st7" points="382.2,29.9 382.2,34.7 378.4,32.3 					"/>
					<g id="XMLID_11931_">
						<rect id="XMLID_11942_" x="376" y="82.2" class="st10" width="3.1" height="1.7"/>
						<rect id="XMLID_11941_" x="376" y="77.6" class="st10" width="3.1" height="1.7"/>
						<rect id="XMLID_11940_" x="376" y="73.1" class="st10" width="3.1" height="1.7"/>
						<rect id="XMLID_11939_" x="376" y="68.5" class="st10" width="3.1" height="1.7"/>
						<rect id="XMLID_11938_" x="376" y="64" class="st10" width="3.1" height="1.7"/>
						<rect id="XMLID_11937_" x="376" y="59.4" class="st10" width="3.1" height="1.7"/>
						<rect id="XMLID_11936_" x="376" y="54.9" class="st10" width="3.1" height="1.7"/>
						<rect id="XMLID_11935_" x="376" y="50.3" class="st10" width="3.1" height="1.7"/>
						<rect id="XMLID_11934_" x="376" y="45.8" class="st10" width="3.1" height="1.7"/>
						<rect id="XMLID_11933_" x="376" y="41.2" class="st10" width="3.1" height="1.7"/>
						<rect id="XMLID_11932_" x="376" y="36.7" class="st10" width="3.1" height="1.7"/>
					</g>
				</g>
			</g>
		</g>
		<g id="XMLID_11901_">
			<g id="XMLID_11923_">
				<path id="XMLID_11924_" class="st0" d="M333.6,69.3c-4.9,0-8.9-4-8.9-8.9s4-8.9,8.9-8.9s8.9,4,8.9,8.9S338.5,69.3,333.6,69.3z
					 M333.6,54.8c-3.1,0-5.6,2.5-5.6,5.6s2.5,5.6,5.6,5.6c3.1,0,5.6-2.5,5.6-5.6S336.6,54.8,333.6,54.8z"/>
			</g>
			<g id="XMLID_11919_">
				<rect id="XMLID_11921_" x="331.9" y="43.7" class="st0" width="3.3" height="4.7"/>
			</g>
			<g id="XMLID_11916_">
				
					<rect id="XMLID_11918_" x="342" y="47.9" transform="matrix(0.7072 0.707 -0.707 0.7072 136.1422 -228.2943)" class="st0" width="3.3" height="4.7"/>
			</g>
			<g id="XMLID_11913_">
				
					<rect id="XMLID_11914_" x="321.1" y="48.6" transform="matrix(0.7072 0.707 -0.707 0.7072 130.2029 -213.9521)" class="st0" width="4.7" height="3.3"/>
			</g>
			<g id="XMLID_11909_">
				<rect id="XMLID_11911_" x="316.9" y="58.7" class="st0" width="4.7" height="3.3"/>
			</g>
			<g id="XMLID_11906_">
				
					<rect id="XMLID_11908_" x="321.8" y="68.2" transform="matrix(0.7072 0.707 -0.707 0.7072 144.54 -208.0148)" class="st0" width="3.3" height="4.7"/>
			</g>
			<path id="XMLID_11904_" class="st0" d="M333.6,74.5v-3.3c5.9,0,10.8-4.8,10.8-10.8h3.3C347.7,68.2,341.3,74.5,333.6,74.5z"/>
			<path id="XMLID_11903_" class="st0" d="M333.6,79.7v-3.3c8.8,0,16-7.2,16-16h3.3C352.9,71,344.2,79.7,333.6,79.7z"/>
		</g>
		<ellipse id="XMLID_11898_" class="st0" cx="333.6" cy="60.6" rx="6.2" ry="6.3"/>
		<g id="XMLID_11782_">
			<rect id="XMLID_11897_" x="336.2" y="56.7" class="st7" width="3.7" height="1.9"/>
			<rect id="XMLID_11895_" x="336.2" y="59.3" class="st7" width="3.7" height="1.9"/>
			<rect id="XMLID_11864_" x="336.2" y="61.9" class="st7" width="3.7" height="1.9"/>
			<g id="XMLID_11804_">
				<rect id="XMLID_11863_" x="327.2" y="56.7" class="st7" width="3.7" height="1.9"/>
				<rect id="XMLID_11861_" x="327.2" y="59.3" class="st7" width="3.7" height="1.9"/>
				<rect id="XMLID_11811_" x="327.2" y="61.9" class="st7" width="3.7" height="1.9"/>
			</g>
		</g>
		<rect id="XMLID_10482_" x="328.3" y="56.5" class="st11" width="10.6" height="7.5"/>
		<rect id="XMLID_10479_" x="330.8" y="56.8" class="st12" width="5.5" height="7"/>
	</g>
	<g id="XMLID_11949_">
		<g id="XMLID_12883_">
			<g id="XMLID_13203_">
				<g id="XMLID_13359_">
					<g id="XMLID_13360_">
						<path id="XMLID_13365_" class="st13" d="M259.7,117.6h-130c-2.2,0-4-1.8-4-4V6.9c0-2.2,1.8-4,4-4h130c2.2,0,4,1.8,4,4v106.6
							C263.7,115.8,261.9,117.6,259.7,117.6z"/>
						<path id="XMLID_13364_" class="st14" d="M247.6,14.4"/>
						<path id="XMLID_13363_" class="st14" d="M247.6,106.1"/>
						<path id="XMLID_13362_" class="st14" d="M141.8,14.4"/>
						<path id="XMLID_13361_" class="st14" d="M141.8,106.1"/>
					</g>
				</g>
				<g id="XMLID_13275_">
					<g id="XMLID_279_">
						<g id="XMLID_310_">
							<ellipse id="XMLID_311_" class="st2" cx="177.3" cy="111.1" rx="3.7" ry="3.7"/>
						</g>
						<ellipse id="XMLID_309_" class="st15" cx="177.3" cy="111.1" rx="2.1" ry="2.1"/>
						<g id="XMLID_306_">
							<ellipse id="XMLID_307_" class="st2" cx="165.7" cy="111.1" rx="3.7" ry="3.7"/>
						</g>
						<ellipse id="XMLID_305_" class="st15" cx="165.7" cy="111.1" rx="2.1" ry="2.1"/>
						<g id="XMLID_296_">
							<ellipse id="XMLID_304_" class="st2" cx="154.1" cy="111.1" rx="3.7" ry="3.7"/>
						</g>
						<ellipse id="XMLID_295_" class="st15" cx="154.1" cy="111.1" rx="2.1" ry="2.1"/>
						<g id="XMLID_293_">
							<ellipse id="XMLID_294_" class="st2" cx="189" cy="111.1" rx="3.7" ry="3.7"/>
						</g>
						<ellipse id="XMLID_292_" class="st15" cx="189" cy="111.1" rx="2.1" ry="2.1"/>
						<g id="XMLID_290_">
							<ellipse id="XMLID_291_" class="st2" cx="200.6" cy="111.1" rx="3.7" ry="3.7"/>
						</g>
						<ellipse id="XMLID_289_" class="st15" cx="200.6" cy="111.1" rx="2.1" ry="2.1"/>
						<g id="XMLID_287_">
							<ellipse id="XMLID_288_" class="st2" cx="212.2" cy="111.1" rx="3.7" ry="3.7"/>
						</g>
						<ellipse id="XMLID_286_" class="st15" cx="212.2" cy="111.1" rx="2.1" ry="2.1"/>
						<g id="XMLID_284_">
							<ellipse id="XMLID_285_" class="st2" cx="223.9" cy="111.1" rx="3.7" ry="3.7"/>
						</g>
						<ellipse id="XMLID_283_" class="st15" cx="223.9" cy="111.1" rx="2.1" ry="2.1"/>
						<g id="XMLID_281_">
							<rect id="XMLID_282_" x="231.8" y="107.4" class="st2" width="7.4" height="7.4"/>
						</g>
						<ellipse id="XMLID_280_" class="st15" cx="235.5" cy="111.1" rx="2.1" ry="2.1"/>
					</g>
				</g>
				<g id="XMLID_607_">
					<g id="XMLID_908_">
						<path id="XMLID_929_" class="st0" d="M169.8,83.8c0.1,0.1,0.2,0.3,0.2,0.5v2.5c0,0.3-0.1,0.5-0.4,0.6
							c-0.8,0.5-1.7,0.7-2.6,0.7c-0.8,0-1.5-0.2-2.2-0.6c-0.7-0.4-1.2-0.9-1.6-1.6s-0.6-1.4-0.6-2.2c0-0.8,0.2-1.5,0.6-2.2
							s0.9-1.2,1.6-1.6c0.7-0.4,1.4-0.6,2.2-0.6c0.8,0,1.5,0.2,2.1,0.5c0.1,0.1,0.2,0.1,0.3,0.3c0.1,0.1,0.1,0.2,0.1,0.3
							c0,0.2-0.1,0.4-0.2,0.5c-0.1,0.1-0.3,0.2-0.5,0.2c-0.1,0-0.3,0-0.4-0.1c-0.4-0.2-0.9-0.3-1.4-0.3c-0.5,0-1,0.1-1.4,0.4
							c-0.4,0.3-0.8,0.6-1,1.1s-0.4,0.9-0.4,1.4c0,0.5,0.1,1,0.4,1.4c0.3,0.4,0.6,0.8,1,1c0.4,0.3,0.9,0.4,1.4,0.4
							c0.2,0,0.5,0,0.7-0.1c0.3,0,0.5-0.1,0.7-0.2V85h-1.1c-0.2,0-0.4-0.1-0.5-0.2c-0.1-0.1-0.2-0.3-0.2-0.5s0.1-0.4,0.2-0.5
							c0.1-0.1,0.3-0.2,0.5-0.2h2C169.5,83.6,169.7,83.7,169.8,83.8z"/>
						<path id="XMLID_927_" class="st0" d="M175.3,81.8c0.2,0.1,0.2,0.3,0.2,0.5c0,0.2-0.1,0.4-0.2,0.6c-0.1,0.1-0.3,0.2-0.5,0.2
							c-0.1,0-0.3,0-0.4-0.1c0,0-0.1,0-0.2,0s-0.2,0-0.3,0c-0.2,0-0.4,0.1-0.6,0.2c-0.2,0.1-0.4,0.3-0.5,0.6
							c-0.1,0.3-0.2,0.6-0.2,0.9v2.8c0,0.2-0.1,0.4-0.2,0.5c-0.1,0.1-0.3,0.2-0.5,0.2c-0.2,0-0.4-0.1-0.5-0.2
							c-0.1-0.1-0.2-0.3-0.2-0.5v-5c0-0.2,0.1-0.4,0.2-0.5c0.1-0.1,0.3-0.2,0.5-0.2c0.2,0,0.4,0.1,0.5,0.2c0.1,0.1,0.2,0.3,0.2,0.5
							v0.2c0.2-0.3,0.5-0.6,0.8-0.8c0.3-0.2,0.7-0.3,1.1-0.3C175,81.6,175.2,81.6,175.3,81.8z"/>
						<path id="XMLID_924_" class="st0" d="M182.1,86.6c-0.3,0.5-0.7,0.9-1.2,1.2c-0.5,0.3-1.1,0.4-1.7,0.4c-0.6,0-1.2-0.1-1.7-0.4
							c-0.5-0.3-0.9-0.7-1.2-1.2s-0.4-1.1-0.4-1.7c0-0.6,0.1-1.2,0.4-1.7s0.7-0.9,1.2-1.2c0.5-0.3,1.1-0.4,1.7-0.4
							c0.6,0,1.2,0.1,1.7,0.4c0.5,0.3,0.9,0.7,1.2,1.2s0.4,1.1,0.4,1.7C182.5,85.6,182.4,86.1,182.1,86.6z M180.8,83.9
							c-0.2-0.3-0.4-0.5-0.7-0.7c-0.3-0.2-0.6-0.3-0.9-0.3c-0.3,0-0.6,0.1-0.9,0.3c-0.3,0.2-0.5,0.4-0.7,0.7c-0.2,0.3-0.2,0.7-0.2,1
							c0,0.4,0.1,0.7,0.2,1s0.4,0.5,0.7,0.7c0.3,0.2,0.6,0.3,0.9,0.3c0.3,0,0.6-0.1,0.9-0.3c0.3-0.2,0.5-0.4,0.7-0.7s0.2-0.7,0.2-1
							C181.1,84.5,181,84.2,180.8,83.9z"/>
						<path id="XMLID_922_" class="st0" d="M189.1,81.9c0.1,0.1,0.2,0.3,0.2,0.5c0,0.1,0,0.2-0.1,0.4l-2.3,4.9
							c-0.1,0.1-0.1,0.2-0.2,0.3s-0.2,0.1-0.4,0.1l-0.1,0c-0.1,0-0.3,0-0.4-0.1c-0.1-0.1-0.2-0.2-0.3-0.3l-2.2-4.9
							c-0.1-0.1-0.1-0.3-0.1-0.4c0-0.2,0.1-0.3,0.2-0.4c0.1-0.1,0.3-0.2,0.5-0.2c0.2,0,0.3,0,0.4,0.1s0.2,0.2,0.3,0.3l1.7,3.8
							l1.7-3.8c0.1-0.2,0.2-0.3,0.3-0.3c0.1-0.1,0.2-0.1,0.4-0.1C188.8,81.7,189,81.8,189.1,81.9z"/>
						<path id="XMLID_919_" class="st0" d="M196,85.2c-0.1,0.1-0.3,0.2-0.5,0.2h-4c0.1,0.5,0.3,0.8,0.7,1.1c0.3,0.3,0.7,0.4,1.2,0.4
							c0.3,0,0.6,0,0.8-0.1c0.2-0.1,0.3-0.1,0.4-0.2s0.2-0.1,0.2-0.1c0.1-0.1,0.3-0.1,0.4-0.1c0.2,0,0.3,0.1,0.4,0.2
							c0.1,0.1,0.2,0.3,0.2,0.4c0,0.2-0.1,0.4-0.3,0.6c-0.2,0.2-0.5,0.3-0.9,0.5c-0.4,0.1-0.8,0.2-1.1,0.2c-0.7,0-1.3-0.1-1.8-0.4
							c-0.5-0.3-0.9-0.7-1.2-1.2c-0.3-0.5-0.4-1-0.4-1.7c0-0.7,0.1-1.3,0.4-1.8c0.3-0.5,0.7-0.9,1.1-1.2c0.5-0.3,1-0.4,1.5-0.4
							c0.5,0,1,0.1,1.5,0.4c0.5,0.3,0.8,0.7,1.1,1.2c0.3,0.5,0.4,1,0.4,1.6C196.2,85,196.1,85.1,196,85.2z M191.5,84.2h3.2v-0.1
							c0-0.3-0.2-0.6-0.5-0.9c-0.3-0.2-0.6-0.4-1-0.4C192.2,82.9,191.7,83.3,191.5,84.2z"/>
						<path id="XMLID_917_" class="st0" d="M207.3,80.9l-4.6,5.9h3.9c0.2,0,0.4,0.1,0.5,0.2c0.1,0.1,0.2,0.3,0.2,0.5
							c0,0.2-0.1,0.4-0.2,0.5c-0.1,0.1-0.3,0.2-0.5,0.2h-5.3c-0.2,0-0.4-0.1-0.5-0.2c-0.2-0.1-0.2-0.3-0.2-0.5
							c0-0.2,0.1-0.3,0.2-0.5l4.6-5.9h-3.5c-0.2,0-0.4-0.1-0.5-0.2c-0.1-0.1-0.2-0.3-0.2-0.5c0-0.2,0.1-0.4,0.2-0.5
							c0.1-0.1,0.3-0.2,0.5-0.2h4.9c0.2,0,0.4,0.1,0.5,0.2c0.2,0.1,0.2,0.3,0.2,0.5C207.4,80.6,207.4,80.7,207.3,80.9z"/>
						<path id="XMLID_914_" class="st0" d="M214.1,85.2c-0.1,0.1-0.3,0.2-0.5,0.2h-4c0.1,0.5,0.3,0.8,0.7,1.1
							c0.3,0.3,0.7,0.4,1.2,0.4c0.3,0,0.6,0,0.8-0.1c0.2-0.1,0.3-0.1,0.4-0.2s0.2-0.1,0.2-0.1c0.1-0.1,0.3-0.1,0.4-0.1
							c0.2,0,0.3,0.1,0.4,0.2c0.1,0.1,0.2,0.3,0.2,0.4c0,0.2-0.1,0.4-0.3,0.6c-0.2,0.2-0.5,0.3-0.9,0.5c-0.4,0.1-0.8,0.2-1.1,0.2
							c-0.7,0-1.3-0.1-1.8-0.4c-0.5-0.3-0.9-0.7-1.2-1.2c-0.3-0.5-0.4-1-0.4-1.7c0-0.7,0.1-1.3,0.4-1.8c0.3-0.5,0.7-0.9,1.1-1.2
							c0.5-0.3,1-0.4,1.5-0.4c0.5,0,1,0.1,1.5,0.4c0.5,0.3,0.8,0.7,1.1,1.2c0.3,0.5,0.4,1,0.4,1.6C214.4,85,214.3,85.1,214.1,85.2z
							 M209.7,84.2h3.2v-0.1c0-0.3-0.2-0.6-0.5-0.9c-0.3-0.2-0.6-0.4-1-0.4C210.4,82.9,209.8,83.3,209.7,84.2z"/>
						<path id="XMLID_912_" class="st0" d="M219.6,81.8c0.2,0.1,0.2,0.3,0.2,0.5c0,0.2-0.1,0.4-0.2,0.6c-0.1,0.1-0.3,0.2-0.5,0.2
							c-0.1,0-0.3,0-0.4-0.1c0,0-0.1,0-0.2,0s-0.2,0-0.3,0c-0.2,0-0.4,0.1-0.6,0.2c-0.2,0.1-0.4,0.3-0.5,0.6
							c-0.1,0.3-0.2,0.6-0.2,0.9v2.8c0,0.2-0.1,0.4-0.2,0.5c-0.1,0.1-0.3,0.2-0.5,0.2c-0.2,0-0.4-0.1-0.5-0.2
							c-0.1-0.1-0.2-0.3-0.2-0.5v-5c0-0.2,0.1-0.4,0.2-0.5c0.1-0.1,0.3-0.2,0.5-0.2c0.2,0,0.4,0.1,0.5,0.2c0.1,0.1,0.2,0.3,0.2,0.5
							v0.2c0.2-0.3,0.5-0.6,0.8-0.8c0.3-0.2,0.7-0.3,1.1-0.3C219.2,81.6,219.4,81.6,219.6,81.8z"/>
						<path id="XMLID_909_" class="st0" d="M226.3,86.6c-0.3,0.5-0.7,0.9-1.2,1.2c-0.5,0.3-1.1,0.4-1.7,0.4c-0.6,0-1.2-0.1-1.7-0.4
							c-0.5-0.3-0.9-0.7-1.2-1.2s-0.4-1.1-0.4-1.7c0-0.6,0.1-1.2,0.4-1.7s0.7-0.9,1.2-1.2c0.5-0.3,1.1-0.4,1.7-0.4
							c0.6,0,1.2,0.1,1.7,0.4c0.5,0.3,0.9,0.7,1.2,1.2s0.4,1.1,0.4,1.7C226.8,85.6,226.6,86.1,226.3,86.6z M225.1,83.9
							c-0.2-0.3-0.4-0.5-0.7-0.7c-0.3-0.2-0.6-0.3-0.9-0.3c-0.3,0-0.6,0.1-0.9,0.3c-0.3,0.2-0.5,0.4-0.7,0.7c-0.2,0.3-0.2,0.7-0.2,1
							c0,0.4,0.1,0.7,0.2,1s0.4,0.5,0.7,0.7c0.3,0.2,0.6,0.3,0.9,0.3c0.3,0,0.6-0.1,0.9-0.3c0.3-0.2,0.5-0.4,0.7-0.7s0.2-0.7,0.2-1
							C225.3,84.5,225.2,84.2,225.1,83.9z"/>
					</g>
				</g>
				<g id="XMLID_13249_">
					<path id="XMLID_13269_" class="st0" d="M210.7,70h-31.9V38.2h31.9V70z M182.1,66.7h25.3V41.5h-25.3V66.7z"/>
					<path id="XMLID_13266_" class="st0" d="M204.1,63.4h-18.6V44.8h18.6V63.4z M188.8,60.1h12v-12h-12V60.1z"/>
					<g id="XMLID_13262_">
						<rect id="XMLID_13265_" x="176.4" y="44.7" class="st0" width="4.1" height="3.7"/>
						<rect id="XMLID_13264_" x="176.4" y="52.3" class="st0" width="4.1" height="3.7"/>
						<rect id="XMLID_13263_" x="176.4" y="60.1" class="st0" width="4.1" height="3.7"/>
					</g>
					<g id="XMLID_13258_">
						<rect id="XMLID_13261_" x="209.1" y="44.6" class="st0" width="4.1" height="3.7"/>
						<rect id="XMLID_13260_" x="209.1" y="52.3" class="st0" width="4.1" height="3.7"/>
						<rect id="XMLID_13259_" x="209.1" y="60" class="st0" width="4.1" height="3.7"/>
					</g>
					<g id="XMLID_13254_">
						<rect id="XMLID_13257_" x="200.6" y="35.8" class="st0" width="3.7" height="4.1"/>
						<rect id="XMLID_13256_" x="192.9" y="35.8" class="st0" width="3.7" height="4.1"/>
						<rect id="XMLID_13255_" x="185.1" y="35.8" class="st0" width="3.7" height="4.1"/>
					</g>
					<g id="XMLID_13250_">
						<rect id="XMLID_13253_" x="200.7" y="68.4" class="st0" width="3.7" height="4.1"/>
						<rect id="XMLID_13252_" x="192.9" y="68.4" class="st0" width="3.7" height="4.1"/>
						<rect id="XMLID_13251_" x="185.3" y="68.4" class="st0" width="3.7" height="4.1"/>
					</g>
				</g>
				<g id="XMLID_13238_">
					<g id="XMLID_13242_">
						<rect id="XMLID_84_" x="178.5" y="5.6" class="st0" width="4.8" height="9.4"/>
						<g id="XMLID_80_">
							<path id="XMLID_81_" class="st1" d="M183.2,5.7v9.2h-4.6V5.7H183.2 M183.4,5.5h-0.2h-4.6h-0.2v0.2v9.2v0.2h0.2h4.6h0.2v-0.2
								V5.7V5.5L183.4,5.5z"/>
						</g>
					</g>
					<g id="XMLID_13239_">
						<polygon id="XMLID_48_" class="st1" points="178.6,11.2 183.2,11.2 180.9,8.9 						"/>
					</g>
				</g>
				<g id="XMLID_13226_">
					<g id="XMLID_13230_">
						<rect id="XMLID_75_" x="169.7" y="5.6" class="st0" width="4.8" height="9.4"/>
						<g id="XMLID_71_">
							<path id="XMLID_72_" class="st1" d="M174.4,5.7v9.2h-4.6V5.7H174.4 M174.6,5.5h-0.2h-4.6h-0.2v0.2v9.2v0.2h0.2h4.6h0.2v-0.2
								V5.7V5.5L174.6,5.5z"/>
						</g>
					</g>
					<g id="XMLID_13227_">
						<polygon id="XMLID_45_" class="st1" points="169.8,11.2 174.4,11.2 172.1,8.9 						"/>
					</g>
				</g>
				<g id="XMLID_13215_">
					<g id="XMLID_13219_">
						<rect id="XMLID_66_" x="161" y="5.6" class="st0" width="4.8" height="9.4"/>
						<g id="XMLID_62_">
							<path id="XMLID_63_" class="st1" d="M165.8,5.7v9.2h-4.6V5.7H165.8 M166,5.5h-0.2h-4.6h-0.2v0.2v9.2v0.2h0.2h4.6h0.2v-0.2
								V5.7V5.5L166,5.5z"/>
						</g>
					</g>
					<g id="XMLID_13216_">
						<polygon id="XMLID_43_" class="st1" points="161.2,11.2 165.8,11.2 163.5,8.9 						"/>
					</g>
				</g>
				<g id="XMLID_13204_">
					<g id="XMLID_13208_">
						<rect id="XMLID_57_" x="152.3" y="5.6" class="st0" width="4.8" height="9.4"/>
						<g id="XMLID_52_">
							<path id="XMLID_54_" class="st1" d="M157,5.7v9.2h-4.6V5.7H157 M157.2,5.5H157h-4.6h-0.2v0.2v9.2v0.2h0.2h4.6h0.2v-0.2V5.7
								V5.5L157.2,5.5z"/>
						</g>
					</g>
					<g id="XMLID_13205_">
						<polygon id="XMLID_41_" class="st1" points="152.4,11.2 157,11.2 154.7,8.9 						"/>
					</g>
				</g>
			</g>
			<g id="XMLID_13044_">
				<g id="XMLID_13162_">
					<g id="XMLID_13163_">
						<rect id="XMLID_13202_" x="108.5" y="0.5" class="st6" width="36.2" height="119.5"/>
						<polygon id="XMLID_13201_" class="st7" points="119.1,108 119.1,100.3 125.1,104.1 						"/>
						<polygon id="XMLID_13200_" class="st8" points="134.2,100.3 134.2,108 128.2,104.1 						"/>
						<polygon id="XMLID_13199_" class="st8" points="119.1,19.3 119.1,11.6 125.1,15.4 						"/>
						<polygon id="XMLID_13198_" class="st7" points="134.2,11.6 134.2,19.3 128.2,15.4 						"/>
						<g id="XMLID_13164_">
							<rect id="XMLID_13195_" x="124.3" y="95.4" class="st2" width="5" height="2.7"/>
							<rect id="XMLID_13192_" x="124.3" y="88.1" class="st2" width="5" height="2.7"/>
							<rect id="XMLID_13189_" x="124.3" y="80.8" class="st2" width="5" height="2.7"/>
							<rect id="XMLID_13186_" x="124.3" y="73.5" class="st2" width="5" height="2.7"/>
							<rect id="XMLID_13183_" x="124.3" y="66.2" class="st2" width="5" height="2.7"/>
							<rect id="XMLID_13180_" x="124.3" y="58.9" class="st2" width="5" height="2.7"/>
							<rect id="XMLID_13177_" x="124.3" y="51.6" class="st2" width="5" height="2.7"/>
							<rect id="XMLID_13174_" x="124.3" y="44.3" class="st2" width="5" height="2.7"/>
							<rect id="XMLID_13171_" x="124.3" y="37" class="st2" width="5" height="2.7"/>
							<rect id="XMLID_13168_" x="124.3" y="29.7" class="st2" width="5" height="2.7"/>
							<rect id="XMLID_13165_" x="124.3" y="22.4" class="st2" width="5" height="2.7"/>
						</g>
					</g>
				</g>
				<g id="XMLID_13046_">
					<g id="XMLID_13047_">
						<rect id="XMLID_13161_" x="244.9" y="0.5" class="st6" width="36.2" height="119.5"/>
						<polygon id="XMLID_13160_" class="st7" points="270.5,12.5 270.5,20.2 264.4,16.4 						"/>
						<polygon id="XMLID_13159_" class="st8" points="255.3,20.2 255.3,12.5 261.4,16.4 						"/>
						<polygon id="XMLID_13158_" class="st8" points="270.5,101.2 270.5,108.9 264.4,105.1 						"/>
						<polygon id="XMLID_13157_" class="st7" points="255.3,108.9 255.3,101.2 261.4,105.1 						"/>
						<g id="XMLID_13049_">
							<g id="XMLID_89_">
								<rect id="XMLID_100_" x="260.3" y="22.4" class="st2" width="5" height="2.7"/>
								<rect id="XMLID_99_" x="260.3" y="29.7" class="st2" width="5" height="2.7"/>
								<rect id="XMLID_98_" x="260.3" y="37" class="st2" width="5" height="2.7"/>
								<rect id="XMLID_97_" x="260.3" y="44.3" class="st2" width="5" height="2.7"/>
								<rect id="XMLID_96_" x="260.3" y="51.6" class="st2" width="5" height="2.7"/>
								<rect id="XMLID_95_" x="260.3" y="58.9" class="st2" width="5" height="2.7"/>
								<rect id="XMLID_94_" x="260.3" y="66.2" class="st2" width="5" height="2.7"/>
								<rect id="XMLID_93_" x="260.3" y="73.5" class="st2" width="5" height="2.7"/>
								<rect id="XMLID_92_" x="260.3" y="80.8" class="st2" width="5" height="2.7"/>
								<rect id="XMLID_91_" x="260.3" y="88.1" class="st2" width="5" height="2.7"/>
								<rect id="XMLID_90_" x="260.3" y="95.4" class="st2" width="5" height="2.7"/>
							</g>
						</g>
					</g>
				</g>
			</g>
		</g>
		<rect id="XMLID_12882_" x="163.5" y="0.5" class="st1" width="9.9" height="2.5"/>
		<polygon id="XMLID_11950_" class="st1" points="235.9,3.2 202.7,3.2 202.2,0.7 236.4,0.7 		"/>
	</g>
</g>
</svg>
