<?xml version="1.0" encoding="utf-8"?>
<!-- Generator: Adobe Illustrator 22.0.1, SVG Export Plug-In . SVG Version: 6.00 Build 0)  -->
<svg version="1.1" id="Layer_1" xmlns="http://www.w3.org/2000/svg" xmlns:xlink="http://www.w3.org/1999/xlink" x="0px" y="0px"
	 viewBox="0 0 110.7 170" style="enable-background:new 0 0 110.7 170;" xml:space="preserve">
<style type="text/css">
	.st0{fill:url(#Path_19_1_);}
	.st1{fill:#F2F2F2;}
	.st2{fill:url(#Path_18_1_);}
	.st3{fill:#3C3C3C;}
	.st4{fill:#A0B5A6;}
	.st5{fill:url(#Path_21_1_);}
	.st6{fill:#6A6A6A;}
	.st7{fill:url(#light_1_);}
	.st8{fill:#A8A9A8;}
	.st9{fill:#9A9A9A;}
	.st10{fill:url(#Rectangle_12_1_);}
	.st11{fill:#808080;}
	.st12{fill:#FFFFFF;}
	.st13{clip-path:url(#SVGID_2_);}
	.st14{fill:#FFED00;}
	.st15{clip-path:url(#SVGID_4_);}
	.st16{fill:#B72B1C;}
	.st17{clip-path:url(#SVGID_6_);}
	.st18{fill:#1D1D1B;}
	.st19{clip-path:url(#SVGID_8_);}
	.st20{clip-path:url(#SVGID_10_);}
	.st21{fill:none;stroke:#000000;stroke-width:1.2;stroke-miterlimit:10;}
	.st22{fill:none;stroke:#000000;stroke-width:0.2002;stroke-linecap:round;stroke-linejoin:round;}
	.st23{stroke:#000000;stroke-width:0.1619;stroke-linecap:round;stroke-linejoin:round;}
	.st24{fill:#FFFFFF;stroke:#000000;stroke-width:0.1067;stroke-linecap:round;stroke-linejoin:round;}
</style>
<g id="EV3" transform="translate(1346 5554)">
	<g id="brick" transform="translate(203 561.496)">
		
			<linearGradient id="Path_19_1_" gradientUnits="userSpaceOnUse" x1="-2014.3708" y1="-5592.0366" x2="-2014.3708" y2="-5592.1128" gradientTransform="matrix(110.73 0 0 -106.937 221557.6562 -603978.6875)">
			<stop  offset="0" style="stop-color:#F2F2F2"/>
			<stop  offset="1" style="stop-color:#797979"/>
		</linearGradient>
		<path id="Path_19" class="st0" d="M-1547-6083.8h106.8c1.1,0,2,0.9,2,2l0,0v103c0,1.1-0.9,2-2,2l0,0H-1547c-1.1,0-2-0.9-2-2
			c0,0,0,0,0,0v-103C-1549-6082.9-1548.1-6083.8-1547-6083.8C-1547-6083.8-1547-6083.8-1547-6083.8z"/>
		<path id="Path_20" class="st1" d="M-1540.8-5987.9h94.3c1.1,0,2,0.9,2,2l0,0v38.5c0,1.1-0.9,2-2,2l0,0h-94.3c-1.1,0-2-0.9-2-2
			c0,0,0,0,0,0v-38.5C-1542.8-5987-1541.9-5987.9-1540.8-5987.9C-1540.8-5987.9-1540.8-5987.9-1540.8-5987.9z"/>
		
			<linearGradient id="Path_18_1_" gradientUnits="userSpaceOnUse" x1="-2015.4177" y1="-5572.9473" x2="-2015.4177" y2="-5572.9712" gradientTransform="matrix(100.112 0 0 -79.179 200273.875 -447302.7188)">
			<stop  offset="0" style="stop-color:#A8A9A8"/>
			<stop  offset="1" style="stop-color:#808080"/>
		</linearGradient>
		<path id="Path_18" class="st2" d="M-1541.7-6115.5h96.2c1.1,0,2,0.9,2,2l0,0v75.2c0,1.1-0.9,2-2,2l0,0h-96.2c-1.1,0-2-0.9-2-2
			c0,0,0,0,0,0v-75.2C-1543.7-6114.6-1542.8-6115.5-1541.7-6115.5C-1541.7-6115.5-1541.7-6115.5-1541.7-6115.5z"/>
		<path id="Path_17" class="st3" d="M-1530.8-6105h74.5c2.1,0,3.8,1.7,3.8,3.8v41.9c0,2.1-1.7,3.8-3.8,3.8h-74.5
			c-2.1,0-3.8-1.7-3.8-3.8v-41.9C-1534.6-6103.3-1532.9-6105-1530.8-6105z"/>
		<path id="Path_16" class="st4" d="M-1525-6103.1h63.3c1.5,0,2.7,1.2,2.7,2.7c0,0,0,0,0,0v40.3c0,1.5-1.2,2.7-2.7,2.7l0,0h-63.3
			c-1.5,0-2.7-1.2-2.7-2.7v-40.3C-1527.8-6101.8-1526.5-6103.1-1525-6103.1C-1525-6103.1-1525-6103.1-1525-6103.1z"/>
		
			<linearGradient id="Path_21_1_" gradientUnits="userSpaceOnUse" x1="-2015.62" y1="-5397.2559" x2="-2015.62" y2="-5397.4487" gradientTransform="matrix(98.291 0 0 -23.359 196623.6719 -132024.4531)">
			<stop  offset="0" style="stop-color:#A8A9A8"/>
			<stop  offset="1" style="stop-color:#545554"/>
		</linearGradient>
		<path id="Path_21" class="st5" d="M-1542.8-5968.8h98.3v21.4c0,1.1-0.9,2-2,2l0,0h-94.3c-1.1,0-2-0.9-2-2c0,0,0,0,0,0V-5968.8z"/>
	</g>
	<g id="buttons" transform="translate(216.197 621.259)">
		<path id="Union_4" class="st6" d="M-1513.5-6041.3c-5.6-5.4-14.3-14.3-14.3-14.3v-1.8h-3.4c-4.6,0-8.3-3.7-8.3-8.3
			s3.7-8.3,8.3-8.3h3.4v-1.8l14.1-14.4h14.1c6.4,6.5,14.1,14.1,14.1,14.1v2.1h3.3c4.6,0,8.3,3.7,8.3,8.3s-3.7,8.3-8.3,8.3h-3.3v1.8
			c-7.5,7.7-14,14.3-14,14.3L-1513.5-6041.3z"/>
		
			<linearGradient id="light_1_" gradientUnits="userSpaceOnUse" x1="-2034.3772" y1="-5587.1011" x2="-2034.3772" y2="-5586.2119" gradientTransform="matrix(65.527 0 0 -48.843 131799.9688 -278934.625)">
			<stop  offset="0" style="stop-color:#6A6A6A"/>
			<stop  offset="0.522" style="stop-color:#8CE300"/>
			<stop  offset="1" style="stop-color:#6A6A6A"/>
		</linearGradient>
		<path id="light" class="st7" d="M-1513.5-6041.3c-5.6-5.4-14.3-14.3-14.3-14.3v-1.8h-3.4c-4.6,0-8.3-3.7-8.3-8.3s3.7-8.3,8.3-8.3
			h3.4v-1.8l14.1-14.4h14.1c6.4,6.5,14.1,14.1,14.1,14.1v2.1h3.3c4.6,0,8.3,3.7,8.3,8.3s-3.7,8.3-8.3,8.3h-3.3v1.8
			c-7.5,7.7-14,14.3-14,14.3L-1513.5-6041.3z"/>
		<path id="Rectangle_23" class="st8" d="M-1531.3-6072h10.4l0,0v12.3l0,0h-10.4c-3.4,0-6.1-2.8-6.1-6.1c0,0,0,0,0,0l0,0
			C-1537.5-6069.2-1534.7-6072-1531.3-6072C-1531.3-6072-1531.3-6072-1531.3-6072z"/>
		<path id="Rectangle_24" class="st8" d="M-1482.2-6059.7h-10.4l0,0v-12.3l0,0h10.4c3.4,0,6.1,2.8,6.1,6.1c0,0,0,0,0,0l0,0
			C-1476-6062.4-1478.8-6059.7-1482.2-6059.7C-1482.2-6059.7-1482.2-6059.7-1482.2-6059.7z"/>
		<path id="Path_42" class="st3" d="M-1512.7-6072h12c0.3,0,0.5,0.2,0.5,0.5v11.4c0,0.3-0.2,0.5-0.5,0.5h-12c-0.3,0-0.5-0.2-0.5-0.5
			v-11.4C-1513.2-6071.8-1513-6072-1512.7-6072C-1512.7-6072-1512.7-6072-1512.7-6072z"/>
		<path id="Path_15" class="st8" d="M-1513.1-6087.9l12.7-0.2l9.6,9.9l-3.9,3.9v7.1h-3.6v-4.1c0-1.7-1.4-3-3-3c-3,0-11.1,0-11.1,0
			c-1.4-0.1-2.5,1-2.6,2.4c0,0.1,0,0.2,0,0.2v4.6h-3.6v-7.1l-3.9-3.9L-1513.1-6087.9z"/>
		<path id="Path_16-2" class="st8" d="M-1500.4-6043.7l-12.7,0.1l-9.6-9.9l4-3.9v-7.2h3.6v4.1c0,1.7,1.4,3,3,3.1c3,0,11,0,11,0
			c1.4,0,2.6-1.1,2.6-2.5c0,0,0-0.1,0-0.1v-4.5h3.7v7.2l3.9,3.9L-1500.4-6043.7z"/>
		<rect id="Rectangle_26" x="-1508.2" y="-6115.5" class="st3" width="3" height="13.8"/>
		<rect id="Rectangle_10" x="-1508.2" y="-6102.3" class="st9" width="3" height="6.1"/>
		
			<linearGradient id="Rectangle_12_1_" gradientUnits="userSpaceOnUse" x1="-2377.9475" y1="-4770.1826" x2="-2377.9475" y2="-4769.8198" gradientTransform="matrix(3.034 0 0 -6.219 5708.0127 -35765.8086)">
			<stop  offset="0" style="stop-color:#747474"/>
			<stop  offset="1" style="stop-color:#3C3C3C"/>
		</linearGradient>
		<rect id="Rectangle_12" x="-1508.2" y="-6102.3" class="st10" width="3" height="6.2"/>
		<rect id="Rectangle_11" x="-1508.2" y="-6096.1" class="st11" width="3" height="5.9"/>
		<path id="Path_15-2" class="st8" d="M-1549-6096.1h23.7v5.7c-2.6,2.6-6,6-6,6h-15.7c-1.1,0-2-0.9-2-2V-6096.1z"/>
	</g>
	<g id="LEGO_logo" transform="translate(289.475 711.071)">
		<rect id="Rectangle_31" x="-1548.9" y="-6115.4" class="st12" width="12.2" height="12.2"/>
		<g id="Group_15">
			<g>
				<defs>
					<rect id="SVGID_1_" x="-1549" y="-6115.5" width="12.4" height="12.4"/>
				</defs>
				<clipPath id="SVGID_2_">
					<use xlink:href="#SVGID_1_"  style="overflow:visible;"/>
				</clipPath>
				<g id="Group_10" class="st13">
					<path id="Path_18-2" class="st14" d="M-1548.9-6103.2h12.2v-12.2h-12.2V-6103.2z M-1537.5-6110.3c0,0.4-0.1,0.8-0.2,1.2
						c-0.4,1.3-0.9,2.1-2.1,2.1c-0.5,0-1-0.2-1.2-0.7l0-0.2l-0.1,0.1c-0.4,0.5-0.9,0.7-1.5,0.7c-0.4,0-0.8-0.1-1-0.4l-0.1-0.1
						l-0.1,0.1c-0.3,0.3-0.7,0.4-1.2,0.4c-0.4,0-0.7-0.1-1-0.4l-0.1,0l-0.1,0.1c-0.3,0.3-0.7,0.4-1.1,0.4c-0.5,0-0.9-0.3-1-0.8
						c0,0,0-0.1,0-0.1c0.1-1.1,0.5-2.2,1.1-3.1c0.2-0.3,0.5-0.5,0.9-0.5c0.2,0,0.4,0,0.6,0.2c0.1,0.1,0.1,0.2,0.1,0.4l0,0.3l0.2-0.2
						c0.3-0.5,0.9-0.7,1.5-0.7c0.3,0,0.7,0.1,0.9,0.4l0,0.1l0.1-0.1c0.3-0.3,0.8-0.4,1.2-0.4c0.4,0,0.8,0.1,1.1,0.4
						c0.1,0.1,0.1,0.1,0.1,0.2l0.1,0.1l0.1-0.1c0.3-0.4,0.8-0.6,1.3-0.6c0.4,0,0.7,0.1,1,0.3
						C-1537.6-6111-1537.5-6110.7-1537.5-6110.3"/>
				</g>
			</g>
			<g>
				<defs>
					<rect id="SVGID_3_" x="-1549" y="-6115.5" width="12.4" height="12.4"/>
				</defs>
				<clipPath id="SVGID_4_">
					<use xlink:href="#SVGID_3_"  style="overflow:visible;"/>
				</clipPath>
				<g id="Group_11" class="st15">
					<path id="Path_19-2" class="st16" d="M-1548.9-6103.2h12.2v-12.2h-12.2V-6103.2z M-1537.2-6109.9c-0.1,0.6-0.3,1.1-0.5,1.6
						c-0.3,0.9-1.1,1.5-2.1,1.6c-0.5,0-1-0.2-1.4-0.5c-0.4,0.4-0.9,0.6-1.5,0.5c-0.4,0-0.8-0.1-1.1-0.3c-0.4,0.2-0.8,0.4-1.2,0.3
						c-0.4,0-0.7-0.1-1-0.3c-0.4,0.2-0.8,0.3-1.2,0.3c-0.7,0-1.3-0.5-1.4-1.2c0,0,0,0,0,0c0.1-1.2,0.6-2.3,1.2-3.3
						c0.2-0.5,0.7-0.7,1.2-0.7c0.6,0,0.8,0.2,0.9,0.4c0.4-0.3,0.9-0.4,1.5-0.4c0.4,0,0.7,0.1,1,0.3c0.4-0.2,0.8-0.3,1.2-0.3
						c0.5,0,1,0.1,1.4,0.5c0.4-0.3,0.9-0.5,1.3-0.4c0.5,0,1.1,0.2,1.4,0.6C-1537.1-6111-1537-6110.4-1537.2-6109.9"/>
				</g>
			</g>
			<g>
				<defs>
					<rect id="SVGID_5_" x="-1549" y="-6115.5" width="12.4" height="12.4"/>
				</defs>
				<clipPath id="SVGID_6_">
					<use xlink:href="#SVGID_5_"  style="overflow:visible;"/>
				</clipPath>
				<g id="Group_12" class="st17">
					<path id="Path_20-2" class="st18" d="M-1549-6103.1h12.4v-12.4h-12.4V-6103.1z M-1536.8-6103.3h-12v-12h12V-6103.3z"/>
				</g>
			</g>
			<g>
				<defs>
					<rect id="SVGID_7_" x="-1549" y="-6115.5" width="12.4" height="12.4"/>
				</defs>
				<clipPath id="SVGID_8_">
					<use xlink:href="#SVGID_7_"  style="overflow:visible;"/>
				</clipPath>
				<g id="Group_13" class="st19">
					<path id="Path_21-2" class="st18" d="M-1537.2-6111.8L-1537.2-6111.8L-1537.2-6111.8c0.1-0.1,0.1-0.1,0.1,0
						S-1537.1-6111.8-1537.2-6111.8L-1537.2-6111.8z M-1537-6111.6L-1537-6111.6c-0.1-0.1-0.1-0.1-0.1-0.1l0,0c0,0,0.1,0,0.1-0.1
						c0,0,0-0.1-0.1-0.1c0,0,0,0,0,0h-0.2v0.3h0.1v-0.1h0c0,0,0,0,0,0C-1537.1-6111.7-1537.1-6111.7-1537-6111.6L-1537-6111.6
						L-1537-6111.6z M-1537.2-6112c0.1,0,0.2,0.1,0.2,0.2c0,0.1-0.1,0.2-0.2,0.2s-0.2-0.1-0.2-0.2
						C-1537.4-6111.9-1537.3-6112-1537.2-6112 M-1537.2-6112.1c-0.2,0-0.3,0.1-0.3,0.3s0.1,0.3,0.3,0.3c0.2,0,0.3-0.1,0.3-0.3l0,0
						C-1536.9-6111.9-1537-6112.1-1537.2-6112.1"/>
				</g>
			</g>
			<g>
				<defs>
					<rect id="SVGID_9_" x="-1549" y="-6115.5" width="12.4" height="12.4"/>
				</defs>
				<clipPath id="SVGID_10_">
					<use xlink:href="#SVGID_9_"  style="overflow:visible;"/>
				</clipPath>
				<g id="Group_14" class="st20">
					<path id="Path_22" class="st18" d="M-1538.8-6111.7c-0.5,0-1,0.2-1.4,0.6c0-0.1-0.1-0.2-0.2-0.2c-0.3-0.3-0.7-0.5-1.2-0.4
						c-0.5,0-0.9,0.1-1.2,0.4c-0.2-0.3-0.6-0.4-1-0.4c-0.6-0.1-1.2,0.2-1.6,0.7c0-0.2,0-0.3-0.2-0.5c-0.2-0.1-0.4-0.2-0.6-0.2
						c-0.4,0-0.8,0.2-1,0.6c-0.6,1-1,2-1.1,3.2c0,0.5,0.4,1,1,1c0,0,0.1,0,0.1,0c0.4,0,0.9-0.1,1.2-0.4c0.3,0.3,0.6,0.4,1,0.4
						c0.5,0,0.9-0.1,1.2-0.5c0.3,0.3,0.7,0.5,1.1,0.5c0.6,0,1.2-0.3,1.5-0.8c0.2,0.5,0.7,0.8,1.2,0.7c1.2,0,1.7-0.8,2.2-2.1
						c0.1-0.4,0.2-0.8,0.3-1.2c0.1-0.7-0.4-1.3-1-1.4C-1538.6-6111.8-1538.7-6111.8-1538.8-6111.7 M-1546.8-6108.5
						c0.6-0.1,0.8,0.1,0.8,0.3c-0.1,0.6-0.6,0.8-1.1,0.7c-0.3,0-0.7-0.2-0.7-0.5c0,0,0,0,0,0c0.2-1,0.5-2.1,1.1-3
						c0.1-0.3,0.4-0.4,0.7-0.4c0.3,0,0.4,0.2,0.4,0.3C-1546-6110.1-1546.3-6109.3-1546.8-6108.5 M-1544.7-6109
						c0,0.1-0.1,0.3-0.2,0.6c0.2-0.1,0.4-0.1,0.6-0.1c0.3,0,0.5,0.1,0.5,0.4c0,0.6-0.7,0.8-1.1,0.8c-0.5,0.1-0.9-0.3-0.9-0.7
						c0,0,0-0.1,0-0.1c0.1-0.8,0.3-1.6,0.7-2.3c0.2-0.6,0.9-1,1.5-0.9c0.3,0,0.7,0.1,0.7,0.4c0,0.4-0.3,0.6-0.7,0.6
						c-0.2,0-0.3,0-0.5,0c-0.1,0.2-0.2,0.3-0.2,0.5c0.6-0.1,0.9,0,0.8,0.4C-1543.8-6109-1544.2-6108.9-1544.7-6109 M-1541.6-6110.6
						c-0.2,0-0.3,0.1-0.4,0.2c-0.3,0.5-0.5,1.1-0.6,1.7c0,0.3,0.1,0.3,0.2,0.3c0.2,0,0.5-0.2,0.5-0.6c0,0-0.4,0-0.3-0.4
						c0.1-0.4,0.3-0.4,0.7-0.5c0.7,0,0.6,0.5,0.6,0.8c-0.1,0.9-0.8,1.6-1.7,1.6c-0.5,0.1-0.9-0.3-1-0.8c0-0.1,0-0.1,0-0.2
						c0-0.5,0.2-1.1,0.4-1.6c0.4-0.9,0.8-1.5,1.8-1.5c0.6,0,1.1,0.2,1,0.8c0,0.4-0.3,0.7-0.6,0.7c-0.1,0-0.5,0-0.4-0.4
						C-1541.4-6110.5-1541.4-6110.6-1541.6-6110.6 M-1537.9-6109.8c-0.1,0.6-0.3,1.1-0.6,1.6c-0.2,0.5-0.8,0.9-1.4,0.9
						c-0.4,0-0.9-0.2-0.9-0.9c0-0.6,0.2-1.1,0.4-1.6c0.3-0.8,0.6-1.5,1.7-1.5C-1537.6-6111.3-1537.8-6110.3-1537.9-6109.8
						 M-1538.7-6110.4c-0.1,0.6-0.4,1.3-0.6,1.9c0,0.1-0.2,0.2-0.3,0.2c-0.1,0-0.2-0.1-0.2-0.2c0.1-0.7,0.4-1.3,0.7-1.9
						c0.1-0.1,0.2-0.2,0.3-0.1C-1538.7-6110.6-1538.7-6110.5-1538.7-6110.4"/>
				</g>
			</g>
		</g>
	</g>
	<g id="EV3_logo" transform="translate(215.286 714.697)">
		<path id="Path_12" class="st1" d="M-1525.3-6113.7c0.1,0,0.2,0.1,0.2,0.2l0,0v0.8c0,0.1-0.1,0.1-0.2,0.1h-2
			c-0.2,0-0.4,0.1-0.4,0.3v1.1c0,0.2,0.2,0.3,0.4,0.3h2c0.2,0,0.2,0.1,0.2,0.1v0.8c0,0.1-0.1,0.1-0.2,0.1h-3.4
			c-0.1,0-0.2-0.1-0.2-0.2c0,0,0,0,0,0v-0.1c0-0.2-0.2-0.4-0.4-0.4h-1.1c-0.2,0-0.4,0.2-0.4,0.4v1.6c0,0.2,0.2,0.3,0.4,0.3h6.8
			c0.2,0,0.4-0.1,0.4-0.3v-6.9c0-0.2-0.2-0.3-0.4-0.3h-6.7c-0.2,0-0.4,0.1-0.4,0.3v1.7c0,0.2,0.2,0.4,0.4,0.4h1.1
			c0.2,0,0.4-0.2,0.4-0.4v-0.1c0-0.1,0.1-0.2,0.2-0.2c0,0,0,0,0,0L-1525.3-6113.7L-1525.3-6113.7z"/>
		<path id="Path_13" class="st1" d="M-1532-6115.5h-1.6c-0.2,0-0.3,0.2-0.4,0.4l-1.9,4.4c0,0.1-0.1,0.1-0.2,0.1
			c-0.1,0-0.2-0.1-0.2-0.1l-1.9-4.3c-0.1-0.2-0.2-0.4-0.5-0.4h-1.6c-0.4,0-0.4,0.2-0.3,0.4l3.2,6.7c0.2,0.3,0.3,0.4,0.6,0.4h1.4
			c0.3,0,0.5-0.1,0.6-0.4l3.2-6.7C-1531.6-6115.3-1531.6-6115.5-1532-6115.5"/>
		<path id="Path_14" class="st1" d="M-1541.9-6112.6c0.2,0,0.4,0.1,0.4,0.3v1.2c0,0.2-0.2,0.3-0.4,0.3h-5.1c-0.1,0-0.2,0.1-0.2,0.1
			l0,0v0.8l0,0c0,0.1,0.1,0.1,0.2,0.1h5.1c0.2,0,0.4,0.1,0.4,0.3v1.2c0,0.2-0.2,0.3-0.4,0.3h-6.8c-0.2,0-0.4-0.1-0.4-0.3v-6.9
			c0-0.2,0.2-0.3,0.4-0.3h6.8c0.2,0,0.3,0.1,0.4,0.3c0,0,0,0,0,0v1.1c0,0.2-0.2,0.3-0.3,0.3c0,0,0,0,0,0h-5.1c-0.1,0-0.2,0-0.2,0.1
			v0.8c0,0.1,0.1,0.1,0.2,0.1H-1541.9z"/>
	</g>
</g>
<g transform="translate(-41.005 -446.364)">
	<path class="st21" d="M75.9,467.1h9.7c3.5,0,6.4,2.9,6.4,6.4v17.9c0,3.5-2.9,6.4-6.4,6.4h-9.7c-3.5,0-6.4-2.9-6.4-6.4v-17.9
		C69.5,469.9,72.4,467.1,75.9,467.1z"/>
	<path class="st21" d="M75.9,467h9.7c3.5,0,6.4,2.9,6.4,6.4v17.9c0,3.5-2.9,6.4-6.4,6.4h-9.7c-3.5,0-6.4-2.9-6.4-6.4v-17.9
		C69.5,469.9,72.4,467,75.9,467z"/>
</g>
<g transform="translate(124.66 -243.829)">
	<circle class="st22" cx="-81.5" cy="286" r="5.5"/>
	<circle class="st23" cx="-81.5" cy="286" r="4.5"/>
	<path class="st24" d="M-79.7,282.8c0.5,0.2,0.9,0.5,1.2,1l-2.4,1.8L-79.7,282.8z"/>
</g>
<g transform="translate(111.528 -446.364)">
	<path class="st21" d="M-44,467.1h9.7c3.5,0,6.4,2.9,6.4,6.4v17.9c0,3.5-2.9,6.4-6.4,6.4H-44c-3.5,0-6.4-2.9-6.4-6.4v-17.9
		C-50.5,469.9-47.6,467.1-44,467.1z"/>
	<path class="st21" d="M-44.1,467h9.7c3.5,0,6.4,2.9,6.4,6.4v17.9c0,3.5-2.9,6.4-6.4,6.4h-9.7c-3.5,0-6.4-2.9-6.4-6.4v-17.9
		C-50.5,469.9-47.6,467-44.1,467z"/>
</g>
<g transform="translate(277.193 -243.829)">
	<circle class="st22" cx="-201.5" cy="286" r="5.5"/>
	<circle class="st23" cx="-201.5" cy="286" r="4.5"/>
	<path class="st24" d="M-199.7,282.8c0.5,0.2,0.9,0.5,1.2,1l-2.4,1.8L-199.7,282.8z"/>
</g>
</svg>
