<?xml version="1.0" encoding="UTF-8" standalone="no"?>
<svg
   xmlns:dc="http://purl.org/dc/elements/1.1/"
   xmlns:cc="http://creativecommons.org/ns#"
   xmlns:rdf="http://www.w3.org/1999/02/22-rdf-syntax-ns#"
   xmlns:svg="http://www.w3.org/2000/svg"
   xmlns="http://www.w3.org/2000/svg"
   xmlns:sodipodi="http://sodipodi.sourceforge.net/DTD/sodipodi-0.dtd"
   xmlns:inkscape="http://www.inkscape.org/namespaces/inkscape"
   version="1.1"
   width="96px"
   height="124px"
   id="svg2"
   inkscape:version="0.91 r13725"
   sodipodi:docname="sprites.svg"
   inkscape:export-filename="/Users/sammysam/Work/pxt-blockly/media/sprites.png"
   inkscape:export-xdpi="90"
   inkscape:export-ydpi="90">
  <metadata
     id="metadata65">
    <rdf:RDF>
      <cc:Work
         rdf:about="">
        <dc:format>image/svg+xml</dc:format>
        <dc:type
           rdf:resource="http://purl.org/dc/dcmitype/StillImage" />
        <dc:title></dc:title>
      </cc:Work>
    </rdf:RDF>
  </metadata>
  <defs
     id="defs63" />
  <sodipodi:namedview
     pagecolor="#ff41ff"
     bordercolor="#666666"
     borderopacity="1"
     objecttolerance="10"
     gridtolerance="10"
     guidetolerance="10"
     inkscape:pageopacity="0"
     inkscape:pageshadow="2"
     inkscape:window-width="1366"
     inkscape:window-height="959"
     id="namedview61"
     showgrid="false"
     inkscape:zoom="15.225806"
     inkscape:cx="43.927966"
     inkscape:cy="90.504237"
     inkscape:window-x="0"
     inkscape:window-y="1"
     inkscape:window-maximized="0"
     inkscape:current-layer="svg2" />
  <style
     type="text/css"
     id="style4">
#background {
  fill: none;
}
.arrows {
  fill: #000;
  stroke: none;
}
.selected&gt;.arrows {
  fill: #fff;
}
.checkmark {
  fill: #000;
  font-family: sans-serif;
  font-size: 10pt;
  text-anchor: middle;
}
.trash {
  fill: #888;
}
.zoom {
  fill: none;
  stroke: #888;
  stroke-width: 2;
  stroke-linecap: round;
}
.zoom&gt;.center {
  fill: #888;
  stroke-width: 0;
}
  </style>
  <rect
     id="background"
     width="96"
     height="124"
     x="0"
     y="0" />
  <g
     id="g7">
    <path
       class="arrows"
       d="M 13,1.5 13,14.5 1.74,8 z"
       id="path9" />
    <path
       class="arrows"
       d="M 17.5,3 30.5,3 24,14.26 z"
       id="path11" />
    <path
       class="arrows"
       d="M 35,1.5 35,14.5 46.26,8 z"
       id="path13" />
  </g>
  <g
     class="selected"
     transform="translate(0, 16)"
     id="g15">
    <path
       class="arrows"
       d="M 13,1.5 13,14.5 1.74,8 z"
       id="path17" />
    <path
       class="arrows"
       d="M 17.5,3 30.5,3 24,14.26 z"
       id="path19" />
    <path
       class="arrows"
       d="M 35,1.5 35,14.5 46.26,8 z"
       id="path21" />
  </g>
  <g
     class="trash"
     id="g25">
    <path
       d="M 2,41 v 6 h 42 v -6 h -10.5 l -3,-3 h -15 l -3,3 z"
       id="path27" />
    <rect
       width="36"
       height="20"
       x="5"
       y="50"
       id="rect29" />
    <rect
       width="36"
       height="42"
       x="5"
       y="50"
       rx="4"
       ry="4"
       id="rect31" />
  </g>
  <g
     class="zoom"
     id="g33">
    <circle
       r="11.5"
       cx="16"
       cy="108"
       id="circle35" />
    <circle
       r="4.3"
       cx="16"
       cy="108"
       class="center"
       id="circle37" />
    <path
       d="m 28,108 h3"
       id="path39" />
    <path
       d="m 1,108 h3"
       id="path41" />
    <path
       d="m 16,120 v3"
       id="path43" />
    <path
       d="m 16,93 v3"
       id="path45" />
  </g>
  <g
     class="zoom"
     id="g47">
    <circle
       r="15"
       cx="48"
       cy="108"
       id="circle49" />
    <path
       d="m 48,101.6 v12.8"
       id="path51" />
    <path
       d="m 41.6,108 h12.8"
       id="path53" />
  </g>
  <g
     class="zoom"
     id="g55">
    <circle
       r="15"
       cx="80"
       cy="108"
       id="circle57" />
    <path
       d="m 73.6,108 h12.8"
       id="path59" />
  </g>
  <path
     inkscape:connector-curvature="0"
     style="fill:#ffffff"
     d="m 53.606125,28.447668 c -0.337724,0 -0.675448,-0.133184 -0.932699,-0.398195 l -2.532931,-2.609332 c -0.515821,-0.531379 -0.515821,-1.390283 0,-1.921664 0.515821,-0.53138 1.349577,-0.53138 1.865398,0 l 1.600232,1.6485 4.990666,-5.139839 c 0.514502,-0.53138 1.349577,-0.53138 1.865399,0 0.514502,0.530019 0.514502,1.390284 0,1.921664 l -5.923365,6.100671 c -0.257252,0.265011 -0.594976,0.398195 -0.9327,0.398195"
     id="Fill-1" />
</svg>
