<?xml version="1.0" standalone="no"?>
<!DOCTYPE svg PUBLIC "-//W3C//DTD SVG 20010904//EN"
 "http://www.w3.org/TR/2001/REC-SVG-20010904/DTD/svg10.dtd">
<svg version="1.0" xmlns="http://www.w3.org/2000/svg"
 width="700.000000pt" height="700.000000pt" viewBox="0 0 700.000000 700.000000"
 preserveAspectRatio="xMidYMid meet">
<metadata>
Created by potrace 1.11, written by Peter Selinger 2001-2013
</metadata>
<g transform="translate(0.000000,700.000000) scale(0.100000,-0.100000)"
fill="#000000" stroke="none">
<path d="M1285 6225 c-89 -17 -132 -33 -214 -82 -167 -99 -262 -192 -337 -333
-30 -56 -68 -160 -79 -215 -3 -16 -8 -41 -10 -55 -3 -14 -8 -50 -11 -80 -3
-30 -8 -73 -10 -95 -3 -22 -7 -161 -10 -310 -2 -148 -6 -351 -8 -450 -9 -355
-64 -509 -226 -635 -25 -19 -47 -37 -50 -41 -3 -3 -45 -33 -95 -67 -50 -34
-104 -74 -121 -90 -79 -72 -116 -176 -110 -308 6 -140 38 -186 206 -303 220
-153 282 -221 333 -359 54 -145 63 -233 67 -652 1 -179 3 -338 5 -355 2 -16 6
-73 9 -125 14 -196 20 -237 49 -330 58 -188 180 -346 342 -447 75 -47 133 -70
247 -100 l103 -28 2175 0 c2116 0 2177 1 2235 19 65 21 115 47 215 112 227
147 345 351 375 649 3 28 8 68 11 90 5 39 10 211 18 705 8 478 62 593 381 805
178 120 227 204 221 383 -5 156 -36 197 -251 343 -97 66 -194 155 -234 216
-93 140 -117 290 -121 758 -1 176 -3 336 -5 355 -1 19 -5 78 -9 130 -4 52 -9
115 -11 140 -2 25 -6 56 -9 70 -3 14 -8 36 -10 50 -25 141 -125 321 -233 420
-105 97 -215 155 -373 198 l-95 26 -2150 1 c-1559 1 -2166 -2 -2210 -10z"/>
</g>
</svg>
