<?xml version="1.0" encoding="UTF-8" standalone="no"?>
<!-- Created with Inkscape (http://www.inkscape.org/) -->

<svg
   xmlns:dc="http://purl.org/dc/elements/1.1/"
   xmlns:cc="http://creativecommons.org/ns#"
   xmlns:rdf="http://www.w3.org/1999/02/22-rdf-syntax-ns#"
   xmlns:svg="http://www.w3.org/2000/svg"
   xmlns="http://www.w3.org/2000/svg"
   xmlns:sodipodi="http://sodipodi.sourceforge.net/DTD/sodipodi-0.dtd"
   xmlns:inkscape="http://www.inkscape.org/namespaces/inkscape"
   id="svg2"
   version="1.1"
   inkscape:version="0.91 r13725"
   xml:space="preserve"
   width="1000"
   height="270"
   viewBox="0 0 1000 270"
   sodipodi:docname="Microsoft-MakeCode-logo-white.svg"
   inkscape:export-filename="C:\gh\pxt\docs\static\logo\Microsoft-MakeCode-logo-purple-small.png"
   inkscape:export-xdpi="27"
   inkscape:export-ydpi="27"><metadata
     id="metadata8"><rdf:RDF><cc:Work
         rdf:about=""><dc:format>image/svg+xml</dc:format><dc:type
           rdf:resource="http://purl.org/dc/dcmitype/StillImage" /><dc:title></dc:title></cc:Work></rdf:RDF></metadata><defs
     id="defs6"><clipPath
       clipPathUnits="userSpaceOnUse"
       id="clipPath16"><path
         d="M 0,216 482,216 482,0 0,0 0,216 Z"
         id="path18"
         inkscape:connector-curvature="0" /></clipPath></defs><sodipodi:namedview
     pagecolor="#ff0000"
     bordercolor="#666666"
     borderopacity="1"
     objecttolerance="10"
     gridtolerance="10"
     guidetolerance="10"
     inkscape:pageopacity="0"
     inkscape:pageshadow="2"
     inkscape:window-width="1536"
     inkscape:window-height="801"
     id="namedview4"
     showgrid="false"
     inkscape:zoom="0.68049793"
     inkscape:cx="490.7694"
     inkscape:cy="135"
     inkscape:window-x="-8"
     inkscape:window-y="-8"
     inkscape:window-maximized="1"
     inkscape:current-layer="g10" /><g
     id="g10"
     inkscape:groupmode="layer"
     inkscape:label="Microsoft-logo_rgb_c-wht"
     transform="matrix(1.25,0,0,-1.25,0,270)"><rect
       style="fill:#68217a;fill-opacity:1;stroke:none;stroke-width:2;stroke-linecap:round;stroke-linejoin:round;stroke-miterlimit:4;stroke-dasharray:none;stroke-opacity:1"
       id="rect4145"
       width="931.08289"
       height="323.29266"
       x="-39.97073"
       y="-250.40488"
       transform="scale(1,-1)" /><g
       id="g12"><g
         id="g14"
         clip-path="url(#clipPath16)"><g
           id="g20"
           transform="translate(394.9424,111.4109)"><path
             d="m 0,0 -10.858,0 0,-25.004 -7.38,0 0,25.004 -5.182,0 0,5.965 5.182,0 0,4.308 c 0,3.254 1.059,5.92 3.178,7.998 2.119,2.079 4.835,3.118 8.149,3.118 0.883,0 1.667,-0.045 2.35,-0.135 0.682,-0.091 1.285,-0.227 1.807,-0.407 l 0,-6.296 c -0.241,0.14 -0.663,0.311 -1.265,0.512 -0.603,0.2 -1.296,0.301 -2.078,0.301 -1.528,0 -2.702,-0.477 -3.526,-1.431 -0.824,-0.954 -1.235,-2.365 -1.235,-4.232 l 0,-3.736 10.858,0 0,6.959 7.321,2.229 0,-9.188 7.381,0 0,-5.965 -7.381,0 0,-14.49 c 0,-1.909 0.346,-3.254 1.039,-4.037 0.693,-0.783 1.782,-1.175 3.269,-1.175 0.421,0 0.928,0.1 1.521,0.301 0.592,0.201 1.109,0.441 1.552,0.723 l 0,-6.025 c -0.463,-0.261 -1.231,-0.502 -2.305,-0.723 -1.074,-0.221 -2.134,-0.331 -3.178,-0.331 -3.073,0 -5.378,0.817 -6.914,2.455 C 0.768,-21.665 0,-19.2 0,-15.906 L 0,0 Z m -48.407,-9.731 c 0,-3.233 0.733,-5.703 2.199,-7.411 1.466,-1.707 3.565,-2.56 6.296,-2.56 2.652,0 4.67,0.853 6.055,2.56 1.386,1.708 2.079,4.238 2.079,7.592 0,3.334 -0.718,5.849 -2.154,7.547 -1.436,1.697 -3.45,2.545 -6.04,2.545 -2.671,0 -4.745,-0.888 -6.221,-2.666 -1.476,-1.777 -2.214,-4.313 -2.214,-7.607 m -7.592,-0.24 c 0,5.121 1.446,9.177 4.338,12.17 2.892,2.993 6.909,4.489 12.05,4.489 4.841,0 8.621,-1.441 11.343,-4.323 2.721,-2.883 4.082,-6.774 4.082,-11.674 0,-5.021 -1.447,-9.018 -4.338,-11.99 -2.892,-2.973 -6.829,-4.458 -11.81,-4.458 -4.8,0 -8.611,1.41 -11.432,4.232 -2.822,2.821 -4.233,6.673 -4.233,11.554 m -16.417,7.802 c 0,-1.045 0.331,-1.863 0.994,-2.456 0.662,-0.592 2.128,-1.34 4.398,-2.243 2.912,-1.166 4.956,-2.476 6.131,-3.932 1.175,-1.456 1.762,-3.219 1.762,-5.287 0,-2.912 -1.12,-5.252 -3.359,-7.019 -2.24,-1.768 -5.267,-2.651 -9.083,-2.651 -1.285,0 -2.706,0.155 -4.263,0.467 -1.556,0.311 -2.877,0.707 -3.961,1.19 l 0,7.169 c 1.326,-0.924 2.751,-1.656 4.278,-2.198 1.526,-0.543 2.911,-0.814 4.157,-0.814 1.647,0 2.862,0.231 3.645,0.693 0.784,0.461 1.175,1.235 1.175,2.319 0,1.005 -0.406,1.853 -1.22,2.546 -0.813,0.693 -2.355,1.492 -4.624,2.395 -2.691,1.125 -4.599,2.39 -5.724,3.796 -1.125,1.406 -1.687,3.193 -1.687,5.362 0,2.792 1.109,5.086 3.329,6.884 2.218,1.797 5.096,2.696 8.631,2.696 1.084,0 2.3,-0.12 3.645,-0.361 1.346,-0.242 2.47,-0.553 3.374,-0.934 l 0,-6.929 c -0.964,0.643 -2.089,1.194 -3.374,1.657 -1.286,0.462 -2.561,0.693 -3.826,0.693 -1.386,0 -2.465,-0.271 -3.238,-0.813 -0.774,-0.543 -1.16,-1.286 -1.16,-2.23 m -35.066,-7.562 c 0,-3.233 0.733,-5.703 2.2,-7.411 1.465,-1.707 3.564,-2.56 6.295,-2.56 2.652,0 4.67,0.853 6.055,2.56 1.386,1.708 2.079,4.238 2.079,7.592 0,3.334 -0.718,5.849 -2.154,7.547 -1.436,1.697 -3.449,2.545 -6.039,2.545 -2.672,0 -4.745,-0.888 -6.222,-2.666 -1.476,-1.777 -2.214,-4.313 -2.214,-7.607 m -7.592,-0.24 c 0,5.121 1.446,9.177 4.338,12.17 2.893,2.993 6.909,4.489 12.051,4.489 4.84,0 8.621,-1.441 11.342,-4.323 2.721,-2.883 4.082,-6.774 4.082,-11.674 0,-5.021 -1.446,-9.018 -4.338,-11.99 -2.892,-2.973 -6.828,-4.458 -11.809,-4.458 -4.801,0 -8.611,1.41 -11.433,4.232 -2.822,2.821 -4.233,6.673 -4.233,11.554 m -3.136,16.448 c 0.582,0 1.105,-0.041 1.567,-0.121 0.462,-0.08 0.853,-0.18 1.175,-0.301 l 0,-7.38 c -0.382,0.281 -0.939,0.546 -1.672,0.798 -0.733,0.251 -1.622,0.376 -2.666,0.376 -1.788,0 -3.299,-0.753 -4.534,-2.259 -1.235,-1.506 -1.853,-3.826 -1.853,-6.959 l 0,-15.635 -7.291,0 0,30.969 7.291,0 0,-4.88 0.12,0 c 0.663,1.687 1.667,3.007 3.013,3.961 1.346,0.953 2.962,1.431 4.85,1.431 m -27.956,-26.179 c 1.084,0 2.279,0.25 3.585,0.753 1.305,0.502 2.51,1.164 3.615,1.988 l 0,-6.778 c -1.165,-0.663 -2.485,-1.165 -3.962,-1.506 -1.475,-0.342 -3.098,-0.512 -4.865,-0.512 -4.559,0 -8.265,1.44 -11.116,4.323 -2.852,2.881 -4.278,6.562 -4.278,11.04 0,4.981 1.456,9.083 4.369,12.307 2.911,3.224 7.038,4.835 12.381,4.835 1.366,0 2.746,-0.176 4.143,-0.527 1.395,-0.352 2.504,-0.758 3.328,-1.22 l 0,-6.989 c -1.125,0.823 -2.274,1.461 -3.45,1.913 -1.174,0.451 -2.375,0.678 -3.599,0.678 -2.872,0 -5.192,-0.934 -6.959,-2.802 -1.768,-1.868 -2.652,-4.388 -2.652,-7.562 0,-3.132 0.849,-5.573 2.546,-7.32 1.697,-1.748 4.002,-2.621 6.914,-2.621 m -22.112,-5.302 -7.29,0 0,30.969 7.29,0 0,-30.969 z m -8.044,39.916 c 0,1.205 0.437,2.214 1.311,3.028 0.874,0.813 1.913,1.22 3.118,1.22 1.285,0 2.35,-0.417 3.193,-1.25 0.844,-0.834 1.266,-1.833 1.266,-2.998 0,-1.185 -0.432,-2.179 -1.296,-2.982 -0.864,-0.804 -1.918,-1.205 -3.163,-1.205 -1.246,0 -2.295,0.406 -3.148,1.219 -0.854,0.815 -1.281,1.803 -1.281,2.968 m -6.273,3.284 0,-43.2 -7.501,0 0,33.861 -0.12,0 -13.407,-33.861 -4.97,0 -13.738,33.861 -0.09,0 0,-33.861 -6.929,0 0,43.2 10.755,0 12.412,-32.024 0.18,0 13.105,32.024 10.303,0 z"
             style="fill:#ffffff;fill-opacity:1;fill-rule:nonzero;stroke:none"
             id="path22"
             inkscape:connector-curvature="0" /></g><path
           d="m 106.214,109.786 -34.218,0 0,34.218 34.218,0 0,-34.218 z"
           style="fill:#f25022;fill-opacity:1;fill-rule:nonzero;stroke:none"
           id="path24"
           inkscape:connector-curvature="0" /><path
           d="m 143.993,109.786 -34.218,0 0,34.218 34.218,0 0,-34.218 z"
           style="fill:#7fba00;fill-opacity:1;fill-rule:nonzero;stroke:none"
           id="path26"
           inkscape:connector-curvature="0" /><path
           d="m 106.214,72.007 -34.218,0 0,34.218 34.218,0 0,-34.218 z"
           style="fill:#00a4ef;fill-opacity:1;fill-rule:nonzero;stroke:none"
           id="path28"
           inkscape:connector-curvature="0" /><path
           d="m 143.993,72.007 -34.218,0 0,34.218 34.218,0 0,-34.218 z"
           style="fill:#ffb900;fill-opacity:1;fill-rule:nonzero;stroke:none"
           id="path30"
           inkscape:connector-curvature="0" /></g></g><text
       xml:space="preserve"
       style="font-style:normal;font-weight:normal;font-size:32px;line-height:125%;font-family:sans-serif;letter-spacing:0px;word-spacing:0px;fill:#000000;fill-opacity:1;stroke:none;stroke-width:1px;stroke-linecap:butt;stroke-linejoin:miter;stroke-opacity:1"
       x="430.07797"
       y="-87.419502"
       id="text3358"
       sodipodi:linespacing="125%"
       transform="scale(1,-1)"><tspan
         sodipodi:role="line"
         id="tspan3360"
         x="430.07797"
         y="-87.419502"
         style="font-style:normal;font-variant:normal;font-weight:300;font-stretch:normal;font-size:60px;font-family:'Segoe UI';-inkscape-font-specification:'Segoe UI Light';fill:#ffffff">MakeCode</tspan></text>
<rect
       style="fill:#68217a;fill-opacity:1;stroke:none;stroke-width:2;stroke-linecap:round;stroke-linejoin:round;stroke-miterlimit:4;stroke-dasharray:none;stroke-opacity:1"
       id="rect4147"
       width="211.60977"
       height="9.4048786"
       x="498.45856"
       y="61.131714"
       transform="scale(1,-1)" /></g></svg>