<?xml version="1.0" encoding="UTF-8"?>
<svg width="231px" height="45px" viewBox="0 0 231 45" version="1.1" xmlns="http://www.w3.org/2000/svg" xmlns:xlink="http://www.w3.org/1999/xlink">
    <!-- Generator: Sketch 53.2 (72643) - https://sketchapp.com -->
    <title>Microsoft Makecode</title>
    <desc>Created with Sketch.</desc>
    <defs>
        <polygon id="path-1" points="0 23.04 107.907 23.04 107.907 0 0 0"></polygon>
    </defs>
    <g id="Microsoft-Makecode" stroke="none" stroke-width="1" fill="none" fill-rule="evenodd">
        <g id="Microsoft-Logo" transform="translate(11.000000, 10.000000)">
            <path d="M38.0881,13.275 L37.4411,15.086 L37.4031,15.086 C37.2891,14.662 37.0951,14.059 36.7921,13.296 L33.3301,4.611 L29.9451,4.611 L29.9451,18.418 L32.1781,18.418 L32.1781,9.93 C32.1781,9.406 32.1671,8.774 32.1451,8.049 C32.1331,7.682 32.0921,7.388 32.0821,7.166 L32.1301,7.166 C32.2441,7.685 32.3611,8.082 32.4461,8.346 L36.5981,18.418 L38.1591,18.418 L42.2781,8.255 C42.3731,8.025 42.4721,7.572 42.5631,7.166 L42.6111,7.166 C42.5581,8.171 42.5121,9.09 42.5061,9.644 L42.5061,18.418 L44.8871,18.418 L44.8871,4.611 L41.6371,4.611 L38.0881,13.275 Z" id="Fill-1" fill="#77787B"></path>
            <mask id="mask-2" fill="white">
                <use xlink:href="#path-1"></use>
            </mask>
            <g id="Clip-4"></g>
            <polygon id="Fill-3" fill="#77787B" mask="url(#mask-2)" points="47.129 18.417 49.456 18.417 49.456 8.523 47.129 8.523"></polygon>
            <path d="M48.3166,4.3194 C47.9326,4.3194 47.5996,4.4504 47.3256,4.7084 C47.0496,4.9674 46.9096,5.2934 46.9096,5.6784 C46.9096,6.0574 47.0476,6.3774 47.3206,6.6304 C47.5916,6.8814 47.9266,7.0094 48.3166,7.0094 C48.7066,7.0094 49.0426,6.8814 49.3166,6.6304 C49.5936,6.3774 49.7336,6.0574 49.7336,5.6784 C49.7336,5.3074 49.5966,4.9844 49.3286,4.7184 C49.0596,4.4534 48.7196,4.3194 48.3166,4.3194" id="Fill-5" fill="#77787B" mask="url(#mask-2)"></path>
            <path d="M57.6955,8.4249 C57.2475,8.3319 56.8105,8.2859 56.3945,8.2859 C55.3265,8.2859 54.3745,8.5139 53.5645,8.9659 C52.7535,9.4179 52.1245,10.0639 51.6985,10.8849 C51.2725,11.7049 51.0565,12.6609 51.0565,13.7279 C51.0565,14.6629 51.2665,15.5209 51.6795,16.2769 C52.0935,17.0349 52.6795,17.6269 53.4215,18.0379 C54.1625,18.4479 55.0185,18.6559 55.9655,18.6559 C57.0715,18.6559 58.0155,18.4349 58.7735,17.9989 L58.8025,17.9809 L58.8025,15.8499 L58.7055,15.9209 C58.3625,16.1709 57.9795,16.3699 57.5675,16.5119 C57.1555,16.6569 56.7805,16.7299 56.4525,16.7299 C55.5395,16.7299 54.8065,16.4439 54.2735,15.8809 C53.7405,15.3159 53.4705,14.5249 53.4705,13.5279 C53.4705,12.5249 53.7515,11.7119 54.3075,11.1129 C54.8615,10.5149 55.5955,10.2119 56.4905,10.2119 C57.2555,10.2119 58.0005,10.4709 58.7055,10.9829 L58.8025,11.0539 L58.8025,8.8069 L58.7725,8.7889 C58.5075,8.6409 58.1445,8.5179 57.6955,8.4249" id="Fill-6" fill="#77787B" mask="url(#mask-2)"></path>
            <path d="M65.3635,8.3521 C64.7795,8.3521 64.2565,8.5401 63.8065,8.9101 C63.4135,9.2351 63.1295,9.6811 62.9115,10.2371 L62.8875,10.2371 L62.8875,8.5241 L60.5595,8.5241 L60.5595,18.4161 L62.8875,18.4161 L62.8875,13.3561 C62.8875,12.4961 63.0825,11.7891 63.4675,11.2551 C63.8475,10.7271 64.3535,10.4601 64.9725,10.4601 C65.1825,10.4601 65.4175,10.4941 65.6725,10.5631 C65.9245,10.6311 66.1075,10.7051 66.2155,10.7821 L66.3125,10.8531 L66.3125,8.5071 L66.2745,8.4911 C66.0585,8.3991 65.7515,8.3521 65.3635,8.3521" id="Fill-7" fill="#77787B" mask="url(#mask-2)"></path>
            <path d="M73.5353,15.9029 C73.0983,16.4519 72.4393,16.7289 71.5793,16.7289 C70.7243,16.7289 70.0503,16.4459 69.5743,15.8869 C69.0983,15.3269 68.8543,14.5259 68.8543,13.5079 C68.8543,12.4609 69.0983,11.6379 69.5743,11.0669 C70.0513,10.4989 70.7193,10.2129 71.5603,10.2129 C72.3773,10.2129 73.0273,10.4869 73.4943,11.0299 C73.9623,11.5749 74.1993,12.3899 74.1993,13.4519 C74.1993,14.5259 73.9753,15.3509 73.5353,15.9029 M71.6843,8.2849 C70.0533,8.2849 68.7573,8.7629 67.8333,9.7059 C66.9103,10.6489 66.4413,11.9539 66.4413,13.5859 C66.4413,15.1339 66.8983,16.3809 67.8003,17.2889 C68.7023,18.1949 69.9293,18.6559 71.4453,18.6559 C73.0263,18.6559 74.2973,18.1719 75.2213,17.2149 C76.1433,16.2599 76.6113,14.9679 76.6113,13.3759 C76.6113,11.8009 76.1733,10.5469 75.3063,9.6439 C74.4403,8.7419 73.2213,8.2849 71.6843,8.2849" id="Fill-8" fill="#77787B" mask="url(#mask-2)"></path>
            <path d="M81.7736,12.6119 C81.0396,12.3169 80.5696,12.0729 80.3766,11.8859 C80.1896,11.7039 80.0946,11.4479 80.0946,11.1229 C80.0946,10.8359 80.2116,10.6049 80.4526,10.4189 C80.6946,10.2309 81.0316,10.1359 81.4546,10.1359 C81.8476,10.1359 82.2496,10.1979 82.6486,10.3189 C83.0466,10.4399 83.3986,10.6029 83.6906,10.8019 L83.7876,10.8679 L83.7876,8.7159 L83.7496,8.7009 C83.4806,8.5849 83.1246,8.4859 82.6926,8.4049 C82.2606,8.3259 81.8706,8.2849 81.5316,8.2849 C80.4216,8.2849 79.5036,8.5689 78.8016,9.1289 C78.0966,9.6919 77.7386,10.4299 77.7386,11.3239 C77.7386,11.7879 77.8156,12.2009 77.9686,12.5499 C78.1206,12.9019 78.3576,13.2109 78.6716,13.4709 C78.9836,13.7279 79.4646,13.9969 80.1046,14.2719 C80.6406,14.4919 81.0406,14.6789 81.2946,14.8259 C81.5436,14.9709 81.7206,15.1159 81.8196,15.2569 C81.9166,15.3949 81.9646,15.5839 81.9646,15.8179 C81.9646,16.4829 81.4676,16.8059 80.4436,16.8059 C80.0636,16.8059 79.6306,16.7269 79.1556,16.5699 C78.6806,16.4139 78.2366,16.1889 77.8356,15.9019 L77.7386,15.8309 L77.7386,18.0999 L77.7746,18.1159 C78.1086,18.2699 78.5286,18.3999 79.0236,18.5019 C79.5186,18.6039 79.9676,18.6559 80.3576,18.6559 C81.5626,18.6559 82.5316,18.3709 83.2396,17.8079 C83.9506,17.2419 84.3126,16.4859 84.3126,15.5599 C84.3126,14.8939 84.1186,14.3219 83.7346,13.8609 C83.3546,13.4029 82.6946,12.9829 81.7736,12.6119" id="Fill-9" fill="#77787B" mask="url(#mask-2)"></path>
            <path d="M92.4211,15.9029 C91.9841,16.4519 91.3251,16.7289 90.4651,16.7289 C89.6101,16.7289 88.9361,16.4459 88.4611,15.8869 C87.9831,15.3269 87.7401,14.5259 87.7401,13.5079 C87.7401,12.4609 87.9841,11.6379 88.4611,11.0669 C88.9361,10.4989 89.6041,10.2129 90.4461,10.2129 C91.2631,10.2129 91.9131,10.4869 92.3801,11.0299 C92.8481,11.5749 93.0841,12.3899 93.0841,13.4519 C93.0841,14.5259 92.8601,15.3509 92.4211,15.9029 M90.5691,8.2849 C88.9391,8.2849 87.6431,8.7629 86.7191,9.7059 C85.7961,10.6489 85.3271,11.9539 85.3271,13.5859 C85.3271,15.1339 85.7841,16.3809 86.6861,17.2889 C87.5881,18.1949 88.8141,18.6559 90.3311,18.6559 C91.9121,18.6559 93.1831,18.1719 94.1071,17.2149 C95.0291,16.2599 95.4971,14.9679 95.4971,13.3759 C95.4971,11.8009 95.0591,10.5469 94.1921,9.6439 C93.3251,8.7419 92.1071,8.2849 90.5691,8.2849" id="Fill-10" fill="#77787B" mask="url(#mask-2)"></path>
            <path d="M107.9064,10.4215 L107.9064,8.5235 L105.5504,8.5235 L105.5504,5.5725 L105.4704,5.5965 L103.2574,6.2745 L103.2134,6.2875 L103.2134,8.5235 L99.7204,8.5235 L99.7204,7.2775 C99.7204,6.6985 99.8504,6.2545 100.1064,5.9585 C100.3604,5.6655 100.7234,5.5175 101.1854,5.5175 C101.5184,5.5175 101.8634,5.5955 102.2114,5.7505 L102.2984,5.7895 L102.2984,3.7905 L102.2574,3.7755 C101.9334,3.6595 101.4924,3.6005 100.9474,3.6005 C100.2604,3.6005 99.6354,3.7505 99.0914,4.0465 C98.5464,4.3435 98.1174,4.7675 97.8164,5.3065 C97.5164,5.8445 97.3644,6.4655 97.3644,7.1535 L97.3644,8.5235 L95.7234,8.5235 L95.7234,10.4215 L97.3644,10.4215 L97.3644,18.4175 L99.7204,18.4175 L99.7204,10.4215 L103.2134,10.4215 L103.2134,15.5025 C103.2134,17.5955 104.1994,18.6555 106.1464,18.6555 C106.4674,18.6555 106.8034,18.6185 107.1474,18.5445 C107.4984,18.4695 107.7354,18.3945 107.8764,18.3145 L107.9064,18.2955 L107.9064,16.3795 L107.8104,16.4435 C107.6834,16.5285 107.5234,16.5985 107.3374,16.6505 C107.1494,16.7025 106.9924,16.7305 106.8724,16.7305 C106.4164,16.7305 106.0794,16.6075 105.8694,16.3635 C105.6564,16.1195 105.5504,15.6925 105.5504,15.0925 L105.5504,10.4215 L107.9064,10.4215 Z" id="Fill-11" fill="#77787B" mask="url(#mask-2)"></path>
            <polygon id="Fill-12" fill="#F26522" mask="url(#mask-2)" points="0 10.948 10.948 10.948 10.948 0 0 0"></polygon>
            <polygon id="Fill-13" fill="#8DC63F" mask="url(#mask-2)" points="12.088 10.948 23.036 10.948 23.036 0 12.088 0"></polygon>
            <polygon id="Fill-14" fill="#00AEEF" mask="url(#mask-2)" points="0 23.04 10.948 23.04 10.948 12.092 0 12.092"></polygon>
            <polygon id="Fill-15" fill="#FFC20E" mask="url(#mask-2)" points="12.088 23.04 23.036 23.04 23.036 12.092 12.088 12.092"></polygon>
        </g>
        <path d="M161.812012,27 L160.19873,27 L160.19873,20.65625 C160.19873,20.1367162 160.230631,19.5009803 160.294434,18.7490234 L160.26709,18.7490234 C160.166829,19.177411 160.077963,19.4850251 160.000488,19.671875 L157.074707,27 L155.953613,27 L153.020996,19.7265625 C152.938964,19.5123687 152.852377,19.1865256 152.76123,18.7490234 L152.733887,18.7490234 C152.770345,19.1409525 152.788574,19.7812456 152.788574,20.6699219 L152.788574,27 L151.284668,27 L151.284668,17.1972656 L153.574707,17.1972656 L156.151855,23.7255859 C156.34782,24.2268905 156.475423,24.6005847 156.534668,24.8466797 L156.568848,24.8466797 C156.737468,24.3317032 156.874186,23.9488945 156.979004,23.6982422 L159.604004,17.1972656 L161.812012,17.1972656 L161.812012,27 Z M169.42041,27 L167.882324,27 L167.882324,25.90625 L167.85498,25.90625 C167.371905,26.7447959 166.663253,27.1640625 165.729004,27.1640625 C165.040849,27.1640625 164.501955,26.9772154 164.112305,26.6035156 C163.722654,26.2298158 163.527832,25.7353546 163.527832,25.1201172 C163.527832,23.798496 164.288892,23.0283214 165.811035,22.8095703 L167.88916,22.515625 C167.88916,21.5175731 167.415207,21.0185547 166.467285,21.0185547 C165.633297,21.0185547 164.881351,21.3056612 164.211426,21.8798828 L164.211426,20.4921875 C164.949711,20.0546853 165.801916,19.8359375 166.768066,19.8359375 C168.536304,19.8359375 169.42041,20.7063715 169.42041,22.4472656 L169.42041,27 Z M167.88916,23.5615234 L166.419434,23.7666016 C165.963702,23.8258467 165.620769,23.9363599 165.390625,24.0981445 C165.160481,24.2599292 165.04541,24.5436178 165.04541,24.9492188 C165.04541,25.2454442 165.151366,25.4881175 165.363281,25.6772461 C165.575196,25.8663746 165.858885,25.9609375 166.214355,25.9609375 C166.697431,25.9609375 167.097329,25.7911801 167.414062,25.4516602 C167.730796,25.1121402 167.88916,24.6848984 167.88916,24.1699219 L167.88916,23.5615234 Z M177.705566,27 L175.695801,27 L172.975098,23.6367188 L172.947754,23.6367188 L172.947754,27 L171.35498,27 L171.35498,16.6367188 L172.947754,16.6367188 L172.947754,23.2060547 L172.975098,23.2060547 L175.54541,20 L177.452637,20 L174.561035,23.3769531 L177.705566,27 Z M184.630371,23.9306641 L179.858887,23.9306641 C179.877116,24.5778027 180.076495,25.0768212 180.457031,25.4277344 C180.837567,25.7786476 181.360511,25.9541016 182.025879,25.9541016 C182.773278,25.9541016 183.459144,25.7307965 184.083496,25.2841797 L184.083496,26.5625 C183.445472,26.9635437 182.602382,27.1640625 181.554199,27.1640625 C180.524246,27.1640625 179.716474,26.8461946 179.130859,26.2104492 C178.545244,25.5747039 178.252441,24.6803443 178.252441,23.5273438 C178.252441,22.4381456 178.574867,21.5506219 179.219727,20.8647461 C179.864587,20.1788703 180.665523,19.8359375 181.622559,19.8359375 C182.579595,19.8359375 183.320147,20.1435516 183.844238,20.7587891 C184.368329,21.3740265 184.630371,22.2285102 184.630371,23.3222656 L184.630371,23.9306641 Z M183.099121,22.8095703 C183.094564,22.239906 182.960125,21.7967138 182.695801,21.4799805 C182.431477,21.1632471 182.066897,21.0048828 181.602051,21.0048828 C181.146319,21.0048828 180.760093,21.1712223 180.443359,21.5039062 C180.126626,21.8365902 179.931804,22.2718072 179.858887,22.8095703 L183.099121,22.8095703 Z M191.151855,26.6787109 C190.591306,27.0022803 189.928226,27.1640625 189.162598,27.1640625 C188.12353,27.1640625 187.284997,26.8393587 186.646973,26.1899414 C186.008949,25.5405241 185.689941,24.6985729 185.689941,23.6640625 C185.689941,22.5110619 186.032874,21.5848017 186.71875,20.8852539 C187.404626,20.1857061 188.321772,19.8359375 189.470215,19.8359375 C190.108239,19.8359375 190.671059,19.94759 191.158691,20.1708984 L191.158691,21.6474609 C190.671059,21.2828758 190.151533,21.1005859 189.600098,21.1005859 C188.930172,21.1005859 188.381024,21.3273089 187.952637,21.7807617 C187.524249,22.2342145 187.310059,22.8277958 187.310059,23.5615234 C187.310059,24.2861364 187.511717,24.8580708 187.915039,25.2773438 C188.318361,25.6966167 188.859534,25.90625 189.538574,25.90625 C190.108239,25.90625 190.645994,25.7034525 191.151855,25.2978516 L191.151855,26.6787109 Z M195.827637,27.1640625 C194.747553,27.1640625 193.885094,26.8370801 193.240234,26.1831055 C192.595374,25.5291308 192.272949,24.6621148 192.272949,23.5820312 C192.272949,22.4062441 192.609046,21.487959 193.28125,20.8271484 C193.953454,20.1663378 194.859207,19.8359375 195.998535,19.8359375 C197.092291,19.8359375 197.944496,20.1572233 198.555176,20.7998047 C199.165856,21.442386 199.471191,22.3333276 199.471191,23.4726562 C199.471191,24.5891983 199.14193,25.4835578 198.483398,26.1557617 C197.824866,26.8279656 196.939621,27.1640625 195.827637,27.1640625 Z M195.902832,21.1005859 C195.283037,21.1005859 194.793133,21.3170551 194.433105,21.75 C194.073078,22.1829449 193.893066,22.7799441 193.893066,23.5410156 C193.893066,24.2747433 194.075356,24.8523742 194.439941,25.2739258 C194.804527,25.6954774 195.292152,25.90625 195.902832,25.90625 C196.527184,25.90625 197.006834,25.6988953 197.341797,25.2841797 C197.676759,24.8694641 197.844238,24.2793007 197.844238,23.5136719 C197.844238,22.7434857 197.676759,22.1487651 197.341797,21.7294922 C197.006834,21.3102193 196.527184,21.1005859 195.902832,21.1005859 Z M207.44873,27 L205.862793,27 L205.862793,25.8105469 L205.835449,25.8105469 C205.32503,26.7128951 204.538905,27.1640625 203.477051,27.1640625 C202.615718,27.1640625 201.926435,26.8507518 201.40918,26.2241211 C200.891924,25.5974904 200.633301,24.744146 200.633301,23.6640625 C200.633301,22.5065046 200.919268,21.579105 201.491211,20.8818359 C202.063154,20.1845668 202.825353,19.8359375 203.777832,19.8359375 C204.721196,19.8359375 205.407062,20.2141889 205.835449,20.9707031 L205.862793,20.9707031 L205.862793,16.6367188 L207.44873,16.6367188 L207.44873,27 Z M205.883301,23.8007812 L205.883301,22.8847656 C205.883301,22.3880183 205.721519,21.9664731 205.397949,21.6201172 C205.07438,21.2737613 204.661949,21.1005859 204.160645,21.1005859 C203.568194,21.1005859 203.102215,21.3216124 202.762695,21.7636719 C202.423175,22.2057314 202.253418,22.818681 202.253418,23.6025391 C202.253418,24.3134801 202.41634,24.8751607 202.742188,25.2875977 C203.068035,25.7000346 203.50667,25.90625 204.058105,25.90625 C204.600426,25.90625 205.0402,25.7068705 205.377441,25.3081055 C205.714683,24.9093405 205.883301,24.4069041 205.883301,23.8007812 Z M215.446777,23.9306641 L210.675293,23.9306641 C210.693522,24.5778027 210.892902,25.0768212 211.273438,25.4277344 C211.653973,25.7786476 212.176917,25.9541016 212.842285,25.9541016 C213.589685,25.9541016 214.27555,25.7307965 214.899902,25.2841797 L214.899902,26.5625 C214.261878,26.9635437 213.418788,27.1640625 212.370605,27.1640625 C211.340652,27.1640625 210.532881,26.8461946 209.947266,26.2104492 C209.361651,25.5747039 209.068848,24.6803443 209.068848,23.5273438 C209.068848,22.4381456 209.391273,21.5506219 210.036133,20.8647461 C210.680993,20.1788703 211.481929,19.8359375 212.438965,19.8359375 C213.396001,19.8359375 214.136553,20.1435516 214.660645,20.7587891 C215.184736,21.3740265 215.446777,22.2285102 215.446777,23.3222656 L215.446777,23.9306641 Z M213.915527,22.8095703 C213.91097,22.239906 213.776531,21.7967138 213.512207,21.4799805 C213.247883,21.1632471 212.883303,21.0048828 212.418457,21.0048828 C211.962726,21.0048828 211.576499,21.1712223 211.259766,21.5039062 C210.943032,21.8365902 210.74821,22.2718072 210.675293,22.8095703 L213.915527,22.8095703 Z" id="Makecode" fill="#1A1C33" fill-rule="nonzero"></path>
        <rect id="Separator" fill="#000000" x="133" y="10" width="1" height="24"></rect>
    </g>
</svg>