<?xml version="1.0" standalone="no"?>
<!DOCTYPE svg PUBLIC "-//W3C//DTD SVG 20010904//EN"
 "http://www.w3.org/TR/2001/REC-SVG-20010904/DTD/svg10.dtd">
<svg version="1.0" xmlns="http://www.w3.org/2000/svg"
 width="192.000000pt" height="192.000000pt" viewBox="0 0 192.000000 192.000000"
 preserveAspectRatio="xMidYMid meet">
<metadata>
Created by potrace 1.14, written by Peter Selinger 2001-2017
</metadata>
<g transform="translate(0.000000,192.000000) scale(0.100000,-0.100000)"
fill="#000000" stroke="none">
<path d="M305 1694 c-55 -28 -105 -86 -121 -139 -9 -30 -17 -111 -20 -205 -7
-195 -17 -227 -90 -281 -61 -44 -74 -64 -74 -109 0 -44 12 -63 71 -104 75 -54
85 -87 93 -281 7 -191 20 -245 73 -297 73 -71 44 -68 727 -68 374 0 625 4 640
10 14 5 46 28 71 51 61 56 74 105 81 299 7 195 17 227 90 281 62 46 74 64 74
114 0 38 -28 74 -95 119 -49 33 -62 84 -69 261 -7 191 -20 245 -73 297 -73 71
-44 68 -730 68 -539 0 -622 -2 -648 -16z m223 -96 c16 -16 15 -63 0 -76 -7 -5
-24 -13 -38 -16 -79 -22 -86 -38 -95 -221 -4 -71 -11 -147 -16 -168 -11 -42
-65 -108 -110 -134 -16 -10 -29 -20 -29 -23 0 -3 23 -20 50 -38 32 -22 56 -49
70 -78 22 -45 39 -171 40 -292 0 -85 18 -118 73 -133 56 -16 67 -26 67 -58 0
-39 -17 -51 -71 -51 -56 0 -95 13 -127 43 -49 45 -56 73 -62 248 -7 193 -17
221 -95 281 -85 64 -84 91 0 156 79 60 87 84 95 282 6 174 13 202 62 247 12
12 34 26 48 32 35 14 124 13 138 -1z m999 1 c15 -6 39 -20 51 -32 49 -45 56
-73 62 -248 7 -193 17 -221 95 -281 85 -64 84 -91 0 -156 -79 -60 -87 -84 -95
-282 -6 -174 -13 -202 -62 -247 -32 -30 -71 -43 -127 -43 -54 0 -71 12 -71 51
0 32 16 47 58 55 17 3 41 17 53 30 20 22 24 41 34 193 11 152 15 173 38 213
14 23 46 57 71 73 25 17 46 32 46 35 0 3 -23 20 -50 38 -32 22 -56 49 -70 78
-22 45 -39 171 -40 292 0 85 -18 118 -73 133 -23 7 -48 17 -54 22 -16 12 -17
59 -1 75 15 15 97 16 135 1z m-501 -116 c27 -17 54 -68 54 -100 0 -10 -9 -36
-21 -57 -33 -62 -26 -66 110 -66 155 0 151 4 151 -144 0 -133 -9 -152 -59
-117 -18 13 -44 21 -71 21 -34 0 -48 -6 -76 -34 -28 -28 -34 -41 -34 -78 0
-50 18 -82 60 -103 40 -21 77 -19 117 6 58 36 63 26 63 -119 0 -86 -4 -132
-12 -140 -17 -17 -679 -17 -696 0 -9 9 -12 100 -12 350 0 323 1 338 19 348 11
5 69 10 129 10 130 0 145 8 112 62 -25 42 -25 84 0 126 37 60 107 74 166 35z"/>
</g>
</svg>
