<?xml version="1.0" encoding="UTF-8" standalone="no"?>
<svg xmlns="http://www.w3.org/2000/svg" width="179.9" height="32.4" viewBox="0 0 179.9 32.4">
  <path fill="#495260" d="M33.1 11.2h-8.5V5.8c0-2.3 1.9-4.2 4.2-4.2 2.3 0 4.2 1.9 4.2 4.2v5.4z"/>
  <path fill="#7F96A1" d="M25.8 3.6H32v7.6h-6.2z"/>
  <path fill="#845B32" d="M12.2 7.2V18h12.5V7.2c0-3.4-2.8-6.2-6.2-6.2s-6.3 2.8-6.3 6.2z"/>
  <path fill="#26A7AA" d="M28.9 31.4H8.7c-6.3 0-9-8-4-11.8L16 11.2h17.1v16c0 2.3-1.9 4.2-4.2 4.2z"/>
  <path fill="#43C9C9" d="M15.2 17.7l-8.8.7 10.7-8"/>
  <path fill="#F6F4E7" d="M14.8 15.1l2.3-4.7 1.5 4.7m0 0l1.4-4.7 2.3 4.7"/>
  <path fill="#BDD1CF" d="M21.9 17.7h-6.7l-.4-2.6h7.5"/>
  <path fill="#F6F4E7" d="M26.8 31.4c-.6-4.6-1.9-10.2-4.8-13.7h-6.8c-3 3.5-4.2 9.1-4.8 13.7h16.4z"/>
  <path fill="#FFCD9A" d="M18.6 10.5c-1.4 0-2.6-1.2-2.6-2.6V5h5.1v2.9c0 1.5-1.1 2.6-2.5 2.6z"/>
  <path fill="#BDD1CF" d="M15.4 31.4V17.7c2.2 5.1 4.9 11.3 8.2 13.7h-8.2z"/>
  <path fill="#FFCD9A" d="M17.1 10.4l1.5 4.7 1.4-4.7"/>
  <path fill="#43C9C9" d="M25.8 11.2h7.3v9.4"/>
  <path fill="#BCD1CF" d="M52.3 15.1h-1.6l-.2-1.4c-.2-.2-.5-.4-.8-.5s-.7-.2-1.2-.2c-.9 0-1.7.3-2.2 1s-.8 1.6-.8 2.7v.4c0 1.1.3 2 .8 2.7.5.7 1.2 1 2.1 1 .4 0 .8-.1 1.2-.2.4-.1.6-.3.8-.5l.2-1.4h1.6v2.1c-.4.5-1 .9-1.7 1.2-.7.3-1.4.5-2.3.5-1.5 0-2.6-.5-3.6-1.5s-1.4-2.3-1.4-3.9v-.4c0-1.6.5-2.9 1.4-3.9s2.1-1.5 3.6-1.5c.8 0 1.6.2 2.3.5.7.3 1.2.7 1.7 1.2v2.1zm1.5 5.9l.8-.1 3.3-9.4h2.2l3.3 9.4.8.1v1.3h-3.7V21l.8-.1-.5-1.5h-3.5l-.5 1.5.8.1v1.3h-3.7V21zm3.9-3.2h2.5L59 14l-1.3 3.8zm7.8 4.5V21l1.2-.2V13l-1.2-.2v-1.3H70v1.3l-1.2.2v7.6h3.1l.1-1.4h1.7v3h-8.2zm9.5 0V21l1.2-.2V13l-1.2-.2v-1.3h4.6v1.3l-1.3.2v7.6h3.1l.1-1.4h1.7v3H75zm9.5-9.5v-1.3H89v1.3l-1.1.2v7.8l1.1.2v1.3h-4.5V21l1.2-.2V13l-1.2-.2zm15.9 4.2c0 1.6-.5 2.9-1.4 3.9-.9 1-2.1 1.6-3.6 1.6s-2.6-.5-3.5-1.6-1.4-2.3-1.4-3.9v-.2c0-1.6.4-2.9 1.3-3.9s2.1-1.6 3.5-1.6c1.5 0 2.7.5 3.6 1.6s1.4 2.4 1.4 3.9v.2zm-2.2-.2c0-1.1-.2-2-.7-2.7s-1.2-1-2.1-1-1.6.3-2 1-.7 1.6-.7 2.7v.2c0 1.1.2 2.1.7 2.8.5.7 1.1 1 2 1 .9 0 1.6-.3 2.1-1s.7-1.6.7-2.8v-.2zm8.8-5.3c1.2 0 2.2.3 2.9 1S111 14 111 15s-.4 1.9-1.1 2.5c-.7.6-1.7.9-2.9.9h-1.8v2.4l1.2.2v1.3h-4.5V21l1.2-.2V13l-1.2-.2v-1.3h5.1zm-1.8 5.2h1.8c.6 0 1.1-.2 1.4-.5s.5-.8.5-1.3-.2-1-.5-1.3c-.3-.3-.8-.5-1.4-.5h-1.8v3.6zm14.1.9h-3.7v3.1h3.5l.1-1.3h1.7v3h-8.6V21l1.2-.2V13l-1.2-.2v-1.3h8.6v3h-1.7l-.1-1.3h-3.5v2.7h3.7v1.7z"/>
  <path fill="#FFF" d="M134.3 11.6l.1 1.1c.2-.4.5-.7.9-1 .4-.2.8-.4 1.3-.4s.8.1 1.1.3c.3.2.5.5.7.8.2-.3.5-.6.8-.8.3-.2.7-.3 1.2-.3.4 0 .7.1 1 .2.3.1.5.3.8.6.2.3.4.6.5 1 .1.4.2.9.2 1.4v7.8h-2.2v-7.9c0-.4-.1-.7-.3-.9-.2-.2-.4-.2-.7-.2-.3 0-.5.1-.6.2s-.3.3-.3.5v8.3h-2.2v-7.9c0-.4-.1-.7-.3-.9-.2-.2-.4-.3-.7-.3-.3 0-.5.1-.7.2-.2.1-.3.3-.4.5v8.3h-2.2V11.6h2zm11.3 0h5.7v8.8h3.2v2h-8.9v-2h3.3v-6.8h-3.3v-2zm3.1-2.8c0-.4.1-.7.4-.9.2-.2.6-.4 1-.4s.8.1 1 .4c.2.2.4.5.4.9s-.1.7-.4.9c-.2.2-.6.4-1 .4s-.8-.1-1-.4c-.2-.2-.4-.5-.4-.9zm10.7 2.8l.1 1.5c.4-.5.9-1 1.4-1.2.6-.3 1.2-.4 1.8-.4.5 0 1 .1 1.5.2.5.2.8.4 1.2.7.3.3.6.8.8 1.3.2.5.3 1.2.3 1.9v6.7h-2.4v-6.7c0-.4-.1-.8-.2-1.1-.1-.3-.2-.5-.4-.7-.2-.2-.4-.3-.7-.4-.3-.1-.6-.1-.9-.1-.5 0-1 .1-1.4.3-.4.2-.7.5-.9.9v7.7h-2.4V11.6h2.2zm10.6 0h5.7v8.8h3.2v2H170v-2h3.3v-6.8H170v-2zm3.1-2.8c0-.4.1-.7.4-.9.2-.2.6-.4 1-.4s.8.1 1 .4c.2.2.4.5.4.9s-.1.7-.4.9c-.2.2-.6.4-1 .4s-.8-.1-1-.4c-.3-.2-.4-.5-.4-.9z"/>
</svg>