<?xml version="1.0" encoding="UTF-8" standalone="no"?>
<svg
   xmlns:dc="http://purl.org/dc/elements/1.1/"
   xmlns:cc="http://creativecommons.org/ns#"
   xmlns:rdf="http://www.w3.org/1999/02/22-rdf-syntax-ns#"
   xmlns:svg="http://www.w3.org/2000/svg"
   xmlns="http://www.w3.org/2000/svg"
   xmlns:sodipodi="http://sodipodi.sourceforge.net/DTD/sodipodi-0.dtd"
   xmlns:inkscape="http://www.inkscape.org/namespaces/inkscape"
   role="img"
   aria-labelledby="title  desc"
   xml:space="preserve"
   enable-background="new 0 0 280 32.755"
   height="34.210526104448945"
   width="195.47368473887764"
   version="1.1"
   id="svg2"
   inkscape:version="0.91 r13725"
   sodipodi:docname="logo.portrait.white.svg"><sodipodi:namedview
     pagecolor="#ff00ff"
     bordercolor="#666666"
     borderopacity="1"
     objecttolerance="10"
     gridtolerance="10"
     guidetolerance="10"
     inkscape:pageopacity="0"
     inkscape:pageshadow="2"
     inkscape:window-width="1536"
     inkscape:window-height="801"
     id="namedview14"
     showgrid="false"
     inkscape:zoom="3.6367355"
     inkscape:cx="106.22094"
     inkscape:cy="5.7691884"
     inkscape:window-x="-8"
     inkscape:window-y="-8"
     inkscape:window-maximized="1"
     inkscape:current-layer="svg2" /><rect
     id="backgroundrect"
     width="100%"
     height="100%"
     x="0"
     y="0"
     fill="none"
     stroke="none"
     class="" /><title
     id="title"
     lang="en-GB">BBC micro:bit</title><desc
     id="desc"
     lang="en-GB">BBC micro:bit logo</desc><metadata
     id="metadata37"><rdf:rdf><cc:work
         rdf:about=""><dc:format>image/svg+xml</dc:format><dc:type
           rdf:resource="http://purl.org/dc/dcmitype/StillImage" /><dc:title /></cc:work></rdf:rdf><rdf:RDF><cc:Work
         rdf:about=""><dc:format>image/svg+xml</dc:format><dc:type
           rdf:resource="http://purl.org/dc/dcmitype/StillImage" /><dc:title>BBC micro:bit</dc:title></cc:Work></rdf:RDF></metadata><defs
     id="defs35" /><g
     class="currentLayer"
     id="g9"
     transform="translate(-0.35013519,1.2540786)"><title
       id="title11">Layer 1</title><path
       style="fill:#ffffff"
       id="path21"
       d="m 38.699474,20.219684 c -1.677,0 -3.035,-1.364 -3.035,-3.042 0,-1.678 1.357,-3.038 3.035,-3.038 1.684,0 3.039,1.36 3.039,3.038 0,1.678 -1.355,3.042 -3.039,3.042 m -22.311,-6.077 c -1.677,0 -3.042,1.357 -3.042,3.035 0,1.678 1.363,3.042 3.042,3.042 1.674,0 3.036,-1.364 3.036,-3.042 0,-1.678 -1.363,-3.035 -3.036,-3.035 m -0.003,-5.9899997 22.576,0 c 4.979,0 9.027,4.0469997 9.027,9.0269997 0,4.979 -4.049,9.031 -9.027,9.031 l -22.576,0 c -4.977,0 -9.0299995,-4.053 -9.0299995,-9.031 -10e-4,-4.98 4.0529995,-9.0269997 9.0299995,-9.0269997 m 22.576,24.0759997 c 8.299,0 15.047,-6.75 15.047,-15.049 0,-8.2989997 -6.748,-15.0509997 -15.047,-15.0509997 l -22.576,0 c -8.2989995,0 -15.0489995,6.752 -15.0489995,15.0509997 0,8.299 6.75,15.049 15.0489995,15.049 l 22.576,0 m 112.098996,-21.953 c 0,-1.4529997 -1.195,-2.6329997 -2.662,-2.6329997 -1.455,0 -2.639,1.18 -2.639,2.6329997 0,1.471 1.184,2.672 2.639,2.672 1.466,0 2.662,-1.202 2.662,-2.672 z m -66.785996,5.445 c 0,-4.764 -2.893,-8.0929997 -7.031,-8.0929997 -2.027,0 -3.814,0.851 -5.223,2.4699997 -1.467,-1.6609997 -3.152,-2.4699997 -5.127,-2.4699997 -4.162,0 -7.066,3.3289997 -7.066,8.0929997 l 0,10.466 3.812,0 0,-10.644 c 0,-2.416 1.336,-4.104 3.254,-4.104 1.617,0 3.25,1.409 3.25,4.104 l 0,10.645 3.848,0 0,-10.645 c 0,-2.416 1.338,-4.104 3.252,-4.104 1.863,0 3.217,1.727 3.217,4.104 l 0,10.645 3.814,0 0,-10.467 z m 6.953,-7.6319997 -3.846,0 0,18.0989997 3.846,0 0,-18.0989997 z m 0.569,-5.128 c 0,-1.377 -1.096,-2.45400005 -2.492,-2.45400005 -1.4,0 -2.453,1.05400005 -2.453,2.45400005 0,1.398 1.078,2.494 2.453,2.494 1.375,0 2.492,-1.117 2.492,-2.494 z m 18.327996,20.9139997 0.576,-0.521 -2.828,-2.658 -0.488,0.455 c -1.252,1.149 -2.504,1.686 -3.945,1.686 -3.064,0 -5.556996,-2.557 -5.556996,-5.699 0,-3.121 2.491996,-5.66 5.556996,-5.66 1.432,0 2.646,0.521 3.949,1.693 l 0.512,0.46 2.748,-2.802 -0.49,-0.502 c -1.754,-1.7929997 -4.016,-2.6959997 -6.719,-2.6959997 -2.459,0 -4.868996,1.022 -6.604996,2.7979997 -1.738,1.734 -2.691,4.119 -2.691,6.709 0,2.596 0.953,4.979 2.684,6.705 1.771,1.811 4.116996,2.811 6.614996,2.811 2.401,-0.003 4.647,-0.937 6.682,-2.779 z m 7.25,-6.947 c 0,-3.322 1.145,-4.686 4.217,-5.029 l 0.641,-0.07 0,-3.7969997 -0.777,0.058 c -5.629,0.458 -8.143,3.2469997 -8.143,9.0479997 l 0,9.051 4.062,0 0,-9.261 0,0 z m 21.998,6.923 c 1.762,-1.756 2.729,-4.146 2.729,-6.715 0,-2.565 -0.967,-4.951 -2.723,-6.702 -1.77,-1.8089997 -4.105,-2.8059997 -6.576,-2.8059997 -2.492,0 -4.84,0.997 -6.613,2.8059997 -1.752,1.792 -2.721,4.174 -2.721,6.702 0,2.53 0.969,4.916 2.721,6.707 1.771,1.81 4.121,2.808 6.613,2.808 2.472,0 4.808,-0.998 6.57,-2.8 z m -1.229,-6.714 c 0,3.18 -2.361,5.665 -5.377,5.665 -2.945,0 -5.346,-2.541 -5.346,-5.665 0,-3.137 2.398,-5.695 5.346,-5.695 2.963,-0.002 5.377,2.558 5.377,5.695 z m 12.917,6.418 c 0,-1.468 -1.195,-2.667 -2.662,-2.667 -1.455,0 -2.639,1.199 -2.639,2.667 0,1.453 1.184,2.632 2.639,2.632 1.466,0 2.662,-1.179 2.662,-2.632 z m 19.507,0.296 c 1.76,-1.756 2.73,-4.146 2.73,-6.715 0,-2.528 -0.973,-4.911 -2.729,-6.702 -1.746,-1.7869997 -4.08,-2.7699997 -6.574,-2.7699997 -2.035,0 -3.84,0.572 -5.484,1.744 l 0,-9.93400005 -3.816,0 0.008,15.58199975 c -0.037,0.411 -0.037,0.821 -0.037,1.198 0,6.119 3.836,10.396 9.33,10.396 2.475,10e-4 4.807,-0.997 6.572,-2.799 z m -1.013,-6.677 c 0,3.123 -2.494,5.66 -5.559,5.66 -3.115,0 -5.557,-2.484 -5.557,-5.66 0,-3.143 2.494,-5.698 5.557,-5.698 3.065,0 5.559,2.556 5.559,5.698 z m 10.881,-9.0849997 -3.846,0 0,18.0989997 3.846,0 0,-18.0989997 z m 0.572,-5.128 c 0,-1.377 -1.098,-2.45400005 -2.492,-2.45400005 -1.4,0 -2.457,1.05400005 -2.457,2.45400005 0,1.398 1.076,2.494 2.457,2.494 1.373,0 2.492,-1.117 2.492,-2.494 z m 13.83,19.7589997 -0.619,-0.089 c -2.855,-0.409 -4.133,-2.104 -4.133,-5.495 l 0,-5.126 4.752,0 0,-3.6739997 -4.752,0 0,-4.006 -3.887,0 0,4.006 -1.662,0 0,3.6739997 1.662,0 0,4.525 c 0,6.215 2.113,8.932 7.783,10.029 l 0.855,0.164 0,-4.008 0.001,0 z"
       class=""
       inkscape:connector-curvature="0" /></g></svg>