<?xml version="1.0" encoding="UTF-8" standalone="no"?>
<svg
   xmlns:dc="http://purl.org/dc/elements/1.1/"
   xmlns:cc="http://creativecommons.org/ns#"
   xmlns:rdf="http://www.w3.org/1999/02/22-rdf-syntax-ns#"
   xmlns:svg="http://www.w3.org/2000/svg"
   xmlns="http://www.w3.org/2000/svg"
   xmlns:sodipodi="http://sodipodi.sourceforge.net/DTD/sodipodi-0.dtd"
   xmlns:inkscape="http://www.inkscape.org/namespaces/inkscape"
   version="1"
   viewBox="0 0 498 406"
   width="498"
   height="406"
   class="sim"
   id="svg3336"
   inkscape:version="0.91 r13725"
   sodipodi:docname="microbit.simplified.svg">
  <metadata
     id="metadata244">
    <rdf:RDF>
      <cc:Work
         rdf:about="">
        <dc:format>image/svg+xml</dc:format>
        <dc:type
           rdf:resource="http://purl.org/dc/dcmitype/StillImage" />
      </cc:Work>
    </rdf:RDF>
  </metadata>
  <sodipodi:namedview
     pagecolor="#ffffff"
     bordercolor="#666666"
     borderopacity="1"
     objecttolerance="10"
     gridtolerance="10"
     guidetolerance="10"
     inkscape:pageopacity="0"
     inkscape:pageshadow="2"
     inkscape:window-width="720"
     inkscape:window-height="480"
     id="namedview242"
     showgrid="false"
     inkscape:zoom="0.58128079"
     inkscape:cx="249"
     inkscape:cy="203"
     inkscape:window-x="0"
     inkscape:window-y="0"
     inkscape:window-maximized="0"
     inkscape:current-layer="svg3336" />
  <style
     id="style3338">svg.sim { margin-bottom:1em; } svg.sim.grayscale { -moz-filter: grayscale(1); -webkit-filter: grayscale(1); filter: grayscale(1); } .sim-button { pointer-events: none; } .sim-button-outer:hover { stroke:grey; stroke-width: 3px; } .sim-pin:hover { stroke:#D4AF37; stroke-width:2px; } .sim-pin-touch.touched:hover { stroke:darkorange; } .sim-led-back:hover { stroke:#a0a0a0; stroke-width:3px; } .sim-led:hover { stroke:#ff7f7f; stroke-width:3px; } .sim-systemled { fill:#333; stroke:#555; stroke-width: 1px; } .sim-light-level-button { stroke:#fff; stroke-width: 3px; } .sim-antenna { stroke:#555; stroke-width: 2px; } .sim-text { font-family:&quot;Lucida Console&quot;, Monaco, monospace; font-size:25px; fill:#fff; pointer-events: none; } .sim-text-pin { font-family:&quot;Lucida Console&quot;, Monaco, monospace; font-size:20px; fill:#fff; pointer-events: none; } .sim-thermometer { stroke:#aaa; stroke-width: 3px; } /* animations */ .sim-flash { animation-name: sim-flash-animation; animation-duration: 0.1s; } @keyframes sim-flash-animation { from { fill: yellow; } to { fill: default; } } .sim-flash-stroke { animation-name: sim-flash-stroke-animation; animation-duration: 0.4s; animation-timing-function: ease-in; } @keyframes sim-flash-stroke-animation { from { stroke: yellow; } to { stroke: default; } }</style>
  <defs
     id="defs3340">
    <filter
       id="filterglow"
       x="-5%"
       y="-5%">
      <feGaussianBlur
         stdDeviation="5"
         result="glow"
         id="feGaussianBlur3343" />
      <feMerge
         id="feMerge3345">
        <feMergeNode
           in="glow"
           id="feMergeNode3347" />
        <feMergeNode
           in="glow"
           id="feMergeNode3349" />
        <feMergeNode
           in="glow"
           id="feMergeNode3351" />
      </feMerge>
    </filter>
    <linearGradient
       id="gradient-pin-0"
       x1="0%"
       x2="0%"
       y1="0%"
       y2="100%">
      <stop
         offset="0%"
         stop-color="#D4AF37"
         id="stop3354" />
      <stop
         offset="100%"
         stop-color="#D4AF37"
         id="stop3356" />
      <stop
         offset="100%"
         stop-color="#F50"
         id="stop3358" />
      <stop
         offset="100%"
         stop-color="#F50"
         id="stop3360" />
    </linearGradient>
    <linearGradient
       id="gradient-pin-1"
       x1="0%"
       x2="0%"
       y1="0%"
       y2="100%">
      <stop
         offset="0%"
         stop-color="#D4AF37"
         id="stop3363" />
      <stop
         offset="100%"
         stop-color="#D4AF37"
         id="stop3365" />
      <stop
         offset="100%"
         stop-color="#F50"
         id="stop3367" />
      <stop
         offset="100%"
         stop-color="#F50"
         id="stop3369" />
    </linearGradient>
    <linearGradient
       id="gradient-pin-2"
       x1="0%"
       x2="0%"
       y1="0%"
       y2="100%">
      <stop
         offset="0%"
         stop-color="#D4AF37"
         id="stop3372" />
      <stop
         offset="100%"
         stop-color="#D4AF37"
         id="stop3374" />
      <stop
         offset="100%"
         stop-color="#F50"
         id="stop3376" />
      <stop
         offset="100%"
         stop-color="#F50"
         id="stop3378" />
    </linearGradient>
    <linearGradient
       id="gradient-pin-3"
       x1="0%"
       x2="0%"
       y1="0%"
       y2="100%">
      <stop
         offset="0%"
         stop-color="#D4AF37"
         id="stop3381" />
      <stop
         offset="100%"
         stop-color="#D4AF37"
         id="stop3383" />
      <stop
         offset="100%"
         stop-color="#F50"
         id="stop3385" />
      <stop
         offset="100%"
         stop-color="#F50"
         id="stop3387" />
    </linearGradient>
    <linearGradient
       id="gradient-pin-4"
       x1="0%"
       x2="0%"
       y1="0%"
       y2="100%">
      <stop
         offset="0%"
         stop-color="#D4AF37"
         id="stop3390" />
      <stop
         offset="100%"
         stop-color="#D4AF37"
         id="stop3392" />
      <stop
         offset="100%"
         stop-color="#F50"
         id="stop3394" />
      <stop
         offset="100%"
         stop-color="#F50"
         id="stop3396" />
    </linearGradient>
    <linearGradient
       id="gradient-pin-5"
       x1="0%"
       x2="0%"
       y1="0%"
       y2="100%">
      <stop
         offset="0%"
         stop-color="#D4AF37"
         id="stop3399" />
      <stop
         offset="100%"
         stop-color="#D4AF37"
         id="stop3401" />
      <stop
         offset="100%"
         stop-color="#F50"
         id="stop3403" />
      <stop
         offset="100%"
         stop-color="#F50"
         id="stop3405" />
    </linearGradient>
    <linearGradient
       id="gradient-pin-6"
       x1="0%"
       x2="0%"
       y1="0%"
       y2="100%">
      <stop
         offset="0%"
         stop-color="#D4AF37"
         id="stop3408" />
      <stop
         offset="100%"
         stop-color="#D4AF37"
         id="stop3410" />
      <stop
         offset="100%"
         stop-color="#F50"
         id="stop3412" />
      <stop
         offset="100%"
         stop-color="#F50"
         id="stop3414" />
    </linearGradient>
    <linearGradient
       id="gradient-pin-7"
       x1="0%"
       x2="0%"
       y1="0%"
       y2="100%">
      <stop
         offset="0%"
         stop-color="#D4AF37"
         id="stop3417" />
      <stop
         offset="100%"
         stop-color="#D4AF37"
         id="stop3419" />
      <stop
         offset="100%"
         stop-color="#F50"
         id="stop3421" />
      <stop
         offset="100%"
         stop-color="#F50"
         id="stop3423" />
    </linearGradient>
    <linearGradient
       id="gradient-pin-8"
       x1="0%"
       x2="0%"
       y1="0%"
       y2="100%">
      <stop
         offset="0%"
         stop-color="#D4AF37"
         id="stop3426" />
      <stop
         offset="100%"
         stop-color="#D4AF37"
         id="stop3428" />
      <stop
         offset="100%"
         stop-color="#F50"
         id="stop3430" />
      <stop
         offset="100%"
         stop-color="#F50"
         id="stop3432" />
    </linearGradient>
    <linearGradient
       id="gradient-pin-9"
       x1="0%"
       x2="0%"
       y1="0%"
       y2="100%">
      <stop
         offset="0%"
         stop-color="#D4AF37"
         id="stop3435" />
      <stop
         offset="100%"
         stop-color="#D4AF37"
         id="stop3437" />
      <stop
         offset="100%"
         stop-color="#F50"
         id="stop3439" />
      <stop
         offset="100%"
         stop-color="#F50"
         id="stop3441" />
    </linearGradient>
    <linearGradient
       id="gradient-pin-10"
       x1="0%"
       x2="0%"
       y1="0%"
       y2="100%">
      <stop
         offset="0%"
         stop-color="#D4AF37"
         id="stop3444" />
      <stop
         offset="100%"
         stop-color="#D4AF37"
         id="stop3446" />
      <stop
         offset="100%"
         stop-color="#F50"
         id="stop3448" />
      <stop
         offset="100%"
         stop-color="#F50"
         id="stop3450" />
    </linearGradient>
    <linearGradient
       id="gradient-pin-11"
       x1="0%"
       x2="0%"
       y1="0%"
       y2="100%">
      <stop
         offset="0%"
         stop-color="#D4AF37"
         id="stop3453" />
      <stop
         offset="100%"
         stop-color="#D4AF37"
         id="stop3455" />
      <stop
         offset="100%"
         stop-color="#F50"
         id="stop3457" />
      <stop
         offset="100%"
         stop-color="#F50"
         id="stop3459" />
    </linearGradient>
    <linearGradient
       id="gradient-pin-12"
       x1="0%"
       x2="0%"
       y1="0%"
       y2="100%">
      <stop
         offset="0%"
         stop-color="#D4AF37"
         id="stop3462" />
      <stop
         offset="100%"
         stop-color="#D4AF37"
         id="stop3464" />
      <stop
         offset="100%"
         stop-color="#F50"
         id="stop3466" />
      <stop
         offset="100%"
         stop-color="#F50"
         id="stop3468" />
    </linearGradient>
    <linearGradient
       id="gradient-pin-13"
       x1="0%"
       x2="0%"
       y1="0%"
       y2="100%">
      <stop
         offset="0%"
         stop-color="#D4AF37"
         id="stop3471" />
      <stop
         offset="100%"
         stop-color="#D4AF37"
         id="stop3473" />
      <stop
         offset="100%"
         stop-color="#F50"
         id="stop3475" />
      <stop
         offset="100%"
         stop-color="#F50"
         id="stop3477" />
    </linearGradient>
    <linearGradient
       id="gradient-pin-14"
       x1="0%"
       x2="0%"
       y1="0%"
       y2="100%">
      <stop
         offset="0%"
         stop-color="#D4AF37"
         id="stop3480" />
      <stop
         offset="100%"
         stop-color="#D4AF37"
         id="stop3482" />
      <stop
         offset="100%"
         stop-color="#F50"
         id="stop3484" />
      <stop
         offset="100%"
         stop-color="#F50"
         id="stop3486" />
    </linearGradient>
    <linearGradient
       id="gradient-pin-15"
       x1="0%"
       x2="0%"
       y1="0%"
       y2="100%">
      <stop
         offset="0%"
         stop-color="#D4AF37"
         id="stop3489" />
      <stop
         offset="100%"
         stop-color="#D4AF37"
         id="stop3491" />
      <stop
         offset="100%"
         stop-color="#F50"
         id="stop3493" />
      <stop
         offset="100%"
         stop-color="#F50"
         id="stop3495" />
    </linearGradient>
    <linearGradient
       id="gradient-pin-16"
       x1="0%"
       x2="0%"
       y1="0%"
       y2="100%">
      <stop
         offset="0%"
         stop-color="#D4AF37"
         id="stop3498" />
      <stop
         offset="100%"
         stop-color="#D4AF37"
         id="stop3500" />
      <stop
         offset="100%"
         stop-color="#F50"
         id="stop3502" />
      <stop
         offset="100%"
         stop-color="#F50"
         id="stop3504" />
    </linearGradient>
    <linearGradient
       id="gradient-pin-17"
       x1="0%"
       x2="0%"
       y1="0%"
       y2="100%">
      <stop
         offset="0%"
         stop-color="#D4AF37"
         id="stop3507" />
      <stop
         offset="100%"
         stop-color="#D4AF37"
         id="stop3509" />
      <stop
         offset="100%"
         stop-color="#F50"
         id="stop3511" />
      <stop
         offset="100%"
         stop-color="#F50"
         id="stop3513" />
    </linearGradient>
    <linearGradient
       id="gradient-pin-18"
       x1="0%"
       x2="0%"
       y1="0%"
       y2="100%">
      <stop
         offset="0%"
         stop-color="#D4AF37"
         id="stop3516" />
      <stop
         offset="100%"
         stop-color="#D4AF37"
         id="stop3518" />
      <stop
         offset="100%"
         stop-color="#F50"
         id="stop3520" />
      <stop
         offset="100%"
         stop-color="#F50"
         id="stop3522" />
    </linearGradient>
    <linearGradient
       id="gradient-pin-19"
       x1="0%"
       x2="0%"
       y1="0%"
       y2="100%">
      <stop
         offset="0%"
         stop-color="#D4AF37"
         id="stop3525" />
      <stop
         offset="100%"
         stop-color="#D4AF37"
         id="stop3527" />
      <stop
         offset="100%"
         stop-color="#F50"
         id="stop3529" />
      <stop
         offset="100%"
         stop-color="#F50"
         id="stop3531" />
    </linearGradient>
    <linearGradient
       id="gradient-pin-20"
       x1="0%"
       x2="0%"
       y1="0%"
       y2="100%">
      <stop
         offset="0%"
         stop-color="#D4AF37"
         id="stop3534" />
      <stop
         offset="100%"
         stop-color="#D4AF37"
         id="stop3536" />
      <stop
         offset="100%"
         stop-color="#F50"
         id="stop3538" />
      <stop
         offset="100%"
         stop-color="#F50"
         id="stop3540" />
    </linearGradient>
    <linearGradient
       id="gradient-pin-21"
       x1="0%"
       x2="0%"
       y1="0%"
       y2="100%">
      <stop
         offset="0%"
         stop-color="#D4AF37"
         id="stop3543" />
      <stop
         offset="100%"
         stop-color="#D4AF37"
         id="stop3545" />
      <stop
         offset="100%"
         stop-color="#F50"
         id="stop3547" />
      <stop
         offset="100%"
         stop-color="#F50"
         id="stop3549" />
    </linearGradient>
    <linearGradient
       id="gradient-pin-22"
       x1="0%"
       x2="0%"
       y1="0%"
       y2="100%">
      <stop
         offset="0%"
         stop-color="#D4AF37"
         id="stop3552" />
      <stop
         offset="100%"
         stop-color="#D4AF37"
         id="stop3554" />
      <stop
         offset="100%"
         stop-color="#F50"
         id="stop3556" />
      <stop
         offset="100%"
         stop-color="#F50"
         id="stop3558" />
    </linearGradient>
    <linearGradient
       id="gradient-pin-23"
       x1="0%"
       x2="0%"
       y1="0%"
       y2="100%">
      <stop
         offset="0%"
         stop-color="#D4AF37"
         id="stop3561" />
      <stop
         offset="100%"
         stop-color="#D4AF37"
         id="stop3563" />
      <stop
         offset="100%"
         stop-color="#F50"
         id="stop3565" />
      <stop
         offset="100%"
         stop-color="#F50"
         id="stop3567" />
    </linearGradient>
    <linearGradient
       id="gradient-pin-24"
       x1="0%"
       x2="0%"
       y1="0%"
       y2="100%">
      <stop
         offset="0%"
         stop-color="#D4AF37"
         id="stop3570" />
      <stop
         offset="100%"
         stop-color="#D4AF37"
         id="stop3572" />
      <stop
         offset="100%"
         stop-color="#F50"
         id="stop3574" />
      <stop
         offset="100%"
         stop-color="#F50"
         id="stop3576" />
    </linearGradient>
  </defs>
  <g
     id="g4372">
    <path
       id="path3578"
       class="sim-board"
       d="M498 31.9C498 14.3 483.7 0 466.1 0H31.9C14.3 0 0 14.3 0 31.9v342.2C0 391.7 14.3 406 31.9 406h434.2c17.6 0 31.9-14.3 31.9-31.9V31.9zM14.3 206.7c-2.7 0-4.8-2.2-4.8-4.8 0-2.7 2.2-4.8 4.8-4.8 2.7 0 4.8 2.2 4.8 4.8.1 2.7-2.1 4.8-4.8 4.8zm471.9 0c-2.7 0-4.8-2.2-4.8-4.8 0-2.72.2-4.8 4.8-4.8 2.7 0 4.8 2.2 4.8 4.8 0 2.7-2.2 4.8-4.8 4.8z" />
    <path
       id="path3580"
       class="sim-display"
       d="M333.8 310.3H165.9c-8.3 0-15-6.7-15-15V127.5c0-8.3 6.7-15 15-15h167.8c8.3 0 15 6.7 15 15v167.8c.1 8.3-6.6 15-14.9 15z" />
    <path
       id="path3582"
       class="sim-theme"
       d="M115 56.7L173.1 0H115m-.8 0H25.9C12.1 2.1 0 13.3 0 27.7v83.9L114.2 0z"
       fill="#FF3A54" />
    <path
       id="path3584"
       class="sim-theme"
       d="M173 27.9L202.5 0H173M54.1 242.4v31.7H22.4m423.8-109.5v-31.8h31.7"
       fill="#FF3A54" />
    <rect
       id="rect3588"
       ry="2"
       rx="2"
       class="sim-led-back"
       fill="#202020"
       y="113"
       x="200"
       height="20"
       width="10" />
    <rect
       id="rect3590"
       ry="3"
       rx="3"
       class="sim-led"
       fill="#FF7F7F"
       y="111"
       x="198"
       height="24"
       width="14">
      <title
         id="title3592">(1,0)</title>
    </rect>
    <rect
       id="rect3594"
       ry="2"
       rx="2"
       class="sim-led-back"
       fill="#202020"
       y="113"
       x="246"
       height="20"
       width="10" />
    <rect
       id="rect3596"
       ry="2"
       rx="2"
       class="sim-led-back"
       fill="#202020"
       y="113"
       x="292"
       height="20"
       width="10" />
    <rect
       id="rect3598"
       ry="3"
       rx="3"
       class="sim-led"
       fill="#FF7F7F"
       y="111"
       x="290"
       height="24"
       width="14">
      <title
         id="title3600">(3,0)</title>
    </rect>
    <rect
       id="rect3602"
       ry="2"
       rx="2"
       class="sim-led-back"
       fill="#202020"
       y="113"
       x="338"
       height="20"
       width="10" />
    <rect
       id="rect3604"
       ry="2"
       rx="2"
       class="sim-led-back"
       fill="#202020"
       y="157"
       x="154"
       height="20"
       width="10" />
    <rect
       id="rect3606"
       ry="3"
       rx="3"
       class="sim-led"
       fill="#FF7F7F"
       y="155"
       x="152"
       height="24"
       width="14">
      <title
         id="title3608">(0,1)</title>
    </rect>
    <rect
       id="rect3610"
       ry="2"
       rx="2"
       class="sim-led-back"
       fill="#202020"
       y="157"
       x="200"
       height="20"
       width="10" />
    <rect
       id="rect3612"
       ry="2"
       rx="2"
       class="sim-led-back"
       fill="#202020"
       y="157"
       x="246"
       height="20"
       width="10" />
    <rect
       id="rect3614"
       ry="3"
       rx="3"
       class="sim-led"
       fill="#FF7F7F"
       y="155"
       x="244"
       height="24"
       width="14">
      <title
         id="title3616">(2,1)</title>
    </rect>
    <rect
       id="rect3618"
       ry="2"
       rx="2"
       class="sim-led-back"
       fill="#202020"
       y="157"
       x="292"
       height="20"
       width="10" />
    <rect
       id="rect3620"
       ry="2"
       rx="2"
       class="sim-led-back"
       fill="#202020"
       y="157"
       x="338"
       height="20"
       width="10" />
    <rect
       id="rect3622"
       ry="3"
       rx="3"
       class="sim-led"
       fill="#FF7F7F"
       y="155"
       x="336"
       height="24"
       width="14">
      <title
         id="title3624">(4,1)</title>
    </rect>
    <rect
       id="rect3626"
       ry="2"
       rx="2"
       class="sim-led-back"
       fill="#202020"
       y="201"
       x="154"
       height="20"
       width="10" />
    <rect
       id="rect3628"
       ry="3"
       rx="3"
       class="sim-led"
       fill="#FF7F7F"
       y="199"
       x="152"
       height="24"
       width="14">
      <title
         id="title3630">(0,2)</title>
    </rect>
    <rect
       id="rect3632"
       ry="2"
       rx="2"
       class="sim-led-back"
       fill="#202020"
       y="201"
       x="200"
       height="20"
       width="10" />
    <rect
       id="rect3634"
       ry="2"
       rx="2"
       class="sim-led-back"
       fill="#202020"
       y="201"
       x="246"
       height="20"
       width="10" />
    <rect
       id="rect3636"
       ry="2"
       rx="2"
       class="sim-led-back"
       fill="#202020"
       y="201"
       x="292"
       height="20"
       width="10" />
    <rect
       id="rect3638"
       ry="2"
       rx="2"
       class="sim-led-back"
       fill="#202020"
       y="201"
       x="338"
       height="20"
       width="10" />
    <rect
       id="rect3640"
       ry="3"
       rx="3"
       class="sim-led"
       fill="#FF7F7F"
       y="199"
       x="336"
       height="24"
       width="14">
      <title
         id="title3642">(4,2)</title>
    </rect>
    <rect
       id="rect3644"
       ry="2"
       rx="2"
       class="sim-led-back"
       fill="#202020"
       y="245"
       x="154"
       height="20"
       width="10" />
    <rect
       id="rect3646"
       ry="2"
       rx="2"
       class="sim-led-back"
       fill="#202020"
       y="245"
       x="200"
       height="20"
       width="10" />
    <rect
       id="rect3648"
       ry="3"
       rx="3"
       class="sim-led"
       fill="#FF7F7F"
       y="243"
       x="198"
       height="24"
       width="14">
      <title
         id="title3650">(1,3)</title>
    </rect>
    <rect
       id="rect3652"
       ry="2"
       rx="2"
       class="sim-led-back"
       fill="#202020"
       y="245"
       x="246"
       height="20"
       width="10" />
    <rect
       id="rect3654"
       ry="2"
       rx="2"
       class="sim-led-back"
       fill="#202020"
       y="245"
       x="292"
       height="20"
       width="10" />
    <rect
       id="rect3656"
       ry="3"
       rx="3"
       class="sim-led"
       fill="#FF7F7F"
       y="243"
       x="290"
       height="24"
       width="14">
      <title
         id="title3658">(3,3)</title>
    </rect>
    <rect
       id="rect3660"
       ry="2"
       rx="2"
       class="sim-led-back"
       fill="#202020"
       y="245"
       x="338"
       height="20"
       width="10" />
    <rect
       id="rect3662"
       ry="2"
       rx="2"
       class="sim-led-back"
       fill="#202020"
       y="289"
       x="154"
       height="20"
       width="10" />
    <rect
       id="rect3664"
       ry="2"
       rx="2"
       class="sim-led-back"
       fill="#202020"
       y="289"
       x="200"
       height="20"
       width="10" />
    <rect
       id="rect3666"
       ry="2"
       rx="2"
       class="sim-led-back"
       fill="#202020"
       y="289"
       x="246"
       height="20"
       width="10" />
    <rect
       id="rect3668"
       ry="3"
       rx="3"
       class="sim-led"
       fill="#FF7F7F"
       y="287"
       x="244"
       height="24"
       width="14">
      <title
         id="title3670">(2,4)</title>
    </rect>
    <rect
       id="rect3672"
       ry="2"
       rx="2"
       class="sim-led-back"
       fill="#202020"
       y="289"
       x="292"
       height="20"
       width="10" />
    <rect
       id="rect3674"
       ry="2"
       rx="2"
       class="sim-led-back"
       fill="#202020"
       y="289"
       x="338"
       height="20"
       width="10" />
    <path
       id="path3678"
       class="sim-theme"
       d="M269.9 50.2h-39.5c-14.1.1-24.6 10.7-24.6 24.8 0 13.9 10.4 24.4 24.3 24.7h39.6c14.2 0 24.8-10.6 24.8-24.7 0-14-10.5-24.7-24.6-24.8m-.2 39h-39.3c-7.7-.1-14-6.4-14-14.2 0-7.8 6.4-14.2 14.2-14.2h39.1c7.8 0 14.2 6.4 14.2 14.2 0 7.9-6.4 14.2-14.2 14.2"
       fill="#FF3A54" />
    <path
       id="path3680"
       class="sim-theme"
       d="M230.6 69.7c-2.9 0-5.3 2.4-5.3 5.3s2.4 5.3 5.3 5.3 5.3-2.4 5.3-5.3-2.4-5.3-5.3-5.3m39.1 10.6c2.9 0 5.3-2.4 5.3-5.3s-2.4-5.3-5.3-5.3-5.3 2.4-5.3 5.3 2.4 5.3 5.3 5.3"
       fill="#FF3A54" />
    <path
       id="path3682"
       class="sim-pin sim-pin-touch"
       d="M16.5 341.2c0 .4-.1.9-.1 1.3v60.7c4.1 1.7 8.6 2.7 12.9 2.7h34.4v-64.7h.3v-.1c0-13-10.6-23.6-23.7-23.6-13.1.1-23.8 10.6-23.8 23.7zm4.7.4c0-10.7 8.7-19.3 19.3-19.3 10.7 0 19.3 8.7 19.3 19.3 0 10.7-8.6 19.3-19.3 19.3-10.6 0-19.3-8.7-19.3-19.3z"
       fill="url(#gradient-pin-0)">
      <title
         id="title3684">P0, ANALOG IN</title>
    </path>
    <path
       id="path3686"
       class="sim-pin sim-pin-touch"
       d="M139.1 317.3c-12.8 0-22.1 10.3-23.1 23.1V406h46.2v-65.6c0-12.7-10.3-23.1-23.1-23.1zm.2 42.8c-10.7 0-19.3-8.6-19.3-19.3 0-10.7 8.6-19.3 19.3-19.3 10.7 0 19.3 8.7 19.3 19.3 0 10.7-8.6 19.3-19.3 19.3z"
       fill="url(#gradient-pin-1)">
      <title
         id="title3688">P1, ANALOG IN</title>
    </path>
    <path
       id="path3690"
       class="sim-pin sim-pin-touch"
       d="M249 317.3c-12.8 0-22.1 10.3-23.1 23.1V406h46.2v-65.6c0-12.7-10.3-23.1-23.1-23.1zm.4 42.8c-10.7 0-19.3-8.6-19.3-19.3 0-10.7 8.6-19.3 19.3-19.3 10.7 0 19.3 8.7 19.3 19.3 0 10.7-8.6 19.3-19.3 19.3z"
       fill="url(#gradient-pin-2)">
      <title
         id="title3692">P2, ANALOG IN</title>
    </path>
    <path
       id="path3694"
       class="sim-pin"
       d="M0 357.7v19.2c0 10.8 6.2 20.2 14.4 25.2v-44.4H0z"
       fill="url(#gradient-pin-3)">
      <title
         id="title3696">P3, ANALOG IN, LED Col 1</title>
    </path>
    <path
       id="path3698"
       class="sim-pin"
       d="M66.7 356.7h10v50h-10z"
       fill="url(#gradient-pin-4)">
      <title
         id="title3700">P4, ANALOG IN, LED Col 2</title>
    </path>
    <path
       id="path3702"
       class="sim-pin"
       d="M79.1 356.7h10v50h-10z"
       fill="url(#gradient-pin-5)">
      <title
         id="title3704">P5, BUTTON A</title>
    </path>
    <path
       id="path3706"
       class="sim-pin"
       d="M91.4 356.7h10v50h-10z"
       fill="url(#gradient-pin-6)">
      <title
         id="title3708">P6, LED Col 9</title>
    </path>
    <path
       id="path3710"
       class="sim-pin"
       d="M103.7 356.7h10v50h-10z"
       fill="url(#gradient-pin-7)">
      <title
         id="title3712">P7, LED Col 8</title>
    </path>
    <path
       id="path3714"
       class="sim-pin"
       d="M164.3 356.7h10v50h-10z"
       fill="url(#gradient-pin-8)">
      <title
         id="title3716">P8</title>
    </path>
    <path
       id="path3718"
       class="sim-pin"
       d="M176.6 356.7h10v50h-10z"
       fill="url(#gradient-pin-9)">
      <title
         id="title3720">P9, LED Col 7</title>
    </path>
    <path
       id="path3722"
       class="sim-pin"
       d="M188.9 356.7h10v50h-10z"
       fill="url(#gradient-pin-10)">
      <title
         id="title3724">P10, ANALOG IN, LED Col 3</title>
    </path>
    <path
       id="path3726"
       class="sim-pin"
       d="M201.3 356.7h10v50h-10z"
       fill="url(#gradient-pin-11)">
      <title
         id="title3728">P11, BUTTON B</title>
    </path>
    <path
       id="path3730"
       class="sim-pin"
       d="M213.6 356.7h10v50h-10z"
       fill="url(#gradient-pin-12)">
      <title
         id="title3732">P12, RESERVED ACCESSIBILITY</title>
    </path>
    <path
       id="path3734"
       class="sim-pin"
       d="M275.2 356.7h10v50h-10z"
       fill="url(#gradient-pin-13)">
      <title
         id="title3736">P13, SPI - SCK</title>
    </path>
    <path
       id="path3738"
       class="sim-pin"
       d="M287.5 356.7h10v50h-10z"
       fill="url(#gradient-pin-14)">
      <title
         id="title3740">P14, SPI - MISO</title>
    </path>
    <path
       id="path3742"
       class="sim-pin"
       d="M299.8 356.7h10v50h-10z"
       fill="url(#gradient-pin-15)">
      <title
         id="title3744">P15, SPI - MOSI</title>
    </path>
    <path
       id="path3746"
       class="sim-pin"
       d="M312.1 356.7h10v50h-10z"
       fill="url(#gradient-pin-16)">
      <title
         id="title3748">P16, SPI - Chip Select</title>
    </path>
    <path
       id="path3750"
       class="sim-pin"
       d="M324.5 356.7h10v50h-10z"
       fill="url(#gradient-pin-17)">
      <title
         id="title3752">P17, +3v3</title>
    </path>
    <path
       id="path3754"
       class="sim-pin"
       d="M385.1 356.7h10v50h-10z"
       fill="url(#gradient-pin-18)">
      <title
         id="title3756">P18, +3v3</title>
    </path>
    <path
       id="path3758"
       class="sim-pin"
       d="M397.4 356.7h10v50h-10z"
       fill="url(#gradient-pin-19)">
      <title
         id="title3760">P19, I2C - SCL</title>
    </path>
    <path
       id="path3762"
       class="sim-pin"
       d="M409.7 356.7h10v50h-10z"
       fill="url(#gradient-pin-20)">
      <title
         id="title3764">P20, I2C - SDA</title>
    </path>
    <path
       id="path3766"
       class="sim-pin"
       d="M422 356.7h10v50h-10z"
       fill="url(#gradient-pin-21)">
      <title
         id="title3768">GND</title>
    </path>
    <path
       id="path3770"
       class="sim-pin"
       d="M483.6 402c8.2-5 14.4-14.4 14.4-25.1v-19.2h-14.4V402z"
       fill="url(#gradient-pin-22)">
      <title
         id="title3772">GND</title>
    </path>
    <path
       id="path3774"
       class="sim-pin"
       d="M359.9 317.3c-12.8 0-22.1 10.3-23.1 23.1V406H383v-65.6c0-12.7-10.3-23.1-23.1-23.1zm.1 42.8c-10.7 0-19.3-8.6-19.3-19.3 0-10.7 8.6-19.3 19.3-19.3 10.7 0 19.3 8.7 19.3 19.3 0 10.7-8.6 19.3-19.3 19.3z"
       fill="url(#gradient-pin-23)">
      <title
         id="title3776">+3v3</title>
    </path>
    <path
       id="path3778"
       class="sim-pin"
       d="M458 317.6c-13 0-23.6 10.6-23.6 23.6V406H469c4.3 0 8.4-1 12.6-2.7v-62c0-13.2-10.6-23.7-23.6-23.7zm-.2 43.3c-10.7 0-19.3-8.6-19.3-19.3 0-10.7 8.6-19.3 19.3-19.3 10.7 0 19.3 8.7 19.3 19.3 0 10.6-8.7 19.3-19.3 19.3z"
       fill="url(#gradient-pin-24)">
      <title
         id="title3780">GND</title>
    </path>
    <path
       id="path3782"
       class="sim-button-outer"
       d="M82.1 232.6H25.9c-.5 0-1-.4-1-1v-56.2c0-.5.4-1 1-1h56.2c.5 0 1 .4 1 1v56.2c-.1.6-.5 1-1 1"
       fill="#979797">
      <title
         id="title3784">A</title>
    </path>
    <path
       id="path3786"
       class="sim-button"
       d="M69.7 203.5c0 8.7-7 15.7-15.7 15.7s-15.7-7-15.7-15.7 7-15.7 15.7-15.7 15.7 7.1 15.7 15.7" />
    <path
       id="path3788"
       class="sim-button-outer"
       d="M474.3 232.6h-56.2c-.5 0-1-.4-1-1v-56.2c0-.5.4-1 1-1h56.2c.5 0 1 .4 1 1v56.2c0 .6-.5 1-1 1"
       fill="#979797">
      <title
         id="title3790">B</title>
    </path>
    <path
       id="path3792"
       class="sim-button"
       d="M461.9 203.5c0 8.7-7 15.7-15.7 15.7s-15.7-7-15.7-15.7 7-15.7 15.7-15.7 15.7 7.1 15.7 15.7" />
  </g>
</svg>
