<svg viewBox="0 0 1000 1000" xmlns="http://www.w3.org/2000/svg" fill-rule="evenodd" clip-rule="evenodd" stroke-linejoin="round" stroke-miterlimit="2"><path d="M368.814 81.484c-48.824 0-89.32 33.474-100.913 78.706-1.307 0-2.286-.327-3.593-.327-57.641 0-104.506 46.865-104.506 104.507 0 7.838.98 15.512 2.776 22.86-47.681 19.595-81.156 66.297-81.156 120.836 0 20.574 5.226 39.68 13.553 56.988-39.19 22.535-65.806 64.337-65.806 112.834 0 54.376 33.312 101.078 80.666 120.672-1.47 7.512-2.286 15.187-2.286 23.025 0 64.99 52.58 117.569 117.57 117.569 6.694 0 13.226-.816 19.594-1.96 15.676 46.538 59.112 80.34 111.038 80.34 64.99 0 117.57-52.58 117.57-117.57V185.99c0-57.642-46.865-104.506-104.507-104.506zm600.911 496.404c0-48.497-26.616-90.3-65.806-112.834 8.491-17.308 13.553-36.414 13.553-56.988 0-54.54-33.474-101.24-81.155-120.836 1.633-7.348 2.776-15.022 2.776-22.86 0-57.642-46.865-104.507-104.507-104.507-1.306 0-2.449.327-3.592.327-11.594-45.232-52.09-78.706-100.914-78.706-57.642 0-104.506 46.701-104.506 104.506v613.974c0 64.99 52.58 117.57 117.57 117.57 51.926 0 95.361-33.802 111.037-80.34 6.369 1.144 12.9 1.96 19.595 1.96 64.99 0 117.57-52.58 117.57-117.57 0-7.837-.817-15.512-2.286-23.024 47.354-19.594 80.665-66.296 80.665-120.672z" fill-rule="nonzero"/></svg>