<svg viewBox="0 0 1000 1000" xmlns="http://www.w3.org/2000/svg" fill-rule="evenodd" clip-rule="evenodd" stroke-linejoin="round" stroke-miterlimit="1.414"><path d="M775.148 491.599L402.659 864.088a31.051 31.051 0 0 1-21.977 9.119 31.051 31.051 0 0 1-21.977-9.119L48.298 553.681c-12.037-12.041-12.037-31.852 0-43.892L349.89 208.197V97.133v-.136c0-51.086 42.036-93.122 93.122-93.122 12.5 0 24.873 2.516 36.38 7.4a92.845 92.845 0 0 1 49.665 49.665 91.756 91.756 0 0 1 7.077 36.193v310.408h-62.081V97.133c0-17.028-14.013-31.04-31.041-31.04-17.029 0-31.041 14.012-31.041 31.04v137.263L145.704 500.663h532.535l31.537-31.041-102.372-102.31 43.457-43.457 124.163 124.163c11.869 11.973 11.925 31.54.124 43.581zM952.08 811.07a141.81 141.81 0 0 0-14.527-35.883L815.501 562.248l-124.66 218.278c-22.663 38.909-25.635 86.33-8.008 127.764a146.308 146.308 0 0 0 76.422 77.416 136.593 136.593 0 0 0 56.246 11.609 132.292 132.292 0 0 0 55.873-11.858 139.246 139.246 0 0 0 44.885-32.282 151.336 151.336 0 0 0 40.229-103.304 156.02 156.02 0 0 0-4.408-38.801z" fill-rule="nonzero"/></svg>