<svg xmlns="http://www.w3.org/2000/svg" width="1000" height="1000"><path d="M822.971 185.696c22.74 17.465 24.457 55.618 3.842 85.215-10.3 14.788-24.227 24.637-38.424 28.619 3.446 28.483 2.733 59.668-2.038 92.468 21.528 10.809 48.07 26.407 65.418 38.37 20.673 14.26 28.291 23.36 33.08 47.819 4.788 24.462 6.752 64.289 1.49 116.425-5.264 52.135-17.754 116.579-28.05 124.256-10.299 7.674-18.408-41.42-19.77-88.25-1.356-46.828 4.035-91.396 6.733-114.33 2.696-22.93 2.7-24.226-4.089-30.633-6.789-6.406-20.37-17.925-35.77-27.156-9.931-5.952-20.618-10.954-29.656-14.558-12.22 46.757-31.925 95.473-58.86 143.354 5.748 4.446 11.088 8.753 15.684 12.668 18.511 15.782 24.978 25.291 27.358 49.277 2.38 23.987.667 62.453-9.074 112.02-9.745 49.566-27.513 110.237-38.068 116.579-10.554 6.34-13.89-41.653-10.964-86.79 2.922-45.135 12.106-87.417 16.757-109.18 4.651-21.766 4.77-23.009-1.154-29.85-4.946-5.712-14.108-15.321-25.095-24.404a700.954 700.954 0 0 1-10.653 15.742c-24.813 35.617-51.899 67.445-80.167 94.99 6.011 8.022 11.564 15.847 15.966 22.552 12.246 18.656 15.583 28.661 11.954 50.215-3.627 21.553-14.217 54.656-34.368 95.326-20.155 40.665-49.87 88.898-60.48 91.644-10.617 2.743-2.13-40.005 11.082-78.608 13.218-38.605 31.16-73.063 40.33-90.82 9.175-17.759 9.572-18.812 6.08-26.347-3.5-7.527-10.885-21.535-20.431-34.297a107.98 107.98 0 0 0-1.16-1.531C469.72 851.264 359.375 882.167 285.054 838.56l292.79-440.116-311.332 427.035c-69.397-58.163-77.582-181.728-30.037-312.827a163.441 163.441 0 0 0-5.082-2.101c-14.808-5.818-30.103-9.046-38.176-10.29-8.077-1.248-8.93-.513-22.578 14.381-13.649 14.891-40.088 43.94-71.837 69.428-31.749 25.489-68.809 47.42-69.552 35.703-.742-11.72 34.836-57.087 66.355-90.32 31.517-33.231 58.975-54.328 77.863-64.718 18.889-10.39 29.213-10.076 50.33-3.319 8.458 2.713 18.653 6.454 29.098 10.638 16.52-37.004 37.373-74.132 62.439-110.114a687.221 687.221 0 0 1 11.809-16.436c-12.746-9.435-25.844-16.597-33.212-20.152-8.184-3.948-9.304-3.437-28.071 8.068-18.768 11.503-55.182 34.006-96.187 50.982-41.005 16.976-86.597 28.425-83.98 15.656 2.616-12.771 53.445-49.757 96.451-75.091 43.006-25.33 78.192-38.999 101.2-43.992 23.01-4.997 33.845-1.318 54.23 12.747 5.86 4.045 12.514 8.95 19.44 14.3 36.079-42.078 75.186-76.88 114.72-103.234-6.411-8.877-15.46-19.875-25.37-29.461-13.342-12.906-28.242-23.244-36.293-28.211-8.05-4.967-9.256-4.563-29.712 5.302-20.458 9.866-60.167 29.194-104.071 42.309-43.909 13.118-92.001 20.024-88.064 7.098 3.935-12.923 59.905-45.67 106.684-67.21 46.78-21.541 84.366-31.868 108.564-34.542 24.194-2.673 35 2.305 54.646 19.054 17.654 15.058 42.45 39.625 59.364 59.028 22.083-11.003 43.986-19.213 65.252-24.429 2.008-11.896 6.81-23.989 14.473-34.987 22.261-31.959 60.215-42.575 84.77-23.714 17.98 13.813 23.787 39.595 16.875 64.958a135.084 135.084 0 0 1 8.532 4.195C779.62 61.392 806.255-51.995 808.512 24.996c-29.901 71.979-47.297 83.383-93.793 143.41a137.58 137.58 0 0 1 11.224 7.76c4.36 3.35 8.527 6.97 12.48 10.84 36.797-39.85 75.266-77.728 122.978-104.732 58.275-32.98 137.157-22.424 73.137.378-55.82 19.886-122.414 63.57-190.39 110.302a143.69 143.69 0 0 1 6.166 7.258c20.944-23.69 51.95-30.43 72.657-14.517z"/></svg>