<svg xmlns="http://www.w3.org/2000/svg" width="1000" height="1000" viewBox="0 0 1000 1000"><path d="M658.492 398.033c17.585 9.025 22.935 33.687 11.954 55.081-5.487 10.69-14.013 18.538-23.366 22.594 5.486 18.188 8.4 38.564 8.692 60.41 16.023 4.817 36.025 12.235 49.292 18.235 15.81 7.152 22.056 12.29 28.029 27.72 5.972 15.432 11.675 41.158 13.74 75.643 2.064 34.484.49 77.727-5.771 83.787-6.262 6.058-17.214-25.068-23.266-55.415-6.049-30.347-7.199-59.918-7.843-75.127-.645-15.206-.784-16.05-6.164-19.521s-16.001-9.57-27.627-13.991c-7.497-2.851-15.411-5.006-22.036-6.42-3.319 31.7-11.585 65.448-24.926 99.397 4.448 2.302 8.6 4.555 12.196 6.63 14.486 8.366 19.983 13.89 24.243 29.26 4.26 15.371 7.279 40.59 5.976 73.864-1.306 33.274-6.931 74.605-13.516 79.822-6.584 5.216-14.125-25.685-17.036-55.372-2.914-29.686-1.199-58.16-.369-72.808.83-14.65.776-15.471-4.055-19.314-4.034-3.209-11.4-8.52-19.967-13.3a450.667 450.667 0 0 1-5.625 11.347c-13.218 25.746-28.417 49.26-44.898 70.108 5.02 4.602 9.703 9.124 13.47 13.035 10.48 10.883 13.873 17.053 13.725 31.459-.147 14.406-3.834 37.049-13.286 65.604-9.455 28.553-24.675 63.018-31.69 65.9-7.02 2.88-5.837-25.825-.943-52.319 4.897-26.496 13.505-50.78 17.888-63.285 4.386-12.508 4.545-13.235 1.314-17.78-3.234-4.54-9.856-12.898-17.831-20.222a73.48 73.48 0 0 0-.967-.877c-60.205 65.585-132.907 97.082-188.909 76.356l153.802-316.72L344.708 871.93c-54.197-30.71-73.333-110.311-54.869-200.563-1.24-.3-2.485-.584-3.733-.844-10.845-2.261-21.742-2.785-27.444-2.763-5.705.021-6.213.587-13.996 11.691-7.784 11.102-22.84 32.74-41.946 52.607-19.106 19.868-42.262 37.967-44.054 30.416-1.791-7.554 17.784-40.758 35.886-65.643 18.1-24.885 34.727-41.451 46.615-50.163 11.888-8.712 19.04-9.572 34.337-7.35 6.128.894 13.565 2.278 21.223 3.925 7.349-25.794 17.672-52.116 31.024-78.126a443.598 443.598 0 0 1 6.347-11.918c-9.818-4.828-19.63-8.14-25.098-9.695-6.074-1.726-6.79-1.278-18.473 8.147-11.683 9.424-34.331 27.829-60.748 43.109-26.417 15.28-56.6 27.435-56.19 18.852.409-8.584 31.414-37.904 58.298-58.832 26.884-20.925 49.65-33.452 64.968-39.075 15.318-5.626 23.19-4.348 38.78 2.707 4.482 2.029 9.605 4.536 14.964 7.305 20.28-31.114 43.442-57.804 67.821-79.038-5.39-5.118-12.83-11.345-20.709-16.564-10.607-7.026-22.009-12.22-28.102-14.624-6.093-2.403-6.88-2.016-19.906 6.516-13.027 8.532-38.294 25.21-67.131 38.275-28.84 13.068-61.243 22.523-59.94 13.702 1.302-8.819 36.314-35.91 66.213-54.757 29.9-18.847 54.686-29.446 71.077-33.682 16.389-4.235 24.383-2.108 39.756 6.77 13.816 7.983 33.594 21.42 47.374 32.308 14.024-9.44 28.228-17.044 42.32-22.632.085-7.952 2.076-16.32 6.158-24.27 11.858-23.102 36.866-33.927 55.855-24.18 13.904 7.139 20.723 23.325 18.727 40.55a98.452 98.452 0 0 1 6.341 1.851c24.265-74.365 46.67-147.064 51.062-203.613 4.894-63.063-12.615-106.043-26.404-132.05-13.789-26.008-23.86-35.044-21.739-41.968 2.12-6.923 16.433-11.734 30.956-4.408 14.524 7.325 29.258 26.788 37.486 70.97 8.231 44.183 9.955 113.085-4.427 173.34-12.183 51.025-35.915 95.852-61.417 139.726a98.615 98.615 0 0 1 8.586 3.894 97.899 97.899 0 0 1 9.788 5.77c21.018-29.737 43.404-58.364 73.35-80.864 36.576-27.48 84.423-45.821 117.468-52.452 33.043-6.631 51.28-1.551 61.123 6.825 9.84 8.376 11.282 20.05 7.234 23.544-4.047 3.495-13.584-1.188-36-3.728-22.416-2.537-57.712-2.93-99.36 18.516-36.314 18.702-77.456 54.008-119.219 91.442a98.981 98.981 0 0 1 5.044 4.089c11.853-17.583 32.494-25.167 48.508-16.943z"/></svg>