<svg viewBox="0 0 315 362" xmlns="http://www.w3.org/2000/svg" fill-rule="evenodd" clip-rule="evenodd" stroke-linejoin="round" stroke-miterlimit="2"><path d="M67.379 361.038c-3.206-1.273-5.99-4.566-7.143-8.453-.876-2.948-1.109-8.759-1.109-27.822 0-18.159-.23-24.384-.935-25.26-.516-.637-3.133-1.737-5.814-2.443-2.682-.706-7.912-2.775-11.625-4.598-19.996-9.827-33.477-27.507-38.857-50.958-1.503-6.545-1.557-9.13-1.826-85.876-.181-51.673-.006-82.148.51-87.84C2.273 49.116 8.85 34.356 21.205 21.484 30.543 11.758 41.32 5.394 54.63 1.749L61.004.003h96.375c105.43 0 97.971-.28 110.098 4.173 20.826 7.647 36.896 25.494 44.19 49.079l2.085 6.749.213 87.375c.235 96.2.411 92.021-4.405 105.33-4.32 11.937-14.088 24.925-24.92 33.132-5.785 4.385-17.736 10.153-25.636 12.376-5.865 1.65-7.112 1.698-55.534 2.111-44.178.38-49.734.559-51.375 1.656-1.012.675-17.368 13.78-36.343 29.117-18.972 15.342-35.75 28.542-37.281 29.336-2.985 1.548-8.025 1.82-11.092.601zm46.893-58.785c14.7-11.962 27.967-22.425 29.48-23.25 2.657-1.445 4.559-1.513 54.503-1.888l51.749-.385 6.001-2.024c13.94-4.703 23.876-13.436 30.112-26.473 4.876-10.196 4.734-7.29 4.748-97.225.015-87.206.029-86.826-3.738-96.858-.899-2.392-3.308-6.854-5.355-9.91-5.95-8.897-13.947-15.023-24.766-18.978l-5.502-2.01-91.5-.212c-102.725-.238-97.209-.504-109.072 5.29-8.804 4.303-16.495 11.959-20.888 20.8-6.188 12.45-5.792 5.443-5.792 101.625v85.499l2.044 6.001c6.88 20.203 22.357 32.477 43.756 34.702 12.725 1.32 13.076 2.046 13.076 26.949 0 19.375.221 20.806 3.138 20.316.703-.12 13.306-10.004 28.006-21.969zm-30.665-67.465c-3.824-1.371-7.064-4.566-7.98-7.866-.408-1.468-.742-11.489-.745-22.272-.003-17.909.116-19.751 1.375-21.305 1.675-2.069 4.918-2.151 8.495-.215 1.82.983 4.133 1.352 8.502 1.35 7.253-.007 11.752-2.005 16.783-7.465 4.751-5.153 6.432-9.362 6.446-16.137.015-6.888-2.233-12.252-7.154-17.07-4.513-4.42-9.014-6.45-15.08-6.8-4.19-.245-5.701.028-9.278 1.666-5.375 2.46-6.597 2.45-8.58-.077-1.554-1.975-1.591-2.576-1.367-22.311.218-19.33.306-20.407 1.865-22.907 3.249-5.213 3.453-5.25 28.9-5.25 27.118 0 26.32.21 24.247-6.375-4.669-14.845 5.168-30.87 20.432-33.284 8.748-1.38 17.419 1.346 23.434 7.376 6.724 6.74 9.179 16.82 6.31 25.93-2.055 6.538-2.733 6.353 23.247 6.356 31.161.003 29.14-1.961 29.67 28.837l.374 21.784 3-.175c14.38-.854 18.53.23 24.599 6.406 5.057 5.148 6.88 9.658 6.88 17.02 0 6.978-1.54 11.114-5.962 16.006-5.423 6.004-15.602 9.015-23.244 6.874-5.695-1.593-5.55-2.137-5.803 21.997-.215 20.744-.252 21.167-1.967 23.573-3.838 5.38 1.23 5.032-75.504 5.213-57.262.133-69.491-.014-71.895-.879z" fill-rule="nonzero"/></svg>