<svg width="835" height="585" viewBox="0 0 835 585" fill="none" xmlns="http://www.w3.org/2000/svg">
<path fill-rule="evenodd" clip-rule="evenodd" d="M709.384 209.436C709.384 225.339 706.386 240.591 701.044 254.539C777.146 269.921 834.484 337.316 834.484 418.007C834.484 510.17 759.815 584.864 667.684 584.864H188.134C84.5352 584.864 0.483643 500.784 0.483643 397.15C0.483643 315.286 52.8693 245.675 125.844 219.995C125.714 216.475 125.584 212.955 125.584 209.436C125.584 94.2 218.887 0.864258 334.084 0.864258C411.359 0.864258 478.731 42.8393 514.827 105.411C534.635 92.1143 558.612 84.2928 584.284 84.2928C653.349 84.2928 709.384 140.346 709.384 209.436ZM252.599 361.682L363.008 472.335C369.641 478.984 380.396 478.984 387.03 472.336L582.368 276.563C589.001 269.915 589.001 259.136 582.368 252.488L558.347 228.413C551.714 221.765 540.958 221.765 534.325 228.413L375.019 388.072L300.642 313.531C294.009 306.883 283.254 306.883 276.621 313.531L252.599 337.607C245.966 344.255 245.966 355.034 252.599 361.682Z" fill="#767676"/>
</svg>
