<svg width="876" height="647" viewBox="0 0 876 647" fill="none" xmlns="http://www.w3.org/2000/svg">
<path fill-rule="evenodd" clip-rule="evenodd" d="M410.1 443.038C410.1 495.451 426.03 544.143 453.312 584.538H187.65C84.0515 584.538 0 500.457 0 396.823C0 314.959 52.3857 245.348 125.361 219.668C125.23 216.148 125.1 212.629 125.1 209.109C125.1 93.8735 218.404 0.537598 333.6 0.537598C410.875 0.537598 478.247 42.5127 514.343 105.084C534.151 91.7876 558.128 83.9663 583.8 83.9663C647.703 83.9663 700.45 131.953 707.979 193.853C693.453 191.261 678.499 189.909 663.229 189.909C523.43 189.909 410.1 303.239 410.1 443.038ZM671.156 646.162C784.099 646.162 875.656 554.829 875.656 442.162C875.656 329.496 784.099 238.162 671.156 238.162C558.214 238.162 466.656 329.496 466.656 442.162C466.656 554.829 558.214 646.162 671.156 646.162ZM799.228 398.824L647.502 550.179C642.349 555.318 633.996 555.318 628.843 550.178L543.085 464.629C537.933 459.49 537.933 451.156 543.085 446.017L561.743 427.404C566.896 422.265 575.25 422.265 580.402 427.404L638.172 485.033L761.911 361.599C767.063 356.458 775.417 356.458 780.57 361.599L799.228 380.211C804.38 385.351 804.38 393.684 799.228 398.824Z" fill="#767676"/>
</svg>
