<svg width="876" height="648" viewBox="0 0 876 648" fill="none" xmlns="http://www.w3.org/2000/svg">
<path fill-rule="evenodd" clip-rule="evenodd" d="M410.1 442.893C410.1 495.306 426.03 543.998 453.312 584.393H187.65C84.0515 584.393 0 500.312 0 396.678C0 314.814 52.3857 245.203 125.361 219.523C125.23 216.003 125.1 212.484 125.1 208.964C125.1 93.7283 218.404 0.392578 333.6 0.392578C410.875 0.392578 478.247 42.3677 514.344 104.939C534.151 91.6426 558.128 83.821 583.8 83.821C647.703 83.821 700.45 131.808 707.979 193.708C693.453 191.116 678.499 189.764 663.229 189.764C523.43 189.764 410.1 303.094 410.1 442.893ZM671.156 239.162C558.187 239.162 466.656 330.469 466.656 443.162C466.656 555.856 558.187 647.162 671.156 647.162C784.126 647.162 875.656 555.856 875.656 443.162C875.656 330.469 784.126 239.162 671.156 239.162ZM707.438 443.162V538.582C707.438 544.011 702.986 548.453 697.543 548.453H644.769C639.327 548.453 634.874 544.011 634.874 538.582V443.162H576.41C567.587 443.162 563.134 432.551 569.401 426.3L664.23 332.279C668.105 328.412 674.29 328.412 678.165 332.279L772.911 426.3C779.178 432.469 774.726 443.162 765.902 443.162H707.438Z" fill="#767676"/>
</svg>
