<svg width="835" height="585" viewBox="0 0 835 585" fill="none" xmlns="http://www.w3.org/2000/svg">
<path fill-rule="evenodd" clip-rule="evenodd" d="M709.384 209.238C709.384 225.142 706.386 240.393 701.044 254.342C777.146 269.724 834.484 337.118 834.484 417.809C834.484 509.972 759.815 584.667 667.684 584.667H188.134C84.5352 584.667 0.483643 500.586 0.483643 396.952C0.483643 315.088 52.8693 245.477 125.844 219.797C125.714 216.277 125.584 212.758 125.584 209.238C125.584 94.0022 218.887 0.666504 334.084 0.666504C411.359 0.666504 478.731 42.6415 514.827 105.213C534.635 91.9165 558.612 84.0951 584.284 84.0951C653.349 84.0951 709.384 140.149 709.384 209.238ZM467.169 473.928V343.261H547.229C559.312 343.261 565.409 328.617 556.827 320.169L427.082 191.416C421.775 186.122 413.306 186.122 407.998 191.416L278.14 320.169C269.558 328.729 275.656 343.261 287.738 343.261H367.799V473.928C367.799 481.363 373.896 487.445 381.349 487.445H453.618C461.071 487.445 467.169 481.363 467.169 473.928Z" fill="#767676"/>
</svg>
