<svg xmlns="http://www.w3.org/2000/svg" xml:space="preserve" style="fill-rule:evenodd;clip-rule:evenodd;stroke-linejoin:round;stroke-miterlimit:2" viewBox="0 0 1000 1000"><path d="M709.384 208.984c0 15.903-2.998 31.155-8.34 45.103 76.102 15.382 133.44 82.777 133.44 163.468 0 92.162-74.669 166.857-166.8 166.857h-479.55c-103.599 0-187.65-84.08-187.65-187.714 0-81.864 52.385-151.475 125.36-177.156-.13-3.519-.26-7.039-.26-10.558 0-115.236 93.303-208.572 208.5-208.572 77.275 0 144.647 41.975 180.743 104.547 19.808-13.297 43.785-21.118 69.457-21.118 69.065 0 125.1 56.053 125.1 125.143Zm-161.031 54.674-78.518 78.795 78.518 78.795c9.636 9.677 9.636 25.354 0 35.024l-17.45 17.512c-9.635 9.669-25.265 9.669-34.901 0l-78.518-78.796-78.519 78.796c-9.635 9.669-25.265 9.669-34.901 0l-17.45-17.512c-9.635-9.677-9.635-25.355 0-35.024l78.519-78.795-78.519-78.795c-9.635-9.677-9.635-25.354 0-35.024l17.45-17.511c9.643-9.67 25.266-9.67 34.901 0l78.519 78.795 78.518-78.795c9.643-9.67 25.266-9.67 34.901 0l17.45 17.511c9.636 9.677 9.636 25.355 0 35.024Z" style="fill:#767676" transform="translate(0 149.701) scale(1.1976)"/></svg>