<svg xmlns="http://www.w3.org/2000/svg" viewBox="0 0.005 5996.73 4151.545">
  <path d="M 5996.73 2965.37 C 5996.73 3620.53 5459.845 4151.55 4797.39 4151.55 L 1349.25 4151.55 C 604.38 4151.55 -0 3553.82 -0 2817.11 C -0 2235.16 376.68 1740.29 901.39 1557.755 C 900.465 1532.71 899.5 1507.705 899.5 1482.66 C 899.5 663.52 1570.39 0.005 2398.675 0.005 C 2954.335 0.005 3438.735 298.36 3698.295 743.18 C 3840.69 648.665 4013.11 593.07 4197.675 593.07 C 4694.295 593.07 5097.23 991.525 5097.23 1482.66 C 5097.23 1595.725 5075.685 1704.17 5037.255 1803.3 C 5584.43 1912.67 5996.73 2391.765 5996.73 2965.37 Z M 2963.31 2317.72 C 3241.095 2317.72 3466.2 2085.975 3466.2 1800.025 C 3466.2 1514.075 3241.095 1282.32 2963.31 1282.32 C 2685.52 1282.32 2460.415 1514.075 2460.415 1800.025 C 2460.415 2085.975 2685.52 2317.72 2963.31 2317.72 Z M 3315.365 2447.16 L 3249.72 2447.16 C 3162.485 2488.39 3065.48 2511.83 2963.31 2511.83 C 2861.18 2511.83 2764.495 2488.39 2676.895 2447.16 L 2611.305 2447.16 C 2319.77 2447.16 2083.225 2690.62 2083.225 2990.725 L 2083.225 3158.965 C 2083.225 3266.12 2167.73 3353.115 2271.85 3353.115 L 3654.825 3353.115 C 3758.93 3353.115 3843.39 3266.12 3843.39 3158.965 L 3843.39 2990.725 C 3843.39 2690.62 3606.89 2447.16 3315.365 2447.16 Z" fill="#FFF"/>
</svg>