<svg xmlns="http://www.w3.org/2000/svg" width="1000" height="1000" viewBox="0 0 1000 1000"><path d="M713.954 754.834L568.906 609.787v322.329h-96.698v-322.33L327.16 754.835V642.021l193.397-193.397L713.954 642.02v112.813zM148.43 331.577H208.56c8.535-59.347 59.59-104.952 121.296-104.952 22.146 0 42.919 5.875 60.845 16.148C430.09 157.445 516.41 98.232 616.554 98.232c132.796 0 241.273 104.113 248.263 235.16 66.975 10.848 118.11 68.939 118.11 138.974 0 77.757-63.031 140.789-140.788 140.789H731.646l-45.79-45.79h141.052v-1.055c50.843-1.116 91.715-42.684 91.715-93.794s-40.872-92.678-91.715-93.794v-.023H811.831a199.351 199.351 0 0 0 2.66-32.527c0-109.426-88.71-198.132-198.133-198.132-100.366 0-183.303 74.627-196.347 171.42-16.973-26.144-46.424-43.435-79.914-43.435-52.582 0-95.207 42.625-95.207 95.207l.287 7.467H151.24c-51.812 0-93.814 42.005-93.814 93.817 0 51.812 42.002 93.817 93.814 93.817v1.031h204.023l-45.794 45.79h-161.04c-77.756 0-140.788-63.034-140.788-140.788 0-77.757 63.035-140.789 140.789-140.789z"/></svg>