<svg xmlns="http://www.w3.org/2000/svg" xml:space="preserve" style="fill-rule:evenodd;clip-rule:evenodd;stroke-linejoin:round;stroke-miterlimit:2" viewBox="0 0 1000 1000"><path d="M709.384 209.238c0 15.904-2.998 31.155-8.34 45.104 76.102 15.382 133.44 82.776 133.44 163.467 0 92.163-74.669 166.858-166.8 166.858h-479.55C84.535 584.667.484 500.586.484 396.952c0-81.864 52.385-151.475 125.36-177.155-.13-3.52-.26-7.039-.26-10.559 0-115.236 93.303-208.571 208.5-208.571 77.275 0 144.647 41.975 180.743 104.546 19.808-13.296 43.785-21.118 69.457-21.118 69.065 0 125.1 56.054 125.1 125.143Zm-242.215 264.69V343.261h80.06c12.083 0 18.18-14.644 9.598-23.092L427.082 191.416a13.451 13.451 0 0 0-19.084 0L278.14 320.169c-8.582 8.56-2.484 23.092 9.598 23.092h80.061v130.667c0 7.435 6.097 13.517 13.55 13.517h72.269c7.453 0 13.551-6.082 13.551-13.517Z" style="fill:#767676" transform="translate(0 149.701) scale(1.1976)"/></svg>