<svg xmlns="http://www.w3.org/2000/svg" viewBox="0 0 93.742 93.742">
  <path d="M 93.742 46.871 C 93.742 52.475 92.759 57.849 90.955 62.83 C 89.432 59.671 87.246 56.891 84.578 54.672 C 85.096 52.151 85.369 49.54 85.369 46.865 C 85.369 25.583 68.116 8.33 46.834 8.33 C 25.552 8.33 8.299 25.583 8.299 46.865 C 8.299 68.147 25.552 85.4 46.834 85.4 C 47.2 85.4 47.565 85.395 47.929 85.385 C 49.657 88.414 52.017 91.035 54.83 93.069 C 52.243 93.512 49.584 93.742 46.871 93.742 C 20.985 93.742 0 72.757 0 46.871 C 0 20.985 20.985 -0 46.871 -0 C 72.757 -0 93.742 20.985 93.742 46.871 Z M 33.626 34.431 C 33.626 27.56 39.035 21.991 45.71 21.991 C 52.385 21.991 57.794 27.56 57.794 34.431 C 57.794 41.302 52.385 46.871 45.71 46.871 C 39.035 46.871 33.626 41.302 33.626 34.431 Z M 29.094 71.75 C 26.592 71.75 24.562 69.661 24.562 67.086 L 24.562 63.043 C 24.562 55.831 30.246 49.981 37.251 49.981 L 38.828 49.981 C 40.933 50.972 43.255 51.536 45.71 51.536 C 48.165 51.536 50.496 50.972 52.592 49.981 L 54.169 49.981 C 55.998 49.981 57.738 50.38 59.309 51.098 C 51.208 54.649 45.416 62.492 44.81 71.75 Z M 69.052 55.949 C 59.432 55.949 51.637 63.744 51.637 73.365 C 51.637 82.985 59.432 90.78 69.052 90.78 C 78.673 90.78 86.468 82.985 86.468 73.365 C 86.468 63.744 78.673 55.949 69.052 55.949 Z M 79.165 75.331 C 79.165 75.794 78.786 76.174 78.322 76.174 L 71.861 76.174 L 71.861 82.634 C 71.861 83.098 71.482 83.477 71.019 83.477 L 67.086 83.477 C 66.623 83.477 66.243 83.098 66.243 82.634 L 66.243 76.174 L 59.783 76.174 C 59.319 76.174 58.94 75.794 58.94 75.331 L 58.94 71.398 C 58.94 70.935 59.319 70.556 59.783 70.556 L 66.243 70.556 L 66.243 64.095 C 66.243 63.631 66.623 63.252 67.086 63.252 L 71.019 63.252 C 71.482 63.252 71.861 63.631 71.861 64.095 L 71.861 70.556 L 78.322 70.556 C 78.786 70.556 79.165 70.935 79.165 71.398 L 79.165 75.331 Z" fill="#000000"/>
</svg>