<svg xmlns="http://www.w3.org/2000/svg" xml:space="preserve" style="fill-rule:evenodd;clip-rule:evenodd;stroke-linejoin:round;stroke-miterlimit:2" viewBox="0 0 1000 1000"><path d="M709.384 209.436c0 15.903-2.998 31.155-8.34 45.103 76.102 15.382 133.44 82.777 133.44 163.468 0 92.163-74.669 166.857-166.8 166.857h-479.55C84.535 584.864.484 500.784.484 397.15c0-81.864 52.385-151.475 125.36-177.155-.13-3.52-.26-7.04-.26-10.559C125.584 94.2 218.887.864 334.084.864c77.275 0 144.647 41.975 180.743 104.547 19.808-13.297 43.785-21.118 69.457-21.118 69.065 0 125.1 56.053 125.1 125.143ZM252.599 361.682l110.409 110.653c6.633 6.649 17.388 6.649 24.022.001l195.338-195.773c6.633-6.648 6.633-17.427 0-24.075l-24.021-24.075c-6.633-6.648-17.389-6.648-24.022 0L375.019 388.072l-74.377-74.541c-6.633-6.648-17.388-6.648-24.021 0l-24.022 24.076c-6.633 6.648-6.633 17.427 0 24.075Z" style="fill:#767676" transform="translate(0 149.701) scale(1.1976)"/></svg>