<svg width="876" height="648" viewBox="0 0 876 648" fill="none" xmlns="http://www.w3.org/2000/svg">
<path fill-rule="evenodd" clip-rule="evenodd" d="M410.1 443.103C410.1 495.516 426.03 544.209 453.312 584.603H187.65C84.0515 584.603 0 500.523 0 396.889C0 315.024 52.3857 245.414 125.361 219.733C125.23 216.214 125.1 212.694 125.1 209.175C125.1 93.9387 218.404 0.603027 333.6 0.603027C410.875 0.603027 478.247 42.5781 514.344 105.149C534.151 91.853 558.128 84.0315 583.8 84.0315C647.703 84.0315 700.45 132.019 707.979 193.918C693.453 191.327 678.499 189.975 663.229 189.975C523.43 189.975 410.1 303.304 410.1 443.103ZM466.656 443.373C466.656 330.679 558.187 239.373 671.156 239.373C784.126 239.373 875.656 330.679 875.656 443.373C875.656 556.066 784.126 647.373 671.156 647.373C558.187 647.373 466.656 556.066 466.656 443.373ZM771.427 510.907C775.303 507.041 775.303 500.789 771.427 496.923L717.334 443.373L771.51 389.905C775.385 386.039 775.385 379.787 771.51 375.921L738.856 343.347C734.98 339.481 728.713 339.481 724.837 343.347L671.156 397.308L617.557 343.265C613.682 339.399 607.415 339.399 603.539 343.265L570.885 375.839C567.01 379.705 567.01 385.957 570.885 389.823L624.979 443.373L570.885 496.841C567.01 500.707 567.01 506.958 570.885 510.824L603.457 543.399C607.333 547.265 613.599 547.265 617.475 543.399L671.156 489.437L724.755 543.399C728.631 547.265 734.897 547.265 738.773 543.399L771.427 510.907Z" fill="#767676"/>
</svg>
