<svg xmlns="http://www.w3.org/2000/svg" width="1000" height="1000" viewBox="0 0 1000 1000"><path d="M376.844 934.338c-101.78-17.549-196.542-66.684-259.715-133.367-28.078-28.078-35.097-38.607-52.645-70.194-52.645-105.29-59.665-252.695-17.549-365.004 31.587-84.232 94.761-168.464 161.445-224.619C243.476 116.587 303.14 85 341.747 74.471c49.135-10.53 108.8-10.53 147.406 3.51 38.606 10.528 59.664 24.567 84.232 52.644 31.587 31.587 42.116 70.194 38.606 119.329-3.51 14.038-14.039 52.645-24.568 87.741-31.587 87.742-31.587 101.78-35.096 154.425-3.51 42.116-3.51 45.626-7.02 45.626-17.548 0-45.625 14.039-59.664 28.077-17.548 14.039-35.097 38.607-45.626 80.723-10.529 31.587-21.058 38.606-56.154 49.135-17.548 3.51-28.077 3.51-28.077 3.51-3.51 0-3.51-10.53-7.02-21.058-14.038-49.136-66.683-77.213-112.309-63.174-63.174 17.548-87.741 87.741-52.645 140.386 17.548 31.587 63.174 49.135 98.27 38.606 7.02-3.51 21.059-7.019 28.078-14.038l14.039-7.02 17.548 7.02c14.039 7.019 80.722 24.567 98.27 24.567 10.53 0 10.53 3.51 28.078 24.568 28.077 38.606 84.232 45.626 122.838 21.058 21.058-10.53 38.606-38.606 42.116-59.664 0-14.039 3.51-17.549 21.058-31.587 24.567-21.058 42.116-52.645 42.116-70.194 0-14.038 3.51-14.038 14.038-21.057 7.02-3.51 17.549-10.53 21.058-14.04 7.02-3.509 7.02-3.509 14.039 7.02 7.02 3.51 14.039 17.549 17.548 28.078 10.53 17.548 10.53 24.567 10.53 59.664 0 31.587 0 38.606-10.53 59.664-24.567 49.135-94.76 94.76-200.05 119.328-45.626 10.53-143.897 14.04-186.012 7.02zm-150.916-424.67c21.058-10.528 42.116-31.586 49.135-52.644 14.039-28.077 3.51-73.703-17.548-98.27-45.626-45.626-122.838-31.588-150.915 24.567-10.53 17.548-10.53 56.155-3.51 73.703 21.058 49.135 77.212 73.703 122.838 52.645zm221.109-161.444c35.096-17.548 52.645-45.625 52.645-84.232 0-28.077-7.02-49.135-28.078-66.683-17.548-17.548-35.096-24.568-59.664-24.568-49.135 0-91.251 31.587-94.76 80.722-10.53 70.194 66.683 122.839 129.857 94.761zm0 424.67c-24.568-7.02-73.703-17.549-87.742-24.568-14.038-3.51-10.529-7.02 24.568-17.549 59.664-10.529 73.703-24.567 94.76-91.25 10.53-31.588 31.588-56.155 56.155-59.665 17.549-3.51 21.058-3.51 28.078 10.529 21.058 56.155 31.587 66.684 70.193 77.213 10.529 3.51 21.058 10.529 24.567 14.038 14.04 17.548-35.096 63.174-87.741 84.232-24.568 7.02-87.742 10.529-122.838 7.02zm193.031-129.858c-14.039-7.02-35.096-28.077-42.116-42.116-7.02-17.548-3.51-38.606 10.53-56.155 14.038-21.058 87.74-94.76 178.992-182.502 105.29-98.27 133.367-119.329 171.973-119.329 42.116 0 38.607 38.607-7.019 108.8-63.174 94.76-186.012 231.638-242.167 270.244-35.096 24.568-49.135 31.587-70.193 21.058z"/></svg>