<svg xmlns="http://www.w3.org/2000/svg" viewBox="0 0 217.82 235.47"><defs><style>.cls-1{fill:#010101;}</style></defs><g id="Layer_2" data-name="Layer 2"><g id="Layer_1-2" data-name="Layer 1"><path class="cls-1" d="M156.48,138.43h0A77.07,77.07,0,0,1,88.76,24.51a2.68,2.68,0,0,0-2.37-4H10.07A10.07,10.07,0,0,0,0,30.63V225.4a10.07,10.07,0,0,0,10.07,10.07H151.12a10.07,10.07,0,0,0,10.07-10.07V143.11A4.69,4.69,0,0,0,156.48,138.43Zm-30.36,27.93L85.64,206.53a7.15,7.15,0,0,1-10.09,0L35.08,166.36a6.71,6.71,0,0,1,4.72-11.48H67.16V121.3a6.72,6.72,0,0,1,6.72-6.72H87.31A6.72,6.72,0,0,1,94,121.3v33.58h27.36A6.72,6.72,0,0,1,126.12,166.36Z"/><path class="cls-1" d="M156.43,0a61.39,61.39,0,1,0,61.39,61.39A61.38,61.38,0,0,0,156.43,0Zm-7.82,97.26h0a4.35,4.35,0,0,1-6.17,0L114.08,68.91a4.37,4.37,0,0,1,0-6.17l6.17-6.17a4.35,4.35,0,0,1,6.17,0l19.1,19.1,40.92-40.91a4.35,4.35,0,0,1,6.17,0l6.17,6.16a4.37,4.37,0,0,1,0,6.17Z"/></g></g></svg>