<svg width="401" height="401" viewBox="0 0 401 401" fill="none" xmlns="http://www.w3.org/2000/svg">
<path fill-rule="evenodd" clip-rule="evenodd" d="M206.805 82.1992V29.09L232.521 74.8155L226.892 77.9814V82.1992H219.392L215.013 84.6621L213.628 82.1992H206.805ZM242.687 133.869L228.85 109.266L246.358 99.4192L260.195 124.023L242.687 133.869ZM226.892 111.724V141.248H206.805V111.724L226.892 111.724ZM270.362 183.077L256.524 158.473L274.032 148.626L287.87 173.23L270.362 183.077ZM226.892 170.772V200.297H206.805V170.772H226.892ZM298.036 232.284L284.199 207.68L301.707 197.834L315.544 222.437L298.036 232.284ZM226.892 229.821V259.345H206.805V229.821H226.892ZM325.71 281.491L311.873 256.888L329.381 247.041L343.218 271.645L325.71 281.491ZM226.892 288.87L226.892 318.394H206.805L206.805 288.87H226.892ZM353.385 330.699L339.547 306.095L357.055 296.248L370.893 320.852L353.385 330.699ZM384.73 345.456L371.96 352.637H369.057V354.27L367.222 355.302L369.057 358.566V372.724H400.066L384.73 345.456ZM226.892 347.919V352.637H230.685V372.724H206.805V347.919H226.892ZM258.36 352.637H286.034V372.724H258.36V352.637ZM313.708 352.637H341.383V372.724H313.708V352.637ZM193.327 372.724L193.327 29.0901L0.065918 372.724L193.327 372.724ZM173.24 352.637L34.4088 352.637L173.24 105.784L173.24 352.637Z" fill="black"/>
</svg>
