<svg width="401" height="401" viewBox="0 0 401 401" fill="none" xmlns="http://www.w3.org/2000/svg">
<path fill-rule="evenodd" clip-rule="evenodd" d="M81.8314 194.168H28.7222L74.4477 168.452L77.6135 174.081H81.8314V181.581L84.2943 185.96L81.8314 187.345V194.168ZM133.502 158.286L108.898 172.123L99.0514 154.615L123.655 140.778L133.502 158.286ZM111.356 174.081L140.88 174.081V194.168H111.356L111.356 174.081ZM182.709 130.612L158.105 144.449L148.259 126.941L172.862 113.103L182.709 130.612ZM170.405 174.081H199.929V194.168H170.405V174.081ZM231.916 102.937L207.313 116.774L197.466 99.2663L222.07 85.4291L231.916 102.937ZM229.453 174.081H258.978V194.168H229.453V174.081ZM281.124 75.2628L256.52 89.1L246.673 71.5919L271.277 57.7547L281.124 75.2628ZM288.502 174.081L318.026 174.081V194.168H288.502V174.081ZM330.331 47.5885L305.727 61.4257L295.881 43.9176L320.484 30.0804L330.331 47.5885ZM345.088 16.2432L352.27 29.0127V31.9158H353.902L354.935 33.7513L358.198 31.9158L372.357 31.9158V0.907227L345.088 16.2432ZM347.551 174.081H352.27V170.288H372.357V194.168H347.551V174.081ZM352.27 142.613V114.939H372.357V142.613H352.27ZM352.27 87.2645L352.27 59.5902H372.357V87.2645H352.27ZM372.357 207.646L28.7222 207.646L372.357 400.907L372.357 207.646ZM352.27 227.733L352.27 366.564L105.416 227.733L352.27 227.733Z" fill="black"/>
</svg>
