<svg xmlns="http://www.w3.org/2000/svg" width="1000" height="1000" viewBox="0 0 1000 1000"><path style="line-height:normal;text-indent:0;text-align:start;text-decoration-line:none;text-decoration-style:solid;text-decoration-color:#000;text-transform:none;block-progression:tb;isolation:auto;mix-blend-mode:normal" d="M341.165 100.451l7.44 2.223 6.983 3.393 6.347 4.475 5.541 5.438 4.595 6.26 3.524 6.92 2.363 7.396 1.141 7.68.107 3.195v111.737l-.005.3-.023 1.863-.008.604-.022.604-.07 1.85-.023.603-.038.603-.115 1.837-.039.602-.052.601-.162 1.824-.052.601-.069.6-.204 1.81-.069.599-.083.596-.25 1.798-.084.595-.097.594-.293 1.781-.098.594-.113.59-.337 1.766-.111.589-.127.587-.38 1.75-.126.586-.143.581-.42 1.734-.14.581-.156.577-.464 1.716-.155.575-.169.573-.502 1.7-.169.57-.183.566-.544 1.68-.183.565-.196.561-.584 1.662-.195.558-.21.554-.623 1.644-.21.552-.221.547-.662 1.623-.222.546-.236.541-.699 1.604-.234.538-.248.533-.738 1.582-.247.531-.26.526-.774 1.561-.259.525-.273.517-.81 1.54-.272.516-.284.509-.846 1.518-.284.509-.296.5-.881 1.495-.295.5-.307.493-.916 1.471-.307.491-.32.486-.948 1.446-.318.484-.33.476-.984 1.42-.33.477-.34.466-1.017 1.397-.34.467-.351.457-1.048 1.371-.35.458-.364.45-1.08 1.344-.362.448-.372.44-1.111 1.316-.373.44-.381.432-1.144 1.288-.382.431-.392.422-1.174 1.26-.392.423-.402.41-1.203 1.233-.401.413-.413.401-1.233 1.203-.41.402-.422.392-1.26 1.174-.423.392-.43.382-1.29 1.142-.43.383-.439.371-1.318 1.113-.439.372-.45.362-1.344 1.08-.448.362-.459.35-1.369 1.05-.459.352-.467.34-1.395 1.017-.468.34-.475.328-1.422.984-.476.33-.483.317-1.447.95-.485.32-.492.305-1.47.917-.493.307-.5.296-1.496.88-.5.297-.509.284-1.516.846-.51.284-.517.271-1.54.811-.517.272-.525.26-1.56.774-.527.26-.53.247-1.583.736-.533.248-.538.236-1.604.7-.54.235-.545.222-1.625.66-.546.224-.552.209-1.645.622-.553.21-.559.196-1.662.583-.56.197-.564.183-1.682.543-.566.182-.57.17-1.7.503-.57.17-.578.154-1.716.463-.577.156-.581.141-1.734.42-.581.142-.585.127-1.75.38-.587.127-.589.111-1.766.337-.59.113-.595.098-1.78.293-.593.097-.597.084-1.796.25-.597.082-.6.068-1.81.207-.6.068-.6.053-1.825.16-.6.054-.603.038-1.837.115-.603.039-.604.021-1.85.07-.602.023-.605.008-1.86.024-.303.005H147.435l-7.74-.628-7.537-1.867-7.137-3.056-6.553-4.168-5.794-5.168-4.888-6.035-3.85-6.743-2.713-7.275-1.506-7.618-.257-7.76.995-7.7 2.224-7.44 3.392-6.986 4.475-6.344 5.438-5.544 6.261-4.592 6.919-3.526 7.396-2.363 7.68-1.142 3.195-.105h111.49l1.016-.012.659-.027.614-.038.595-.053.66-.074.548-.076.651-.107.53-.103.609-.132.58-.14.534-.143.582-.172.529-.171.527-.186.575-.217.526-.214.54-.236.51-.237.502-.25.524-.276.502-.279.453-.268.509-.316.482-.317.462-.32.468-.342.445-.34.42-.339.46-.386.437-.388.418-.389.408-.398.398-.408.39-.419.398-.45.337-.398.384-.477.334-.436.334-.46.34-.49.315-.478.282-.453.315-.535.27-.487.263-.498.265-.536.213-.457.248-.57.21-.511.2-.529.2-.57.174-.542.17-.569.153-.572.133-.549.127-.589.109-.564.1-.603.084-.62.069-.605.054-.611.042-.656.023-.597.013-1.036v-111.08l.628-7.74 1.865-7.537 3.058-7.137 4.166-6.553 5.168-5.794 6.035-4.887 6.743-3.85 7.275-2.714 7.618-1.505 7.76-.258z" color="#000" font-weight="400" font-family="sans-serif" white-space="normal" overflow="visible"/><rect width="267.254" height="270.866" x="366.373" y="364.567" rx="12.785" ry="12.785"/><path d="M660.455 98.831l-7.44 2.223-6.983 3.393-6.347 4.475-5.541 5.438-4.595 6.26-3.524 6.92-2.363 7.396-1.141 7.68-.107 3.195v111.737l.005.3.023 1.863.008.604.022.604.07 1.85.023.603.039.603.114 1.837.039.602.053.601.16 1.824.054.601.068.6.205 1.81.068.599.084.596.25 1.798.083.595.098.594.293 1.781.097.594.114.59.336 1.766.112.589.127.587.38 1.75.125.586.143.581.42 1.734.141.581.155.577.464 1.716.155.575.169.573.502 1.7.17.57.182.566.545 1.68.183.565.195.561.584 1.662.196.558.21.554.622 1.644.21.552.222.547.662 1.623.221.546.236.541.7 1.604.233.538.249.533.738 1.582.246.531.26.526.774 1.561.26.525.272.517.811 1.54.272.516.283.509.847 1.518.284.509.296.5.88 1.495.295.5.307.493.916 1.471.307.491.32.486.949 1.446.318.484.33.476.983 1.42.33.477.34.466 1.017 1.397.34.467.352.457 1.048 1.371.35.458.363.45 1.08 1.344.362.448.372.44 1.112 1.316.372.44.381.432 1.145 1.288.381.431.392.422 1.174 1.26.392.423.402.41 1.203 1.233.402.413.412.401 1.233 1.203.41.402.423.392 1.26 1.174.422.392.43.382 1.29 1.142.43.383.44.371 1.317 1.113.44.372.449.362 1.344 1.08.448.362.46.35 1.368 1.05.46.352.466.34 1.395 1.017.469.34.474.328 1.422.984.476.33.484.317 1.447.95.485.32.491.305 1.47.917.493.307.501.296 1.495.88.5.297.51.284 1.516.846.51.284.516.271 1.54.811.518.272.524.26 1.561.774.526.26.53.247 1.583.736.534.248.538.236 1.603.7.54.235.545.222 1.625.66.546.224.552.209 1.645.622.554.21.558.196 1.662.583.56.197.564.183 1.683.543.566.182.57.17 1.7.503.57.17.577.155 1.717.462.576.156.582.141 1.733.42.582.142.584.127 1.75.38.587.127.59.111 1.765.337.591.113.594.098 1.78.293.594.097.597.084 1.795.25.597.082.6.068 1.81.207.6.068.6.053 1.825.16.6.054.603.038 1.838.115.603.039.603.021 1.85.07.603.023.605.008 1.86.024.303.005h112.147l7.74-.628 7.537-1.867 7.138-3.056 6.552-4.168 5.795-5.168 4.887-6.035 3.85-6.743 2.713-7.276 1.506-7.617.257-7.76-.995-7.7-2.223-7.44-3.393-6.986-4.475-6.345-5.438-5.543-6.26-4.592-6.92-3.526-7.396-2.363-7.68-1.142-3.195-.105h-111.49l-1.016-.012-.659-.027-.614-.038-.595-.053-.66-.075-.548-.076-.651-.107-.53-.102-.608-.132-.58-.14-.535-.143-.581-.173-.53-.17-.526-.186-.576-.217-.525-.214-.54-.236-.51-.237-.502-.25-.524-.276-.503-.279-.453-.268-.508-.316-.482-.317-.462-.32-.469-.342-.445-.341-.42-.338-.459-.386-.437-.388-.419-.389-.408-.398-.398-.408-.39-.419-.398-.45-.336-.398-.385-.478-.333-.435-.335-.46-.34-.49-.314-.478-.283-.453-.314-.535-.27-.487-.264-.498-.265-.536-.212-.458-.248-.569-.21-.511-.2-.529-.2-.57-.175-.542-.169-.569-.154-.572-.133-.549-.127-.589-.109-.564-.099-.604-.085-.618-.068-.607-.055-.61-.041-.656-.024-.597-.012-1.036v-111.08l-.628-7.74-1.865-7.537-3.058-7.137-4.166-6.553-5.168-5.794-6.035-4.887-6.743-3.85-7.276-2.714-7.617-1.505-7.76-.258zM339.545 901.169l7.44-2.223 6.983-3.393 6.347-4.475 5.541-5.438 4.595-6.26 3.524-6.92 2.363-7.395 1.141-7.68.107-3.196V742.452l-.004-.3-.023-1.863-.008-.604-.022-.604-.07-1.85-.023-.603-.038-.603-.115-1.837-.039-.602-.053-.601-.16-1.824-.054-.601-.068-.6-.205-1.81-.068-.598-.084-.597-.25-1.798-.083-.595-.098-.594-.293-1.781-.097-.594-.113-.59-.337-1.766-.112-.589-.127-.587-.38-1.75-.125-.586-.143-.581-.42-1.734-.141-.581-.155-.577-.464-1.716-.155-.575-.169-.573-.502-1.699-.17-.57-.182-.567-.544-1.68-.183-.565-.196-.561-.584-1.662-.196-.558-.21-.554-.622-1.644-.21-.552-.221-.547-.663-1.623-.221-.546-.236-.541-.7-1.604-.233-.538-.248-.533-.739-1.582-.246-.531-.26-.526-.774-1.561-.26-.525-.272-.517-.811-1.54-.271-.516-.284-.509-.847-1.518-.284-.509-.296-.5-.88-1.495-.295-.5-.307-.492-.916-1.472-.307-.491-.32-.486-.949-1.446-.318-.484-.33-.476-.983-1.42-.33-.477-.34-.466-1.017-1.397-.34-.467-.351-.457-1.049-1.371-.35-.458-.363-.45-1.08-1.344-.362-.448-.372-.44-1.112-1.316-.372-.44-.381-.432-1.145-1.288-.381-.431-.392-.422-1.174-1.26-.392-.422-.402-.411-1.203-1.233-.402-.413-.412-.401-1.233-1.203-.41-.402-.423-.392-1.26-1.174-.422-.392-.43-.382-1.29-1.142-.43-.383-.44-.371-1.317-1.113-.44-.372-.449-.362-1.344-1.08-.448-.362-.46-.35-1.368-1.05-.46-.352-.466-.34-1.395-1.017-.469-.34-.474-.328-1.422-.984-.476-.33-.484-.317-1.446-.95-.486-.32-.491-.305-1.47-.917-.493-.307-.501-.296-1.495-.88-.5-.297-.51-.284-1.516-.846-.51-.284-.516-.271-1.54-.811-.518-.272-.524-.26-1.561-.774-.526-.26-.53-.247-1.583-.736-.534-.248-.538-.236-1.603-.7-.54-.235-.545-.222-1.625-.66-.546-.224-.552-.209-1.645-.622-.554-.21-.558-.196-1.662-.583-.56-.197-.564-.183-1.683-.543-.566-.182-.57-.17-1.7-.503-.57-.17-.577-.154-1.716-.463-.577-.156-.582-.141-1.733-.42-.582-.142-.584-.127-1.75-.38-.587-.127-.59-.111-1.765-.337-.591-.113-.594-.098-1.78-.293-.594-.097-.597-.084-1.795-.25-.597-.082-.6-.068-1.81-.207-.6-.068-.6-.053-1.825-.16-.6-.053-.603-.04-1.837-.114-.604-.039-.603-.021-1.85-.07-.603-.023-.605-.008-1.86-.024-.303-.004H145.816l-7.74.628-7.537 1.867-7.138 3.056-6.552 4.168-5.795 5.168-4.887 6.035-3.85 6.743-2.713 7.276-1.506 7.617-.257 7.76.995 7.7 2.224 7.44 3.392 6.986 4.475 6.345 5.438 5.543 6.261 4.592 6.918 3.526 7.397 2.363 7.68 1.142 3.195.105h111.49l1.016.012.659.027.614.039.595.052.66.075.548.076.651.107.53.102.608.132.58.14.535.144.582.172.528.17.528.186.575.217.525.214.54.236.51.237.503.25.524.276.502.279.453.268.508.317.483.316.462.32.468.342.445.341.42.338.459.386.437.388.419.389.408.399.398.407.39.419.398.45.336.398.385.478.333.435.335.46.34.49.315.478.282.453.314.535.27.487.264.498.265.536.212.458.249.569.209.511.2.53.2.57.175.54.17.57.153.572.133.549.127.59.109.564.099.603.085.618.068.607.055.61.042.656.023.597.012 1.036v111.08l.628 7.74 1.866 7.537 3.057 7.137 4.167 6.553 5.167 5.794 6.035 4.887 6.744 3.85 7.275 2.714 7.618 1.506 7.76.257zM660.455 901.169l-7.44-2.223-6.983-3.393-6.347-4.475-5.541-5.438-4.595-6.26-3.524-6.92-2.363-7.395-1.141-7.68-.107-3.196V742.452l.005-.3.023-1.863.008-.604.022-.604.07-1.85.023-.603.039-.603.114-1.837.039-.602.053-.601.16-1.824.054-.601.068-.6.205-1.81.068-.598.084-.597.25-1.798.083-.595.098-.594.293-1.781.097-.594.114-.59.336-1.766.112-.589.127-.587.38-1.75.125-.586.143-.581.42-1.734.141-.58.155-.578.464-1.716.155-.575.169-.573.502-1.699.17-.57.182-.567.545-1.68.183-.565.195-.561.584-1.662.196-.558.21-.554.622-1.644.21-.552.222-.547.662-1.623.221-.546.236-.541.7-1.604.233-.538.249-.533.738-1.582.246-.531.26-.526.774-1.561.26-.525.272-.517.811-1.54.272-.516.283-.509.847-1.518.284-.509.296-.5.88-1.495.295-.5.307-.492.916-1.472.307-.491.32-.486.949-1.446.318-.484.33-.476.983-1.42.33-.477.34-.466 1.017-1.397.34-.467.352-.457 1.048-1.371.35-.458.363-.45 1.08-1.344.362-.448.372-.44 1.112-1.316.372-.44.381-.432 1.145-1.288.381-.431.392-.422 1.174-1.26.392-.422.402-.411 1.203-1.233.402-.412.412-.402 1.233-1.203.41-.402.423-.392 1.26-1.174.422-.392.43-.382 1.29-1.142.43-.383.44-.371 1.317-1.113.44-.372.449-.362 1.344-1.08.448-.362.46-.35 1.368-1.05.46-.352.466-.34 1.395-1.017.469-.34.474-.328 1.422-.984.476-.33.484-.317 1.447-.95.485-.32.491-.305 1.47-.917.493-.307.501-.296 1.495-.88.5-.297.51-.284 1.516-.846.51-.284.516-.271 1.54-.811.518-.272.524-.26 1.561-.774.526-.26.53-.247 1.583-.736.534-.248.538-.236 1.603-.7.54-.235.545-.222 1.625-.66.546-.224.552-.209 1.645-.622.554-.21.558-.196 1.662-.583.56-.197.564-.183 1.683-.542.566-.183.57-.17 1.7-.503.57-.17.577-.154 1.717-.463.576-.156.582-.141 1.733-.42.582-.142.584-.127 1.75-.38.587-.127.59-.111 1.765-.337.591-.113.594-.098 1.78-.293.594-.097.597-.084 1.795-.25.597-.082.6-.068 1.81-.207.6-.068.6-.053 1.825-.16.6-.053.603-.04 1.838-.114.603-.039.603-.021 1.85-.07.603-.023.605-.008 1.86-.024.303-.004h112.147l7.74.628 7.537 1.867 7.138 3.056 6.552 4.168 5.795 5.168 4.887 6.035 3.85 6.743 2.713 7.276 1.506 7.617.257 7.76-.995 7.7-2.223 7.44-3.393 6.986-4.475 6.345-5.438 5.543-6.26 4.592-6.92 3.526-7.396 2.363-7.68 1.142-3.195.105h-111.49l-1.016.012-.659.027-.614.039-.595.052-.66.075-.548.076-.651.107-.53.102-.608.132-.58.14-.535.144-.581.172-.53.17-.526.186-.576.217-.525.214-.54.236-.51.237-.502.25-.524.276-.503.279-.453.268-.508.317-.482.316-.462.32-.469.342-.445.341-.42.338-.459.386-.437.388-.419.389-.408.399-.398.407-.39.419-.398.45-.336.398-.385.478-.333.435-.335.46-.34.49-.314.478-.283.453-.314.535-.27.487-.264.498-.265.536-.212.458-.248.569-.21.511-.2.53-.2.57-.175.54-.169.57-.154.572-.133.549-.127.59-.109.564-.099.603-.085.618-.068.607-.055.61-.041.656-.024.597-.012 1.036v111.08l-.628 7.74-1.865 7.537-3.058 7.137-4.166 6.553-5.168 5.794-6.035 4.887-6.743 3.85-7.276 2.714-7.617 1.506-7.76.257z" style="line-height:normal;text-indent:0;text-align:start;text-decoration-line:none;text-decoration-style:solid;text-decoration-color:#000;text-transform:none;block-progression:tb;isolation:auto;mix-blend-mode:normal" color="#000" font-weight="400" font-family="sans-serif" white-space="normal" overflow="visible"/></svg>