<?xml version="1.0" encoding="UTF-8" standalone="no"?>
<svg
   xmlns:dc="http://purl.org/dc/elements/1.1/"
   xmlns:cc="http://creativecommons.org/ns#"
   xmlns:rdf="http://www.w3.org/1999/02/22-rdf-syntax-ns#"
   xmlns:svg="http://www.w3.org/2000/svg"
   xmlns="http://www.w3.org/2000/svg"
   xmlns:sodipodi="http://sodipodi.sourceforge.net/DTD/sodipodi-0.dtd"
   xmlns:inkscape="http://www.inkscape.org/namespaces/inkscape"
   width="1000"
   height="1000"
   viewBox="0 0 1000 1000"
   id="svg2"
   version="1.1"
   inkscape:version="0.91 r13725"
   sodipodi:docname="fullscreencollapse.svg">
  <metadata
     id="metadata10">
    <rdf:RDF>
      <cc:Work
         rdf:about="">
        <dc:format>image/svg+xml</dc:format>
        <dc:type
           rdf:resource="http://purl.org/dc/dcmitype/StillImage" />
        <dc:title></dc:title>
      </cc:Work>
    </rdf:RDF>
  </metadata>
  <defs
     id="defs8">
    <marker
       inkscape:stockid="Arrow1Lstart"
       orient="auto"
       refY="0.0"
       refX="0.0"
       id="Arrow1Lstart"
       style="overflow:visible"
       inkscape:isstock="true">
      <path
         id="path4143"
         d="M 0.0,0.0 L 5.0,-5.0 L -12.5,0.0 L 5.0,5.0 L 0.0,0.0 z "
         style="fill-rule:evenodd;stroke:#000000;stroke-width:1.0pt"
         transform="scale(0.8) translate(12.5,0)" />
    </marker>
  </defs>
  <sodipodi:namedview
     pagecolor="#ffffff"
     bordercolor="#666666"
     borderopacity="1"
     objecttolerance="10"
     gridtolerance="10"
     guidetolerance="10"
     inkscape:pageopacity="0"
     inkscape:pageshadow="2"
     inkscape:window-width="1469"
     inkscape:window-height="874"
     id="namedview6"
     showgrid="false"
     inkscape:zoom="0.35355339"
     inkscape:cx="308.92501"
     inkscape:cy="500"
     inkscape:window-x="0"
     inkscape:window-y="0"
     inkscape:window-maximized="0"
     inkscape:current-layer="svg2" />
  <path
     style="color:#000000;font-style:normal;font-variant:normal;font-weight:normal;font-stretch:normal;font-size:medium;line-height:normal;font-family:sans-serif;text-indent:0;text-align:start;text-decoration:none;text-decoration-line:none;text-decoration-style:solid;text-decoration-color:#000000;letter-spacing:normal;word-spacing:normal;text-transform:none;direction:ltr;block-progression:tb;writing-mode:lr-tb;baseline-shift:baseline;text-anchor:start;white-space:normal;clip-rule:nonzero;display:inline;overflow:visible;visibility:visible;opacity:1;isolation:auto;mix-blend-mode:normal;color-interpolation:sRGB;color-interpolation-filters:linearRGB;solid-color:#000000;solid-opacity:1;fill:#000000;fill-opacity:1;fill-rule:nonzero;stroke:none;stroke-width:121;stroke-linecap:round;stroke-linejoin:miter;stroke-miterlimit:6.4000001;stroke-dasharray:484, 242;stroke-dashoffset:931.70001221;stroke-opacity:1;color-rendering:auto;image-rendering:auto;shape-rendering:auto;text-rendering:auto;enable-background:accumulate"
     d="m 341.16516,100.45099 7.43954,2.22349 6.98367,3.3926 6.34639,4.47488 5.54167,5.43778 4.59428,6.26112 3.52439,6.91854 2.36302,7.39612 1.14121,7.67988 0.107,3.19567 0,111.43431 0,0.30236 -0.005,0.30083 -0.0233,1.86219 -0.008,0.60472 -0.0216,0.60315 -0.0697,1.8498 -0.0233,0.60317 -0.0387,0.60316 -0.11475,1.83741 -0.0386,0.60161 -0.0527,0.60161 -0.16125,1.82346 -0.0527,0.60161 -0.0683,0.60006 -0.20466,1.80948 -0.0683,0.59851 -0.0837,0.59696 -0.24964,1.79709 -0.0837,0.59541 -0.0977,0.59387 -0.29305,1.78157 -0.0977,0.59386 -0.11318,0.58922 -0.33647,1.76608 -0.11165,0.5892 -0.12712,0.58766 -0.37991,1.74901 -0.12559,0.58612 -0.14265,0.58145 -0.4202,1.73352 -0.14109,0.58144 -0.15506,0.57681 -0.46363,1.71647 -0.15504,0.57524 -0.16901,0.57216 -0.50238,1.6994 -0.169,0.5706 -0.18297,0.56594 -0.54424,1.68081 -0.18296,0.5644 -0.19538,0.56129 -0.58456,1.66219 -0.19538,0.55818 -0.20932,0.55356 -0.62331,1.64359 -0.20932,0.55199 -0.22173,0.54735 -0.6621,1.62342 -0.22172,0.54579 -0.23569,0.54114 -0.69929,1.60327 -0.23414,0.53805 -0.24809,0.53338 -0.73805,1.58157 -0.24653,0.53183 -0.2605,0.52564 -0.77373,1.5614 -0.25893,0.52408 -0.27289,0.5179 -0.81095,1.53969 -0.27135,0.51633 -0.28375,0.50858 -0.8466,1.51798 -0.28375,0.50859 -0.29616,0.50082 -0.88069,1.49474 -0.29462,0.49927 -0.30701,0.49308 -0.91637,1.47146 -0.30701,0.49153 -0.31941,0.48533 -0.94894,1.44665 -0.31786,0.48378 -0.33026,0.47602 -0.98304,1.4203 -0.33028,0.47601 -0.33957,0.46672 -1.01714,1.39704 -0.33959,0.46672 -0.35197,0.45742 -1.04818,1.37067 -0.35042,0.45742 -0.36283,0.44966 -1.08074,1.34433 -0.36127,0.44811 -0.37212,0.44034 -1.11175,1.31643 -0.37213,0.44034 -0.38143,0.43107 -1.14431,1.28849 -0.38145,0.43106 -0.39229,0.42174 -1.17369,1.2606 -0.39229,0.42176 -0.40159,0.41088 -1.20322,1.23269 -0.4016,0.41245 -0.41244,0.40161 -1.23267,1.20321 -0.41092,0.40159 -0.42174,0.39229 -1.26059,1.17377 -0.42176,0.39228 -0.4295,0.38144 -1.29006,1.14276 -0.43104,0.38297 -0.43882,0.37059 -1.31797,1.1133 -0.4388,0.37212 -0.44966,0.36128 -1.34432,1.08074 -0.4481,0.36128 -0.45896,0.35041 -1.36914,1.04974 -0.45897,0.35196 -0.46671,0.33957 -1.39549,1.01717 -0.46825,0.33957 -0.47449,0.3287 -1.42186,0.9846 -0.47601,0.32873 -0.48377,0.31786 -1.44666,0.95049 -0.48532,0.31941 -0.49153,0.30546 -1.46993,0.91638 -0.49306,0.30701 -0.50083,0.29614 -1.49473,0.88072 -0.50083,0.29615 -0.50859,0.28375 -1.51643,0.8466 -0.51013,0.28375 -0.51632,0.27135 -1.5397,0.81094 -0.51788,0.27133 -0.52409,0.26049 -1.56141,0.77374 -0.52564,0.26048 -0.53028,0.24655 -1.58311,0.73649 -0.53338,0.2481 -0.53804,0.2357 -1.60327,0.69929 -0.53959,0.23567 -0.5458,0.22173 -1.62497,0.66054 -0.54578,0.22327 -0.55202,0.20933 -1.64512,0.62178 -0.55355,0.21087 -0.5582,0.19538 -1.66218,0.58299 -0.55975,0.19692 -0.56441,0.18298 -1.68233,0.54267 -0.56596,0.18297 -0.5706,0.16902 -1.6994,0.50392 -0.5706,0.16901 -0.57682,0.15505 -1.71646,0.46207 -0.57679,0.15661 -0.58145,0.1411 -1.73352,0.4202 -0.58146,0.14109 -0.58455,0.12715 -1.75059,0.37989 -0.58609,0.12714 -0.58921,0.11164 -1.76608,0.33647 -0.59076,0.11319 -0.59384,0.0977 -1.78005,0.29304 -0.59385,0.0977 -0.59697,0.0837 -1.79552,0.24965 -0.59697,0.0822 -0.60007,0.0683 -1.80949,0.20622 -0.60005,0.0683 -0.60008,0.0527 -1.82498,0.16126 -0.60007,0.0527 -0.60318,0.0386 -1.83738,0.11473 -0.60317,0.0388 -0.60316,0.0216 -1.84981,0.0698 -0.60316,0.0233 -0.60472,0.008 -1.86065,0.0233 -0.30236,0.005 -0.30235,0 -111.84497,0 -7.74034,-0.62797 -7.53722,-1.86687 -7.13718,-3.05613 -6.55261,-4.16787 -5.7944,-5.16798 -4.88733,-6.03474 -3.85002,-6.74333 -2.71346,-7.27519 -1.505585,-7.61783 -0.257384,-7.76051 0.995449,-7.70001 2.22348,-7.43954 3.39261,-6.98522 4.47488,-6.34485 5.43778,-5.5432 6.26112,-4.59275 6.91854,-3.52593 7.39612,-2.36305 7.67987,-1.14119 3.19568,-0.10544 111.48989,0 1.01561,-0.0124 0.65899,-0.0264 0.61401,-0.0386 0.59541,-0.0527 0.66053,-0.0744 0.54734,-0.076 0.65123,-0.107 0.5303,-0.10233 0.60782,-0.1318 0.5799,-0.13955 0.53493,-0.14419 0.58147,-0.17212 0.52873,-0.17055 0.52719,-0.18607 0.57525,-0.21708 0.52563,-0.21397 0.53959,-0.23567 0.51015,-0.23725 0.50237,-0.24965 0.52409,-0.276 0.50236,-0.27909 0.45277,-0.26823 0.50859,-0.31634 0.48221,-0.3163 0.46207,-0.32096 0.46825,-0.34112 0.44502,-0.34112 0.4202,-0.33803 0.45895,-0.38609 0.43725,-0.38762 0.41867,-0.38919 0.40778,-0.39851 0.39849,-0.40778 0.38919,-0.41865 0.3985,-0.44966 0.33646,-0.39847 0.38454,-0.47758 0.33337,-0.43571 0.33492,-0.45897 0.33955,-0.49152 0.31478,-0.47756 0.2822,-0.45279 0.31476,-0.53492 0.2698,-0.48687 0.26358,-0.49773 0.26515,-0.53648 0.21242,-0.45742 0.24809,-0.56905 0.20933,-0.51168 0.20001,-0.52873 0.20003,-0.57061 0.17521,-0.54114 0.16901,-0.56904 0.15351,-0.57216 0.13334,-0.54889 0.12717,-0.58921 0.10852,-0.56442 0.0992,-0.60315 0.0852,-0.61867 0.0683,-0.60627 0.0543,-0.6109 0.0419,-0.65589 0.0233,-0.59697 0.0124,-1.03575 0,-111.07925 0.62798,-7.74034 1.86531,-7.53721 3.0577,-7.13719 4.1663,-6.55261 5.16798,-5.7944 6.03475,-4.88733 6.74334,-3.85002 7.27518,-2.71346 7.61785,-1.505576 7.76049,-0.257393 z"
     id="rect4135"
     inkscape:connector-curvature="0"
     sodipodi:nodetypes="ccccccccccccccccccccccccccccccccccccccccccccccccccccccccccccccccccccccccccccccccccccccccccccccccccccccccccccccccccccccccccccccccccccccccccccccccccccccccccccccccccccccccccccccccccccccccccccccccccccccccccccccccccccccccccccccccccccccccccccccccccccccccccccccccccccccccccccccccccccccccccccccccccccccccccccccc" />
  <rect
     style="opacity:1;fill:#000000;fill-opacity:1;fill-rule:nonzero;stroke:none;stroke-width:1;stroke-linecap:round;stroke-linejoin:round;stroke-miterlimit:4;stroke-dasharray:none;stroke-dashoffset:0;stroke-opacity:1"
     id="rect4133"
     width="267.25449"
     height="270.86603"
     x="366.37283"
     y="364.56702"
     rx="12.784875"
     ry="12.784875" />
  <path
     sodipodi:nodetypes="ccccccccccccccccccccccccccccccccccccccccccccccccccccccccccccccccccccccccccccccccccccccccccccccccccccccccccccccccccccccccccccccccccccccccccccccccccccccccccccccccccccccccccccccccccccccccccccccccccccccccccccccccccccccccccccccccccccccccccccccccccccccccccccccccccccccccccccccccccccccccccccccccccccccccccccccc"
     inkscape:connector-curvature="0"
     id="path4999"
     d="m 660.45502,98.830991 -7.43953,2.223489 -6.98369,3.3926 -6.34639,4.47488 -5.54166,5.43778 -4.59428,6.26112 -3.52439,6.91854 -2.36303,7.39612 -1.14121,7.67988 -0.10699,3.19567 0,111.43431 0,0.30236 0.005,0.30083 0.0233,1.86219 0.008,0.60472 0.0216,0.60315 0.0697,1.8498 0.0233,0.60317 0.0388,0.60316 0.11474,1.83741 0.0387,0.60161 0.0527,0.60161 0.16125,1.82346 0.0527,0.60161 0.0683,0.60006 0.20467,1.80948 0.0683,0.59851 0.0837,0.59696 0.24963,1.79709 0.0837,0.59541 0.0977,0.59387 0.29305,1.78157 0.0977,0.59386 0.1132,0.58922 0.33646,1.76608 0.11164,0.5892 0.12714,0.58766 0.3799,1.74901 0.12558,0.58612 0.14266,0.58145 0.4202,1.73352 0.14109,0.58144 0.15506,0.57681 0.46363,1.71647 0.15504,0.57524 0.16901,0.57216 0.50238,1.6994 0.16901,0.5706 0.18295,0.56594 0.54425,1.68081 0.18297,0.5644 0.19537,0.56129 0.58456,1.66219 0.19537,0.55818 0.20932,0.55356 0.62331,1.64359 0.20933,0.55199 0.22173,0.54735 0.6621,1.62342 0.22171,0.54579 0.23569,0.54114 0.6993,1.60327 0.23414,0.53805 0.24808,0.53338 0.73806,1.58157 0.24653,0.53183 0.2605,0.52564 0.77373,1.5614 0.25894,0.52408 0.27289,0.5179 0.81093,1.53969 0.27136,0.51633 0.28374,0.50858 0.84661,1.51798 0.28375,0.50859 0.29616,0.50082 0.88071,1.49474 0.29459,0.49927 0.30701,0.49308 0.91638,1.47146 0.30701,0.49153 0.31941,0.48533 0.94894,1.44665 0.31785,0.48378 0.33028,0.47602 0.98304,1.4203 0.33027,0.47601 0.33957,0.46672 1.01716,1.39704 0.33957,0.46672 0.35198,0.45742 1.04816,1.37067 0.35043,0.45742 0.36283,0.44966 1.08074,1.34433 0.36126,0.44811 0.37214,0.44034 1.11174,1.31643 0.37213,0.44034 0.38144,0.43107 1.1443,1.28849 0.38145,0.43106 0.39229,0.42174 1.17368,1.2606 0.39229,0.42176 0.40159,0.41088 1.20323,1.2327 0.4016,0.41244 0.41244,0.40161 1.23269,1.20321 0.41089,0.40159 0.42175,0.39229 1.26059,1.17377 0.42175,0.39228 0.42951,0.38145 1.29006,1.14275 0.43105,0.38298 0.43881,0.37059 1.31796,1.11329 0.4388,0.37212 0.44967,0.36128 1.34432,1.08074 0.44811,0.36128 0.45896,0.35041 1.36912,1.04974 0.45897,0.35196 0.46672,0.33957 1.39549,1.01717 0.46826,0.33958 0.47447,0.3287 1.42186,0.9846 0.47602,0.32873 0.48377,0.31785 1.44667,0.9505 0.4853,0.31941 0.49154,0.30546 1.46993,0.91638 0.49306,0.307 0.50082,0.29615 1.49474,0.88072 0.50083,0.29614 0.50858,0.28375 1.51644,0.8466 0.51013,0.28375 0.51632,0.27135 1.53969,0.81094 0.51789,0.27135 0.5241,0.26048 1.5614,0.77374 0.52564,0.2605 0.53027,0.24652 1.58312,0.73649 0.53339,0.2481 0.53803,0.2357 1.60327,0.69929 0.53959,0.23567 0.5458,0.22173 1.62497,0.66054 0.5458,0.22327 0.55199,0.20933 1.64513,0.62178 0.55356,0.21087 0.55819,0.19538 1.66219,0.58299 0.55975,0.19692 0.56439,0.18298 1.68235,0.54267 0.56595,0.18297 0.5706,0.16902 1.6994,0.50392 0.57061,0.16901 0.57681,0.15507 1.71645,0.46205 0.5768,0.15661 0.58146,0.1411 1.7335,0.4202 0.58147,0.14109 0.58456,0.12715 1.75057,0.37989 0.5861,0.12714 0.5892,0.11164 1.76608,0.33647 0.59077,0.11319 0.59385,0.0977 1.78004,0.29304 0.59385,0.0977 0.59697,0.0837 1.79553,0.24965 0.59697,0.0822 0.60006,0.0683 1.80949,0.20622 0.60005,0.0683 0.60007,0.0527 1.82499,0.16126 0.60006,0.0527 0.60318,0.0386 1.8374,0.11473 0.60315,0.0388 0.60317,0.0216 1.84981,0.0697 0.60315,0.0233 0.60473,0.008 1.86065,0.0233 0.30235,0.005 0.30236,0 111.84496,0 7.74034,-0.62797 7.53722,-1.86687 7.13718,-3.05613 6.55261,-4.16787 5.79441,-5.16798 4.88733,-6.03474 3.85002,-6.74333 2.71346,-7.27519 1.50558,-7.61783 0.25739,-7.76051 -0.99545,-7.70001 -2.22349,-7.43954 -3.3926,-6.98522 -4.47488,-6.34485 -5.43777,-5.5432 -6.26112,-4.59275 -6.91855,-3.52593 -7.39613,-2.36305 -7.67987,-1.14119 -3.19568,-0.10544 -111.48989,0 -1.01559,-0.0124 -0.659,-0.0264 -0.61402,-0.0386 -0.5954,-0.0527 -0.66054,-0.0744 -0.54734,-0.076 -0.65122,-0.107 -0.5303,-0.10233 -0.60782,-0.1318 -0.5799,-0.13955 -0.53493,-0.14419 -0.58147,-0.17212 -0.52873,-0.17055 -0.52719,-0.18607 -0.57525,-0.21708 -0.52563,-0.21397 -0.53959,-0.23567 -0.51014,-0.23725 -0.50239,-0.24965 -0.52407,-0.276 -0.50238,-0.27909 -0.45276,-0.26823 -0.50858,-0.31634 -0.48223,-0.3163 -0.46205,-0.32096 -0.46827,-0.34112 -0.445,-0.34112 -0.42021,-0.33803 -0.45896,-0.38609 -0.43725,-0.38762 -0.41866,-0.38919 -0.40778,-0.39851 -0.39849,-0.40778 -0.3892,-0.41865 -0.39848,-0.44966 -0.33648,-0.39847 -0.38452,-0.47758 -0.33339,-0.43571 -0.33491,-0.45897 -0.33956,-0.49152 -0.31477,-0.47756 -0.28221,-0.45279 -0.31474,-0.53492 -0.26982,-0.48687 -0.26358,-0.49773 -0.26515,-0.53648 -0.21242,-0.45742 -0.24808,-0.56905 -0.20934,-0.51168 -0.2,-0.52873 -0.20003,-0.57061 -0.17521,-0.54114 -0.16902,-0.56904 -0.1535,-0.57216 -0.13333,-0.54889 -0.12717,-0.58921 -0.10853,-0.56441 -0.0992,-0.60315 -0.0852,-0.61868 -0.0683,-0.60626 -0.0543,-0.6109 -0.0418,-0.6559 -0.0233,-0.59697 -0.0124,-1.03574 0,-111.07926 -0.62797,-7.74034 -1.86532,-7.53721 -3.05768,-7.13719 -4.16631,-6.55261 -5.16798,-5.7944 -6.03475,-4.88733 -6.74333,-3.85002 -7.27518,-2.713457 -7.61786,-1.505579 -7.76049,-0.257393 z"
     style="color:#000000;font-style:normal;font-variant:normal;font-weight:normal;font-stretch:normal;font-size:medium;line-height:normal;font-family:sans-serif;text-indent:0;text-align:start;text-decoration:none;text-decoration-line:none;text-decoration-style:solid;text-decoration-color:#000000;letter-spacing:normal;word-spacing:normal;text-transform:none;direction:ltr;block-progression:tb;writing-mode:lr-tb;baseline-shift:baseline;text-anchor:start;white-space:normal;clip-rule:nonzero;display:inline;overflow:visible;visibility:visible;opacity:1;isolation:auto;mix-blend-mode:normal;color-interpolation:sRGB;color-interpolation-filters:linearRGB;solid-color:#000000;solid-opacity:1;fill:#000000;fill-opacity:1;fill-rule:nonzero;stroke:none;stroke-width:121;stroke-linecap:round;stroke-linejoin:miter;stroke-miterlimit:6.4000001;stroke-dasharray:484, 242;stroke-dashoffset:931.70001221;stroke-opacity:1;color-rendering:auto;image-rendering:auto;shape-rendering:auto;text-rendering:auto;enable-background:accumulate" />
  <path
     sodipodi:nodetypes="ccccccccccccccccccccccccccccccccccccccccccccccccccccccccccccccccccccccccccccccccccccccccccccccccccccccccccccccccccccccccccccccccccccccccccccccccccccccccccccccccccccccccccccccccccccccccccccccccccccccccccccccccccccccccccccccccccccccccccccccccccccccccccccccccccccccccccccccccccccccccccccccccccccccccccccccc"
     inkscape:connector-curvature="0"
     id="path5001"
     d="m 339.54508,901.16902 7.43954,-2.2235 6.98367,-3.39259 6.34638,-4.47487 5.54168,-5.43778 4.59428,-6.26112 3.52438,-6.91855 2.36303,-7.39611 1.14122,-7.67987 0.10699,-3.19567 0,-111.43433 0,-0.30236 -0.004,-0.30081 -0.0233,-1.8622 -0.008,-0.60472 -0.0216,-0.60315 -0.0697,-1.8498 -0.0233,-0.60317 -0.0388,-0.60317 -0.11476,-1.83741 -0.0387,-0.6016 -0.0527,-0.60162 -0.16124,-1.82345 -0.0527,-0.60161 -0.0683,-0.60006 -0.20466,-1.80949 -0.0683,-0.5985 -0.0837,-0.59697 -0.24964,-1.79709 -0.0837,-0.59541 -0.0977,-0.59386 -0.29305,-1.78158 -0.0977,-0.59386 -0.11319,-0.58922 -0.33646,-1.76607 -0.11165,-0.58921 -0.12714,-0.58765 -0.3799,-1.74902 -0.12558,-0.58612 -0.14266,-0.58145 -0.42019,-1.73352 -0.1411,-0.58144 -0.15506,-0.57682 -0.46362,-1.71646 -0.15505,-0.57524 -0.16901,-0.57216 -0.50238,-1.6994 -0.169,-0.5706 -0.18296,-0.56594 -0.54424,-1.68081 -0.18297,-0.5644 -0.19537,-0.56129 -0.58457,-1.66219 -0.19537,-0.55818 -0.20932,-0.55357 -0.62331,-1.64358 -0.20932,-0.55199 -0.22174,-0.54736 -0.66209,-1.62341 -0.22172,-0.54579 -0.23569,-0.54115 -0.6993,-1.60326 -0.23414,-0.53805 -0.24808,-0.53338 -0.73806,-1.58157 -0.24652,-0.53183 -0.26051,-0.52564 -0.77373,-1.5614 -0.25893,-0.52408 -0.27289,-0.5179 -0.81094,-1.53969 -0.27136,-0.51632 -0.28374,-0.50859 -0.8466,-1.51799 -0.28376,-0.50858 -0.29615,-0.50082 -0.88071,-1.49474 -0.2946,-0.49927 -0.30701,-0.49308 -0.91638,-1.47146 -0.30701,-0.49153 -0.3194,-0.48532 -0.94895,-1.44665 -0.31785,-0.48379 -0.33027,-0.47602 -0.98304,-1.4203 -0.33028,-0.47602 -0.33957,-0.46671 -1.01714,-1.39703 -0.33959,-0.46672 -0.35197,-0.45742 -1.04817,-1.37067 -0.35043,-0.45742 -0.36282,-0.44967 -1.08075,-1.34434 -0.36126,-0.4481 -0.37213,-0.44034 -1.11174,-1.31643 -0.37214,-0.44034 -0.38143,-0.43107 -1.14431,-1.28849 -0.38145,-0.43106 -0.39229,-0.42174 -1.17368,-1.2606 -0.39229,-0.42176 -0.40159,-0.41088 -1.20323,-1.23269 -0.4016,-0.41245 -0.41244,-0.40161 -1.23267,-1.20321 -0.41091,-0.40159 -0.42175,-0.39229 -1.26059,-1.17376 -0.42175,-0.39229 -0.42951,-0.38144 -1.29006,-1.14277 -0.43104,-0.38296 -0.43881,-0.37059 -1.31797,-1.11329 -0.4388,-0.37213 -0.44967,-0.36128 -1.34432,-1.08074 -0.4481,-0.36128 -0.45896,-0.35041 -1.36913,-1.04974 -0.45897,-0.35196 -0.46671,-0.33957 -1.3955,-1.01717 -0.46825,-0.33956 -0.47448,-0.32871 -1.42186,-0.9846 -0.47602,-0.32872 -0.48376,-0.31787 -1.44667,-0.95049 -0.48531,-0.3194 -0.49154,-0.30547 -1.46992,-0.91638 -0.49307,-0.30701 -0.50082,-0.29614 -1.49474,-0.88072 -0.50083,-0.29614 -0.50858,-0.28376 -1.51643,-0.8466 -0.51014,-0.28374 -0.51632,-0.27136 -1.53969,-0.81094 -0.51789,-0.27133 -0.52409,-0.26049 -1.5614,-0.77374 -0.52565,-0.26048 -0.53027,-0.24655 -1.58311,-0.73649 -0.53338,-0.24811 -0.53805,-0.23569 -1.60327,-0.69929 -0.53959,-0.23567 -0.5458,-0.22174 -1.62496,-0.66053 -0.5458,-0.22327 -0.552,-0.20934 -1.64513,-0.62177 -0.55355,-0.21086 -0.55819,-0.19538 -1.6622,-0.583 -0.55974,-0.19692 -0.5644,-0.18298 -1.68234,-0.54268 -0.56596,-0.18297 -0.5706,-0.16901 -1.6994,-0.50392 -0.57061,-0.16901 -0.57681,-0.15505 -1.71645,-0.46207 -0.5768,-0.15662 -0.58145,-0.14109 -1.73351,-0.4202 -0.58146,-0.14109 -0.58456,-0.12715 -1.75058,-0.37989 -0.58609,-0.12714 -0.58921,-0.11163 -1.76608,-0.33648 -0.59077,-0.11319 -0.59385,-0.0977 -1.78004,-0.29304 -0.59385,-0.0977 -0.59697,-0.0837 -1.79552,-0.24965 -0.59697,-0.0822 -0.60007,-0.0683 -1.80949,-0.20622 -0.60004,-0.0683 -0.60008,-0.0527 -1.82498,-0.16127 -0.60007,-0.0527 -0.60318,-0.0386 -1.83739,-0.11473 -0.60316,-0.0388 -0.60317,-0.0216 -1.84981,-0.0697 -0.60315,-0.0233 -0.60472,-0.008 -1.86066,-0.0233 -0.30235,-0.004 -0.30236,0 -111.84496,0 -7.74034,0.62797 -7.53721,1.86687 -7.13718,3.05613 -6.55262,4.16787 -5.7944,5.16798 -4.88733,6.03474 -3.85001,6.74333 -2.713465,7.27519 -1.505588,7.61784 -0.257384,7.7605 0.995447,7.70002 2.22349,7.43953 3.3926,6.98523 4.47488,6.34484 5.43778,5.5432 6.26112,4.59275 6.91854,3.52593 7.39612,2.36305 7.67988,1.1412 3.19567,0.10543 111.48989,0 1.01559,0.0124 0.65901,0.0264 0.61401,0.0388 0.5954,0.0527 0.66054,0.0744 0.54734,0.0759 0.65123,0.107 0.53029,0.10233 0.60783,0.1318 0.57989,0.13955 0.53493,0.14419 0.58147,0.17213 0.52873,0.17055 0.52719,0.18606 0.57525,0.21709 0.52564,0.21397 0.5396,0.23568 0.51012,0.23725 0.50239,0.24963 0.52408,0.27601 0.50237,0.27908 0.45276,0.26823 0.5086,0.31635 0.48221,0.3163 0.46205,0.32096 0.46827,0.34112 0.44501,0.34112 0.4202,0.33803 0.45896,0.38609 0.43725,0.38762 0.41867,0.38919 0.40777,0.39851 0.3985,0.40778 0.38919,0.41865 0.39849,0.44966 0.33647,0.39847 0.38453,0.47758 0.33338,0.43571 0.33492,0.45898 0.33955,0.49151 0.31477,0.47756 0.28221,0.45277 0.31475,0.53494 0.26981,0.48687 0.26358,0.49773 0.26515,0.53648 0.21242,0.45742 0.24809,0.56905 0.20933,0.51167 0.2,0.52874 0.20003,0.57061 0.17522,0.54114 0.16901,0.56904 0.1535,0.57216 0.13335,0.54889 0.12715,0.58921 0.10853,0.56441 0.0992,0.60316 0.0852,0.61867 0.0683,0.60627 0.0543,0.61091 0.0419,0.65588 0.0233,0.59697 0.0124,1.03575 0,111.07925 0.62797,7.74033 1.86532,7.53722 3.05769,7.13719 4.16631,6.55262 5.16797,5.79439 6.03475,4.88733 6.74333,3.85002 7.27518,2.71344 7.61787,1.5056 7.76048,0.25739 z"
     style="color:#000000;font-style:normal;font-variant:normal;font-weight:normal;font-stretch:normal;font-size:medium;line-height:normal;font-family:sans-serif;text-indent:0;text-align:start;text-decoration:none;text-decoration-line:none;text-decoration-style:solid;text-decoration-color:#000000;letter-spacing:normal;word-spacing:normal;text-transform:none;direction:ltr;block-progression:tb;writing-mode:lr-tb;baseline-shift:baseline;text-anchor:start;white-space:normal;clip-rule:nonzero;display:inline;overflow:visible;visibility:visible;opacity:1;isolation:auto;mix-blend-mode:normal;color-interpolation:sRGB;color-interpolation-filters:linearRGB;solid-color:#000000;solid-opacity:1;fill:#000000;fill-opacity:1;fill-rule:nonzero;stroke:none;stroke-width:121;stroke-linecap:round;stroke-linejoin:miter;stroke-miterlimit:6.4000001;stroke-dasharray:484, 242;stroke-dashoffset:931.70001221;stroke-opacity:1;color-rendering:auto;image-rendering:auto;shape-rendering:auto;text-rendering:auto;enable-background:accumulate" />
  <path
     style="color:#000000;font-style:normal;font-variant:normal;font-weight:normal;font-stretch:normal;font-size:medium;line-height:normal;font-family:sans-serif;text-indent:0;text-align:start;text-decoration:none;text-decoration-line:none;text-decoration-style:solid;text-decoration-color:#000000;letter-spacing:normal;word-spacing:normal;text-transform:none;direction:ltr;block-progression:tb;writing-mode:lr-tb;baseline-shift:baseline;text-anchor:start;white-space:normal;clip-rule:nonzero;display:inline;overflow:visible;visibility:visible;opacity:1;isolation:auto;mix-blend-mode:normal;color-interpolation:sRGB;color-interpolation-filters:linearRGB;solid-color:#000000;solid-opacity:1;fill:#000000;fill-opacity:1;fill-rule:nonzero;stroke:none;stroke-width:121;stroke-linecap:round;stroke-linejoin:miter;stroke-miterlimit:6.4000001;stroke-dasharray:484, 242;stroke-dashoffset:931.70001221;stroke-opacity:1;color-rendering:auto;image-rendering:auto;shape-rendering:auto;text-rendering:auto;enable-background:accumulate"
     d="m 660.45502,901.16903 -7.43953,-2.2235 -6.98369,-3.39259 -6.34639,-4.47488 -5.54166,-5.43778 -4.59428,-6.26112 -3.52439,-6.91855 -2.36303,-7.39611 -1.14121,-7.67987 -0.10699,-3.19567 0,-111.43432 0,-0.30237 0.005,-0.30081 0.0233,-1.8622 0.008,-0.60472 0.0216,-0.60315 0.0697,-1.8498 0.0233,-0.60317 0.0388,-0.60317 0.11474,-1.8374 0.0387,-0.60161 0.0527,-0.60162 0.16125,-1.82345 0.0527,-0.60161 0.0683,-0.60006 0.20467,-1.80949 0.0683,-0.5985 0.0837,-0.59697 0.24963,-1.79708 0.0837,-0.59541 0.0977,-0.59387 0.29305,-1.78158 0.0977,-0.59385 0.1132,-0.58922 0.33646,-1.76608 0.11164,-0.5892 0.12714,-0.58766 0.3799,-1.74901 0.12558,-0.58613 0.14266,-0.58144 0.4202,-1.73352 0.14109,-0.58144 0.15506,-0.57683 0.46363,-1.71645 0.15504,-0.57524 0.16901,-0.57216 0.50238,-1.6994 0.16901,-0.57061 0.18295,-0.56594 0.54425,-1.6808 0.18297,-0.5644 0.19537,-0.56129 0.58456,-1.66219 0.19537,-0.55818 0.20932,-0.55357 0.62331,-1.64359 0.20933,-0.55198 0.22173,-0.54735 0.6621,-1.62343 0.22171,-0.54578 0.23569,-0.54116 0.6993,-1.60326 0.23414,-0.53805 0.24808,-0.53338 0.73806,-1.58157 0.24653,-0.53183 0.2605,-0.52564 0.77373,-1.5614 0.25894,-0.52408 0.27289,-0.5179 0.81093,-1.53969 0.27136,-0.51632 0.28374,-0.50859 0.84661,-1.51799 0.28375,-0.50858 0.29616,-0.50082 0.88071,-1.49474 0.29459,-0.49927 0.30701,-0.49308 0.91638,-1.47146 0.30701,-0.49153 0.31941,-0.48532 0.94894,-1.44665 0.31785,-0.48379 0.33028,-0.47602 0.98304,-1.42028 0.33027,-0.47603 0.33957,-0.46671 1.01716,-1.39704 0.33957,-0.46672 0.35198,-0.45742 1.04816,-1.37067 0.35043,-0.45742 0.36283,-0.44967 1.08074,-1.34434 0.36126,-0.44808 0.37214,-0.44036 1.11174,-1.31643 0.37213,-0.44034 0.38144,-0.43107 1.1443,-1.28848 0.38145,-0.43107 0.39229,-0.42174 1.17368,-1.26059 0.39229,-0.42176 0.40159,-0.41088 1.20323,-1.2327 0.4016,-0.41243 0.41244,-0.40162 1.23269,-1.2032 0.41089,-0.4016 0.42175,-0.39228 1.26059,-1.17377 0.42175,-0.39229 0.42951,-0.38144 1.29006,-1.14276 0.43105,-0.38297 0.43881,-0.37059 1.31796,-1.1133 0.4388,-0.37213 0.44967,-0.36127 1.34432,-1.08074 0.44811,-0.36128 0.45896,-0.35041 1.36912,-1.04974 0.45897,-0.35196 0.46672,-0.33958 1.39549,-1.01717 0.46826,-0.33955 0.47447,-0.32872 1.42186,-0.98459 0.47602,-0.32873 0.48377,-0.31786 1.44667,-0.95048 0.4853,-0.31942 0.49154,-0.30546 1.46993,-0.91636 0.49306,-0.30703 0.50082,-0.29614 1.49474,-0.88073 0.50083,-0.29613 0.50858,-0.28376 1.51644,-0.8466 0.51013,-0.28375 0.51632,-0.27135 1.53969,-0.81094 0.51789,-0.27134 0.5241,-0.26049 1.5614,-0.77373 0.52564,-0.26048 0.53027,-0.24655 1.58312,-0.73649 0.53339,-0.24811 0.53803,-0.23568 1.60327,-0.69929 0.53959,-0.23568 0.5458,-0.22174 1.62497,-0.66053 0.5458,-0.22328 0.55199,-0.20933 1.64513,-0.62177 0.55356,-0.21087 0.55819,-0.19538 1.66219,-0.58299 0.55975,-0.19692 0.56439,-0.18298 1.68235,-0.54268 0.56595,-0.18297 0.5706,-0.16901 1.6994,-0.50392 0.57061,-0.16902 0.57681,-0.15504 1.71645,-0.46207 0.5768,-0.15662 0.58146,-0.14109 1.7335,-0.4202 0.58147,-0.14109 0.58456,-0.12715 1.75057,-0.37989 0.5861,-0.12715 0.5892,-0.11163 1.76608,-0.33647 0.59077,-0.11318 0.59385,-0.0977 1.78004,-0.29304 0.59385,-0.0977 0.59697,-0.0837 1.79553,-0.24966 0.59697,-0.0822 0.60006,-0.0683 1.80949,-0.20622 0.60005,-0.0683 0.60007,-0.0527 1.82499,-0.16127 0.60006,-0.0527 0.60318,-0.0386 1.8374,-0.11473 0.60315,-0.0388 0.60317,-0.0216 1.84981,-0.0697 0.60315,-0.0233 0.60473,-0.008 1.86065,-0.0233 0.30235,-0.004 0.30236,0 111.84496,0 7.74034,0.62797 7.53722,1.86687 7.13718,3.05613 6.55261,4.16787 5.79441,5.16798 4.88733,6.03474 3.85002,6.74333 2.71346,7.27519 1.50558,7.61784 0.25739,7.7605 -0.99545,7.70001 -2.22349,7.43954 -3.3926,6.98523 -4.47488,6.34484 -5.43777,5.5432 -6.26112,4.59275 -6.91855,3.52593 -7.39613,2.36305 -7.67987,1.1412 -3.19568,0.10543 -111.48989,0 -1.01559,0.0124 -0.659,0.0264 -0.61402,0.0388 -0.5954,0.0527 -0.66054,0.0744 -0.54734,0.0759 -0.65122,0.107 -0.5303,0.10233 -0.60782,0.1318 -0.5799,0.13955 -0.53493,0.14419 -0.58147,0.17213 -0.52873,0.17054 -0.52719,0.18607 -0.57525,0.21708 -0.52563,0.21397 -0.53959,0.23568 -0.51014,0.23725 -0.50239,0.24964 -0.52407,0.27599 -0.50238,0.2791 -0.45276,0.26823 -0.50858,0.31634 -0.48223,0.3163 -0.46205,0.32097 -0.46827,0.34111 -0.445,0.34113 -0.42021,0.33803 -0.45896,0.38608 -0.43725,0.38763 -0.41866,0.38919 -0.40778,0.3985 -0.39849,0.40779 -0.3892,0.41865 -0.39848,0.44966 -0.33648,0.39846 -0.38452,0.47759 -0.33339,0.43571 -0.33491,0.45898 -0.33956,0.4915 -0.31477,0.47756 -0.28221,0.45278 -0.31474,0.53493 -0.26982,0.48688 -0.26358,0.49773 -0.26515,0.53648 -0.21242,0.45742 -0.24808,0.56905 -0.20934,0.51167 -0.2,0.52874 -0.20003,0.57061 -0.17521,0.54114 -0.16902,0.56904 -0.1535,0.57216 -0.13333,0.54889 -0.12717,0.58921 -0.10853,0.56441 -0.0992,0.60316 -0.0852,0.61867 -0.0683,0.60627 -0.0543,0.61091 -0.0418,0.65588 -0.0233,0.59697 -0.0124,1.03575 0,111.07925 -0.62797,7.74033 -1.86532,7.53722 -3.05768,7.13719 -4.16631,6.55262 -5.16798,5.79439 -6.03475,4.88733 -6.74333,3.85002 -7.27518,2.71344 -7.61786,1.5056 -7.76049,0.25739 z"
     id="path5003"
     inkscape:connector-curvature="0"
     sodipodi:nodetypes="ccccccccccccccccccccccccccccccccccccccccccccccccccccccccccccccccccccccccccccccccccccccccccccccccccccccccccccccccccccccccccccccccccccccccccccccccccccccccccccccccccccccccccccccccccccccccccccccccccccccccccccccccccccccccccccccccccccccccccccccccccccccccccccccccccccccccccccccccccccccccccccccccccccccccccccccc" />
</svg>
