<svg xmlns="http://www.w3.org/2000/svg" viewBox="160 160 320 320"><!--!Font Awesome Free 7.1.0 by @fontawesome - https://fontawesome.com License - https://fontawesome.com/license/free Copyright 2025 Fonticons, Inc.--><path d="M503.5 71c9.4-9.4 24.6-9.4 33.9 0l32 32c9.4 9.4 9.4 24.6 0 33.9l-87 87 39 39c6.9 6.9 8.9 17.2 5.2 26.2S514.2 304 504.5 304h-144c-13.3 0-24-10.7-24-24V136c0-9.7 5.8-18.5 14.8-22.2s19.3-1.7 26.2 5.2l39 39zm-367 265h144c13.3 0 24 10.7 24 24v144c0 9.7-5.8 18.5-14.8 22.2s-19.3 1.7-26.2-5.2l-39-39-87 87c-9.4 9.4-24.6 9.4-33.9 0l-32-32c-9.4-9.4-9.4-24.6 0-33.9l87-87-39-39c-6.9-6.9-8.9-17.2-5.2-26.2s12.4-14.9 22.1-14.9"/></svg>