<svg xmlns="http://www.w3.org/2000/svg" width="1000" height="1000" viewBox="0 0 1000 1000"><path style="line-height:normal;text-indent:0;text-align:start;text-decoration-line:none;text-decoration-style:solid;text-decoration-color:#000;text-transform:none;block-progression:tb;isolation:auto;mix-blend-mode:normal" d="M184.688 28.373l-.55-.012-2.343.03-.762.01-.76.029-2.33.088-.76.027-.76.049-2.314.144-.76.05-.755.066-2.3.203-.755.066-.756.086-2.28.26-.755.086-.752.103-2.262.315-.752.105-.748.123-2.242.37-.748.122-.744.143-2.225.424-.742.14-.738.16-2.205.48-.736.16-.733.177-2.184.53-.732.177-.726.197-2.163.582-.726.196-.719.213-2.14.634-.72.213-.712.23-2.12.684-.71.23-.705.249-2.094.734-.703.246-.697.266-2.073.783-.695.264-.688.281-2.046.832-.688.28-.68.296-2.02.881-.677.297-.672.312-1.994.928-.668.31-.662.329-1.967.974-.66.329-.652.341-1.94 1.022-.65.342-.643.357-1.91 1.066-.64.358-.631.373-1.883 1.11-.631.372-.621.387-1.852 1.154-.619.385-.611.402-1.822 1.198-.61.4-.6.414-1.79 1.24-.598.415-.59.427-1.758 1.281-.588.428-.578.444-1.724 1.322-.578.441-.565.455-1.693 1.362-.567.455-.552.468-1.66 1.403-.553.467-.543.482-1.625 1.44-.541.48-.532.494-1.587 1.479-.532.494-.517.506-1.553 1.515-.52.506-.505.52L76 74.61l-.506.518-.494.531-1.479 1.588-.494.531-.48.543-1.442 1.623-.48.543-.469.555-1.4 1.658-.469.555-.455.564-1.361 1.694-.457.566-.442.576-1.32 1.727-.443.576-.428.588-1.281 1.76-.428.588-.416.6-1.238 1.788-.416.6-.4.61-1.196 1.821-.402.612-.387.619-1.154 1.853-.387.622-.371.628-1.11 1.883-.373.631-.357.64-1.067 1.913-.357.64-.342.65-1.021 1.94-.344.653-.326.66-.975 1.967-.328.662-.31.67-.93 1.992-.313.672-.295.677-.88 2.02-.297.682-.28.687-.834 2.045-.279.69-.264.695-.785 2.07-.263.697-.246.704-.737 2.093-.246.707-.23.711-.686 2.117-.23.713-.213.719-.633 2.14-.213.721-.195.725-.584 2.162-.196.727-.177.732-.53 2.184-.18.732-.158.738-.478 2.204-.16.74-.14.742-.425 2.225-.142.742-.123.748-.37 2.244-.122.748-.106.75-.314 2.264-.106.752-.086.753-.258 2.28-.086.756-.066.757-.203 2.297-.066.758-.05.758-.144 2.314-.049.76-.029.76-.088 2.33-.027.76-.01.762-.03 2.345-.005.38V369.784l.79 9.748 2.352 9.494 3.85 8.99 5.25 8.254 6.51 7.3 7.601 6.156 8.494 4.85 9.165 3.417 9.593 1.897 9.776.324 9.7-1.254 9.372-2.8 8.797-4.274 7.994-5.637 6.982-6.85 5.786-7.884 4.439-8.717 2.978-9.317 1.438-9.673.133-4.024v-189.92l.015-1.304.03-.752.052-.827.069-.77.086-.763.107-.78.125-.759.137-.71.16-.743.168-.691.193-.721.213-.717.22-.682.253-.718.252-.666.263-.645.313-.717.268-.576.334-.676.332-.627.34-.613.396-.674.355-.57.397-.601.428-.62.421-.578.42-.549.485-.601.424-.502.502-.567.49-.527.502-.514.513-.501.528-.49.55-.489.579-.486.529-.426.56-.43.59-.43.582-.404.608-.398.64-.399.57-.338.634-.351.66-.348.633-.314.642-.299.68-.297.662-.27.725-.273.664-.234.666-.215.732-.217.674-.182.73-.175.766-.166.668-.13.82-.134.69-.096.832-.093.75-.067.75-.049.906-.033 1.227-.015h164.436l9.75-.79 9.494-2.351 8.99-3.852 8.254-5.248 7.3-6.51 6.154-7.601 4.851-8.494 3.416-9.164 1.897-9.596.326-9.775-1.254-9.7-2.8-9.37-4.274-8.8-5.637-7.994-6.85-6.98-7.886-5.785-8.715-4.442-9.317-2.976-9.675-1.438-4.024-.134H184.9zm485.78.773l-9.494 2.352-8.993 3.85-8.252 5.25-7.3 6.51-6.155 7.601-4.85 8.494-3.417 9.164-1.897 9.596-.326 9.775 1.254 9.7 2.8 9.37 4.276 8.8 5.635 7.992 6.852 6.982 7.884 5.785 8.715 4.442 9.319 2.976 9.673 1.438 4.024.132h134.436l1.227.016.906.033.75.05.75.065.832.094.69.096.82.135.668.129.766.166.73.175.674.182.732.217.666.215.664.234.725.273.662.27.68.297.642.299.633.314.66.348.633.351.57.338.641.399.607.398.582.404.59.43.56.43.53.426.578.486.551.488.527.49.514.502.502.514.49.527.502.567.424.502.484.601.42.55.422.577.428.62.396.6.356.571.396.674.34.613.332.627.334.676.268.576.312.717.264.645.252.666.252.718.22.682.214.717.193.72.168.692.16.742.137.711.125.76.107.78.086.763.068.77.053.825.03.752.015 1.305v179.92l.791 9.747 2.35 9.494 3.851 8.993 5.248 8.252 6.51 7.3 7.602 6.155 8.494 4.85 9.164 3.417 9.596 1.897 9.775.326 9.701-1.254 9.371-2.8 8.797-4.276 7.994-5.635 6.98-6.852 5.788-7.884 4.44-8.715 2.976-9.317 1.437-9.675.135-4.024V179.037l-.006-.379-.03-2.346-.01-.761-.027-.76-.088-2.33-.029-.76-.049-.76-.144-2.314-.049-.758-.066-.758-.203-2.297-.067-.757-.086-.756-.258-2.28-.086-.754-.105-.751-.314-2.264-.106-.75-.123-.748-.37-2.244-.122-.748-.143-.743-.424-2.224-.14-.742-.16-.74-.479-2.204-.158-.738-.18-.732-.529-2.184-.178-.732-.195-.727-.584-2.162-.195-.725-.213-.72-.633-2.141-.213-.719-.23-.713-.686-2.117-.23-.71-.247-.708-.736-2.094-.246-.703-.264-.697-.785-2.07-.263-.696-.28-.69-.834-2.044-.279-.688-.297-.681-.88-2.02-.296-.677-.312-.672-.93-1.992-.31-.67-.329-.663-.974-1.966-.326-.66-.344-.653-1.022-1.94-.341-.65-.358-.64-1.066-1.912-.358-.641-.373-.63-1.109-1.884-.371-.629-.387-.62-1.154-1.854-.387-.62-.402-.61-1.196-1.823-.4-.61-.416-.599-1.238-1.789-.416-.6-.428-.587-1.281-1.76-.428-.588-.443-.576-1.32-1.727-.442-.576-.457-.566-1.361-1.694-.455-.564-.47-.555-1.4-1.658-.468-.555-.48-.543-1.442-1.623-.48-.543-.495-.531L925 75.66l-.494-.531-.506-.518-1.516-1.552-.505-.52-.52-.506-1.553-1.515-.517-.506-.532-.494-1.587-1.479-.532-.494-.54-.48-1.626-1.44-.543-.482-.552-.467-1.66-1.403-.553-.468-.567-.455-1.693-1.362-.565-.455-.578-.441-1.724-1.322-.578-.444-.588-.428-1.758-1.28-.59-.429-.598-.414-1.79-1.24-.6-.414-.61-.4-1.822-1.198-.611-.402-.62-.385-1.85-1.154-.622-.387-.63-.373-1.884-1.11-.63-.372-.641-.358-1.91-1.066-.643-.357-.65-.342-1.94-1.022-.652-.341-.66-.329-1.967-.974-.662-.328-.668-.31-1.994-.929-.672-.312-.678-.297-2.02-.88-.68-.298-.687-.279-2.046-.832-.688-.281-.695-.264-2.073-.783-.697-.266-.703-.246-2.094-.734-.705-.248-.71-.23-2.12-.684-.713-.23-.718-.214-2.141-.635-.719-.212-.726-.196-2.163-.582-.726-.197-.733-.178-2.183-.529-.733-.178-.736-.16-2.205-.478-.738-.16-.742-.141-2.225-.424-.744-.143-.748-.123-2.242-.369-.748-.123-.752-.105-2.262-.315-.752-.103-.756-.086-2.28-.26-.755-.086-.756-.066-2.299-.203-.756-.067-.76-.049-2.314-.144-.76-.05-.76-.026-2.33-.088-.76-.03-.76-.01-2.345-.029-.38-.006H680.215zM893.08 621.038l-9.371 2.801-8.797 4.273-7.994 5.637-6.982 6.85-5.786 7.886-4.44 8.715-2.978 9.317-1.437 9.676-.133 4.023v139.919l-.015 1.304-.03.752-.052.827-.069.77-.086.763-.107.78-.125.759-.137.71-.16.743-.168.691-.193.721-.213.717-.221.682-.252.718-.252.666-.264.645-.312.717-.268.576-.334.676-.332.627-.34.613-.396.674-.355.57-.397.602-.428.619-.422.578-.42.549-.484.601-.424.502-.502.567-.49.527-.502.514-.514.501-.527.49-.55.489-.579.486-.53.426-.56.43-.59.43-.581.404-.608.398-.64.399-.57.338-.634.351-.66.348-.633.314-.642.3-.68.296-.662.27-.725.273-.664.234-.666.215-.732.217-.674.182-.73.175-.766.166-.668.13-.82.134-.69.096-.832.093-.75.067-.773.049-.83.033-1.28.015H680.215l-9.748.79-9.494 2.351-8.99 3.852-8.254 5.248-7.3 6.51-6.156 7.601-4.85 8.494-3.417 9.164-1.897 9.596-.324 9.775 1.254 9.7 2.8 9.37 4.274 8.8 5.637 7.994 6.85 6.98 7.884 5.785 8.717 4.442 9.317 2.976 9.673 1.438 4.024.134H815.48l.381-.006 2.344-.029.762-.01.76-.03 2.33-.087.76-.027.76-.05 2.314-.144.76-.049.755-.066 2.3-.203.755-.066.756-.086 2.28-.26.755-.086.752-.104 2.262-.314.752-.105.748-.123 2.242-.37.748-.123.744-.142 2.225-.424.742-.14.738-.16 2.205-.48.737-.16.732-.177 2.184-.53.732-.177.727-.198 2.162-.582.726-.195.719-.213 2.14-.635.72-.212.712-.23 2.12-.685.71-.23.705-.248 2.094-.734.703-.246.698-.266 2.072-.783.695-.264.688-.281 2.046-.832.688-.28.68-.296 2.02-.881.677-.297.672-.313 1.994-.927.668-.311.662-.328 1.967-.975.66-.328.652-.342 1.94-1.021.65-.342.643-.357 1.91-1.067.64-.357.631-.373 1.883-1.11.631-.373.621-.386 1.852-1.155.619-.384.611-.403 1.822-1.197.61-.4.6-.414 1.79-1.24.598-.415.59-.427 1.758-1.282.588-.427.578-.444 1.724-1.322.579-.442.564-.455 1.693-1.36.567-.456.552-.469 1.66-1.402.553-.467.543-.482 1.625-1.44.541-.48.532-.494 1.587-1.479.532-.494.517-.506 1.553-1.516.52-.505.505-.52 1.516-1.553.506-.517.494-.531 1.479-1.588.494-.532.48-.543 1.442-1.623.48-.543.469-.554 1.4-1.658.469-.555.455-.565 1.361-1.693.457-.566.442-.577 1.32-1.726.443-.576.428-.588 1.281-1.76.428-.588.416-.6 1.238-1.789.416-.6.4-.608 1.196-1.823.403-.611.386-.62 1.155-1.853.386-.62.371-.63 1.11-1.883.373-.63.357-.641 1.067-1.912.357-.64.342-.651 1.021-1.94.344-.652.326-.66.975-1.967.328-.662.31-.67.93-1.992.313-.672.295-.678.88-2.02.297-.68.28-.688.834-2.045.279-.69.264-.695.785-2.07.263-.698.247-.703.736-2.094.246-.707.23-.71.686-2.118.23-.713.213-.718.633-2.141.213-.72.195-.725.584-2.162.196-.727.177-.732.53-2.184.18-.732.158-.739.478-2.203.16-.74.14-.742.425-2.225.142-.742.123-.748.37-2.244.123-.748.105-.75.314-2.264.106-.752.086-.754.258-2.28.086-.755.066-.758.203-2.297.066-.757.05-.758.144-2.315.049-.76.029-.76.088-2.33.027-.76.01-.76.03-2.347.005-.378V680.216l-.79-9.75-2.352-9.493-3.85-8.992-5.25-8.254-6.51-7.298-7.601-6.155-8.494-4.85-9.164-3.417-9.594-1.897-9.775-.326zm-811.324 0l-9.371 2.8-8.797 4.274-7.994 5.637-6.98 6.85-5.788 7.886-4.44 8.715-2.976 9.316-1.437 9.674-.135 4.026v140.746l.006.38.03 2.345.009.762.027.76.088 2.33.03.76.048.76.145 2.314.049.758.066.758.203 2.297.067.757.085.756.258 2.28.086.753.106.752.314 2.264.106.75.123.748.369 2.244.123.748.142.742.424 2.225.14.742.161.74.479 2.204.158.738.18.732.529 2.184.177.732.196.727.584 2.162.195.725.213.72.633 2.141.213.719.23.713.686 2.117.23.71.246.708.737 2.094.246.703.263.697.786 2.07.263.696.28.689.833 2.045.28.687.297.682.88 2.02.295.677.313.672.93 1.992.31.67.328.662.975 1.967.326.66.344.653 1.021 1.94.342.65.358.64 1.066 1.912.357.64.373.632 1.11 1.883.37.628.388.622 1.154 1.853.387.62.402.61 1.195 1.823.4.61.417.599 1.238 1.789.416.6.428.587 1.281 1.76.428.588.443.576 1.32 1.727.442.576.457.566 1.361 1.694.455.564.469.555 1.4 1.658.47.555.48.543 1.441 1.623.48.543.495.531L75 924.34l.494.531.506.518 1.516 1.552.505.52.52.506 1.553 1.515.517.506.532.494 1.587 1.479.532.494.54.48 1.626 1.44.543.482.552.467 1.66 1.403.553.468.567.455 1.693 1.362.565.455.578.441 1.724 1.322.578.444.588.428 1.758 1.28.59.429.598.414 1.79 1.24.6.414.61.4 1.822 1.198.611.402.62.385 1.85 1.154.622.387.63.373 1.884 1.11.63.372.641.358 1.91 1.066.643.357.65.342 1.94 1.022.652.341.66.329 1.967.974.662.328.668.31 1.994.929.672.312.678.297 2.02.88.68.298.687.279 2.046.832.688.281.695.264 2.073.783.697.266.703.246 2.094.734.705.248.71.23 2.12.684.713.23.718.214 2.141.635.719.212.726.196 2.163.582.726.197.733.178 2.183.529.733.178.736.16 2.205.478.738.16.742.141 2.225.424.744.143.748.123 2.242.369.748.123.752.105 2.262.315.752.103.756.086 2.28.26.755.086.756.066 2.299.203.756.067.76.049 2.314.144.76.049.76.027 2.33.088.76.03.76.01 2.345.029.38.006h165.265l9.75-.791 9.494-2.352 8.99-3.85 8.254-5.25 7.3-6.51 6.156-7.6 4.85-8.495 3.417-9.164 1.897-9.596.324-9.775-1.254-9.7-2.8-9.37-4.274-8.8-5.637-7.991-6.85-6.983-7.886-5.785-8.715-4.441-9.317-2.977-9.673-1.437-4.026-.133H185.348l-1.28-.016-.83-.033-.773-.049-.75-.066-.832-.094-.69-.096-.82-.134-.668-.13-.766-.165-.73-.176-.674-.182-.732-.217-.666-.214-.664-.235-.725-.273-.662-.27-.68-.297-.642-.298-.633-.315-.66-.348-.633-.351-.57-.338-.641-.398-.607-.399-.582-.404-.59-.43-.56-.43-.53-.425-.578-.487-.551-.488-.527-.49-.514-.502-.502-.514-.49-.527-.502-.567-.424-.502-.484-.601-.42-.549-.422-.578-.428-.62-.396-.6-.356-.571-.396-.674-.34-.613-.332-.627-.334-.676-.268-.576-.312-.717-.264-.644-.252-.666-.252-.72-.22-.68-.214-.718-.193-.72-.168-.692-.16-.742-.137-.71-.125-.76-.107-.78-.086-.764-.068-.77-.053-.825-.03-.752-.015-1.305v-139.92l-.791-9.75-2.35-9.493-3.851-8.99-5.248-8.254-6.51-7.3-7.602-6.156-8.494-4.85-9.164-3.417-9.596-1.897-9.775-.324z" color="#000" font-weight="400" font-family="sans-serif" white-space="normal" overflow="visible"/><rect width="564.407" height="572.034" x="217.797" y="213.983" rx="27" ry="27"/></svg>