<?xml version="1.0" encoding="UTF-8"?>
<svg version="1.1" viewBox="0 0 1000 1000" xmlns="http://www.w3.org/2000/svg" xmlns:cc="http://creativecommons.org/ns#" xmlns:dc="http://purl.org/dc/elements/1.1/" xmlns:rdf="http://www.w3.org/1999/02/22-rdf-syntax-ns#">
<metadata>
<rdf:RDF>
<cc:Work rdf:about="">
<dc:format>image/svg+xml</dc:format>
<dc:type rdf:resource="http://purl.org/dc/dcmitype/StillImage"/>
</cc:Work>
</rdf:RDF>
</metadata>
<g transform="matrix(1.0703 0 0 1.0524 -15.371 -27.76)">
<path d="m492.01 58.726c-65.88-0.37427-130.96 34.129-166.81 89.567-33.661 48.645-48.365 107.74-53.912 165.9-11.268-1.6988-23.708 2.4711-30.164 12.195-17.329 17.04-34.658 34.081-51.988 51.121h75.533c-12.817 116.3-21.897 233.05-38.145 348.9-6.4049 30.527-19.228 63.536-47.412 80.189-27.134 14.885-59.886 11.051-87.928 0.87109-8.4016-1.966-12.958 7.8466-19.029 11.648-16.684 14.789-33.367 29.579-50.051 44.367 37.729 19.877 83.67 22.002 123.6 7.9128 72.127-23.031 130.33-84.49 149.77-157.64 15.228-53.783 17.827-109.98 24.238-165.23 5.8381-57.017 11.887-114.01 17.792-171.02h86.582c22.375-21.08 44.751-42.161 67.127-63.24h-146.92c6.195-54.526 8.7548-111.34 33.629-161.17 13.498-21.71 40.032-31.085 64.336-30.229 17.488-4e-3 34.833 4.1612 50.805 11.172 23.713-22.592 47.425-45.185 71.139-67.777-23.889-3.798-47.919-7.8549-72.189-7.5449z"/>
<path d="m554.89 381.05c-17.584 5.095-29.847 19.857-44.52 29.928-65.096 53.601-114.06 129.08-127.95 212.98-20.373 109.19 8.3035 226.46 77.049 313.76 6.3033 8.2746 12.925 16.301 19.691 24.199 16.908-17.173 33.814-34.349 50.723-51.521-67.805-76.745-99.237-183.78-84.852-284.8 8.9353-66.789 39.65-131.14 88.074-178.16 18.743-19.197 40.072-35.33 61.396-51.492-7.2871-0.15074-16.09 4.8541-22.523-0.375-3.2188-6.888-8.477-14.766-17.092-14.508z"/>
<path d="m598.43 543.59c-22.197 1.5654-38.749 19.14-50.885 36.201-9.1555 12.223-16.051 30.011-7.5527 44.322 6.0667 8.0627 16.623 9.8828 25.467 13.342 6.3415-11.623 5.998-27.479 17.711-35.65 7.6868 4.4657 8.8238 14.302 13.477 21.269 9.2174 19.451 16.997 39.528 24.564 59.641-16.228 25.556-30.272 55.201-57.543 70.697-7.6012 3.4998-14.567-2.5675-20.871-5.6484-11.446-2.0297-18.254 9.728-25.504 16.25-8.7833 8.4114-17.262 17.135-26.117 25.474 22.534 27.385 67.149 28.607 93.701 6.4805 23.188-16.841 40.78-40.077 55.592-64.332 10.642 27.676 23.425 57.051 48.381 74.75 16.396 9.3656 37.585 4.5712 51.437-7.249 15.669-10.869 31.052-25.69 34.696-45.153 0.75693-13.612-11.24-28.482-25.541-26.768-9.2164 2.6888-8.4213 14.147-13.273 20.645-2.7327 4.9847-9.8891 10.234-14.344 3.9512-7.3733-7.7348-11.081-18.087-16.509-27.144-9.0674-18.507-16.043-38.054-23.255-57.395 14.221-22.372 27.383-48.492 52.287-60.531 5.1579-1.2474 10.569 1.0673 14.076 4.8613 16.587-17.412 33.176-34.823 49.766-52.232-18.683-13.196-44.415-21.105-66.225-10.895-29.723 15.269-50.198 42.974-68.35 70.133-10.605-26.266-22.948-54.536-47.619-70.521-5.3734-2.8816-11.437-4.6409-17.566-4.498z"/>
<path d="m826.08 375.69c-16.417 16.551-32.837 33.101-49.256 49.65 74.954 85.085 105.36 207.14 78.864 317.06-13.458 56.554-43.005 109.23-85.245 149.37-17.375 17.528-37.369 32.089-56.582 47.439 7.0288-0.46471 17.73-4.8581 22.139 3.2559 2.8614 8.9733 14.297 16.054 22.883 9.9062 15.099-8.2763 27.89-20.088 41.391-30.635 60.767-51.606 107.16-122.21 122.31-201.13 22.853-108.51-3.1211-226.21-69.808-314.85-7.9403-10.884-16.389-21.391-25.169-31.608-0.51042 0.51563-1.0208 1.0312-1.5313 1.5469z"/>
</g>
</svg>
