<svg width="449" height="513" viewBox="0 0 449 513" fill="none" xmlns="http://www.w3.org/2000/svg">
<path fill-rule="evenodd" clip-rule="evenodd" d="M48.7311 0.724854H400.731C427.231 0.724854 448.731 22.2249 448.731 48.7249V464.725C448.731 491.225 427.231 512.725 400.731 512.725H48.7311C22.2311 512.725 0.731079 491.225 0.731079 464.725V48.7249C0.731079 22.2249 22.2311 0.724854 48.7311 0.724854ZM388.731 323.859C395.331 323.859 400.731 318.459 400.731 311.859V60.7249C400.731 54.1249 395.331 48.7249 388.731 48.7249H60.7311C54.1311 48.7249 48.7311 54.1249 48.7311 60.7249V311.859C48.7311 318.459 54.1311 323.859 60.7311 323.859H388.731ZM109.309 466.347C140.721 466.347 166.186 440.883 166.186 409.471C166.186 378.059 140.721 352.595 109.309 352.595C77.8975 352.595 52.4331 378.059 52.4331 409.471C52.4331 440.883 77.8975 466.347 109.309 466.347ZM402.615 384.721C402.615 402.464 388.232 416.848 370.489 416.848C352.746 416.848 338.362 402.464 338.362 384.721C338.362 366.978 352.746 352.595 370.489 352.595C388.232 352.595 402.615 366.978 402.615 384.721ZM288.694 466.347C306.437 466.347 320.82 451.964 320.82 434.221C320.82 416.478 306.437 402.094 288.694 402.094C270.951 402.094 256.567 416.478 256.567 434.221C256.567 451.964 270.951 466.347 288.694 466.347Z" fill="black"/>
</svg>
