<?xml version="1.0" encoding="UTF-8" standalone="no"?>
<!-- Created with Inkscape (http://www.inkscape.org/) -->

<svg
   xmlns:dc="http://purl.org/dc/elements/1.1/"
   xmlns:cc="http://creativecommons.org/ns#"
   xmlns:rdf="http://www.w3.org/1999/02/22-rdf-syntax-ns#"
   xmlns:svg="http://www.w3.org/2000/svg"
   xmlns="http://www.w3.org/2000/svg"
   xmlns:sodipodi="http://sodipodi.sourceforge.net/DTD/sodipodi-0.dtd"
   xmlns:inkscape="http://www.inkscape.org/namespaces/inkscape"
   width="300mm"
   height="300mm"
   viewBox="0 0 300 300"
   version="1.1"
   id="svg8"
   inkscape:version="0.92.1 r15371"
   sodipodi:docname="drawing.svg">
  <defs
     id="defs2" />
  <sodipodi:namedview
     id="base"
     pagecolor="#ffffff"
     bordercolor="#666666"
     borderopacity="1.0"
     inkscape:pageopacity="0.0"
     inkscape:pageshadow="2"
     inkscape:zoom="0.24748737"
     inkscape:cx="469.93131"
     inkscape:cy="449.38653"
     inkscape:document-units="mm"
     inkscape:current-layer="layer1"
     showgrid="false"
     inkscape:window-width="1920"
     inkscape:window-height="1001"
     inkscape:window-x="-9"
     inkscape:window-y="-9"
     inkscape:window-maximized="1" />
  <metadata
     id="metadata5">
    <rdf:RDF>
      <cc:Work
         rdf:about="">
        <dc:format>image/svg+xml</dc:format>
        <dc:type
           rdf:resource="http://purl.org/dc/dcmitype/StillImage" />
        <dc:title></dc:title>
      </cc:Work>
    </rdf:RDF>
  </metadata>
  <g
     inkscape:label="Layer 1"
     inkscape:groupmode="layer"
     id="layer1"
     transform="translate(0,3)">
    <path
       id="path4496"
       d="m 154.81263,11.477868 c 12.14384,0 23.83578,1.59861 35.07528,4.77996 11.2395,3.18929 21.75245,7.64646 31.52272,13.37125 9.77001,5.73272 18.71663,12.6447 26.80706,20.73513 8.09069,8.09863 15.0024,17.03704 20.73513,26.80705 5.73273,9.7782 10.1899,20.282945 13.37125,31.522712 3.18135,11.23976 4.78022,22.9317 4.78022,35.07555 0,12.14384 -1.59861,23.83579 -4.77997,35.07529 -3.18135,11.2395 -7.63851,21.75245 -13.37124,31.52272 -5.73272,9.78615 -12.6447,18.71663 -20.73514,26.80706 -8.09069,8.10683 -17.03705,15.01854 -26.80705,20.73513 -9.77001,5.73273 -20.28296,10.1899 -31.52273,13.37125 -11.23976,3.18135 -22.9317,4.78022 -35.07554,4.78022 -12.14385,0 -23.83578,-1.59861 -35.07529,-4.77996 -11.23951,-3.18135 -21.752459,-7.63852 -31.522729,-13.37125 -9.77821,-5.71658 -18.71662,-12.6283 -26.80706,-20.73513 -8.09863,-8.09069 -15.01034,-17.02091 -20.73513,-26.80705 -5.73272,-9.77001 -10.1899,-20.28296 -13.37125,-31.52273 -3.18955,-11.23976 -4.78022,-22.93171 -4.78022,-35.07555 0,-12.14385 1.59067,-23.83579 4.77996,-35.07529 3.18135,-11.239497 7.63852,-21.744502 13.37125,-31.522712 5.72479,-9.77 12.6365,-18.70842 20.73513,-26.80705 8.09069,-8.09069 17.02911,-15.0024 26.80705,-20.73513 9.77001,-5.72479 20.282959,-10.18196 31.522739,-13.37125 11.23976,-3.18161 22.9317,-4.78022 35.07556,-4.78022 z m 0,248.046862 c 9.81842,0 19.42703,-1.24354 28.80968,-3.7465 9.38239,-2.48681 18.28059,-6.03964 26.67794,-10.65821 8.39735,-4.60242 16.14884,-10.20603 23.25448,-16.79495 7.10566,-6.58892 13.32284,-13.96868 18.66821,-22.15621 -1.11416,-2.58392 -2.1963,-5.19986 -3.22976,-7.88061 -1.03346,-2.66462 -1.55019,-5.42608 -1.55019,-8.26823 0,-3.10066 0.14525,-5.61975 0.45217,-7.55756 0.30692,-1.93781 0.58129,-3.58511 0.83979,-4.9739 0.2585,-1.37266 0.45217,-2.64848 0.58129,-3.81106 0.12911,-1.16258 -0.0161,-2.47068 -0.45218,-3.94044 -0.43603,-1.45336 -1.17898,-3.22978 -2.26086,-5.29697 -1.08188,-2.06719 -2.64848,-4.73154 -4.7154,-8.00973 0.0807,-0.59743 0.24235,-1.42108 0.45217,-2.45454 0.20981,-1.03346 0.37147,-2.10741 0.45217,-3.22977 0.0807,-1.11416 0.11298,-2.17196 0.0646,-3.16521 -0.0484,-0.98504 -0.24236,-1.78435 -0.58129,-2.38998 -2.24473,-0.2585 -4.58629,-0.72681 -7.04083,-1.42108 -2.45454,-0.68633 -4.58628,-1.71979 -6.39498,-3.10065 l 0.77523,-0.64585 c -1.11416,0.2585 -2.24472,0.62971 -3.35888,1.09802 a 129.68764,129.68764 0 0 1 -3.29433,1.35652 28.6385,28.6385 0 0 1 -3.29433,1.09802 c -1.11416,0.30692 -2.277,0.45217 -3.48826,0.45217 l -2.06772,-0.25849 0.38761,-0.90435 c -1.21126,0.34713 -2.5191,0.77523 -3.94044,1.29196 -1.42134,0.51673 -2.72917,0.77523 -3.94044,0.77523 -0.85592,0 -2.11561,-0.29871 -3.7465,-0.90435 -1.63115,-0.59742 -3.29432,-1.33217 -4.9739,-2.1963 -1.67957,-0.85593 -3.14907,-1.80869 -4.39261,-2.84216 -1.24354,-1.03346 -1.87325,-2.0185 -1.87325,-2.97127 l 0.2585,-0.38761 c -0.43604,-0.51673 -0.98505,-0.98505 -1.67958,-1.42108 a 56.948917,56.948917 0 0 1 -2.00237,-1.29196 c -0.64584,-0.42783 -1.17898,-0.90434 -1.61501,-1.42108 -0.43604,-0.51673 -0.64585,-1.11416 -0.64585,-1.80869 l 1.42108,-1.16284 -2.97127,-0.38762 -1.03347,-3.87561 c 0.17754,0.43603 0.58129,0.60563 1.22741,0.51673 0.64584,-0.0807 1.09802,-0.2585 1.35651,-0.51673 l -4.65084,-2.45454 3.22977,-8.26823 c -1.21126,-4.47331 -1.48564,-7.9211 -0.83979,-10.33542 0.64585,-2.40612 1.79255,-4.408747 3.42344,-6.007357 1.63116,-1.59068 3.55283,-3.14087 5.74914,-4.65085 2.1963,-1.50177 4.27937,-3.59304 6.26586,-6.265855 l -0.38762,-1.5502 8.52673,-10.33541 1.93781,-0.2585 c 2.40612,0 5.11916,-0.10504 8.13911,-0.32306 3.01996,-0.20981 6.07192,-0.51673 9.17258,-0.90434 3.10065,-0.38762 6.15262,-0.81545 9.17257,-1.29197 3.01996,-0.46831 5.76527,-1.00938 8.26823,-1.61501 a 122.12981,122.12981 0 0 0 -8.7204,-9.30169 139.50077,139.50077 0 0 0 -9.62475,-8.39734 c -0.95276,0.34713 -2.13175,0.83978 -3.55282,1.48563 -1.42108,0.64585 -2.7776,1.42108 -4.06956,2.32542 -1.29196,0.90435 -2.38998,1.92167 -3.29433,3.0361 -0.90434,1.12236 -1.35652,2.28494 -1.35652,3.48826 l 0.77523,2.45454 c -1.55019,2.50296 -3.27819,4.06956 -5.16757,4.7154 -1.88939,0.64585 -3.85948,0.99325 -5.87825,1.03347 -2.01851,0.0484 -4.0857,0.0243 -6.20131,-0.0646 -2.11561,-0.0807 -4.15025,0.30691 -6.13648,1.16284 l -2.06719,-4.39261 1.93781,-7.493 -2.19631,-3.22977 22.35015,-6.97627 c -0.95276,-2.40612 -2.5191,-4.21481 -4.7154,-5.42607 -2.19631,-1.20306 -4.53787,-1.80869 -7.04083,-1.80869 v -1.29196 l 7.23473,-1.16284 c -8.00973,-3.95658 -16.34279,-6.97627 -24.99836,-9.04346 -8.65558,-2.06719 -17.45721,-3.10013 -26.41997,-3.10013 -7.493,0 -14.90531,0.73475 -22.22077,2.19631 -7.31546,1.4695 -14.40471,3.60124 -21.25188,6.39498 -6.84715,2.80194 -13.419659,6.22538 -19.701659,10.2706 a 109.10226,109.10226 0 0 0 -17.44081,13.95253 c 2.23652,0 3.98066,0.58129 5.23214,1.74413 1.24354,1.16284 2.3659,2.41432 3.35888,3.7465 a 36.54425,36.54425 0 0 0 3.16521,3.7465 c 1.11416,1.16284 2.62414,1.74413 4.52173,1.74413 l 2.06719,-1.55019 -0.2585,-2.84215 4.26324,-6.07192 -3.35889,-9.56019 c 0.43603,-0.2585 1.09802,-0.68633 2.00237,-1.29196 0.90434,-0.59743 1.61501,-0.90435 2.13174,-0.90435 2.58393,0 4.586289,0.12912 6.007369,0.38762 1.42108,0.2585 2.60006,0.75909 3.55282,1.48563 0.95277,0.73475 1.85711,1.728 2.71304,2.97127 0.85593,1.25148 2.06719,2.8665 3.61738,4.84479 l 4.65086,-3.61738 c 0.85593,0.34713 2.26087,0.92868 4.19867,1.74413 a 55.804858,55.804858 0 0 1 5.74914,2.84215 c 1.88939,1.08188 3.56896,2.22038 5.03846,3.42344 1.46949,1.21126 2.1963,2.32542 2.1963,3.35889 0,1.29196 -0.50059,2.32542 -1.48563,3.10065 -0.98505,0.77523 -2.21245,1.42108 -3.68194,1.93781 -1.4695,0.51673 -3.08452,0.92869 -4.84479,1.2274 -1.76027,0.30692 -3.37503,0.62971 -4.84479,0.9689 -1.46949,0.34714 -2.71303,0.79931 -3.7465,1.35652 -1.03346,0.56515 -1.55019,1.27582 -1.55019,2.13175 l 7.493,2.45454 c -1.72799,1.4695 -3.60124,2.82601 -5.61975,4.06956 a 55.155835,55.155835 0 0 1 -6.13649,3.294315 l 0.51673,2.19631 -11.885609,4.65085 v 3.61738 l -0.90435,0.38761 0.64585,-4.52173 -0.51673,-0.12911 c -0.59743,0 -0.96891,0.12911 -1.09802,0.38761 -0.12912,0.2585 -0.14526,0.56515 -0.0646,0.90435 0.0807,0.34713 0.19367,0.69453 0.32305,1.03346 0.12912,0.34713 0.14526,0.60563 0.0646,0.77523 l -1.67957,-0.90435 0.2585,0.51674 c 0,0.25849 0.14525,0.64584 0.45217,1.16284 0.30692,0.51699 0.64585,1.01732 1.03346,1.48563 a 89.541085,89.541085 0 0 1 1.48564,1.873247 c 0,0.2585 -0.19368,0.51674 -0.58129,0.77523 -0.38762,0.2585 -0.79137,0.45218 -1.2274,0.58129 -0.43604,0.12912 -0.77523,0.24236 -1.03347,0.32306 -0.25849,0.0889 -0.25849,0.12912 0,0.12912 1.21127,0 1.43722,0.0889 0.71067,0.25849 -0.72681,0.17754 -1.79255,0.60564 -3.16521,1.29196 -1.37265,0.69454 -2.72917,1.70366 -4.06955,3.0361 -1.34038,1.34038 -2.00237,3.21363 -2.00237,5.61975 0,1.46949 0.0646,2.89057 0.19368,4.26323 0.12911,1.38086 0.0646,2.80194 -0.19368,4.26323 -1.21126,-3.27025 -3.01995,-5.76527 -5.42607,-7.493 -2.41433,-1.71979 -5.34538,-2.58392 -8.78496,-2.58392 l -5.5552,0.51673 2.71304,1.80869 c -1.46949,-0.1696 -2.99561,-0.33919 -4.58629,-0.51673 -1.59861,-0.1696 -3.16521,-0.19367 -4.7154,-0.0646 -1.55019,0.12912 -3.03609,0.47652 -4.45717,1.03346 -1.42108,0.56515 -2.6969,1.44542 -3.81106,2.64848 l -0.77523,5.81369 c 0,2.76146 0.62177,5.02232 1.87325,6.7826 1.24354,1.76821 3.33481,2.64848 6.26586,2.64848 2.58392,0 5.11916,-0.40376 7.62238,-1.22741 a 130.60521,130.60521 0 0 0 7.36389,-2.64847 58.009102,58.009102 0 0 1 -2.58392,5.49063 c -0.95277,1.76821 -1.6391,3.64146 -2.06719,5.61975 l 1.67957,0.77523 c 2.06719,-1.37266 3.95658,-1.59068 5.68431,-0.64585 1.71979,0.95276 3.39937,2.32542 5.03846,4.13411 1.63116,1.8087 3.31047,3.68195 5.03846,5.61975 1.728,1.93781 3.56897,3.29433 5.55519,4.06956 l -4.39261,2.32542 -10.33542,-5.81369 c 0.0807,0.17754 0.19368,0.56515 0.32306,1.16285 0.12912,0.60563 0.0646,0.73475 -0.19368,0.38761 l -4.65084,-7.88057 c -2.76146,-0.0807 -5.70865,-0.53287 -8.84952,-1.35652 -3.14907,-0.81545 -6.26586,-1.84917 -9.36625,-3.10065 a 79.580846,79.580846 0 0 1 -8.9789,-4.26323 c -2.89057,-1.59068 -5.40994,-3.20543 -7.55756,-4.84479 l -0.90487,13.82316 c 0,10.51295 1.42107,20.76741 4.26323,30.7475 2.84215,9.99622 6.86329,19.37861 12.07928,28.16357 5.20806,8.78496 11.51414,16.82724 18.92644,24.09402 7.40437,7.28319 15.71281,13.41967 24.93381,18.40971 -0.43604,-1.80869 -0.46831,-3.61739 -0.12912,-5.42608 0.3392,-1.80869 0.79137,-3.61738 1.356519,-5.42607 0.56515,-1.80869 1.11416,-3.63352 1.67958,-5.49064 0.56515,-1.84097 0.83978,-3.68194 0.83978,-5.49063 0,-2.74532 -0.43603,-5.65203 -1.29196,-8.7204 -0.85592,-3.05223 -1.921669,-6.1042 -3.165209,-9.17258 -1.24354,-3.05223 -2.56778,-6.08806 -3.94044,-9.10801 -1.37266,-3.00382 -2.56778,-5.87825 -3.55282,-8.59129 -0.98505,-2.71304 -1.66344,-5.19985 -2.00237,-7.493 -0.3392,-2.277 -0.0807,-4.27937 0.77523,-6.00736 l -1.93781,-0.90435 c 0.51673,-1.19512 1.2274,-2.3577 2.13175,-3.48826 0.90435,-1.11417 1.79255,-2.26087 2.64848,-3.42346 0.85593,-1.16258 1.59861,-2.34156 2.1963,-3.55282 0.59743,-1.19513 0.90435,-2.48682 0.90435,-3.87562 0,-0.85593 -0.19367,-1.78435 -0.58129,-2.7776 -0.38761,-0.98504 -0.66199,-1.87325 -0.83979,-2.64848 l 2.71304,0.64585 c 1.4695,-3.35888 3.472129,-5.66023 6.007369,-6.91171 2.5355,-1.24354 5.66816,-1.87325 9.36625,-1.87325 0.43603,0 1.34037,0.19368 2.71304,0.58129 1.37266,0.38762 2.84216,0.83979 4.39262,1.35652 1.55045,0.51673 3.03609,1.01732 4.45717,1.48564 1.42108,0.47651 2.4384,0.7993 3.03609,0.9689 0,0.60563 0.37148,1.01732 1.09802,1.2274 0.72681,0.21802 1.09802,0.50059 1.09802,0.83979 l -0.25849,1.03346 c 0.25849,0.0889 0.8882,0.41169 1.87325,0.96891 a 81.916323,81.916323 0 0 1 3.10065,1.87325 c 1.08188,0.69453 2.06719,1.38086 2.97127,2.06719 0.90435,0.69453 1.48563,1.16284 1.74413,1.42107 1.5502,0 3.68194,0.51673 6.39498,1.5502 2.71304,1.03346 5.61975,2.3577 8.7204,3.94044 3.10066,1.59861 6.26587,3.45599 9.49564,5.5552 3.22976,2.11561 6.13648,4.26323 8.7204,6.45954 2.58392,2.1963 4.7154,4.36006 6.39498,6.45953 1.67957,2.11561 2.51909,3.98886 2.51909,5.61975 l -4.39261,4.65085 c 0.3392,4.39261 0.0161,7.78378 -0.9689,10.14148 -0.98505,2.37384 -2.45454,4.29551 -4.39261,5.74913 -1.93781,1.4695 -4.21482,2.76146 -6.84716,3.87562 -2.63234,1.1303 -5.40993,2.58392 -8.33278,4.39261 0,1.72799 -0.43604,3.60124 -1.29196,5.61975 a 25.943719,25.943719 0 0 1 -3.29433,5.68431 c -1.34038,1.77641 -2.89057,3.26204 -4.65085,4.45717 -1.76027,1.21126 -3.55282,1.80869 -5.36151,1.80869 l -5.42608,-4.13412 c 0.17754,0.17754 0.14526,0.5006 -0.0646,0.96891 -0.20981,0.48445 -0.40375,0.54901 -0.58129,0.19367 0.85593,1.6473 1.08188,3.53669 0.64585,5.68431 -0.43603,2.16403 -1.16284,4.36007 -2.19631,6.58866 -1.03346,2.24472 -2.1963,4.37647 -3.48826,6.39498 -1.29196,2.03464 -2.45454,3.68194 -3.48827,4.9739 4.65085,1.21126 9.30169,2.11561 13.95254,2.71304 4.65137,0.61436 9.3509,0.90513 14.08245,0.90513 z M 86.599861,125.55348 c 1.11416,0 2.37384,0.19368 3.7465,0.58129 1.37265,0.38762 2.77759,0.83979 4.19867,1.35652 1.42108,0.51673 2.79373,1.08188 4.13411,1.67958 1.340379,0.60563 2.567779,1.12236 3.681939,1.55019 -0.69453,0.0889 -1.40493,0.17754 -2.13174,0.2585 a 17.555898,17.555898 0 0 1 -2.131749,0.12911 c -1.4695,0 -2.79374,-0.23415 -4.005,-0.71067 a 26.634017,26.634017 0 0 1 -3.42344,-1.61501 c -1.08188,-0.59743 -2.11561,-1.1385 -3.10065,-1.61502 -0.99325,-0.46831 -1.92167,-0.71067 -2.7776,-0.71067 -0.86387,0 -1.63909,0.17754 -2.32542,0.51673 a 25.140179,25.140179 0 0 0 -2.06719,1.16284 c 0,-0.33919 -0.30692,-0.51673 -0.90435,-0.51673 0.59743,-0.59743 1.71979,-1.09802 3.35889,-1.48563 1.63142,-0.38709 2.8829,-0.58103 3.74703,-0.58103 z m 17.440539,5.81369 c 3.53668,0 6.76645,0.60563 9.6893,1.80869 a 36.298717,36.298717 0 0 1 -3.61738,1.09803 c -1.21126,0.30691 -2.45455,0.45217 -3.74651,0.45217 -1.728,0 -3.27819,-0.1696 -4.65085,-0.51673 0.43604,-0.68633 0.85593,-1.13851 1.29197,-1.35652 0.43603,-0.20982 0.77523,-0.71041 1.03347,-1.48564 z M 244.34206,70.518308 c 0,0.69453 -0.12912,1.16284 -0.3876,1.42108 h 0.77521 c 0.3392,0 0.59743,0.0484 0.77524,0.12911 z m 8.91409,12.66058 c -1.21128,-1.88939 -2.40612,-3.72243 -3.61739,-5.49064 a 163.63209,163.63209 0 0 0 -3.74651,-5.23213 c -0.17753,0.77523 -0.40375,1.34038 -0.71067,1.67957 -0.30691,0.34714 -0.45217,1.12236 -0.45217,2.32542 0,0.77523 0.32306,1.53406 0.9689,2.26087 0.64585,0.73475 1.42109,1.40494 2.32543,2.00237 0.90434,0.60563 1.82483,1.12236 2.77759,1.55019 0.95303,0.43603 1.76054,0.73475 2.45482,0.90435 z"
       inkscape:connector-curvature="0"
       style="fill:#616161;stroke-width:0.26458332" />
  </g>
</svg>
