<svg xmlns="http://www.w3.org/2000/svg" width="300mm" height="300mm" viewBox="0 0 300 300"><path d="M154.813 14.478c12.143 0 23.835 1.598 35.075 4.78 11.24 3.19 21.752 7.646 31.523 13.371a132.9 132.9 0 0 1 26.807 20.735c8.09 8.099 15.002 17.037 20.735 26.807 5.733 9.778 10.19 20.283 13.371 31.523 3.181 11.24 4.78 22.932 4.78 35.076 0 12.143-1.598 23.835-4.78 35.075-3.181 11.24-7.638 21.752-13.37 31.523-5.734 9.786-12.646 18.716-20.736 26.807a131.746 131.746 0 0 1-26.807 20.735c-9.77 5.732-20.283 10.19-31.523 13.371-11.24 3.181-22.932 4.78-35.075 4.78-12.144 0-23.836-1.598-35.076-4.78-11.24-3.181-21.752-7.638-31.522-13.371-9.779-5.717-18.717-12.628-26.807-20.735-8.1-8.09-15.01-17.021-20.736-26.807-5.732-9.77-10.19-20.283-13.37-31.523-3.19-11.24-4.781-22.932-4.781-35.075 0-12.144 1.59-23.836 4.78-35.076 3.181-11.24 7.638-21.744 13.371-31.522 5.725-9.77 12.637-18.709 20.735-26.808 8.091-8.09 17.03-15.002 26.807-20.735 9.77-5.724 20.283-10.182 31.523-13.37 11.24-3.183 22.932-4.781 35.076-4.781zm0 248.047c9.818 0 19.427-1.244 28.81-3.747 9.382-2.487 18.28-6.04 26.677-10.658 8.398-4.602 16.15-10.206 23.255-16.795a118.195 118.195 0 0 0 18.668-22.156 217.072 217.072 0 0 1-3.23-7.88 22.695 22.695 0 0 1-1.55-8.269c0-3.1.145-5.62.452-7.558.307-1.937.581-3.585.84-4.973.258-1.373.452-2.649.581-3.812.13-1.162-.016-2.47-.452-3.94-.436-1.453-1.179-3.23-2.26-5.297-1.083-2.067-2.65-4.731-4.716-8.01.08-.597.242-1.42.452-2.454a25.31 25.31 0 0 0 .452-3.23c.08-1.114.113-2.172.065-3.165-.049-.985-.243-1.785-.582-2.39-2.244-.259-4.586-.727-7.04-1.421-2.455-.687-4.587-1.72-6.395-3.1l.775-.647c-1.114.259-2.245.63-3.359 1.098a129.688 129.688 0 0 1-3.294 1.357 28.639 28.639 0 0 1-3.295 1.098 13.073 13.073 0 0 1-3.488.452l-2.068-.258.388-.905c-1.211.347-2.52.775-3.94 1.292-1.422.517-2.73.775-3.94.775-.857 0-2.117-.298-3.747-.904a43.934 43.934 0 0 1-4.974-2.196c-1.68-.856-3.15-1.809-4.393-2.842-1.243-1.034-1.873-2.019-1.873-2.972l.258-.387c-.436-.517-.985-.985-1.68-1.421a56.949 56.949 0 0 1-2.002-1.292 7.542 7.542 0 0 1-1.615-1.421c-.436-.517-.645-1.115-.645-1.81l1.42-1.162-2.97-.388-1.034-3.875c.177.436.581.605 1.227.517.646-.081 1.098-.259 1.357-.517l-4.651-2.455 3.23-8.268c-1.212-4.473-1.486-7.921-.84-10.335.646-2.407 1.792-4.41 3.423-6.008 1.632-1.59 3.553-3.14 5.75-4.65 2.196-1.502 4.279-3.594 6.265-6.266l-.387-1.55 8.526-10.336 1.938-.259c2.406 0 5.12-.105 8.14-.323 3.02-.21 6.071-.516 9.172-.904 3.1-.388 6.153-.815 9.173-1.292 3.02-.468 5.765-1.01 8.268-1.615a122.13 122.13 0 0 0-8.72-9.302 139.5 139.5 0 0 0-9.625-8.397c-.953.347-2.132.84-3.553 1.486a25.437 25.437 0 0 0-4.07 2.325 16.106 16.106 0 0 0-3.294 3.036c-.904 1.123-1.357 2.285-1.357 3.488l.776 2.455c-1.55 2.503-3.279 4.07-5.168 4.715-1.89.646-3.86.994-5.878 1.034a94.083 94.083 0 0 1-6.202-.065c-2.115-.08-4.15.307-6.136 1.163l-2.067-4.393 1.938-7.493-2.197-3.23 22.35-6.976c-.952-2.406-2.519-4.214-4.715-5.426a14.42 14.42 0 0 0-7.04-1.808V44.32l7.234-1.163a118.37 118.37 0 0 0-24.998-9.044 113.31 113.31 0 0 0-26.42-3.1c-7.493 0-14.906.735-22.221 2.197a117.282 117.282 0 0 0-21.252 6.395 120.915 120.915 0 0 0-19.702 10.27 109.102 109.102 0 0 0-17.44 13.953c2.236 0 3.98.581 5.232 1.744a28.224 28.224 0 0 1 3.359 3.746 36.544 36.544 0 0 0 3.165 3.747c1.114 1.163 2.624 1.744 4.521 1.744l2.068-1.55-.259-2.842 4.263-6.072-3.358-9.56a48.43 48.43 0 0 0 2.002-1.292c.904-.598 1.615-.905 2.132-.905 2.584 0 4.586.13 6.007.388 1.421.258 2.6.759 3.553 1.485.953.735 1.857 1.728 2.713 2.972.856 1.251 2.067 2.866 3.617 4.845l4.651-3.618c.856.347 2.261.929 4.199 1.744a55.805 55.805 0 0 1 5.749 2.842c1.89 1.082 3.569 2.22 5.038 3.424 1.47 1.211 2.197 2.325 2.197 3.359 0 1.292-.5 2.325-1.486 3.1-.985.776-2.212 1.421-3.682 1.938-1.47.517-3.084.929-4.845 1.228-1.76.307-3.375.63-4.844.968-1.47.348-2.714.8-3.747 1.357-1.033.565-1.55 1.276-1.55 2.132l7.493 2.454a45.47 45.47 0 0 1-5.62 4.07 55.156 55.156 0 0 1-6.136 3.294l.516 2.196-11.885 4.651v3.618l-.905.387.646-4.521-.517-.13c-.597 0-.968.13-1.098.388-.129.259-.145.565-.064.904a8 8 0 0 0 .323 1.034c.129.347.145.606.065.775l-1.68-.904.258.517c0 .258.146.645.453 1.162.307.517.645 1.018 1.033 1.486a89.541 89.541 0 0 1 1.486 1.873c0 .259-.194.517-.582.775a4.492 4.492 0 0 1-1.227.582c-.436.129-.775.242-1.033.323-.259.089-.259.129 0 .129 1.21 0 1.437.089.71.258-.727.178-1.792.606-3.165 1.292-1.373.695-2.73 1.704-4.07 3.036-1.34 1.34-2.002 3.214-2.002 5.62 0 1.47.065 2.89.194 4.263.129 1.381.064 2.802-.194 4.264-1.211-3.27-3.02-5.766-5.426-7.493-2.414-1.72-5.345-2.584-8.785-2.584l-5.555.517 2.713 1.808c-1.47-.17-2.996-.339-4.586-.517a24.932 24.932 0 0 0-4.716-.064c-1.55.129-3.036.476-4.457 1.033-1.421.565-2.697 1.446-3.811 2.649l-.775 5.814c0 2.761.622 5.022 1.873 6.782 1.244 1.768 3.335 2.649 6.266 2.649 2.584 0 5.119-.404 7.622-1.228a130.605 130.605 0 0 0 7.364-2.648 58.01 58.01 0 0 1-2.584 5.49 21.261 21.261 0 0 0-2.067 5.62l1.68.775c2.067-1.372 3.956-1.59 5.684-.646 1.72.953 3.4 2.326 5.038 4.135 1.632 1.808 3.31 3.682 5.039 5.62 1.728 1.937 3.569 3.294 5.555 4.069l-4.393 2.325-10.335-5.813c.08.177.194.565.323 1.162.13.606.065.735-.194.388l-4.65-7.88c-2.762-.081-5.71-.533-8.85-1.357a75.669 75.669 0 0 1-9.366-3.1 79.58 79.58 0 0 1-8.98-4.264c-2.89-1.59-5.41-3.205-7.557-4.845l-.905 13.823c0 10.513 1.421 20.768 4.264 30.748 2.842 9.996 6.863 19.379 12.079 28.164 5.208 8.785 11.514 16.827 18.926 24.094 7.405 7.283 15.713 13.42 24.934 18.41a12.816 12.816 0 0 1-.129-5.427c.34-1.808.791-3.617 1.357-5.426.565-1.809 1.114-3.633 1.68-5.49a18.67 18.67 0 0 0 .839-5.491c0-2.745-.436-5.652-1.292-8.72-.856-3.053-1.922-6.105-3.165-9.173a250.002 250.002 0 0 0-3.94-9.108c-1.373-3.004-2.568-5.878-3.553-8.591-.986-2.713-1.664-5.2-2.003-7.493-.34-2.277-.08-4.28.775-6.008l-1.937-.904c.516-1.195 1.227-2.358 2.131-3.488a91.95 91.95 0 0 0 2.649-3.424c.856-1.162 1.598-2.341 2.196-3.553a8.553 8.553 0 0 0 .904-3.875c0-.856-.193-1.785-.58-2.778a18.77 18.77 0 0 1-.84-2.648l2.712.645c1.47-3.358 3.473-5.66 6.008-6.911 2.535-1.244 5.668-1.873 9.366-1.873.436 0 1.34.193 2.713.58 1.373.388 2.842.84 4.393 1.357 1.55.517 3.036 1.018 4.457 1.486 1.42.476 2.438.8 3.036.969 0 .605.371 1.017 1.098 1.227.727.218 1.098.5 1.098.84l-.259 1.034c.259.088.889.411 1.874.968a81.916 81.916 0 0 1 3.1 1.874 46.035 46.035 0 0 1 2.972 2.067c.904.694 1.485 1.163 1.744 1.42 1.55 0 3.682.518 6.395 1.551 2.713 1.034 5.62 2.358 8.72 3.94 3.1 1.6 6.266 3.457 9.496 5.556 3.23 2.115 6.136 4.263 8.72 6.46 2.584 2.196 4.716 4.36 6.395 6.459 1.68 2.115 2.52 3.989 2.52 5.62l-4.393 4.65c.339 4.393.016 7.784-.97 10.142-.984 2.374-2.454 4.295-4.392 5.75-1.938 1.469-4.215 2.76-6.847 3.875-2.632 1.13-5.41 2.584-8.333 4.392 0 1.728-.436 3.602-1.292 5.62a25.944 25.944 0 0 1-3.294 5.684c-1.34 1.777-2.89 3.262-4.65 4.458-1.761 1.21-3.554 1.808-5.362 1.808l-5.427-4.134c.178.178.146.5-.064.969-.21.484-.404.549-.581.194.856 1.647 1.081 3.536.645 5.684-.436 2.164-1.162 4.36-2.196 6.589a52.819 52.819 0 0 1-3.488 6.395c-1.292 2.034-2.455 3.682-3.488 4.974a111.876 111.876 0 0 0 13.952 2.713c4.652.614 9.351.905 14.083.905zM86.6 128.553c1.114 0 2.374.194 3.746.582a60.115 60.115 0 0 1 8.333 3.036 69.743 69.743 0 0 0 3.682 1.55c-.694.089-1.405.178-2.132.259a17.556 17.556 0 0 1-2.131.129c-1.47 0-2.794-.234-4.005-.711a26.634 26.634 0 0 1-3.424-1.615 65.138 65.138 0 0 0-3.1-1.615c-.994-.468-1.922-.71-2.778-.71-.864 0-1.64.177-2.326.516a25.14 25.14 0 0 0-2.067 1.163c0-.34-.307-.517-.904-.517.597-.597 1.72-1.098 3.359-1.485 1.631-.388 2.883-.582 3.747-.582zm17.44 5.814c3.537 0 6.767.606 9.69 1.809a36.299 36.299 0 0 1-3.618 1.098 15.158 15.158 0 0 1-3.746.452c-1.728 0-3.278-.17-4.651-.517.436-.686.856-1.138 1.292-1.356.436-.21.775-.71 1.033-1.486zm140.302-60.849c0 .695-.13 1.163-.388 1.421h.776c.339 0 .597.049.775.13zm8.914 12.66a216.168 216.168 0 0 0-3.617-5.49 163.632 163.632 0 0 0-3.747-5.232c-.177.775-.404 1.34-.71 1.68-.307.347-.453 1.122-.453 2.325 0 .775.323 1.534.97 2.261a11.553 11.553 0 0 0 2.325 2.002 18.889 18.889 0 0 0 2.777 1.55c.953.437 1.76.735 2.455.905z" fill="#616161"/></svg>