<svg xmlns="http://www.w3.org/2000/svg" version="1.1" viewBox="0 0 630 630">
  <!--
The MIT License (MIT)

Copyright (c) 2011 Christopher Williams <chris@iterativedesigns.com>,
                     Manuel Strehl <boldewyn@gmail.com>

Permission is hereby granted, free of charge, to any person obtaining a copy
of this software and associated documentation files (the "Software"), to deal
in the Software without restriction, including without limitation the rights
to use, copy, modify, merge, publish, distribute, sublicense, and/or sell
copies of the Software, and to permit persons to whom the Software is
furnished to do so, subject to the following conditions:

The above copyright notice and this permission notice shall be included in
all copies or substantial portions of the Software.

THE SOFTWARE IS PROVIDED "AS IS", WITHOUT WARRANTY OF ANY KIND, EXPRESS OR
IMPLIED, INCLUDING BUT NOT LIMITED TO THE WARRANTIES OF MERCHANTABILITY,
FITNESS FOR A PARTICULAR PURPOSE AND NONINFRINGEMENT. IN NO EVENT SHALL THE
AUTHORS OR COPYRIGHT HOLDERS BE LIABLE FOR ANY CLAIM, DAMAGES OR OTHER
LIABILITY, WHETHER IN AN ACTION OF CONTRACT, TORT OR OTHERWISE, ARISING FROM,
OUT OF OR IN CONNECTION WITH THE SOFTWARE OR THE USE OR OTHER DEALINGS IN
THE SOFTWARE.
-->
<path d="M 0 0 L 0 630 L 630 630 L 630 0 L 0 0 z M 479.45312 285.8457 C 517.09063 285.8457 544.15617 298.95789 563.60742 333.21289 L 517.51172 362.81445 C 507.36172 344.63195 496.36813 337.44336 479.45312 337.44336 C 462.11437 337.44336 451.11914 348.4382 451.11914 362.81445 C 451.11914 380.57695 462.11508 387.76547 487.48633 398.76172 L 502.28711 405.10547 C 552.61211 426.67422 580.94531 448.66242 580.94531 498.13867 C 580.94531 551.42617 539.07969 580.60352 482.83594 580.60352 C 427.85969 580.60352 392.33625 554.38711 375 520.13086 L 423.20703 492.21875 C 435.89703 512.9425 452.38961 528.16602 481.56836 528.16602 C 506.09961 528.16602 521.74219 515.90087 521.74219 498.98438 C 521.74219 478.68563 505.67172 471.4957 478.60547 459.6582 L 463.80859 453.31055 C 421.09359 435.1293 392.75781 412.29398 392.75781 364.08398 C 392.75781 319.68023 426.58938 285.8457 479.45312 285.8457 z M 283.63867 289.23047 L 342.8418 289.23047 L 342.8418 491.36719 C 342.8418 552.68719 306.89828 580.59961 254.45703 580.59961 C 207.09789 580.59961 179.60793 556.07214 165.65234 526.47266 L 165.65039 526.47461 L 165.65039 526.46875 C 165.65101 526.47007 165.65172 526.47134 165.65234 526.47266 L 213.86328 497.29688 C 223.16453 513.78813 231.62492 527.74023 251.91992 527.74023 C 271.37367 527.74023 283.63867 520.12955 283.63867 490.5293 L 283.63867 289.23047 z "/>
</svg>
