<svg xmlns="http://www.w3.org/2000/svg" width="28" height="29" fill="none"><mask id="a" fill="none"><rect width="24" height="15" x="2" y="6" rx=".789"/></mask><rect width="24" height="15" x="2" y="6" stroke="#323130" stroke-linejoin="round" stroke-width="4" mask="url(#a)" rx=".789"/><path stroke="#323130" stroke-linejoin="round" stroke-width="2" d="m2.66 7-1.4-6h25.48l-1.4 6H2.66Z"/><rect width="14" height="6" x="7" y="10" fill="#323130" rx=".641"/><mask id="b" fill="none"><rect width="24" height="10" x="2" y="19" rx=".789"/></mask><rect width="24" height="10" x="2" y="19" stroke="#323130" stroke-linejoin="round" stroke-width="4" mask="url(#b)" rx=".789"/><rect width="1.875" height="1.875" x="14" y="24" fill="#323130" rx=".789"/><rect width="1.875" height="1.875" x="16.813" y="22.438" fill="#323130" rx=".789"/><rect width="1.875" height="1.875" x="19.625" y="22.438" fill="#323130" rx=".789"/><path fill="#323130" fill-rule="evenodd" d="M7.79 22a.79.79 0 0 0-.79.79v2.42c0 .436.353.79.79.79h2.42a.79.79 0 0 0 .79-.79v-2.42a.79.79 0 0 0-.79-.79H7.79Zm1 1a.79.79 0 0 0-.79.79v.296c0 .436.353.789.79.789h.296a.79.79 0 0 0 .789-.79v-.296a.79.79 0 0 0-.79-.789H8.79Z" clip-rule="evenodd"/></svg>