<svg xmlns="http://www.w3.org/2000/svg" xml:space="preserve" style="enable-background:new 0 0 1000 1000" viewBox="0 0 1000 1000"><path d="M813.9 676c-1.3-43.9-28.8-85.5-77.9-117.7-40.6-26.6-94.6-45.8-154.2-54.9v-47.3C662.3 423.8 719 345 719 253c0-121-98-219-219-219s-219 98-219 219c0 92 56.6 170.6 136.9 203.1v47.4c-59.4 9.2-113.4 28.3-154 54.9-49.1 32.1-76.6 73.8-77.9 117.7v110.2c0 50.8 34.3 97.7 96.5 131.9C340.9 950.3 418.2 968 500 968c81.8 0 159.1-17.7 217.5-49.9C779.7 883.9 814 837 814 786.2l-.1-110.2zM359 163.5c0-26.8 21.7-48.5 48.5-48.5s48.5 21.7 48.5 48.5-21.7 48.5-48.5 48.5-48.5-21.7-48.5-48.5zm182.9 306.3V668l-5.1 2.2c-23.5 10.4-50.4 10.4-73.8 0l-5.1-2.2V469.8c27.8 4.6 56.2 4.6 84 0zM774 786.2c0 35.6-26.9 70-75.7 96.9C645.6 912 575.2 928 500 928c-75.2 0-145.6-16-198.3-44.9-48.8-26.9-75.7-61.3-75.7-96.9v-17c14.9 15.4 33.8 29.5 56.5 42C340.9 843.3 418.2 861 500 861c81.8 0 159.1-17.7 217.5-49.9 22.6-12.5 41.5-26.6 56.5-42v17.1zm-75.7-10.1C645.6 805 575.2 821 500 821c-75.2 0-145.6-16-198.3-44.9-48.8-26.9-75.7-61.3-75.7-96.9 0-61.1 80.6-116.5 191.9-135.2v44.6C347.3 604 298 638.7 298 679c0 54.7 90.4 99 202 99s202-44.3 202-99c0-40.4-49.4-75.1-120.1-90.5V544C693.3 562.6 774 618.1 774 679.2c0 35.6-26.9 70-75.7 96.9z"/></svg>