<svg width="1000" height="1000" fill="none" xmlns="http://www.w3.org/2000/svg"><path style="display:inline;fill:#323130;fill-opacity:1;stroke-width:34.3595" d="M64.574 2a34.363 34.363 0 0 0-33.42 42.144l48.05 206.157a34.363 34.363 0 0 0 10.804 16.979V971.314a27.043 27.043 0 0 0 27.112 27.112h770.404a27.043 27.043 0 0 0 27.112-27.112V267.28A34.363 34.363 0 0 0 925.44 250.3l48.05-206.157A34.363 34.363 0 0 0 940.07 2Zm43.352 68.719h788.859l-32.078 137.438H140.004Zm50.8 206.157h687.19v377.955h-687.19Zm125.09 68.719a21.958 21.958 0 0 0-22.01 22.012V529.74a21.958 21.958 0 0 0 22.01 22.012h437.01a21.958 21.958 0 0 0 22.012-22.012V367.607a21.958 21.958 0 0 0-22.011-22.012zM158.727 723.55h687.19v206.157h-687.19Zm130.191 34.36c-14.981 0-27.112 12.13-27.112 27.11v83.215c0 14.981 12.131 27.112 27.112 27.112h83.215c14.98 0 27.111-12.131 27.111-27.112v-83.214c0-14.98-12.13-27.112-27.111-27.112zM626.07 772.94a27.043 27.043 0 0 0-27.112 27.112v10.2a27.043 27.043 0 0 0 27.112 27.112h10.2a27.043 27.043 0 0 0 27.112-27.111v-10.2a27.043 27.043 0 0 0-27.112-27.113zm96.636 0a27.043 27.043 0 0 0-27.112 27.112v10.2a27.043 27.043 0 0 0 27.112 27.112h10.2a27.043 27.043 0 0 0 27.112-27.111v-10.2a27.043 27.043 0 0 0-27.112-27.113zm-193.272 53.687a27.043 27.043 0 0 0-27.112 27.112v10.2a27.043 27.043 0 0 0 27.112 27.112h10.2a27.043 27.043 0 0 0 27.112-27.112v-10.2a27.043 27.043 0 0 0-27.112-27.112z"/></svg>