<svg xmlns="http://www.w3.org/2000/svg" viewBox="0 0 1000 1000" preserveAspectRatio="xMinYMin" width="1000" height="1000">
<title>Microsoft MakeCode logo</title>
<path d="M384.757 457.681c0 14.652-5.277 27.128-15.839 37.44-10.557 10.31-23.214 15.46-37.969 15.46-14.75 0-27.26-5.15-37.513-15.46-10.256-10.312-15.388-22.788-15.388-37.44 0-14.956 5.132-27.663 15.388-38.116 10.253-10.463 22.763-15.693 37.513-15.693 14.755 0 27.412 5.23 37.97 15.693 10.56 10.453 15.838 23.16 15.838 38.116zm337.244 0c0 14.652-5.278 27.128-15.84 37.44-10.556 10.31-23.214 15.461-37.968 15.461-14.75 0-27.26-5.15-37.513-15.462-10.257-10.311-15.387-22.787-15.387-37.439 0-14.955 5.13-27.662 15.387-38.116 10.252-10.463 22.763-15.692 37.513-15.692 14.754 0 27.412 5.229 37.969 15.692C716.723 430.02 722 442.726 722 457.681zM222.913 795.22c-20.715-.068-40.282-4.586-57.81-12.927-48.632-18.168-72.948-58.8-72.948-121.897V531.639c0-57.744-24.932-88.041-74.8-90.887v-52.88c49.868-2.846 74.8-33.738 74.8-92.676V170.018c0-76.69 34.96-120.632 104.877-131.829 11.503-2.717 23.58-4 35.991-3.664h76.596l62.507.556 43.064.677 14.677.557h5.249l3.696.676 5.248 1.789 2.624 1.79 3.592 3.021 5.836 7.278 3.108 15.113v4.255l-1.07 4.81c-1.954 6.891-3.443 8.222-5.732 13.879l-7.875 19.923-16.23 38.056-.589 1.911-.482 1.112c.084-.17-2.226 11.339 2.037 23.621 4.345 12.284 12.892 24.735 26.833 32.014 15.58 8.026 16.4 10.855 43.549 9.066h.482c15.181-.75 21.669-4.158 25.28-6.601 3.108-2.175 3.022-4.158 10.5-10.3 7.452-7.085 10.896-31.818 7.284-41.755v-.556l-28.282-82.836-2.142-5.367v-5.489l2.142-10.856 3.59-7.278 3.696-4.256 3.212-2.344 6.215-3.022 4.284-1.234 4.661-.677h40.922l29.943.677H775.243c10.943 0 21.57 1.24 31.75 3.628 67.273 12.056 100.91 55.19 100.91 129.403v128.757c0 57.746 24.932 88.042 74.799 90.887v52.88c-49.867 2.846-74.8 33.738-74.8 92.677v125.176c0 71.488-30.378 114.52-91.134 129.098-9.978 3.628-20.529 6.124-31.465 8.168l-199.67-.558 15.265 43.546v.558c12.954 36.465 6.719 81.12-22.551 108.805l-.588.558-1.07 1.23c6.655-5.099-3.527 5.007-14.678 12.768-10.981 7.542-26.814 13.877-48.795 15.106-32.966 1.983-52.072-6.524-66.687-13.998l-.483-.558c-26.415-13.975-43.798-37.957-52.49-62.905-8.464-24.081-10.1-49.112.48-71.858l.59-2.467 10.98-27.203-182.693-1.214zm147.719-57.55l55.487.788 14.678.557h5.25l3.695.675 5.247 1.79 2.625 1.79 3.591 3.021 5.837 7.279 3.108 15.112v4.255l-1.07 4.808c-1.954 6.894-3.443 8.22-5.731 13.877l-7.876 19.926-16.23 38.055-.59 1.916-.48 1.109c.084-.174-2.226 11.335 2.036 23.62 4.346 12.286 12.891 24.737 26.833 32.015 15.58 8.025 16.4 10.853 43.548 9.065h.484c15.18-.746 21.669-4.155 25.279-6.599 3.108-2.18 3.022-4.163 10.499-10.302 7.453-7.081 10.898-31.818 7.285-41.75v-.559l-28.281-82.837-2.142-5.368v-5.488l2.142-10.855 3.589-7.279 3.697-4.255 3.21-2.346 6.216-3.02 4.284-1.235 4.662-.678h40.922l181.623.678c14.367-.536 27.06-3.977 37.769-9.442 20.415-13.393 30.627-38.007 30.627-73.842V525.047c0-60.683 23.085-97.955 69.248-111.818v-1.79c-46.163-12.945-69.248-49.851-69.248-110.718V175.683c0-31.949-5.573-54.785-16.728-68.51l-3.416-3.75c-12.95-7.82-29.172-12.71-47.06-12.71l-194.226-.556h-6.32l15.265 43.545v.558c12.955 36.46 6.72 81.117-22.55 108.8l-.589.558-1.07 1.233c6.656-5.102-3.528 5.005-14.678 12.765-10.98 7.545-26.813 13.879-48.796 15.111-32.965 1.984-52.072-6.527-66.686-13.999l-.483-.556c-26.413-13.976-43.798-37.959-52.491-62.912-8.461-24.08-10.098-49.105.483-71.857l.587-2.467 10.982-27.2-23.138-.555-61.918-.678h-77.668c-19.274-.598-35.846 3.9-49.027 11.592-16.88 14.03-25.32 37.336-25.32 69.919v127.104c0 60.683-23.083 97.956-69.25 111.819v1.79c46.167 12.945 69.25 49.85 69.25 110.715v125.04c0 31.948 5.575 54.785 16.727 68.51 3.66 4.503 8.202 8.297 13.628 11.383 10.55 4.336 22.566 6.87 35.445 6.87l147.224.426z" fill="#ff7d00"/></svg>