<svg xmlns="http://www.w3.org/2000/svg" viewBox="0 0 1000 1000" preserveAspectRatio="xMinYMin" width="1000" height="1000">
<title>Microsoft MakeCode logo</title>
<path d="M248.813 782.123H247.7c-58.82-.136-101.638-11.227-128.463-33.271-26.997-22.184-40.494-61.709-40.494-118.586V530.38c0-51.026-18.9-76.533-56.697-76.533v-77.753c37.796 0 56.697-27.267 56.697-81.8v-95.437c0-58.76 13.348-100.066 40.049-123.913 26.532-23.698 69.502-35.625 128.908-35.773l.78.005H435.362c.125 1.27-.055 2.812-.542 4.71-2.13 8.248-10.113 23.146-16.758 40.97-6.653 17.823-11.975 38.574-10.91 59.063 1.061 20.482 8.514 40.696 23.146 54.797 14.631 14.102 36.451 22.086 60.655 24.48 24.212 2.392 50.815-.799 69.431-13.305 18.631-12.497 29.271-34.316 32.194-52.94 2.927-18.62-1.865-34.048-6.918-49.215l-14.893-42.3c-4.132-11.175-7.594-20.131-8.368-26.26h196.636l1.794-.005c55.933.258 96.541 12.181 121.836 35.773 25.565 23.847 38.34 64.567 38.34 122.162v98.135c0 53.903 18.9 80.853 56.699 80.853v77.753c-37.8 0-56.7 25.913-56.7 77.748v96.108c0 58.584-12.708 98.964-38.142 121.148-25.173 21.951-65.846 33.042-122.033 33.271l-1.794.003h-187.2c1.32 6.962 5.005 16.54 9.325 28.226l17.197 48.822c5.828 17.499 11.36 35.31 7.979 56.805-3.375 21.487-15.655 46.667-37.155 61.104-21.491 14.429-52.199 18.114-80.137 15.354-27.941-2.76-53.122-11.98-70.01-28.251-16.887-16.271-25.486-39.609-26.71-63.25-1.23-23.649 4.91-47.593 12.587-68.171 7.674-20.57 16.883-37.767 19.343-47.285l.619-3.357h-176.06zM631.026 409.37c0 19.739 6.061 35.77 18.184 48.097 12.122 12.326 27.847 18.49 47.174 18.49 18.736 0 34.228-6.05 46.478-18.15 12.249-12.1 18.373-27.64 18.373-46.622 0-18.83-6.061-34.52-18.182-47.075-12.124-12.555-27.679-18.83-46.669-18.83-18.48 0-33.993 6.107-46.54 18.32-12.545 12.214-18.818 27.47-18.818 45.77zm-392.507.005c0 19.737 6.126 35.77 18.376 48.097 12.25 12.326 27.954 18.489 47.111 18.489 18.65 0 34.101-6.05 46.35-18.15 12.249-12.099 18.373-27.64 18.373-46.621 0-18.83-6.04-34.522-18.118-47.075-12.08-12.555-27.615-18.83-46.605-18.83-18.396 0-33.908 6.106-46.54 18.319-12.631 12.213-18.947 27.47-18.947 45.771z" fill="#ff7d00"/></svg>