<svg xmlns="http://www.w3.org/2000/svg" width="1000" height="1000" viewBox="0 0 1000 1000"><path d="M323.602 126.476l130.999 131V24.925h87.33l.003 232.55 131-131v101.887L498.265 403.03 323.602 228.363V126.476zm313.546 580.778c0-29.145 23.646-52.807 52.813-52.807 29.201 0 52.793 23.662 52.793 52.807 0 29.153-23.592 52.835-52.793 52.835-29.167 0-52.813-23.682-52.813-52.835zm-387.91.009c0-29.148 23.668-52.816 52.834-52.816 29.148 0 52.8 23.668 52.8 52.816 0 29.153-23.652 52.831-52.8 52.831-29.166 0-52.835-23.678-52.835-52.831zm52.822-261.59l391.295.645c145.807 0 262.722 116.708 262.722 260.957 0 144.25-117.359 261.602-261.611 261.602H302.06c-144.243 0-261.604-117.352-261.604-261.602 0-144.249 117.36-261.602 261.604-261.602zM145.087 707.276c0 86.542 70.43 156.973 156.973 156.973h392.406c86.548 0 156.956-70.431 156.956-156.973 0-86.564-70.408-156.973-156.956-156.973H302.06c-86.542 0-156.973 70.409-156.973 156.973z"/></svg>