<svg xmlns="http://www.w3.org/2000/svg" width="1000" height="1000" viewBox="0 0 1000 1000"><path style="line-height:normal;text-indent:0;text-align:start;text-decoration-line:none;text-decoration-style:solid;text-decoration-color:#000;text-transform:none;block-progression:tb;isolation:auto;mix-blend-mode:normal" d="M209.265 169.658a46.275 44.247 0 0 0-46.27 44.243v572.198a46.275 44.247 0 0 0 46.27 44.243h598.419a46.275 44.247 0 0 0 46.27-44.243V213.901a46.275 44.247 0 0 0-46.27-44.243H209.265z" color="#000" font-weight="400" font-family="sans-serif" white-space="normal" overflow="visible"/><path d="M24.936 274.585v66.676h967.078v-66.676H24.936zm0 128.05v66.678h967.078v-66.677H24.936zm0 128.052v66.677h967.078v-66.677H24.936zm0 128.05v66.678h967.078v-66.678H24.936z"/><path d="M733.89 16.46h-66.676V983.54h66.676V16.461zm-128.051 0H539.16V983.54h66.678V16.461zm-128.051 0H411.11V983.54h66.678V16.461zm-128.05 0H283.06V983.54h66.677V16.461z"/></svg>