<svg xmlns="http://www.w3.org/2000/svg" viewBox="0 0 243.44 217.12"><defs><style>.cls-1{fill:#231f20;}</style></defs><g id="Layer_2" data-name="Layer 2"><g id="Layer_1-2" data-name="Layer 1"><path class="cls-1" d="M146.73,152a12.86,12.86,0,0,0,12.58,13.17,12.62,12.62,0,0,0,13.23-12.91,12.84,12.84,0,0,0-12.87-12.89C152.22,139.34,146.76,144.67,146.73,152Z"/><path class="cls-1" d="M51.51,152.5a13,13,0,0,0,13.1,12.86A13.19,13.19,0,0,0,77.7,152.43c0-6.74-6.42-13-13.25-13A13.08,13.08,0,0,0,51.51,152.5Z"/><path class="cls-1" d="M221.16,128.88A77.64,77.64,0,0,1,196.8,138a33.17,33.17,0,0,1,2.64,10c2.22,23.57-15.74,43.29-41,43-15.28-.17-30.57,0-45.85,0S82,191,66.75,191c-25-.05-42.1-18.29-40.44-43.08,1.08-16.19,17-32.11,33.13-33.47,12.24-1,24.49-.54,36.73-.47,9.37.06,18.74-.07,28.11-.16a78.11,78.11,0,0,1-15.65-26q-22.48,0-45,0A61.26,61.26,0,0,0,37.08,94C5.59,109-8.46,144.94,5.24,177.51c10.15,24.14,29.1,37.63,55.33,39.11,17.3,1,34.7.19,52.05.19v.31h44.91c8.43,0,16.75-.77,24.79-3.59,26.8-9.42,46.31-36.9,43-68.11A62,62,0,0,0,221.16,128.88Z"/><path class="cls-1" d="M182.05,122.77a61.39,61.39,0,1,0-61.38-61.38A61.38,61.38,0,0,0,182.05,122.77Zm-42.34-60,6.17-6.17a4.35,4.35,0,0,1,6.17,0l19.1,19.1,40.91-40.91a4.35,4.35,0,0,1,6.17,0l6.17,6.16a4.37,4.37,0,0,1,0,6.17L174.23,97.26h0a4.35,4.35,0,0,1-6.17,0L139.71,68.91A4.35,4.35,0,0,1,139.71,62.74Z"/></g></g></svg>