<svg xmlns="http://www.w3.org/2000/svg" aria-labelledby="title desc" viewBox="0 0 52.672 52.672"><path fill="none" d="M0 18.461h195.474v34.211H0z"/><path d="M37.363 29.377a3.04 3.04 0 01-3.035-3.042 3.035 3.035 0 013.035-3.038 3.035 3.035 0 013.039 3.038 3.038 3.038 0 01-3.039 3.042M15.052 23.3a3.04 3.04 0 00-3.042 3.035 3.044 3.044 0 003.042 3.042 3.042 3.042 0 003.036-3.042 3.037 3.037 0 00-3.036-3.035m-.003-5.99h22.576c4.979 0 9.027 4.047 9.027 9.027 0 4.979-4.049 9.031-9.027 9.031H15.049c-4.977 0-9.03-4.053-9.03-9.031-.001-4.98 4.053-9.027 9.03-9.027m22.576 24.076c8.299 0 15.047-6.75 15.047-15.049s-6.748-15.051-15.047-15.051H15.049C6.75 11.286 0 18.038 0 26.337s6.75 15.049 15.049 15.049h22.576"/></svg>