<svg width="37" height="39" viewBox="0 0 37 39" fill="none" xmlns="http://www.w3.org/2000/svg">
<path fill-rule="evenodd" clip-rule="evenodd" d="M5.47732 7.1692C5.47732 3.47633 8.49959 0.482666 12.2277 0.482666C15.9559 0.482666 18.9781 3.47633 18.9781 7.1692C18.9781 10.8621 15.9559 13.8557 12.2277 13.8557C8.49959 13.8557 5.47732 10.8621 5.47732 7.1692ZM12.2277 2.71151C9.7423 2.71151 7.72746 4.70729 7.72746 7.1692C7.72746 9.63112 9.7423 11.6269 12.2277 11.6269C14.7132 11.6269 16.728 9.63112 16.728 7.1692C16.728 4.70729 14.7132 2.71151 12.2277 2.71151ZM22.7284 8.6551C22.7284 5.78287 25.079 3.45446 27.9787 3.45446C30.8784 3.45446 33.229 5.78287 33.229 8.6551C33.229 11.5273 30.8784 13.8557 27.9787 13.8557C25.079 13.8557 22.7284 11.5273 22.7284 8.6551ZM27.9787 5.68331C26.3217 5.68331 24.9785 7.01382 24.9785 8.6551C24.9785 10.2964 26.3217 11.6269 27.9787 11.6269C29.6356 11.6269 30.9789 10.2964 30.9789 8.6551C30.9789 7.01382 29.6356 5.68331 27.9787 5.68331ZM4.35226 16.8275C2.48818 16.8275 0.977051 18.3244 0.977051 20.1708V20.9155L0.977056 20.9173L0.977075 20.9216L0.977169 20.9319L0.977689 20.9599C0.978224 20.9818 0.979193 21.0101 0.980927 21.0445C0.984392 21.1132 0.990929 21.2061 1.00323 21.3198C1.02779 21.5469 1.07559 21.8593 1.16886 22.2288C1.35508 22.9667 1.72635 23.9465 2.46777 24.9257C3.4145 26.176 4.89497 27.3371 7.16377 28.0361C7.31048 27.2935 7.54842 26.5837 7.86541 25.9189C5.97783 25.3434 4.89824 24.4209 4.26788 23.5884C3.74359 22.8959 3.48201 22.2041 3.35181 21.6882C3.28686 21.4309 3.25555 21.2209 3.24056 21.0823C3.23309 21.0132 3.22973 20.9625 3.22826 20.9332L3.22719 20.9068V20.1708C3.22719 19.5553 3.7309 19.0564 4.35226 19.0564H20.1032C20.7246 19.0564 21.2283 19.5553 21.2283 20.1708V20.7811H23.4784L23.4784 20.1708C23.4784 18.3244 21.9673 16.8275 20.1032 16.8275H4.35226ZM32.631 25.0803C32.2042 24.386 31.686 23.754 31.0931 23.201C32.6929 22.8297 33.5538 22.1945 34.0208 21.6658C34.3879 21.2503 34.5637 20.8446 34.6489 20.5553C34.6917 20.4099 34.7113 20.2946 34.7202 20.2241C34.7245 20.1904 34.7262 20.1675 34.7268 20.1571C34.7194 19.548 34.2186 19.0564 33.6018 19.0564H24.8459C24.6426 18.2039 24.2112 17.4387 23.6191 16.8275H33.6018C35.4659 16.8275 36.9771 18.3244 36.9771 20.1708V20.1728L36.977 20.1748L36.977 20.1793L36.9769 20.1895L36.9764 20.215C36.9761 20.2257 36.9756 20.2377 36.975 20.2511C36.9745 20.2618 36.9739 20.2734 36.9732 20.2858C36.9699 20.3414 36.9639 20.4138 36.953 20.5006C36.9311 20.6739 36.8892 20.9068 36.809 21.1794C36.6481 21.7259 36.3317 22.4346 35.7142 23.1335C35.035 23.9024 34.0472 24.6002 32.631 25.0803Z" fill="#F65D1D"/>
<path d="M16.667 22.1378C12.1104 22.1378 8.4165 25.7967 8.4165 30.3103C8.4165 34.8238 12.1104 38.4827 16.667 38.4827H24.1675C28.7241 38.4827 32.418 34.8238 32.418 30.3103C32.418 25.7967 28.7241 22.1378 24.1675 22.1378H16.667ZM14.4169 27.3385C14.4169 26.9281 14.7527 26.5955 15.1669 26.5955C15.5812 26.5955 15.917 26.9281 15.917 27.3385V29.5673H18.1671C18.5813 29.5673 18.9171 29.8999 18.9171 30.3103C18.9171 30.7206 18.5813 31.0532 18.1671 31.0532H15.917V33.282C15.917 33.6924 15.5812 34.025 15.1669 34.025C14.7527 34.025 14.4169 33.6924 14.4169 33.282V31.0532H12.1667C11.7525 31.0532 11.4167 30.7206 11.4167 30.3103C11.4167 29.8999 11.7525 29.5673 12.1667 29.5673H14.4169V27.3385ZM27.9177 28.0814C27.9177 28.902 27.2461 29.5673 26.4176 29.5673C25.5891 29.5673 24.9175 28.902 24.9175 28.0814C24.9175 27.2608 25.5891 26.5955 26.4176 26.5955C27.2461 26.5955 27.9177 27.2608 27.9177 28.0814ZM23.4174 34.025C22.5889 34.025 21.9173 33.3597 21.9173 32.5391C21.9173 31.7185 22.5889 31.0532 23.4174 31.0532C24.2459 31.0532 24.9175 31.7185 24.9175 32.5391C24.9175 33.3597 24.2459 34.025 23.4174 34.025Z" fill="#F65D1D"/>
</svg>
