<svg xmlns="http://www.w3.org/2000/svg" width="1000" height="1000" fill="none" viewBox="0 0 27.027 27.027"><g fill="#f15e23"><path d="M13.536.652a3.367 3.367 0 1 0 0 6.735 3.367 3.367 0 0 0 0-6.735Zm0 5.291a1.924 1.924 0 1 1 0-3.848 1.924 1.924 0 0 1 0 3.848ZM21.232 1.614a2.887 2.887 0 1 0 0 5.773 2.887 2.887 0 0 0 0-5.773Zm0 4.33a1.443 1.443 0 1 1 0-2.886 1.443 1.443 0 0 1 0 2.885ZM16.662 8.348H10.41a2.165 2.165 0 0 0-2.165 2.165v4.214c.43-.167.88-.277 1.337-.327 0-1.424.106-2.838.106-3.848a.722.722 0 0 1 .722-.722h6.253a.712.712 0 0 1 .722.722V14.4c.494.038.98.148 1.443.327v-4.204a2.165 2.165 0 0 0-2.165-2.175ZM22.916 8.348h-3.993c.387.402.66.9.79 1.444h3.203a.712.712 0 0 1 .722.721v5.051a2.887 2.887 0 0 1-1.52 2.53c.157.477.25.972.279 1.472a4.33 4.33 0 0 0 2.684-4.002v-5.05a2.164 2.164 0 0 0-2.165-2.166ZM5.839 1.614a2.886 2.886 0 1 0 0 5.772 2.886 2.886 0 0 0 0-5.772Zm0 4.33a1.443 1.443 0 1 1 0-2.887 1.443 1.443 0 0 1 0 2.886ZM4.155 9.792H7.37c.13-.543.401-1.042.788-1.444H4.155a2.165 2.165 0 0 0-2.165 2.165v5.051a4.33 4.33 0 0 0 2.714 4.012c.027-.498.121-.99.279-1.462a2.886 2.886 0 0 1-1.55-2.55v-5.05a.722.722 0 0 1 .722-.722ZM11.13 15.43a5.292 5.292 0 0 0 0 10.583h4.81a5.291 5.291 0 1 0 0-10.583Zm-1.443 3.367a.49.49 0 0 1 .481-.481.481.481 0 0 1 .481.48v1.444h1.443a.481.481 0 0 1 0 .962H10.65v1.443a.481.481 0 0 1-.962 0v-1.443H8.244a.481.481 0 0 1-.481-.48.49.49 0 0 1 .481-.482h1.443Zm8.66.481a.962.962 0 1 1-1.925 0 .962.962 0 0 1 1.924 0Zm-2.887 3.848a.962.962 0 1 1 0-1.923.962.962 0 0 1 0 1.923z"/></g></svg>