<svg xmlns="http://www.w3.org/2000/svg" width="1000" height="1000" fill="none"><path fill="#fff" fill-rule="evenodd" d="M358.861 379.096c-126.112 0-230.504 92.993-248.344 214.148-2.978 20.221 13.878 36.887 34.317 36.887h74.824c42.746-66.769 117.574-111.026 202.738-111.026h185.04c85.164 0 159.991 44.256 202.738 111.026h53.537c15.33 0 27.971-12.5 25.738-27.665-13.38-90.867-91.674-160.612-186.258-160.612-51.472 0-98.119 20.655-132.106 54.128-44.499-70.249-122.915-116.886-212.224-116.886Z" clip-rule="evenodd"/><path fill="#fff" d="M422.396 556.113c-112.415 0-203.545 91.13-203.545 203.545 0 112.414 91.13 203.544 203.545 203.544h185.04c112.415 0 203.545-91.13 203.545-203.544 0-112.415-91.13-203.545-203.545-203.545h-185.04Zm-55.512 129.529c0-10.22 8.284-18.504 18.504-18.504 10.219 0 18.504 8.284 18.504 18.504v55.512h55.512c10.219 0 18.504 8.284 18.504 18.504 0 10.219-8.285 18.504-18.504 18.504h-55.512v55.512c0 10.219-8.285 18.504-18.504 18.504-10.22 0-18.504-8.285-18.504-18.504v-55.512h-55.513c-10.219 0-18.504-8.285-18.504-18.504 0-10.22 8.285-18.504 18.504-18.504h55.513v-55.512Zm333.072 18.504c0 20.439-16.569 37.008-37.008 37.008-20.439 0-37.008-16.569-37.008-37.008 0-20.439 16.569-37.008 37.008-37.008 20.439 0 37.008 16.569 37.008 37.008ZM588.932 852.178c-20.439 0-37.008-16.569-37.008-37.008 0-20.439 16.569-37.008 37.008-37.008 20.439 0 37.008 16.569 37.008 37.008 0 20.439-16.569 37.008-37.008 37.008Z"/><circle cx="358.863" cy="199.158" r="161.158" fill="#fff"/><circle cx="703.194" cy="306.901" r="120.869" fill="#fff"/></svg>