<svg id="Layer_1" data-name="Layer 1" xmlns="http://www.w3.org/2000/svg" viewBox="0 0 35 35"><defs><style>.cls-1{fill:#acacac;}</style></defs><title>_</title><path class="cls-1" d="M30.77,19.85a3.55,3.55,0,0,1,3.06,3.68c0,1.61-.9,3.51-3.06,3.51H13.24c-3.36,0-4.58-2.3-4.58-4.67,0-4,4.42-4.11,4.42-4.11s.36-4.34,4.22-5.22a5.63,5.63,0,0,1,6.32,2.42,5.29,5.29,0,0,1,4.47-.16A4.51,4.51,0,0,1,30.77,19.85Z"/><path class="cls-1" d="M7.55,22.51c0-4.42,4.67-5.08,4.67-5.08a6.72,6.72,0,0,1,4.84-5.33,6.13,6.13,0,0,1,6.84,2.28,4,4,0,0,1,2.29-.46,7.17,7.17,0,0,0-4.49-5.79,6.75,6.75,0,0,0-8.58,3.13A5.34,5.34,0,0,0,8,11.17a5.67,5.67,0,0,0-2.91,5.57,4.32,4.32,0,0,0-3.94,4.52,4.53,4.53,0,0,0,4.34,4.38H8.44A5.63,5.63,0,0,1,7.55,22.51Z"/></svg>