<?xml version="1.0" encoding="UTF-8" standalone="no"?><!DOCTYPE svg PUBLIC "-//W3C//DTD SVG 1.1//EN" "http://www.w3.org/Graphics/SVG/1.1/DTD/svg11.dtd"><svg width="1000" height="1000" viewBox="0 0 1000 1000" version="1.1" xmlns="http://www.w3.org/2000/svg" xmlns:xlink="http://www.w3.org/1999/xlink" xml:space="preserve" xmlns:serif="http://www.serif.com/" style="fill-rule:evenodd;clip-rule:evenodd;stroke-linejoin:round;stroke-miterlimit:1.41421;"><path d="M503.415,730.842l-1.25,28.765l228.868,2.501c0,0 0.553,83.963 0,96.3c-3.535,78.874 -47.389,95.999 -128.817,110.057c-81.427,14.057 -171.498,5.077 -205.105,0c-108.896,-16.451 -121.313,-112.558 -121.313,-112.558c0,0 -0.481,-204.44 0,-240.124c0.481,-35.684 45.171,-100.562 101.302,-102.553c71.167,-2.524 194.071,2.041 252.63,0c58.56,-2.04 130.375,-58.917 132.569,-132.568c2.193,-73.652 1.25,-115.06 1.25,-115.06l90.047,2.502c0,0 119.183,-4.794 121.312,246.377c1.989,234.636 -179.876,216.383 -180.093,216.361l-291.4,0Zm129.442,173.84c-23.814,0 -43.147,-19.334 -43.147,-43.147c0,-23.814 19.333,-43.148 43.147,-43.148c23.814,0 43.147,19.334 43.147,43.148c0,23.813 -19.333,43.147 -43.147,43.147Zm-424.791,-641.549l291.4,0l1.25,-28.765l-228.868,-2.501c0,0 -0.552,-83.963 0,-96.3c3.535,-78.874 47.389,-95.999 128.817,-110.057c81.427,-14.057 171.499,-5.077 205.106,0c108.895,16.451 121.312,112.558 121.312,112.558c0,0 0.481,204.44 0,240.124c-0.481,35.684 -45.171,100.562 -101.302,102.553c-71.167,2.524 -194.071,-2.041 -252.63,0c-58.56,2.04 -130.375,58.917 -132.569,132.568c-2.193,73.651 -1.25,115.059 -1.25,115.059l-90.047,-2.501c0,0 -119.183,4.794 -121.312,-246.377c-1.99,-234.776 180.093,-216.361 180.093,-216.361Zm161.958,-173.84c23.814,0 43.147,19.334 43.147,43.147c0,23.814 -19.333,43.148 -43.147,43.148c-23.814,0 -43.147,-19.334 -43.147,-43.148c0,-23.813 19.333,-43.147 43.147,-43.147Z"/></svg>
