<svg xmlns="http://www.w3.org/2000/svg" width="1000" height="1000" fill="none"><g clip-path="url(#a)"><path fill="#000" d="M119.091 600H100C44.772 600 0 644.77 0 700v200c0 55.23 44.772 100 100 100h800c55.23 0 100-44.77 100-100V700c0-55.23-44.77-100-100-100H577.3l-65.81 65.7a162.515 162.515 0 0 1-68.09 40.64l-214.65 64.43c-52.897 15.88-108.65-14.13-124.528-67.03a100.003 100.003 0 0 1 .591-59.4L119.091 600ZM832.395 47.201c62.82 62.858 62.785 164.738-.07 227.555l-356.16 355.559a112.515 112.515 0 0 1-47.14 28.135l-214.65 64.43c-26.448 7.94-54.325-7.065-62.264-33.515a49.998 49.998 0 0 1 .296-29.7l68.07-211.4a112.497 112.497 0 0 1 27.601-45.135L604.72 47.072c62.915-62.813 164.83-62.755 227.675.13Z"/></g><defs><clipPath id="a"><path fill="#fff" d="M0 0h1000v1000H0z"/></clipPath></defs></svg>