<svg width="401" height="401" viewBox="0 0 401 401" fill="none" xmlns="http://www.w3.org/2000/svg">
<path fill-rule="evenodd" clip-rule="evenodd" d="M153.171 52.4886L165.942 39.6909L240.074 113.977L165.942 188.263L153.171 175.465L205.503 123.024H106.38L106.375 123.024L106.361 123.025L106.344 123.026C106.334 123.026 106.322 123.027 106.308 123.028C106.262 123.03 106.202 123.036 106.125 123.044C105.972 123.06 105.77 123.086 105.52 123.127C105.021 123.208 104.354 123.34 103.536 123.541C101.901 123.943 99.6873 124.613 97.0287 125.678C91.9332 127.718 85.8248 130.965 79.9792 135.726C68.4938 145.081 57.7927 160.409 57.7927 185.138C57.7927 204.48 66.0542 218.822 76.6617 229.144C87.4445 239.638 100.458 245.74 108.798 248.061L110.671 248.582L105.838 266.017L103.961 265.495C93.0948 262.47 77.2988 254.993 64.0734 242.122C50.6736 229.083 39.7276 210.278 39.7276 185.138C39.7276 154.264 53.4512 134.012 68.5817 121.687C76.0445 115.609 83.7927 111.491 90.3233 108.876C96.5568 106.38 102.503 104.93 106.38 104.93H205.503L153.171 52.4886ZM259.131 156.715V109.775L281.87 150.29L277.196 152.924V156.715H270.469L266.126 159.163L264.752 156.715H259.131ZM273.984 173.164L289.728 164.291L301.396 185.081L285.652 193.954L277.196 178.888V198.464H259.131V173.697H274.283L273.984 173.164ZM293.509 207.955L309.253 199.082L320.921 219.872L305.177 228.745L293.509 207.955ZM259.131 215.446H277.196V240.213H259.131V215.446ZM0.757812 362.123L252.574 220.206L252.574 362.123H0.757812ZM313.035 242.745L328.779 233.872L340.447 254.662L324.703 263.535L313.035 242.745ZM234.509 344.029L234.509 251.149L69.7047 344.029H234.509ZM259.131 257.195H277.196V281.962H259.131V257.195ZM332.561 277.536L348.305 268.663L359.973 289.453L344.229 298.326L332.561 277.536ZM259.131 298.944H277.196L277.196 323.711H259.131V298.944ZM352.087 312.327L367.831 303.454L379.499 324.244L363.755 333.117L352.087 312.327ZM377.093 344.029L387.356 338.245L400.758 362.123H373.609L373.609 350.676L371.612 347.118L373.609 345.992V344.029H377.093ZM259.131 340.693H277.196V344.029H279.873V362.123H259.131V340.693ZM295.506 344.029H318.925V362.123H295.506V344.029ZM334.558 344.029H357.976V362.123H334.558V344.029Z" fill="black"/>
</svg>
