<svg width="401" height="401" viewBox="0 0 401 401" fill="none" xmlns="http://www.w3.org/2000/svg">
<path fill-rule="evenodd" clip-rule="evenodd" d="M247.626 52.4886L234.855 39.6909L160.724 113.977L234.855 188.263L247.626 175.465L195.294 123.024H294.418L294.422 123.024L294.437 123.025L294.453 123.026C294.464 123.026 294.476 123.027 294.49 123.028C294.535 123.03 294.596 123.036 294.672 123.044C294.826 123.06 295.027 123.086 295.277 123.127C295.776 123.208 296.443 123.34 297.261 123.541C298.896 123.943 301.11 124.613 303.769 125.678C308.864 127.718 314.973 130.965 320.818 135.726C332.304 145.081 343.005 160.409 343.005 185.138C343.005 204.48 334.743 218.822 324.136 229.144C313.353 239.638 300.339 245.74 291.999 248.061L290.126 248.582L294.959 266.017L296.836 265.495C307.703 262.47 323.499 254.993 336.724 242.122C350.124 229.083 361.07 210.278 361.07 185.138C361.07 154.264 347.346 134.012 332.216 121.687C324.753 115.609 317.005 111.491 310.474 108.876C304.241 106.38 298.294 104.93 294.418 104.93H195.294L247.626 52.4886ZM141.666 156.715V109.775L118.927 150.29L123.601 152.924V156.715H130.328L134.671 159.163L136.045 156.715H141.666ZM126.814 173.164L111.07 164.291L99.4017 185.081L115.146 193.954L123.601 178.888V198.464H141.666V173.697H126.515L126.814 173.164ZM107.288 207.955L91.544 199.082L79.876 219.872L95.62 228.745L107.288 207.955ZM141.666 215.446H123.601V240.213H141.666V215.446ZM400.04 362.123L148.223 220.206L148.223 362.123H400.04ZM87.7623 242.745L72.0182 233.872L60.3503 254.662L76.0943 263.535L87.7623 242.745ZM166.288 344.029L166.288 251.149L331.093 344.029H166.288ZM141.666 257.195H123.601V281.962H141.666V257.195ZM68.2365 277.536L52.4925 268.663L40.8245 289.453L56.5686 298.326L68.2365 277.536ZM141.666 298.944H123.601L123.601 323.711H141.666V298.944ZM48.7108 312.327L32.9668 303.454L21.2988 324.244L37.0428 333.117L48.7108 312.327ZM23.7043 344.029L13.4411 338.245L0.0395508 362.123H27.1883L27.1883 350.676L29.1851 347.118L27.1883 345.992V344.029H23.7043ZM141.666 340.693H123.601V344.029H120.924V362.123H141.666V340.693ZM105.291 344.029H81.8728V362.123H105.291V344.029ZM66.2397 344.029H42.8214V362.123H66.2397V344.029Z" fill="black"/>
</svg>
