<svg width="15" height="15" viewBox="0 0 15 15" fill="none" xmlns="http://www.w3.org/2000/svg">
<path fill-rule="evenodd" clip-rule="evenodd" d="M12.7191 4.51721C11.907 6.09504 10.7133 8.06815 9.22084 9.51705C7.73434 10.9602 5.74955 12.0792 4.17233 12.8303C3.3771 13.2091 2.67203 13.5005 2.16518 13.6974C1.91157 13.796 1.70709 13.8711 1.56519 13.9218C1.49422 13.9472 1.43886 13.9665 1.4008 13.9796L1.35686 13.9946L1.34499 13.9985L1.34065 14C1.34065 14 1.34008 14.0002 1.1701 13.2178C1.00012 12.4354 1 12.4354 1 12.4354L1.00222 12.4347L1.01122 12.4316L1.04924 12.4187C1.08329 12.4069 1.13443 12.3891 1.20101 12.3653C1.33419 12.3177 1.52899 12.2462 1.77212 12.1517C2.25874 11.9626 2.93699 11.6823 3.70112 11.3184C5.24265 10.5843 7.08084 9.53439 8.41127 8.24278C9.73575 6.95694 10.8358 5.158 11.6132 3.64745C11.9991 2.89768 12.2995 2.23088 12.5029 1.75289C12.6045 1.51412 12.6816 1.32307 12.7328 1.19306C12.7584 1.12808 12.7776 1.07839 12.79 1.04569L12.8036 1.00958L12.8067 1.00148L12.8072 1C12.8072 1 12.8071 1.00022 13.4036 1.3358C14.0001 1.67138 14 1.67172 14 1.67172L13.9994 1.67338L13.998 1.67712L13.9933 1.68979L13.9761 1.73528C13.9612 1.77436 13.9396 1.83067 13.9112 1.90253C13.8546 2.04622 13.7714 2.25227 13.663 2.5071C13.4463 3.01634 13.128 3.7228 12.7191 4.51721Z" fill="black"/>
</svg>
