<svg width="15" height="15" viewBox="0 0 15 15" fill="none" xmlns="http://www.w3.org/2000/svg">
<path fill-rule="evenodd" clip-rule="evenodd" d="M10.358 10.6475C10.4326 10.7761 10.597 10.7761 10.6716 10.6475L13.0593 6.52912L14 7.25024L11.6123 11.3686C11.0902 12.2691 9.93945 12.2691 9.41736 11.3686L7.65678 8.3319C7.58219 8.20326 7.4178 8.20326 7.34321 8.3319L5.58263 11.3686C5.06054 12.2691 3.90978 12.2691 3.3877 11.3686L0.999991 7.25024L1.94067 6.52913L4.32838 10.6475C4.40297 10.7761 4.56736 10.7761 4.64194 10.6475L6.40253 7.61079C6.92461 6.7103 8.07537 6.71029 8.59746 7.61079L10.358 10.6475Z" fill="black"/>
<path fill-rule="evenodd" clip-rule="evenodd" d="M10.3718 6.27668C10.447 6.37756 10.5828 6.37756 10.658 6.27668L13.1005 2.99993L13.9589 3.84596L11.5163 7.12271C10.9899 7.82889 10.0398 7.82889 9.51345 7.12271L7.64313 4.61365C7.56793 4.51277 7.4322 4.51277 7.357 4.61365L5.48668 7.12271C4.96028 7.82889 4.01019 7.82889 3.48378 7.12271L1.04121 3.84596L1.8996 2.99993L4.34217 6.27668C4.41737 6.37756 4.5531 6.37756 4.6283 6.27668L6.49861 3.76762C7.02502 3.06144 7.97511 3.06144 8.50152 3.76762L10.3718 6.27668Z" fill="black"/>
</svg>
