<svg width="15" height="15" viewBox="0 0 15 15" fill="none" xmlns="http://www.w3.org/2000/svg">
<path fill-rule="evenodd" clip-rule="evenodd" d="M3.53718 11.3367C3.0728 12.317 2.31616 13.25 1 13.25V11.75C1.43384 11.75 1.8022 11.4955 2.18157 10.6946C2.51773 9.98489 2.75941 9.05659 3.03183 8.0102C3.07039 7.86211 3.10955 7.71166 3.14969 7.55913C3.45876 6.38469 3.82554 5.09098 4.439 4.09193C5.07777 3.05164 6.03922 2.25 7.5 2.25C8.96078 2.25 9.92223 3.05164 10.561 4.09193C11.1745 5.09098 11.5412 6.38469 11.8503 7.55913C11.8904 7.71166 11.9296 7.86211 11.9682 8.01019C12.2406 9.05659 12.4823 9.98489 12.8184 10.6946C13.1978 11.4955 13.5662 11.75 14 11.75V13.25C12.6838 13.25 11.9272 12.317 11.4628 11.3367C11.0609 10.4882 10.7797 9.404 10.5142 8.38025C10.4758 8.23223 10.4377 8.08547 10.3997 7.94087C10.0838 6.74031 9.76304 5.65902 9.28275 4.87682C8.82777 4.13586 8.28922 3.75 7.5 3.75C6.71078 3.75 6.17223 4.13586 5.71725 4.87682C5.23696 5.65902 4.91624 6.74031 4.60031 7.94087C4.56225 8.08547 4.52419 8.23223 4.4858 8.38025C4.22028 9.404 3.93908 10.4882 3.53718 11.3367Z" fill="black"/>
</svg>
