<svg width="15" height="15" viewBox="0 0 15 15" fill="none" xmlns="http://www.w3.org/2000/svg">
<path fill-rule="evenodd" clip-rule="evenodd" d="M1.77307 10.2867C1.77307 10.2867 1.7731 10.2866 0.886521 10.15C-5.65052e-05 10.0134 3.61549e-07 10.0132 3.61549e-07 10.0132L0.00117353 10.0079L0.00416613 9.99475L0.0153877 9.9462C0.0251772 9.90433 0.0395703 9.84382 0.0584225 9.76733C0.0961069 9.61444 0.15172 9.39727 0.224118 9.13711C0.368419 8.61858 0.581634 7.92121 0.855301 7.21878C1.12549 6.5253 1.46985 5.78646 1.88912 5.207C2.09839 4.91777 2.35068 4.6337 2.65566 4.41452C2.96323 4.19347 3.38061 4 3.89203 4C4.42026 4 4.8352 4.20591 5.13088 4.45382C5.41292 4.6903 5.62048 4.99033 5.78096 5.27866C6.09388 5.84088 6.33542 6.56437 6.55091 7.2098C6.55531 7.22299 6.55971 7.23615 6.56409 7.24927C6.79609 7.944 7.00192 8.55237 7.24614 8.99116C7.3454 9.16949 7.43199 9.28349 7.49863 9.35126C7.56527 9.28349 7.65187 9.16949 7.75112 8.99116C7.99534 8.55237 8.20117 7.944 8.43318 7.24927L8.44635 7.2098C8.66184 6.56437 8.90339 5.84088 9.21631 5.27866C9.37678 4.99033 9.58435 4.6903 9.86639 4.45382C10.1621 4.20591 10.577 4 11.1052 4C11.6493 4 12.0775 4.22797 12.3765 4.46677C12.6764 4.70618 12.9233 5.01533 13.1284 5.33029C13.5406 5.96321 13.8811 6.77361 14.1498 7.54C14.4217 8.31531 14.6337 9.08587 14.7774 9.65953C14.8495 9.9472 14.9048 10.1873 14.9422 10.3561C14.961 10.4405 14.9753 10.5073 14.985 10.5533L14.996 10.6066L14.999 10.6209L15 10.6261C15 10.6261 15.0001 10.6267 14.1107 10.75C13.2214 10.8733 13.2214 10.8734 13.2214 10.8734L13.2208 10.8704L13.2184 10.859L13.2086 10.8119C13.1998 10.7701 13.1865 10.7079 13.1689 10.6283C13.1335 10.469 13.0809 10.2403 13.012 9.96547C12.8739 9.41413 12.6727 8.68469 12.4186 7.96C12.1614 7.22639 11.8632 6.53679 11.5428 6.04471C11.3816 5.79717 11.2388 5.63757 11.1277 5.54885C11.1233 5.54535 11.1191 5.54206 11.1151 5.53895C11.0472 5.60531 10.957 5.72162 10.8527 5.90884C10.6085 6.34763 10.4027 6.956 10.1707 7.65073L10.1575 7.69019C9.94203 8.33563 9.70048 9.05912 9.38756 9.62134C9.22708 9.90967 9.01952 10.2097 8.73748 10.4462C8.44181 10.6941 8.02686 10.9 7.49863 10.9C6.9704 10.9 6.55545 10.6941 6.25978 10.4462C5.97774 10.2097 5.77018 9.90967 5.6097 9.62134C5.29678 9.05911 5.05523 8.33562 4.83974 7.69018C4.83534 7.677 4.83095 7.66385 4.82657 7.65073C4.59457 6.956 4.38874 6.34763 4.14452 5.90884C4.03335 5.7091 3.93806 5.59008 3.86891 5.5263C3.85882 5.53269 3.84739 5.54036 3.83462 5.54955C3.72869 5.62567 3.5912 5.76348 3.43418 5.9805C3.12085 6.41354 2.82655 7.0247 2.57077 7.68122C2.31847 8.32879 2.11843 8.98142 1.98097 9.47539C1.91248 9.72149 1.86008 9.92618 1.82498 10.0686C1.80744 10.1398 1.79424 10.1953 1.78554 10.2325L1.77588 10.2743L1.77363 10.2842L1.77307 10.2867Z" fill="black"/>
</svg>
