<svg width="15" height="15" viewBox="0 0 15 15" fill="none" xmlns="http://www.w3.org/2000/svg">
<path fill-rule="evenodd" clip-rule="evenodd" d="M4.5 3.75C4.36193 3.75 4.25 3.86193 4.25 4V10.5C4.25 11.4665 3.4665 12.25 2.5 12.25H0V10.75H2.5C2.63807 10.75 2.75 10.6381 2.75 10.5V4C2.75 3.0335 3.5335 2.25 4.5 2.25H10.5C11.4665 2.25 12.25 3.0335 12.25 4V10.5C12.25 10.6381 12.3619 10.75 12.5 10.75H14.5V12.25H12.5C11.5335 12.25 10.75 11.4665 10.75 10.5V4C10.75 3.86193 10.6381 3.75 10.5 3.75H4.5Z" fill="black"/>
</svg>
