<svg width="15" height="15" viewBox="0 0 15 15" fill="none" xmlns="http://www.w3.org/2000/svg">
<path fill-rule="evenodd" clip-rule="evenodd" d="M13.7127 6.25098C13.392 7.96741 12.6807 10.1538 11.0367 11.3755C10.2209 11.9818 9.16547 12.3552 8.09576 12.5906C7.01617 12.8283 5.8667 12.937 4.82367 12.9785C3.77837 13.02 2.82541 12.9946 2.13431 12.9589C1.7883 12.9411 1.50678 12.9206 1.31078 12.9045C1.21275 12.8964 1.13604 12.8895 1.08326 12.8844L1.02234 12.8785L1.00595 12.8768L1 12.8762C1 12.8762 0.999248 12.8761 1.06814 12.1123C1.13704 11.3486 1.13689 11.3486 1.13689 11.3486L1.14015 11.3489L1.15287 11.3502L1.20614 11.3554C1.2537 11.36 1.32488 11.3664 1.41708 11.374C1.60153 11.3892 1.8698 11.4087 2.20113 11.4258C2.86471 11.46 3.77663 11.4842 4.77214 11.4446C5.76992 11.4049 6.8372 11.3017 7.81601 11.0863C8.80471 10.8686 9.64937 10.5478 10.241 10.1081C11.412 9.23788 12.0276 7.56506 12.3302 5.94525C12.4776 5.15673 12.5422 4.42633 12.5698 3.89219C12.5835 3.62592 12.588 2.41046 12.589 2.26342C12.5895 2.18994 12.5892 2.1337 12.5887 2.0969L12.5881 2.05661L12.5879 2.04795L12.5879 2.04688C12.5879 2.04688 12.5879 2.04724 13.2929 2.02338C13.9979 1.99952 13.998 2 13.998 2L13.998 2.00222L13.9981 2.00698L13.9985 2.02256L13.9993 2.07725C13.9999 2.12389 14.0003 2.19058 13.9997 2.27504C13.9985 2.44387 13.9935 3.68432 13.9783 3.97822C13.9481 4.56442 13.877 5.3714 13.7127 6.25098Z" fill="black"/>
</svg>
