<svg xmlns="http://www.w3.org/2000/svg" width="1000" height="1000" viewBox="0 0 1000 1000"><path d="M563.41 175.034c-112.007 0-216.014 40.003-292.02 120.008-36.002 36.003-68.004 80.006-88.006 124.009L23.373 235.038V683.07H419.4L283.39 527.059c12.001-52.004 36.003-104.008 76.005-144.01 56.004-52.004 128.01-84.006 204.015-84.006s148.01 32.002 200.014 84.006c56.004 56.003 84.006 128.008 84.006 204.014 0 76.005-28.002 148.01-84.006 204.014-24.002 24.002-24.002 64.005 0 88.006 16.001 12.001 32.002 20.002 48.003 20.002 16.001 0 32.002-8 44.003-20.002 76.006-76.005 120.009-180.012 120.009-292.02 0-112.008-44.003-216.015-120.009-292.02-80.005-80.006-184.013-120.01-292.02-120.01z"/></svg>