<?xml version="1.0" encoding="utf-8"?>
<!-- Generator: Adobe Illustrator 19.2.1, SVG Export Plug-In . SVG Version: 6.00 Build 0)  -->
<svg version="1.1" id="Layer_1" xmlns="http://www.w3.org/2000/svg" xmlns:xlink="http://www.w3.org/1999/xlink" x="0px" y="0px"
	 viewBox="0 0 244.5 61.7" style="enable-background:new 0 0 244.5 61.7;" xml:space="preserve">
<style type="text/css">
	.st0{fill:#ffffff;}
</style>
<g>
	<g>
		<path class="st0" d="M23.6,47.2c3.5,2.8,7,4.2,7.1,4.3l0.3,0.1l0.3-0.1c0.1-0.1,3.6-1.5,7.1-4.3c4.7-3.7,7.2-7.9,7.2-12.2l0-19.5
			l-29.2,0l0,19.1C16.4,39.2,18.9,43.5,23.6,47.2z M30.3,41.3c-0.1-0.1-0.3-0.1-0.5-0.1c0,0,0,0,0,0c-0.7,0-1.2,0-1.8,0.1
			c-0.6,0.1-1.1,0.1-2,0.1c-0.4,0-0.7,0-1,0v-9.2c0,0,0.1,0,0.1,0c0.4,0,0.8,0,1.3,0c0.5,0,1-0.1,1.5-0.1c0.3,0,0.7-0.1,1-0.1
			c0.6-0.1,1.2,0,1.2,0c0.1,0,0.1,0,0.1,0C30.3,32.1,30.3,41.3,30.3,41.3z M44.2,35.1c0,8-9.8,13.4-12.7,14.8v-7.3
			c0.1-0.1,0.1-0.1,0.1-0.2c0.1-0.2,0.2-0.3,0.5-0.3c0.7,0,1.2,0,1.7,0.1c0.5,0,1.2,0.1,2,0.1c0.9,0,1.5,0,1.6,0l0.5,0l0-2.7h1.1
			v-1.4H38l0-2.6h1.1v-1.4H38l0-2.9l-0.5,0c-0.2,0-0.4,0-0.6,0c-0.4,0-0.8,0-1.3,0c-0.4,0-0.9-0.1-1.5-0.1c-0.3,0-0.7-0.1-1-0.1
			c-0.8-0.1-1.5,0.1-1.5,0.1c0,0,0,0,0,0v-2.8h12.7L44.2,35.1z M31.5,41.3v-9.2c0.1,0,0.1-0.1,0.3-0.1c0,0,0.6-0.1,1.2,0
			c0.4,0,0.7,0.1,1,0.1c0.6,0.1,1.1,0.1,1.5,0.1c0.5,0,0.8,0,1.2,0c0.1,0,0.2,0,0.3,0l0,9.2c-0.3,0-0.6,0-1,0c-0.8,0-1.4-0.1-2-0.1
			c-0.6-0.1-1.1-0.1-1.8-0.1C31.9,41.2,31.7,41.2,31.5,41.3z M17.7,17l26.4,0l0,9.9H17.7L17.7,17z M17.7,28.3h12.6V31
			c-0.2,0-0.8-0.1-1.4,0c-0.4,0-0.7,0.1-1,0.1c-0.6,0.1-1,0.1-1.5,0.1c-0.5,0-1,0-1.3,0c-0.3,0-0.5,0-0.7,0l-0.5,0v2.7h-1.2v1.4h1.2
			V38h-1.2v1.4h1.2v3l0.5,0c0,0,0.7,0,1.6,0c0.9,0,1.5-0.1,2-0.1c0.6-0.1,1-0.1,1.7-0.1c0.3,0,0.3,0.1,0.5,0.3c0,0,0,0.1,0.1,0.1
			v7.3c-3-1.5-12.6-6.8-12.6-15.1L17.7,28.3z"/>
		<path class="st0" d="M28.8,18h-7.4v0.5c0,1.6,0,4.3,0,4.5c0,0.6,0.4,1.1,1.1,1.5c0.9,0.6,2.2,1.4,2.3,1.4l0.3,0.1l0.3-0.1
			c0.1,0,1.5-0.8,2.4-1.4c1-0.7,1.1-1.3,1.1-1.5c0-0.1,0-2.5,0-4.5V18z M22.4,19h5.3c0,0.4,0,0.9,0,1.3h-5.3
			C22.4,19.9,22.4,19.5,22.4,19z M27.7,22.9c0,0.3-0.3,0.5-0.6,0.7c-0.6,0.4-1.6,1-2,1.2c-0.4-0.3-1.3-0.8-2-1.2
			c-0.4-0.3-0.7-0.5-0.7-0.8c0-0.1,0-0.7,0-1.5h5.3C27.7,22.2,27.7,22.8,27.7,22.9z"/>
		<path class="st0" d="M41.3,17.8h-7.5v0.5c0,2,0,4.5,0,4.6c0,0.6,0.4,1.1,1.2,1.6c0.9,0.6,2.3,1.4,2.3,1.4l0.3,0.1l0.3-0.1
			c0.1,0,1.5-0.8,2.5-1.4c1.1-0.7,1.1-1.4,1.1-1.6c0-0.1,0-2.5,0-4.6L41.3,17.8z M40.3,22.8c0,0.3-0.3,0.5-0.6,0.7
			c-0.7,0.4-1.7,1-2.1,1.3c-0.4-0.3-1.4-0.8-2-1.3c-0.2-0.1-0.7-0.5-0.7-0.8c0,0,0-0.1,0-0.3l2.6-1.9l2.9,1.9
			C40.3,22.7,40.3,22.8,40.3,22.8z M37.4,19.4l-2.6,1.9c0-0.7,0-1.6,0-2.4h5.5c0,0.8,0,1.7,0,2.5L37.4,19.4z"/>
		<path class="st0" d="M32.8,34.2l0.5,0.1c0.3,0,0.6,0.1,0.9,0.1l1.5,0l0-1l-1.5,0c-0.2,0-0.5,0-0.8-0.1l-0.5-0.1
			c-0.1,0-0.3,0-0.4,0l0,1C32.7,34.2,32.8,34.2,32.8,34.2z"/>
		<path class="st0" d="M34.2,36.1c-0.2,0-0.5,0-0.8-0.1c-0.2,0-0.4,0-0.5-0.1c-0.1,0-0.3,0-0.4,0l0,1c0.1,0,0.2,0,0.3,0
			c0.2,0,0.4,0,0.5,0.1c0.3,0,0.6,0.1,0.8,0.1c0.3,0,0.8,0,1.1,0l0.4,0l0-1l-0.4,0C35,36.2,34.6,36.2,34.2,36.1z"/>
		<path class="st0" d="M34.2,39c-0.2,0-0.5,0-0.8-0.1c-0.2,0-0.3,0-0.5-0.1c-0.1,0-0.3,0-0.4,0l0,1c0.1,0,0.2,0,0.2,0
			c0.2,0,0.4,0,0.5,0.1c0.3,0,0.6,0.1,0.9,0.1l0.4,0c0.4,0,0.9,0,1.1,0l0-1c-0.2,0-0.7,0-1.1,0L34.2,39z"/>
		<path class="st0" d="M27.7,34.3c0.3,0,0.5,0,0.9-0.1c0.2,0,0.3,0,0.5-0.1c0.1,0,0.2,0,0.2,0l0-1c-0.1,0-0.2,0-0.3,0
			c-0.2,0-0.4,0-0.5,0.1c-0.3,0-0.6,0.1-0.8,0.1l-1.5,0l0,1L27.7,34.3z"/>
		<path class="st0" d="M28.5,36.1c-0.3,0-0.6,0.1-0.8,0.1l-1.5,0l0,1l1.5,0c0.3,0,0.5,0,0.9-0.1l0.5-0.1c0.1,0,0.2,0,0.2,0l0-1
			c-0.1,0-0.2,0-0.4,0L28.5,36.1z"/>
		<path class="st0" d="M28.5,38.9c-0.3,0-0.6,0.1-0.8,0.1c-0.5,0-1.2,0-1.5,0l0,1c0.2,0,1,0,1.5,0c0.3,0,0.5,0,0.9-0.1l0.5-0.1
			c0.1,0,0.2,0,0.2,0l0-1c-0.1,0-0.2,0-0.3,0L28.5,38.9z"/>
		<path class="st0" d="M4.7,31c1.3,0,2.1-0.8,2.2-2.3c0-0.3,0-0.6-0.1-1l0-0.1l-1.1,0l0.1,0.2c0.1,0.2,0.1,0.5,0.1,0.8
			c0,0.7-0.6,1.2-1.4,1.2c-0.8-0.1-1.3-0.6-1.3-1.3c0-0.2,0.1-0.5,0.3-0.8l0.1-0.2l-1.1-0.2l0,0.1c-0.1,0.3-0.2,0.6-0.2,1
			C2.2,30,3,30.9,4.5,31C4.5,31,4.6,31,4.7,31z"/>
		<path class="st0" d="M4.8,25.9C5.1,26,5.4,26,5.7,26c1,0,1.7-0.6,2-1.6c0.2-0.6,0.1-1.2-0.1-1.6c-0.3-0.5-0.8-0.9-1.5-1.1
			c-0.3-0.1-0.5-0.1-0.8-0.1c-1,0-1.7,0.6-2,1.6C2.9,24.5,3.5,25.5,4.8,25.9z M4.2,23.5c0.2-0.6,0.6-0.7,1-0.7c0.2,0,0.4,0,0.6,0.1
			c0.5,0.1,0.8,0.4,1,0.7c0.1,0.2,0.1,0.4,0.1,0.7c-0.2,0.6-0.6,0.7-1,0.7c-0.2,0-0.4,0-0.6-0.1C4.6,24.6,4,24.2,4.2,23.5z"/>
		<path class="st0" d="M9.3,20.1l-1.5-0.8l0-0.1C8,18.9,8.1,19,8.3,19l1.5,0.2l0.6-1.1l-2-0.2c-0.1,0-0.3,0-0.4,0
			c0-0.4-0.2-0.8-0.6-1c-0.2-0.1-0.4-0.2-0.6-0.2c-0.7,0-1.1,0.7-1.4,1.4l-0.5,1l4,2.1L9.3,20.1z M7,18.7l-0.1,0.1l-0.7-0.4l0.1-0.1
			c0.2-0.3,0.4-0.6,0.7-0.4C7.1,18,7.1,18,7.1,18.1C7.2,18.3,7.1,18.6,7,18.7z"/>
		<polygon class="st0" points="11.8,16.2 9.7,14.5 12.6,15.2 13.4,14.2 10,11.4 9.3,12.2 11.3,13.9 8.4,13.2 7.6,14.2 11.1,17.1 		
			"/>
		<polygon class="st0" points="16.8,11.4 16.1,10.6 14.9,11.6 14.4,11 15.5,10.1 14.9,9.3 13.7,10.2 13.3,9.7 14.5,8.7 13.9,7.9 
			11.8,9.6 14.6,13.1 		"/>
		<polygon class="st0" points="20.5,9.2 20,8.3 18.6,9.1 16.9,6 15.9,6.6 18.1,10.5 		"/>
		<polygon class="st0" points="24.2,7.7 23.9,6.8 22.4,7.4 21.2,4.1 20.1,4.4 21.7,8.7 		"/>
		<path class="st0" d="M28.7,7c0.1,0,0.2,0,0.3,0c0.6-0.1,1.1-0.2,1.4-0.6c0.3-0.3,0.4-0.8,0.3-1.3l-0.2-2.8l-1.1,0.1l0.2,2.6
			c0.1,0.9-0.3,1-0.6,1.1c0,0-0.1,0-0.1,0c-0.3,0-0.6-0.1-0.7-1l-0.2-2.6l-1.1,0.1L27,5.4C27.1,6.4,27.7,7,28.7,7z"/>
		<polygon class="st0" points="33.9,4.3 34.8,7.1 36.1,7.3 36.7,2.8 35.6,2.7 35.2,5.3 34.3,2.5 33,2.3 32.4,6.8 33.5,6.9 		"/>
		<polygon class="st0" points="40,3.8 38.9,3.5 37.6,7.7 38.7,8.1 		"/>
		<polygon class="st0" points="45.6,6.3 44.6,5.8 42.5,8 42.9,4.9 41.9,4.4 41.2,9.1 42.3,9.6 		"/>
		<polygon class="st0" points="46.8,12.7 47.4,11.9 46.1,11 46.6,10.3 47.8,11.2 48.4,10.4 47.2,9.5 47.6,9 48.9,9.9 49.5,9.2 
			47.3,7.5 44.6,11 		"/>
		<path class="st0" d="M48.6,14.6l1.3-1.1l0.1,0.1c0.2,0.2,0.2,0.3,0,0.5l-0.7,1.3l0.8,0.9l0.9-1.8c0-0.1,0.1-0.2,0.1-0.4
			c0.4,0.2,0.8,0.1,1.2-0.2c1-0.8,0.2-1.7-0.4-2.4l-0.7-0.8l-3.4,3L48.6,14.6z M51.2,12.3L51.2,12.3c0.2,0.3,0.4,0.5,0.4,0.7
			c0,0.1,0,0.2-0.1,0.2c-0.1,0.1-0.2,0.1-0.2,0.1c-0.2,0-0.4-0.2-0.5-0.4l-0.1-0.1L51.2,12.3z"/>
		<path class="st0" d="M52.8,18.2c-0.2,0.1-0.5-0.1-0.6-0.3c-0.1-0.2-0.2-0.5-0.2-0.9l0-0.2l-1,0.5l0.1,0.2c0.1,0.3,0.2,0.6,0.4,0.9
			c0.4,0.6,0.8,1,1.4,1c0.2,0,0.5-0.1,0.7-0.2c0.8-0.5,0.7-1.2,0.6-1.8c-0.1-0.4-0.1-0.6,0.1-0.7c0.1,0,0.2-0.1,0.2-0.1
			c0.2,0,0.3,0.2,0.4,0.3c0.1,0.2,0.2,0.5,0.3,0.8l0,0.2l0.9-0.4l0-0.1c-0.1-0.3-0.2-0.6-0.4-1c-0.5-0.8-1.3-1.1-2-0.6
			c-0.8,0.5-0.7,1.2-0.6,1.7C52.9,17.8,53,18.1,52.8,18.2z"/>
		
			<rect x="52.9" y="20.3" transform="matrix(0.9259 -0.3777 0.3777 0.9259 -3.7888 22.3759)" class="st0" width="4.5" height="1.1"/>
		<polygon class="st0" points="57.4,23.7 54,24.5 54.3,25.6 57.7,24.8 58,25.9 58.9,25.7 58.1,22.3 57.2,22.5 		"/>
		<polygon class="st0" points="54.8,29.1 54.9,30.2 56.6,30.1 59.4,31.6 59.4,30.3 57.7,29.5 59.3,28.6 59.2,27.2 56.6,29 		"/>
		<polygon class="st0" points="5.5,39.4 6.5,39.1 6.1,37.7 6.8,37.5 7.2,39 8.1,38.7 7.4,36.2 3.1,37.4 3.4,38.5 5.2,38 		"/>
		<path class="st0" d="M9.5,43.1c0.2-0.5,0.1-1.1-0.2-1.7c-0.4-0.8-1.1-1.3-1.8-1.3c-0.4,0-0.8,0.1-1.2,0.3
			c-0.7,0.3-1.1,0.8-1.3,1.3c-0.2,0.5-0.1,1.1,0.2,1.7c0.4,0.8,1.1,1.2,1.9,1.2c0.4,0,0.8-0.1,1.2-0.3C8.9,44.1,9.3,43.6,9.5,43.1z
			 M7.8,43.3c-0.3,0.1-0.6,0.2-0.8,0.2c-0.4,0-0.7-0.2-0.8-0.5C6,42.8,6,42.5,6,42.3c0.1-0.3,0.4-0.6,0.8-0.8
			c0.3-0.1,0.5-0.2,0.8-0.2c0.4,0,0.7,0.2,0.9,0.5c0.1,0.2,0.1,0.5,0.1,0.7C8.5,42.8,8.2,43.1,7.8,43.3z"/>
		<path class="st0" d="M12.6,46.5l-2,1.6c-0.5,0.4-0.9,0.5-1.2,0.1c-0.1-0.2-0.2-0.3-0.2-0.5c0-0.2,0.2-0.5,0.5-0.7l2-1.6L11,44.5
			l-2.2,1.7c-0.5,0.4-0.7,0.8-0.7,1.2c0,0.4,0.2,0.9,0.5,1.3c0.4,0.5,0.9,0.8,1.4,0.8c0.4,0,0.7-0.2,1.1-0.5l2.2-1.8L12.6,46.5z"/>
		<polygon class="st0" points="16.4,50.2 14.7,52.2 15.4,49.3 14.4,48.5 11.6,52 12.4,52.7 14.1,50.6 13.5,53.5 14.4,54.3 
			17.3,50.9 		"/>
		<path class="st0" d="M19.7,52.3l-1.2-0.6l-2,4l1.2,0.6c0.6,0.3,1,0.4,1.5,0.4c0.8,0,1.4-0.4,1.8-1.3
			C21.7,54.1,21.2,53.1,19.7,52.3z M19.9,54.9c-0.2,0.5-0.6,0.7-1.1,0.7c-0.2,0-0.4,0-0.6-0.1L18,55.4l1.1-2.3l0.3,0.1
			c0.3,0.1,0.5,0.4,0.6,0.7C20.1,54.2,20.1,54.6,19.9,54.9z"/>
		<polygon class="st0" points="22.2,58.2 24.9,58.9 25.1,58 23.5,57.6 23.8,56.7 25.2,57.1 25.5,56.2 24,55.8 24.2,55.1 25.8,55.5 
			26,54.6 23.3,53.9 		"/>
		<path class="st0" d="M28.8,54.9l-1.3-0.1l-0.3,4.5l1.3,0.1c0.1,0,0.2,0,0.3,0c1.5,0,2.3-0.7,2.4-2.1c0-0.7-0.1-1.2-0.5-1.6
			C30.3,55.2,29.7,55,28.8,54.9z M28.8,58.4l-0.3,0l0.1-2.5l0.3,0c0.6,0,1.2,0.5,1.1,1.3C30,58.1,29.3,58.5,28.8,58.4z"/>
		<path class="st0" d="M35.2,54.6l-0.8,4.7l1.2-0.3l0.2-1l1.4-0.3l0.5,0.9l1.2-0.3l-2.6-4L35.2,54.6z M35.9,57.1l0.1-1.2l0.6,1
			L35.9,57.1z"/>
		<polygon class="st0" points="39.4,56.9 39.8,58 40.9,57.6 40.5,56.5 		"/>
		<path class="st0" d="M41.6,52.4L40.5,53l2.1,3.9l1.1-0.6c1.5-0.8,1.9-1.9,1.2-3.2C44.2,51.8,43.1,51.6,41.6,52.4z M43.4,55.4
			l-0.3,0.1l-1.2-2.2l0.3-0.1c0.2-0.1,0.4-0.2,0.6-0.2c0.5,0,0.8,0.3,1.1,0.7C44.3,54.4,43.9,55.1,43.4,55.4z"/>
		<polygon class="st0" points="45.8,53.8 46.4,54.7 47.4,54.1 46.7,53.1 		"/>
		<polygon class="st0" points="47.5,48.1 47.3,49.8 48.3,49.9 48.4,49.2 50.5,51.4 51.4,50.6 48.2,47.4 		"/>
		<path class="st0" d="M53.6,45.7c-0.4-0.3-0.8-0.3-1.3-0.1c0-0.4-0.2-0.8-0.5-1c-0.6-0.4-1.3-0.2-1.8,0.6c-0.5,0.7-0.5,1.5,0.1,1.9
			c0.3,0.2,0.7,0.3,1.1,0.1c0,0.5,0.1,0.9,0.5,1.1c0.3,0.2,0.5,0.3,0.8,0.3c0.4,0,0.9-0.3,1.3-0.8c0.3-0.4,0.4-0.9,0.4-1.2
			C54.1,46.2,53.9,45.9,53.6,45.7z M51.5,46c-0.2,0.1-0.3,0.2-0.5,0.2c-0.1,0-0.1,0-0.2-0.1c-0.2-0.2-0.1-0.4,0-0.6
			c0.1-0.1,0.2-0.2,0.3-0.2c0.1,0,0.2,0,0.2,0.1C51.4,45.6,51.5,45.9,51.5,46z M53,47.2c-0.2,0.2-0.4,0.3-0.6,0.1
			c-0.2-0.1-0.2-0.3-0.2-0.6c0.3-0.2,0.6-0.2,0.8-0.1c0.1,0.1,0.1,0.2,0.2,0.3C53.1,47,53.1,47.1,53,47.2z"/>
		<path class="st0" d="M55.6,41.3c-0.8-0.4-1.5-0.2-1.9,0.6c-0.1,0.2-0.1,0.4-0.1,0.6c-0.3-0.2-0.5-0.6-0.3-1
			c0.1-0.2,0.3-0.4,0.4-0.5l0.2-0.1l-0.8-0.6L53,40.4c-0.2,0.2-0.4,0.5-0.6,0.8c-0.2,0.4-0.3,0.9-0.1,1.3c0.2,0.7,1,1.2,1.6,1.5
			c0.5,0.3,0.9,0.4,1.3,0.4c0.6,0,1-0.3,1.3-0.8C56.9,42.6,56.6,41.8,55.6,41.3z M55.6,43c-0.1,0.1-0.2,0.2-0.3,0.2
			c-0.1,0-0.2,0-0.4-0.1c-0.2-0.1-0.4-0.2-0.4-0.4c0-0.1,0-0.2,0-0.3c0.1-0.1,0.2-0.2,0.3-0.2c0.1,0,0.3,0,0.4,0.1
			c0.2,0.1,0.3,0.2,0.4,0.4C55.6,42.9,55.6,42.9,55.6,43z"/>
		<path class="st0" d="M57.2,36.8c-0.9-0.3-1.6,0.1-1.9,1c0,0.1,0,0.2-0.1,0.2l-0.5-0.2l0.5-1.5l-0.9-0.3l-0.8,2.6l2.5,0.8l0-0.2
			c0-0.2,0-0.5,0.1-0.7c0.1-0.2,0.3-0.7,0.8-0.6c0.5,0.2,0.4,0.7,0.3,0.9c-0.1,0.3-0.3,0.5-0.4,0.7l-0.1,0.2l1,0.3l0.1-0.1
			c0.2-0.3,0.3-0.7,0.4-0.9c0.2-0.5,0.1-1-0.1-1.4C58,37.2,57.6,36.9,57.2,36.8z"/>
		<path class="st0" d="M8.3,30.8c0,12.4,10.1,22.6,22.6,22.6c12.4,0,22.6-10.1,22.6-22.6c0-12.4-10.1-22.6-22.6-22.6
			C18.4,8.3,8.3,18.4,8.3,30.8z M30.8,9.1c12,0,21.8,9.8,21.8,21.8c0,12-9.8,21.8-21.8,21.8c-12,0-21.8-9.8-21.8-21.8
			C9.1,18.8,18.8,9.1,30.8,9.1z"/>
		<path class="st0" d="M30.8,0C13.8,0,0,13.8,0,30.8c0,17,13.8,30.8,30.8,30.8c17,0,30.8-13.8,30.8-30.8C61.7,13.8,47.9,0,30.8,0z
			 M30.8,60.9c-16.6,0-30-13.5-30-30c0-16.6,13.5-30,30-30c16.6,0,30,13.5,30,30C60.9,47.4,47.4,60.9,30.8,60.9z"/>
	</g>
	<g>
		<path class="st0" d="M89,37.7c-1.2,0.8-3.4,1.2-4.7,1.2c-5.2,0-8.6-2.9-8.6-7.8c0-2.5,1-4.4,2.6-5.8c1.6-1.3,3.8-2.1,6.2-2.1
			c2,0,3.9,0.5,5,0.9c-0.2,1-0.4,2.1-0.4,3.3h-0.7v-1.5c0-0.6-0.9-1-1.8-1.3c-0.7-0.2-1.6-0.4-2.4-0.4c-4,0-6.2,2.9-6.2,6.6
			c0,4.3,2.8,7,7.1,7c1.5,0,3.4-0.6,4.4-1.3l0.2,0.2L89,37.7z"/>
		<path class="st0" d="M90.4,33.8c0-3.2,2-5.5,5.5-5.5c2.8,0,4.9,2.1,4.9,4.9c0,3.3-2.3,5.6-5.6,5.6C92.4,38.9,90.4,36.8,90.4,33.8z M92.4,32.9
			c0,2.3,0.8,5.2,3.6,5.2c2,0,2.8-2,2.8-4c0-2.8-1.3-5.1-3.4-5.1C93.1,29,92.4,30.9,92.4,32.9z"/>
		<path class="st0" d="M102.9,31.4c0-0.7,0-1.2-0.2-1.3c-0.1-0.2-0.3-0.2-0.8-0.2h-0.8v-0.6c1.3-0.1,2.6-0.5,3.4-0.9l0.2,0.1v2.2h0l1.2-1.4
			c0.5-0.6,1.2-0.9,1.8-0.9c0.4,0,0.8,0.1,1,0.2l-0.2,2.6h-0.5c-0.2-0.5-0.7-1-1.5-1c-0.9,0-1.9,1-1.9,2.4v3.7c0,0.6,0,1,0.1,1.2
			c0.1,0.2,0.4,0.3,0.9,0.3l1.1,0.1v0.6c-1.1,0-2-0.1-3-0.1c-1.1,0-1.9,0-2.7,0.1v-0.6l1-0.1c0.4,0,0.6-0.1,0.7-0.3
			c0.1-0.2,0.1-0.7,0.1-1.2V31.4z"/>
		<path class="st0" d="M113,36.2c0,0.6,0,1,0.1,1.2c0.1,0.2,0.3,0.3,0.7,0.3l1,0.1v0.6c-0.8,0-1.6-0.1-2.7-0.1c-1.1,0-1.9,0-2.7,0.1v-0.6l1-0.1
			c0.4,0,0.6-0.1,0.7-0.3c0.1-0.2,0.1-0.7,0.1-1.2v-4.8c0-0.7,0-1.2-0.2-1.3c-0.1-0.2-0.3-0.2-0.8-0.2h-0.8v-0.6
			c1.3-0.1,2.6-0.5,3.4-0.9l0.2,0.1v1.8h0l1.6-1.4c0.5-0.4,0.9-0.5,1.7-0.5c2.5,0,3.5,1.4,3.5,3.7v4.1c0,0.6,0,1,0.1,1.2
			c0.1,0.2,0.3,0.3,0.7,0.3l0.9,0.1v0.6c-0.5,0-1.2-0.1-1.8-0.1c-0.6,0-1.2,0-1.7,0.1v-6.1c0-1.8-1-2.7-2.5-2.7
			c-1.3,0-2.6,1.1-2.6,2V36.2z"/>
		<path class="st0" d="M131.1,32.3c0,0.3,0,0.6,0,0.9c-1.3,0.2-2.6,0.3-3.9,0.3H124c0,2.5,1.2,4.2,3.9,4.2c1,0,1.8-0.5,2.7-1l0.3,0.2l-0.4,0.7
			c-0.2,0.3-2,1.2-3.4,1.2c-3.2,0-5-2.1-5-5c0-2.1,0.6-3.3,1.5-4.1c0.4-0.3,0.9-0.6,1.3-0.9c0.8-0.3,1.4-0.6,2.1-0.6
			C129.3,28.3,131.1,29.8,131.1,32.3z M124,32.6c1.8,0.2,3.6,0.2,5.1,0.1c0-2-0.7-3.6-2.3-3.6C125.2,29,123.9,30.3,124,32.6z"/>
		<path class="st0" d="M133.2,25.1c0-0.5-0.1-0.9-0.5-0.9h-1.2v-0.6c1.1-0.2,2.3-0.4,3.4-0.8L135,23v13.2c0,0.6,0,1,0.1,1.2
			c0.1,0.2,0.3,0.3,0.7,0.3l1,0.1v0.6c-0.8,0-1.6-0.1-2.7-0.1c-1.1,0-1.9,0-2.7,0.1v-0.6l1-0.1c0.4,0,0.6-0.1,0.7-0.3
			c0.1-0.2,0.1-0.7,0.1-1.2V25.1z"/>
		<path class="st0" d="M139.6,25.1c0-0.5-0.1-0.9-0.5-0.9h-1.2v-0.6c1.1-0.2,2.3-0.4,3.4-0.8l0.2,0.2v13.2c0,0.6,0,1,0.1,1.2
			c0.1,0.2,0.3,0.3,0.7,0.3l1,0.1v0.6c-0.8,0-1.6-0.1-2.7-0.1c-1.1,0-1.9,0-2.7,0.1v-0.6l1-0.1c0.4,0,0.6-0.1,0.7-0.3
			c0.1-0.2,0.1-0.7,0.1-1.2V25.1z"/>
		<path  class="st0" d="M149.9,26.2c0-0.8,0-1.4-0.2-1.6c-0.1-0.2-0.4-0.3-0.9-0.3l-1-0.1v-0.6c1.1,0,2.1,0.1,3.2,0.1c1,0,2,0,3.1-0.1v0.6l-1,0.1
			c-0.5,0-0.8,0.1-0.9,0.3c-0.1,0.2-0.2,0.8-0.2,1.6v7.4c0,3.1,1.6,3.9,4.4,3.9c2.3,0,4.4-0.9,4.4-4.4v-6.9c0-0.8,0-1.4-0.2-1.6
			c-0.1-0.2-0.4-0.3-0.9-0.3l-0.9-0.1l0-0.6c0.9,0,1.7,0.1,2.5,0.1c0.9,0,1.6,0,2.6-0.1v0.6l-0.9,0.1c-0.5,0-0.8,0.1-0.9,0.3
			c-0.2,0.2-0.2,0.8-0.2,1.6v6.2c0,4.6-1.7,6.4-6.1,6.4c-3.7,0-5.8-1.1-5.8-5V26.2z"/>
		<path class="st0" d="M166.6,36.2c0,0.6,0,1,0.1,1.2c0.1,0.2,0.3,0.3,0.7,0.3l1,0.1v0.6c-0.8,0-1.6-0.1-2.7-0.1c-1.1,0-1.9,0-2.7,0.1v-0.6
			l1-0.1c0.4,0,0.6-0.1,0.7-0.3c0.1-0.2,0.1-0.7,0.1-1.2v-4.8c0-0.7,0-1.2-0.2-1.3c-0.1-0.2-0.3-0.2-0.8-0.2h-0.8v-0.6
			c1.3-0.1,2.6-0.5,3.4-0.9l0.2,0.1v1.8h0l1.6-1.4c0.5-0.4,0.9-0.5,1.7-0.5c2.5,0,3.5,1.4,3.5,3.7v4.1c0,0.6,0,1,0.1,1.2
			c0.1,0.2,0.3,0.3,0.7,0.3l0.9,0.1v0.6c-0.5,0-1.2-0.1-1.8-0.1c-0.6,0-1.2,0-1.7,0.1v-6.1c0-1.8-1-2.7-2.5-2.7
			c-1.3,0-2.6,1.1-2.6,2V36.2z"/>
		<path class="st0" d="M179.9,36.2c0,0.6,0,1,0.1,1.2c0.1,0.2,0.3,0.3,0.7,0.3l1,0.1v0.6c-0.8,0-1.6-0.1-2.7-0.1c-1.1,0-1.9,0-2.7,0.1v-0.6
			l1-0.1c0.4,0,0.6-0.1,0.7-0.3c0.1-0.2,0.1-0.7,0.1-1.2v-4.8c0-0.7,0-1.2-0.2-1.3c-0.1-0.2-0.3-0.2-0.8-0.2h-0.8v-0.6
			c1.3-0.1,2.6-0.5,3.4-0.9l0.2,0.1V36.2z M180.1,24.8c0,0.6-0.6,1.2-1.2,1.2c-0.6,0-1.2-0.6-1.2-1.2c0-0.6,0.6-1.2,1.2-1.2
			C179.5,23.6,180.1,24.2,180.1,24.8z"/>
		<path class="st0" d="M188.4,36.2c-0.4,0.8-0.6,1.6-0.9,2.3h-1.1l-3.7-8.7c-0.1-0.3-0.3-0.7-0.7-0.7l-0.7,0v-0.6c0.8,0,1.7,0.1,2.5,0.1
			c0.8,0,1.7,0,2.5-0.1v0.6l-1.1,0c-0.6,0-0.7,0.3-0.3,1.2l2.6,6.2c0.5-1,0.9-2,1.3-3l0.9-2.3c0.6-1.5,0.5-2.1-0.1-2.1l-0.9,0l0-0.6
			c0.7,0,1.4,0.1,2,0.1c0.7,0,1.4,0,2-0.1v0.6l-0.7,0c-0.5,0-0.9,0.8-1.2,1.4L188.4,36.2z"/>
		<path class="st0" d="M201.7,32.3c0,0.3,0,0.6,0,0.9c-1.3,0.2-2.6,0.3-3.9,0.3h-3.1c0,2.5,1.2,4.2,3.9,4.2c1,0,1.8-0.5,2.7-1l0.3,0.2l-0.4,0.7
			c-0.2,0.3-2,1.2-3.4,1.2c-3.2,0-5-2.1-5-5c0-2.1,0.6-3.3,1.5-4.1c0.4-0.3,0.9-0.6,1.3-0.9c0.8-0.3,1.4-0.6,2.1-0.6
			C200,28.3,201.7,29.8,201.7,32.3z M194.7,32.6c1.8,0.2,3.6,0.2,5.1,0.1c0-2-0.7-3.6-2.3-3.6C195.9,29,194.6,30.3,194.7,32.6z"/>
		<path class="st0" d="M204.6,31.4c0-0.7,0-1.2-0.2-1.3c-0.1-0.2-0.3-0.2-0.8-0.2h-0.8v-0.6c1.3-0.1,2.6-0.5,3.4-0.9l0.2,0.1v2.2h0l1.2-1.4
			c0.5-0.6,1.2-0.9,1.8-0.9c0.4,0,0.8,0.1,1,0.2l-0.2,2.6h-0.5c-0.2-0.5-0.7-1-1.5-1c-0.9,0-1.9,1-1.9,2.4v3.7c0,0.6,0,1,0.1,1.2
			c0.1,0.2,0.4,0.3,0.9,0.3l1.1,0.1v0.6c-1.1,0-2-0.1-3-0.1c-1.1,0-1.9,0-2.7,0.1v-0.6l1-0.1c0.4,0,0.6-0.1,0.7-0.3
			c0.1-0.2,0.1-0.7,0.1-1.2V31.4z"/>
		<path class="st0" d="M212,35.3v0.9c0,1.3,1.5,1.8,2.8,1.8c1.4,0,2.5-0.8,2.5-2c0-0.7-0.4-1.2-1-1.4c-0.9-0.2-2.1-0.5-3.2-0.9
			c-1-0.4-1.8-1-1.8-2.3c0-2.3,2-3.1,4-3.1c1,0,1.9,0.2,2.8,0.5c-0.1,0.8-0.1,1.6-0.1,2.4h-0.6v-0.5c0-1.1-1.3-1.8-2.5-1.8
			c-1.8,0-2.1,1-2.1,1.7c0,0.9,0.7,1.4,2.3,1.7c2.6,0.4,3.8,1.1,3.8,2.8c0,2.4-2.4,3.6-4.8,3.6c-1,0-2-0.2-3-0.5
			c0.2-0.9,0.2-2,0.2-3H212z"/>
		<path class="st0" d="M223.6,36.2c0,0.6,0,1,0.1,1.2c0.1,0.2,0.3,0.3,0.7,0.3l1,0.1v0.6c-0.8,0-1.6-0.1-2.7-0.1c-1.1,0-1.9,0-2.7,0.1v-0.6
			l1-0.1c0.4,0,0.6-0.1,0.7-0.3c0.1-0.2,0.1-0.7,0.1-1.2v-4.8c0-0.7,0-1.2-0.2-1.3c-0.1-0.2-0.3-0.2-0.8-0.2h-0.8v-0.6
			c1.3-0.1,2.6-0.5,3.4-0.9l0.2,0.1V36.2z M223.8,24.8c0,0.6-0.6,1.2-1.2,1.2c-0.6,0-1.2-0.6-1.2-1.2c0-0.6,0.6-1.2,1.2-1.2
			C223.2,23.6,223.8,24.2,223.8,24.8z"/>
		<path class="st0" d="M225.9,30.3v-0.5l1.7-0.8v-1.5c0-0.6,0-1.1-0.1-1.7c0.8-0.2,1.5-0.6,1.8-0.8l0.3,0.2c-0.1,0.9-0.2,2.1-0.2,3.1v0.8
			l2.9-0.1l-0.2,1.2h-2.8v5.6c0,1,0.3,1.5,1.2,1.5c0.6,0,1-0.2,1.3-0.4l0.3,0.4l-1,1.1c-0.2,0.2-0.9,0.3-1.4,0.3
			c-1.1,0-2.1-0.5-2.1-2.3v-6.2L225.9,30.3z"/>
		<path class="st0" d="M241.8,30.3c0.3-0.8,0-1-0.8-1.1l-0.6,0v-0.6c0.7,0,1.4,0.1,2,0.1c0.7,0,1.4,0,2-0.1v0.6l-0.6,0c-0.5,0-1,0.7-1.8,2.6
			l-4.4,10.1c-0.7,1.6-1.5,2.6-3.3,2.6c-0.4,0-0.8-0.2-1.1-0.3l0.5-1.6h0.3c0.3,0.3,0.8,0.5,1.1,0.5c1.2-0.1,1.9-1.8,2.3-2.8
			l0.5-1.3c-0.4-1-0.8-2.1-1.2-3.1l-2.3-5.6c-0.3-0.8-0.6-1-1.1-1.1l-0.4,0v-0.6c0.8,0,1.7,0.1,2.5,0.1c0.8,0,1.7,0,2.5-0.1v0.6
			l-0.8,0c-0.6,0-1,0.2-0.5,1.4l1.4,3.6c0.3,0.8,0.6,1.6,1.1,2.4L241.8,30.3z"/>
	</g>
</g>
</svg>
