<?xml version="1.0" encoding="utf-8"?>
<!-- Generator: Adobe Illustrator 21.1.0, SVG Export Plug-In . SVG Version: 6.00 Build 0)  -->
<svg version="1.1" id="Layer_1" xmlns="http://www.w3.org/2000/svg" xmlns:xlink="http://www.w3.org/1999/xlink" x="0px" y="0px"
   width="320px"
   height="320px"
	 viewBox="0 0 127.1 127.1" style="enable-background:new 0 0 127.1 127.1;" xml:space="preserve"
		 >
<style type="text/css">
	.st0{fill:#00A199;}
	.st1{fill:#FFFFFF;}
</style>
<g>
	<path class="st0" d="M115.1,127.1H12c-6.6,0-12-5.4-12-12V12C0,5.4,5.4,0,12,0h103.1c6.6,0,12,5.4,12,12v103.1
		C127.1,121.7,121.7,127.1,115.1,127.1z"/>
	<path class="st1" d="M95.9,79.3C90.7,69.6,85.6,60,80.2,49.8c9.4,0,18.4-0.1,27.4,0.1c2.8,0.1,3.8-0.7,3.6-3.6
		c-0.2-3.4,0-6.7-0.1-10.1c-0.2-9-7-16.4-16.2-17.5c-4.7,0.6-9.4,0.2-14.1,0.2c-15.2,0.1-30.3,0-45.5,0c-1.5,0-3,0.2-4.4-0.2
		c-9.2,1.1-16,8.4-16.2,17.4c-0.1,3.8,0.1,7.5-0.1,11.3c-0.1,2.2,0.7,2.8,2.8,2.6c16.1-1.6,32.3-0.1,48.4,0c2.5,0,2.5,1.3,2.4,3
		C67.8,63,57.4,73.4,47.3,74.5c-7.4,0.8-14.7,1-22,0c-3.6-0.5-6.8-2.2-10.5-3.9c0,7.8-0.5,15.3,0.1,22.7c0.6,7.6,8.1,14.1,16,15
		c13.6-0.6,27.2-0.1,40.8-0.3c2.8,0,5.6,0.5,8.4-0.4c-4.2-8.1-8.4-16.2-12.5-24.4c-0.5-1-1.6-1.9-1.1-3.3c8.2-0.8,16.3-0.1,24.5-0.4
		C92.7,79.7,94.4,80.1,95.9,79.3z"/>
	<path class="st1" d="M46.4,54.7C53,54.8,59,60.8,58.9,67.5c0,6.6-6.2,12.7-12.7,12.6c-6.7-0.2-12.3-6.3-12.1-13.1
		C34.2,60.4,40.1,54.6,46.4,54.7z"/>
</g>
</svg>
