<?xml version="1.0" encoding="UTF-8" standalone="no"?>
<svg
   xmlns:dc="http://purl.org/dc/elements/1.1/"
   xmlns:cc="http://creativecommons.org/ns#"
   xmlns:rdf="http://www.w3.org/1999/02/22-rdf-syntax-ns#"
   xmlns:svg="http://www.w3.org/2000/svg"
   xmlns="http://www.w3.org/2000/svg"
   xmlns:sodipodi="http://sodipodi.sourceforge.net/DTD/sodipodi-0.dtd"
   xmlns:inkscape="http://www.inkscape.org/namespaces/inkscape"
   viewBox="0 0 531.81866 237.14"
   height="237.14"
   width="531.81866"
   xml:space="preserve"
   id="svg2"
   version="1.1"
   inkscape:version="0.91 r13725"
   sodipodi:docname="sparkfun.logo.white.svg"><sodipodi:namedview
     pagecolor="#ffffff"
     bordercolor="#666666"
     borderopacity="1"
     objecttolerance="10"
     gridtolerance="10"
     guidetolerance="10"
     inkscape:pageopacity="0"
     inkscape:pageshadow="2"
     inkscape:window-width="1148"
     inkscape:window-height="747"
     id="namedview34"
     showgrid="false"
     inkscape:zoom="0.8243528"
     inkscape:cx="80.594664"
     inkscape:cy="92.097985"
     inkscape:window-x="0"
     inkscape:window-y="0"
     inkscape:window-maximized="0"
     inkscape:current-layer="g42" /><metadata
     id="metadata8"><rdf:RDF><cc:Work
         rdf:about=""><dc:format>image/svg+xml</dc:format><dc:type
           rdf:resource="http://purl.org/dc/dcmitype/StillImage" /></cc:Work></rdf:RDF></metadata><defs
     id="defs6"><clipPath
       id="clipPath18"
       clipPathUnits="userSpaceOnUse"><path
         id="path16"
         d="M 0,177.855 H 398.864 V 0 H 0 Z" /></clipPath><clipPath
       id="clipPath46"
       clipPathUnits="userSpaceOnUse"><path
         id="path44"
         d="M 0,177.855 H 398.864 V 0 H 0 Z" /></clipPath></defs><g
     transform="matrix(1.3333333,0,0,-1.3333333,0,237.14)"
     id="g10"><g
       id="g12"
       style="fill:#ffffff"><g
         clip-path="url(#clipPath18)"
         id="g14"
         style="fill:#ffffff"><g
           transform="translate(51.182,12.068)"
           id="g20"
           style="fill:#ffffff"><path
             id="path22"
             style="fill:#ffffff;fill-opacity:1;fill-rule:nonzero;stroke:none"
             d="m 0,0 v 64.482 l 12.9,2.301 v -6.308 h 0.189 c 3.349,5.356 8.601,7.642 14.721,7.642 15.469,0 22.451,-12.515 22.451,-26.555 0,-13.195 -7.172,-25.509 -21.693,-25.509 -6.027,0 -11.465,2.575 -14.805,7.448 H 13.564 L 13.563,-12.068 M 36.687,41.94 c 0,7.927 -3.148,15.955 -11.841,15.955 -8.887,0 -11.757,-7.937 -11.757,-15.955 0,-8.019 3.048,-15.66 11.852,-15.66 8.886,0 11.746,7.641 11.746,15.66" /></g><g
           transform="translate(12.89,45.5094)"
           id="g24"
           style="fill:#ffffff"><path
             id="path26"
             style="fill:#ffffff;fill-opacity:1;fill-rule:nonzero;stroke:none"
             d="m 0,0 c 0,-5.83 5.166,-8.318 10.419,-8.318 3.82,0 8.889,1.53 8.889,6.305 0,4.105 -5.732,5.639 -15.385,7.643 -7.935,1.82 -15.668,4.402 -15.668,13.178 0,12.622 10.881,15.867 21.489,15.867 10.712,0 20.735,-3.626 21.792,-15.767 H 18.642 c -0.391,5.259 -4.403,6.701 -9.27,6.701 -3.068,0 -7.562,-0.486 -7.562,-4.596 0,-4.867 7.757,-5.54 15.393,-7.348 7.926,-1.826 15.673,-4.691 15.673,-13.859 0,-12.997 -11.379,-17.195 -22.56,-17.195 -11.456,0 -22.722,4.291 -23.206,17.389 z" /></g><g
           transform="translate(106.8666,63.654)"
           id="g28"
           style="fill:#ffffff"><path
             id="path30"
             style="fill:#ffffff;fill-opacity:1;fill-rule:nonzero;stroke:none"
             d="m 0,0 c 0.764,12.615 12.137,16.531 23.22,16.531 9.843,0 21.696,-2.192 21.696,-14.032 v -25.718 c 0,-4.481 0.475,-8.976 1.71,-10.98 H 32.878 c -0.478,1.529 -0.861,3.158 -0.967,4.771 -4.29,-4.486 -10.505,-6.105 -16.626,-6.105 -9.451,0 -16.804,4.673 -16.804,14.815 0.177,22.442 33.43,10.404 32.859,21.482 0,5.737 -4.013,6.7 -8.783,6.7 -5.261,0 -8.505,-2.115 -8.986,-7.464 z m 31.34,-10.024 c -2.292,-2.009 -7.07,-2.104 -11.269,-2.877 -4.204,-0.751 -8.037,-2.291 -8.037,-7.256 0,-4.968 3.926,-6.306 8.328,-6.306 10.597,0 10.978,8.319 10.978,11.368 z" /></g><g
           transform="translate(159.4642,76.5505)"
           id="g32"
           style="fill:#ffffff"><path
             id="path34"
             style="fill:#ffffff;fill-opacity:1;fill-rule:nonzero;stroke:none"
             d="m 0,0 12.9,2.3 v -9.174 h 0.182 c 2.587,6.214 8.99,10.508 15.77,10.508 1.054,0 2.008,-0.192 2.966,-0.473 V -9.45 c -1.247,0.279 -3.248,0.479 -4.875,0.479 -10.028,0 -13.378,-7.072 -13.378,-15.864 v -22.261 l -13.565,0 z" /></g></g></g><g
       transform="translate(196.5219,90.2326)"
       id="g36"
       style="fill:#ffffff"><path
         id="path38"
         style="fill:#ffffff;fill-opacity:1;fill-rule:nonzero;stroke:none"
         d="M 0,0 13.565,7.442 V -29.16 l 17.104,17.778 H 46.722 L 28.086,-29.546 48.814,-60.778 H 32.386 l -13.558,22.071 -5.264,-5.07 v -17.001 l -13.564,0 z" /></g><g
       id="g40"><g
         clip-path="url(#clipPath46)"
         id="g42"><g
           transform="translate(253.5902,69.7751)"
           id="g48"
           style="fill:#ffffff"><path
             id="path50"
             style="fill:#ffffff;fill-opacity:1;fill-rule:nonzero;stroke:none"
             d="m 0,0 h -13.379 l 9.244,9.075 H 0 v 3.813 c 0,8.798 5.451,15.011 16.539,15.011 2.377,0 4.873,-0.291 7.157,-0.384 V 17.383 c -1.622,0.205 -3.349,0.294 -4.958,0.294 -3.734,0 -5.17,-1.531 -5.17,-5.642 V 9.075 H 22.93 V 0 H 13.568 V -40.32 L 0,-40.32 Z" /></g><g
           transform="translate(326.6713,29.4548)"
           id="g52"
           style="fill:#ffffff"><path
             id="path54"
             style="fill:#ffffff;fill-opacity:1;fill-rule:nonzero;stroke:none"
             d="m 0,0 h -12.903 v 6.879 h -0.284 c -3.436,-5.638 -9.369,-8.213 -15.102,-8.213 -14.427,0 -18.054,8.114 -18.054,20.341 v 30.389 h 13.572 V 21.499 c 0,-8.128 2.296,-12.132 8.684,-12.132 7.367,0 10.512,4.113 10.512,14.138 V 49.396 H 0 Z" /></g><g
           transform="translate(334.1615,78.8503)"
           id="g56"
           style="fill:#ffffff"><path
             id="path58"
             style="fill:#ffffff;fill-opacity:1;fill-rule:nonzero;stroke:none"
             d="m 0,0 h 12.901 v -6.88 h 0.285 c 3.439,5.634 9.357,8.214 15.098,8.214 14.424,0 18.056,-8.12 18.056,-20.337 V -49.396 H 32.771 v 27.897 c 0,8.125 -2.305,12.137 -8.695,12.137 -7.355,0 -10.497,-4.11 -10.497,-14.149 V -49.396 H 0 Z" /></g><g
           transform="translate(272.8256,163.6344)"
           id="g60"
           style="fill:#ffffff"><path
             id="path62"
             style="fill:#ffffff;fill-opacity:1;fill-rule:nonzero;stroke:none"
             d="m 0,0 c 0,0 1.263,-5.328 -2.76,-6.069 -2.801,-0.495 -7.318,2.28 -9.593,5.049 -2.801,3.415 -2.447,6.101 -0.268,8.486 3.274,3.621 8.879,2.222 8.879,2.222 0,0 -10.269,9.009 -20.963,1.626 -9.527,-6.556 -6.792,-15.495 1.803,-23.294 7.748,-7.049 1.56,-14.778 -6.245,-13.774 -5.349,0.682 -7.538,4.975 -6.254,7.61 1.108,2.254 4.948,3.64 4.948,3.64 0,0 -4.411,1.793 -9.603,-0.162 -4.664,-1.758 -8.51,-5.613 -8.202,-15.269 v -44.766 c 0,0 4.82,5.944 10.487,11.989 6.347,6.819 9.243,11.427 15.76,10.888 12.331,-0.763 21.248,4.715 27.31,13.505 C 16.937,-21.414 7.821,-2.526 0,0" /></g><g
           transform="translate(392.4369,41.9577)"
           id="g64"
           style="fill:#ffffff"><path
             id="path66"
             style="fill:#ffffff;fill-opacity:1;fill-rule:nonzero;stroke:none"
             d="m 0,0 c 3.396,0 6.427,-2.438 6.427,-6.231 0,-3.817 -3.031,-6.272 -6.428,-6.272 -3.392,0 -6.414,2.455 -6.414,6.272 C -6.415,-2.438 -3.392,0 0,0 m -0.001,-11.166 c 2.6,0 4.72,2.074 4.72,4.935 0,2.838 -2.12,4.898 -4.719,4.898 -2.624,0 -4.707,-2.06 -4.707,-4.898 0,-2.861 2.083,-4.935 4.706,-4.935 m -2.488,8.443 h 2.635 c 1.762,0 2.75,-0.551 2.75,-2.074 0,-1.29 -0.82,-1.788 -1.836,-1.87 L 2.931,-9.729 H 1.475 l -1.707,2.992 h -0.871 v -2.992 h -1.386 z m 1.386,-2.926 h 1.237 c 0.808,0 1.377,0.118 1.377,0.97 0,0.734 -0.804,0.871 -1.445,0.871 h -1.169 z" /></g></g></g></g></svg>