<?xml version="1.0" encoding="UTF-8" standalone="no"?>
<!-- Created with Inkscape (http://www.inkscape.org/) -->

<svg
   xmlns:dc="http://purl.org/dc/elements/1.1/"
   xmlns:cc="http://creativecommons.org/ns#"
   xmlns:rdf="http://www.w3.org/1999/02/22-rdf-syntax-ns#"
   xmlns:svg="http://www.w3.org/2000/svg"
   xmlns="http://www.w3.org/2000/svg"
   xmlns:sodipodi="http://sodipodi.sourceforge.net/DTD/sodipodi-0.dtd"
   xmlns:inkscape="http://www.inkscape.org/namespaces/inkscape"
   width="228.55701"
   height="299.67401"
   viewBox="0 0 228.55701 299.67402"
   id="svg2"
   version="1.1"
   inkscape:version="0.91 r13725"
   sodipodi:docname="microservo.svg">
  <defs
     id="defs4" />
  <sodipodi:namedview
     id="base"
     pagecolor="#ffffff"
     bordercolor="#666666"
     borderopacity="1.0"
     inkscape:pageopacity="0.0"
     inkscape:pageshadow="2"
     inkscape:zoom="5.2511351"
     inkscape:cx="120.86336"
     inkscape:cy="129.27124"
     inkscape:document-units="px"
     inkscape:current-layer="layer1"
     showgrid="false"
     showguides="true"
     inkscape:guide-bbox="true"
     inkscape:window-width="1536"
     inkscape:window-height="801"
     inkscape:window-x="-8"
     inkscape:window-y="-8"
     inkscape:window-maximized="1"
     units="px">
    <sodipodi:guide
       position="378.57143,680.7143"
       orientation="1,0"
       id="guide8110" />
    <sodipodi:guide
       position="299.00516,521.7438"
       orientation="1,0"
       id="guide8112" />
  </sodipodi:namedview>
  <metadata
     id="metadata7">
    <rdf:RDF>
      <cc:Work
         rdf:about="">
        <dc:format>image/svg+xml</dc:format>
        <dc:type
           rdf:resource="http://purl.org/dc/dcmitype/StillImage" />
        <dc:title />
      </cc:Work>
    </rdf:RDF>
  </metadata>
  <g
     inkscape:label="Layer 1"
     inkscape:groupmode="layer"
     id="layer1"
     transform="translate(0,-752.68816)">
    <path
       sodipodi:type="inkscape:offset"
       inkscape:radius="0"
       inkscape:original="M 404.69141 305.85938 L 404.69141 560.92383 L 516.87891 560.92383 L 516.87891 305.85938 L 404.69141 305.85938 z "
       style="fill:#0061ff;fill-opacity:1;stroke-width:6.5999999;stroke-linecap:round;stroke-linejoin:round;stroke-miterlimit:4;stroke-dasharray:none"
       id="path8212"
       d="m 404.69141,305.85938 0,255.06445 112.1875,0 0,-255.06445 -112.1875,0 z"
       transform="translate(-404.31312,491.43834)" />
    <path
       style="fill:#0000ff;stroke-width:6.5999999;stroke-linecap:round;stroke-linejoin:round;stroke-miterlimit:4;stroke-dasharray:none"
       d="M 56.57031,840.73522 C 25.32775,840.73424 1.1e-4,866.06101 0,897.30357 c 0.0188,22.35114 11.80746,42.59558 32.238,51.66016 0.029,3.31696 0.0949,5.23916 0.0882,7.9375 -5e-5,13.94737 11.30654,25.25396 25.25391,25.25391 13.94737,5e-5 25.25396,-11.30654 25.25391,-25.25391 -0.006,-2.98597 -0.4155,-5.4421 -0.31934,-8.74609 19.48668,-9.44925 30.60549,-29.19473 30.62402,-50.85157 -1.1e-4,-31.2418 -25.32656,-56.56825 -56.56836,-56.56835 z"
       id="crankbase"
       inkscape:connector-curvature="0"
       sodipodi:nodetypes="ccccsccccc"
       inkscape:label="#path8083" />
    <path
       style="fill:#00a2ff;fill-opacity:1;stroke:none;stroke-width:2;stroke-linecap:round;stroke-linejoin:round;stroke-miterlimit:4;stroke-dasharray:none;stroke-opacity:1"
       d="m 0.47594,1013.4696 0,38.8925 53.82032,0 0,-10.4863 a 6.8185296,6.5659914 0 0 1 -4.54493,-6.1816 6.8185296,6.5659914 0 0 1 6.81836,-6.5664 6.8185296,6.5659914 0 0 1 6.81836,6.5664 6.8185296,6.5659914 0 0 1 -4.54492,6.1816 l 0,10.4863 53.82031,0 0,-38.8925 -112.1875,0 z"
       id="lowertip"
       inkscape:connector-curvature="0"
       inkscape:label="#rect8114" />
    <path
       inkscape:connector-curvature="0"
       style="fill:#00a2ff;fill-opacity:1;stroke:none;stroke-width:2;stroke-linecap:round;stroke-linejoin:round;stroke-miterlimit:4;stroke-dasharray:none;stroke-opacity:1"
       d="m 112.56558,836.19124 0,-38.89258 -53.82032,0 0,10.48633 a 6.8185296,6.5659914 0 0 1 4.54493,6.18164 6.8185296,6.5659914 0 0 1 -6.81836,6.56641 6.8185296,6.5659914 0 0 1 -6.81836,-6.56641 6.8185296,6.5659914 0 0 1 4.54492,-6.18164 l 0,-10.48633 -53.82031,0 0,38.89258 112.1875,0 z"
       id="uppertip"
       inkscape:label="#rect8114-7" />
    <rect
       style="fill:#ff0000;fill-opacity:1;stroke:none;stroke-width:2;stroke-linecap:round;stroke-linejoin:round;stroke-miterlimit:4;stroke-dasharray:none;stroke-opacity:1"
       id="VCC"
       width="5.5036602"
       height="22.626158"
       x="53.720005"
       y="774.61853"
       inkscape:label="#rect8172" />
    <rect
       style="fill:#ffcc00;fill-opacity:1;stroke:none;stroke-width:2;stroke-linecap:round;stroke-linejoin:round;stroke-miterlimit:4;stroke-dasharray:none;stroke-opacity:1"
       id="LOGIC"
       width="5.5036602"
       height="22.626158"
       x="47.299076"
       y="774.61853"
       inkscape:label="#rect8172-0" />
    <rect
       style="fill:#a02c2c;fill-opacity:1;stroke:none;stroke-width:2;stroke-linecap:round;stroke-linejoin:round;stroke-miterlimit:4;stroke-dasharray:none;stroke-opacity:1"
       id="GND"
       width="5.5036602"
       height="22.626158"
       x="60.140934"
       y="774.61853"
       inkscape:label="#rect8172-0-7" />
    <path
       sodipodi:type="inkscape:offset"
       inkscape:radius="1.487675"
       inkscape:original="M 449.37695 258.73828 L 449.37695 283.23633 L 472.08789 283.23633 L 472.08789 258.73828 L 449.37695 258.73828 z "
       style="fill:#000000;fill-opacity:1;stroke:none;stroke-width:2;stroke-linecap:round;stroke-linejoin:round;stroke-miterlimit:4;stroke-dasharray:none;stroke-opacity:1"
       id="connector"
       d="m 449.37695,257.25 a 1.4878237,1.4878237 0 0 0 -1.48828,1.48828 l 0,24.49805 a 1.4878237,1.4878237 0 0 0 1.48828,1.48828 l 22.71094,0 a 1.4878237,1.4878237 0 0 0 1.48828,-1.48828 l 0,-24.49805 A 1.4878237,1.4878237 0 0 0 472.08789,257.25 l -22.71094,0 z"
       transform="translate(-404.31312,495.43834)"
       inkscape:label="#path8210" />
    <path
       sodipodi:type="inkscape:offset"
       inkscape:radius="-6.251792"
       inkscape:original="M 471.43555 389.44922 C 453.40031 389.30635 437.13044 389.46199 425.80664 389.53125 C 415.76392 389.53078 407.62258 397.67212 407.62305 407.71484 C 407.62258 417.75755 415.76393 425.89891 425.80664 425.89844 C 455.49641 425.5603 595.48387 430.87456 595.51172 409.23047 C 595.53257 392.9974 525.54125 389.87783 471.43555 389.44922 z "
       style="fill:#b3b3b3;stroke:none;stroke-width:2;stroke-linecap:round;stroke-linejoin:round;stroke-miterlimit:4;stroke-dasharray:none;stroke-opacity:1"
       id="path8233"
       d="m 471.38672,395.70117 c -17.96949,-0.14235 -34.19656,0.0127 -45.54102,0.082 a 6.2524171,6.2524171 0 0 1 -0.0391,0 c -6.6638,-3.1e-4 -11.93195,5.26785 -11.93164,11.93164 -3.1e-4,6.66378 5.26786,11.93196 11.93164,11.93164 15.36382,-0.1719 57.36969,1.06709 95.74609,-0.33984 19.20541,-0.70409 37.46796,-2.09625 50.45313,-4.5332 6.49258,-1.21848 11.6845,-2.75986 14.64844,-4.22852 1.31232,-0.65027 1.96481,-1.20264 2.32422,-1.54492 0.004,0.002 0.20477,0.17534 -0.51563,-0.41016 -1.11262,-0.90426 -3.48349,-2.18664 -6.7793,-3.33593 -6.59161,-2.29859 -16.74871,-4.22906 -28.64453,-5.63282 -23.79162,-2.80751 -54.69828,-3.7064 -81.65234,-3.91992 z"
       transform="translate(34.178307,0.22207437)" />
    <g
       id="g8090">
      <path
         inkscape:label="#path8105"
         sodipodi:nodetypes="scszs"
         inkscape:connector-curvature="0"
         id="arm"
         d="m 47.766858,880.87857 c -4.446698,1.16358 -8.412345,8.27966 -8.412128,18.49359 -2.17e-4,10.21391 3.769702,18.31195 8.412128,18.49358 8.023984,0.31393 78.496412,5.06095 78.509302,-16.95212 0.0129,-22.01308 -74.376414,-21.11652 -78.509302,-20.03505 z"
         style="fill:#ececec;stroke:#000000;stroke-width:1.37187266;stroke-linecap:round;stroke-linejoin:round;stroke-miterlimit:4;stroke-dasharray:none;stroke-opacity:1" />
      <circle
         r="8.9718056"
         cy="899.47546"
         cx="56.660542"
         id="path8216"
         style="fill:#808080;fill-opacity:1;stroke:none;stroke-width:2;stroke-linecap:round;stroke-linejoin:round;stroke-miterlimit:4;stroke-dasharray:none;stroke-opacity:1" />
    </g>
  </g>
</svg>
