<svg xmlns="http://www.w3.org/2000/svg" width="755.906" height="755.906" viewBox="0 0 200 200">
  <path stroke="#000" stroke-width=".259" d="M.13.13h199.74v199.74H.13z"/>
  <path fill="green" d="M35.26 17.9q0 2.407-.48 4.395-.48 1.973-1.46 3.4-.978 1.41-2.437 2.197-1.443.77-3.4.77-1.684 0-3.063-.626-1.38-.64-2.357-1.956-.978-1.315-1.508-3.352t-.53-4.827q0-2.4.482-4.39.497-1.99 1.46-3.4.978-1.42 2.437-2.19 1.46-.78 3.4-.78 1.684 0 3.063.64 1.38.63 2.357 1.96.98 1.32 1.508 3.35.53 2.04.53 4.83zm-2.82.097q0-.545-.05-1.074-.032-.545-.08-1.06l-8.868 6.592q.24.834.61 1.54.368.706.88 1.22.53.496 1.188.785.674.272 1.524.272 1.09 0 1.972-.53.898-.528 1.524-1.57.625-1.043.962-2.583.337-1.56.337-3.6zm-9.59-.192v.994q.015.49.063.96l8.868-6.56q-.24-.82-.6-1.49-.37-.68-.88-1.16-.51-.5-1.17-.77-.66-.27-1.47-.27-1.09 0-1.99.53-.88.53-1.5 1.58-.622 1.04-.96 2.6-.335 1.53-.335 3.57z" style="line-height:1.25;-inkscape-font-specification:'8514fix'" font-family="8514fix" letter-spacing="0" word-spacing="0"/>
  <path fill="#0f0" d="M71.44 28.373H58.274v-2.598h5.388v-15.3l-5.02 2.727-1.026-2.373 6.67-3.52h2.47v18.46h4.684z" style="line-height:1.25;-inkscape-font-specification:Consolas" font-size="32.843" font-family="Consolas" letter-spacing="0" word-spacing="0"/>
  <path fill="green" d="M107.618 17.9q0 2.407-.48 4.395-.482 1.973-1.46 3.4-.978 1.41-2.438 2.197-1.443.77-3.4.77-1.683 0-3.063-.626-1.38-.64-2.357-1.956-.978-1.315-1.507-3.352-.53-2.037-.53-4.827 0-2.4.482-4.39.497-1.99 1.46-3.4.975-1.43 2.435-2.2 1.46-.78 3.4-.78 1.685 0 3.064.64 1.38.63 2.358 1.96.978 1.32 1.507 3.35.52 2.04.52 4.83zm-2.822.097q0-.545-.048-1.074-.032-.545-.08-1.06l-8.87 6.592q.242.834.61 1.54.37.706.883 1.22.53.496 1.19.785.68.272 1.53.272 1.09 0 1.98-.53.9-.528 1.53-1.57.628-1.043.96-2.583.34-1.56.34-3.6zm-9.59-.192v.994q.016.49.064.96l8.868-6.56q-.24-.82-.61-1.49-.368-.68-.88-1.16-.514-.5-1.172-.77-.657-.27-1.475-.27-1.09 0-1.98.53-.88.53-1.5 1.58-.62 1.04-.96 2.6-.33 1.53-.33 3.57z" style="line-height:1.25;-inkscape-font-specification:'8514fix'" font-family="8514fix" letter-spacing="0" word-spacing="0"/>
  <path fill="#0f0" d="M143.797 28.373H130.63v-2.598h5.39v-15.3L131 13.203l-1.027-2.373 6.672-3.513h2.47v18.458h4.682z" style="line-height:1.25;-inkscape-font-specification:Consolas" font-size="32.843" font-family="Consolas" letter-spacing="0" word-spacing="0"/>
  <path fill="green" d="M179.975 17.9q0 2.407-.48 4.395-.482 1.973-1.46 3.4-.978 1.41-2.438 2.197-1.443.77-3.4.77-1.683 0-3.062-.626-1.38-.64-2.358-1.956-.978-1.315-1.507-3.352-.53-2.037-.53-4.827 0-2.4.482-4.39.497-1.99 1.46-3.4.977-1.42 2.437-2.19 1.45-.78 3.39-.78 1.68 0 3.06.64 1.38.63 2.36 1.96.97 1.32 1.5 3.35.53 2.04.53 4.83zm-2.822.097q0-.545-.048-1.074-.032-.545-.08-1.06l-8.87 6.592q.242.834.61 1.54.37.706.883 1.22.53.496 1.187.785.673.272 1.523.272 1.09 0 1.973-.53.9-.528 1.53-1.57.63-1.043.96-2.583.34-1.56.34-3.6zm-9.59-.192v.994q.016.49.064.96l8.87-6.56q-.242-.82-.61-1.49-.37-.68-.883-1.16-.513-.5-1.17-.77-.658-.27-1.476-.27-1.09 0-1.988.53-.882.53-1.508 1.58-.625 1.04-.962 2.6-.337 1.53-.337 3.57z" style="line-height:1.25;-inkscape-font-specification:'8514fix'" font-family="8514fix" letter-spacing="0" word-spacing="0"/>
  <path fill="#0f0" d="M34.604 69.427H21.437V66.83h5.39v-15.3l-5.02 2.726-1.027-2.373 6.67-3.512h2.47v18.46h4.684z" style="line-height:1.25;-inkscape-font-specification:Consolas" font-size="32.843" font-family="Consolas" letter-spacing="0" word-spacing="0"/>
  <path fill="green" d="M71.44 58.955q0 2.406-.48 4.394-.483 1.97-1.46 3.4-.98 1.41-2.438 2.19-1.444.77-3.4.77-1.684 0-3.063-.63-1.38-.64-2.36-1.96-.98-1.32-1.51-3.35-.53-2.04-.53-4.83 0-2.41.48-4.4.49-1.99 1.46-3.4.98-1.43 2.43-2.2 1.46-.79 3.4-.79 1.68 0 3.06.642 1.38.62 2.35 1.952.98 1.314 1.51 3.35t.53 4.827zm-2.823.096q0-.54-.048-1.07l-.08-1.06-8.87 6.59q.24.84.61 1.54.37.71.88 1.22.53.5 1.18.79.67.27 1.52.27 1.09 0 1.97-.53.89-.53 1.52-1.57t.96-2.58q.34-1.55.34-3.59zm-9.59-.19v1q.016.5.064.96l8.87-6.56q-.24-.81-.61-1.49-.37-.67-.88-1.15-.51-.49-1.17-.77-.66-.27-1.47-.27-1.09 0-1.99.53-.88.53-1.51 1.59-.62 1.04-.96 2.6-.33 1.54-.33 3.58z" style="line-height:1.25;-inkscape-font-specification:'8514fix'" font-family="8514fix" letter-spacing="0" word-spacing="0"/>
  <path fill="#0f0" d="M107.618 69.427H94.452V66.83h5.388v-15.3l-5.02 2.726-1.025-2.373 6.67-3.512h2.47v18.46h4.683z" style="line-height:1.25;-inkscape-font-specification:Consolas" font-size="32.843" font-family="Consolas" letter-spacing="0" word-spacing="0"/>
  <path fill="green" d="M143.797 58.955q0 2.406-.48 4.394-.482 1.97-1.46 3.4-.98 1.41-2.438 2.19-1.45.77-3.4.77-1.69 0-3.07-.63-1.38-.64-2.36-1.96-.98-1.32-1.51-3.35-.53-2.04-.53-4.83 0-2.41.48-4.4.49-1.99 1.46-3.4.98-1.43 2.43-2.2 1.46-.79 3.4-.79 1.68 0 3.06.642 1.38.62 2.36 1.952.98 1.314 1.51 3.35t.53 4.827zm-2.823.096q0-.54-.048-1.07-.032-.54-.08-1.06l-8.868 6.59q.24.84.61 1.54.368.71.88 1.22.53.5 1.188.79.674.27 1.523.27 1.09 0 1.97-.53.9-.53 1.52-1.57t.96-2.58q.33-1.55.33-3.59zm-9.59-.19v1q.017.5.065.96l8.86-6.56q-.24-.81-.61-1.49-.37-.67-.88-1.15-.52-.49-1.17-.77-.66-.27-1.48-.27-1.09 0-1.99.53-.88.53-1.51 1.59-.63 1.04-.96 2.6-.34 1.54-.34 3.58z" style="line-height:1.25;-inkscape-font-specification:'8514fix'" font-family="8514fix" letter-spacing="0" word-spacing="0"/>
  <path fill="#0f0" d="M179.975 69.427H166.81V66.83h5.388v-15.3l-5.02 2.726-1.026-2.373 6.67-3.512h2.47v18.46h4.683zM34.605 110.48h-13.17v-2.598h5.39v-15.3l-5.02 2.727-1.026-2.38 6.67-3.51h2.47v18.46h4.68z" style="line-height:1.25;-inkscape-font-specification:Consolas" font-size="32.843" font-family="Consolas" letter-spacing="0" word-spacing="0"/>
  <path fill="green" d="M71.44 100.008q0 2.406-.48 4.394-.483 1.973-1.46 3.4-.98 1.41-2.438 2.197-1.444.77-3.4.77-1.684 0-3.063-.63-1.38-.64-2.36-1.96t-1.51-3.35q-.53-2.04-.53-4.83 0-2.41.48-4.4.49-1.99 1.46-3.4.98-1.43 2.43-2.2 1.46-.79 3.4-.79 1.68 0 3.06.64 1.38.622 2.35 1.953.98 1.313 1.51 3.35t.53 4.827zm-2.823.096q0-.545-.048-1.074-.04-.545-.08-1.06l-8.87 6.592q.24.834.61 1.54.37.706.88 1.22.53.496 1.18.785.67.272 1.52.272 1.09 0 1.97-.53.89-.53 1.52-1.58.62-1.04.96-2.58.34-1.56.34-3.59zm-9.59-.192v.994q.016.497.064.962l8.87-6.56q-.24-.817-.61-1.49-.37-.674-.88-1.155-.51-.497-1.17-.77-.66-.272-1.47-.272-1.09 0-1.99.53-.88.53-1.51 1.59-.62 1.04-.96 2.6-.33 1.54-.33 3.58zm48.59.096q0 2.406-.48 4.394-.48 1.973-1.46 3.4-.977 1.41-2.437 2.197-1.443.77-3.4.77-1.683 0-3.063-.63-1.38-.64-2.357-1.96-.978-1.32-1.507-3.35-.53-2.04-.53-4.83 0-2.41.482-4.4.497-1.99 1.46-3.4.977-1.43 2.436-2.2 1.46-.79 3.4-.79 1.69 0 3.07.64 1.38.622 2.36 1.953.98 1.313 1.51 3.35t.53 4.827zm-2.82.096q0-.545-.05-1.074-.03-.545-.08-1.06l-8.87 6.592q.243.834.61 1.54.37.706.884 1.22.53.496 1.19.785.68.272 1.53.272 1.09 0 1.98-.53.9-.53 1.53-1.58.628-1.04.96-2.58.34-1.56.34-3.59zm-9.59-.192v.994q.015.497.063.962l8.868-6.56q-.24-.817-.61-1.49-.368-.674-.88-1.155-.514-.497-1.172-.77-.657-.272-1.475-.272-1.09 0-1.98.53-.88.53-1.5 1.59-.62 1.04-.96 2.6-.33 1.54-.33 3.58zm48.59.096q0 2.406-.48 4.394-.482 1.973-1.46 3.4-.98 1.41-2.438 2.197-1.45.77-3.4.77-1.69 0-3.07-.63-1.38-.64-2.36-1.96-.98-1.32-1.51-3.35-.53-2.04-.53-4.83 0-2.41.48-4.4.49-1.99 1.46-3.4.98-1.43 2.43-2.2 1.46-.79 3.4-.79 1.68 0 3.06.64 1.38.622 2.36 1.953.98 1.313 1.51 3.35t.53 4.827zm-2.823.096q0-.545-.048-1.074-.032-.545-.08-1.06l-8.868 6.592q.24.834.61 1.54.368.706.88 1.22.53.496 1.188.785.674.272 1.523.272 1.09 0 1.97-.53.9-.53 1.52-1.58.62-1.04.96-2.58.33-1.56.33-3.59zm-9.59-.192v.994q.017.497.065.962l8.86-6.56q-.24-.817-.61-1.49-.37-.674-.88-1.155-.52-.497-1.17-.77-.66-.272-1.48-.272-1.09 0-1.99.53-.88.53-1.51 1.59-.63 1.04-.96 2.6-.34 1.54-.34 3.58z" style="line-height:1.25;-inkscape-font-specification:'8514fix'" font-family="8514fix" letter-spacing="0" word-spacing="0"/>
  <path fill="#0f0" d="M179.975 110.48H166.81v-2.598h5.388v-15.3l-5.02 2.727-1.026-2.38 6.67-3.51h2.47v18.46h4.683z" style="line-height:1.25;-inkscape-font-specification:Consolas" font-size="32.843" font-family="Consolas" letter-spacing="0" word-spacing="0"/>
  <path fill="green" d="M35.26 141.06q0 2.407-.48 4.395-.48 1.973-1.46 3.4-.978 1.41-2.437 2.197-1.443.77-3.4.77-1.684 0-3.063-.626-1.38-.64-2.357-1.956-.978-1.315-1.508-3.352t-.53-4.827q0-2.4.482-4.39.497-1.99 1.46-3.4.978-1.42 2.437-2.19 1.46-.78 3.4-.78 1.684 0 3.063.64 1.38.63 2.357 1.96.98 1.32 1.508 3.35.53 2.04.53 4.83zm-2.82.097q0-.545-.05-1.074-.032-.545-.08-1.06l-8.868 6.592q.24.834.61 1.54.368.706.88 1.22.53.496 1.188.785.674.272 1.524.272 1.09 0 1.972-.53.898-.528 1.524-1.57.625-1.043.962-2.583.337-1.56.337-3.6zm-9.59-.192v.994q.015.49.063.96l8.868-6.56q-.24-.82-.6-1.49-.37-.68-.88-1.16-.51-.5-1.17-.77-.66-.27-1.47-.27-1.09 0-1.99.53-.88.53-1.5 1.58-.622 1.04-.96 2.6-.335 1.53-.335 3.57z" style="line-height:1.25;-inkscape-font-specification:'8514fix'" font-family="8514fix" letter-spacing="0" word-spacing="0"/>
  <path fill="#0f0" d="M71.44 151.533H58.274v-2.598h5.388v-15.3l-5.02 2.727-1.026-2.373 6.67-3.52h2.47v18.46h4.684z" style="line-height:1.25;-inkscape-font-specification:Consolas" font-size="32.843" font-family="Consolas" letter-spacing="0" word-spacing="0"/>
  <path fill="green" d="M107.618 141.06q0 2.407-.48 4.395-.482 1.973-1.46 3.4-.978 1.41-2.438 2.197-1.443.77-3.4.77-1.683 0-3.063-.626-1.38-.64-2.357-1.956-.978-1.315-1.507-3.352-.53-2.037-.53-4.827 0-2.4.482-4.39.497-1.99 1.46-3.4.977-1.42 2.436-2.19 1.46-.78 3.4-.78 1.69 0 3.07.64 1.38.63 2.36 1.96.98 1.32 1.51 3.35.53 2.04.53 4.83zm-2.822.097q0-.545-.048-1.074-.032-.545-.08-1.06l-8.87 6.592q.242.834.61 1.54.37.706.883 1.22.53.496 1.19.785.68.272 1.53.272 1.09 0 1.98-.53.9-.528 1.53-1.57.628-1.043.96-2.583.34-1.56.34-3.6zm-9.59-.192v.994q.016.49.064.96l8.868-6.56q-.24-.82-.61-1.49-.368-.68-.88-1.16-.514-.5-1.172-.77-.657-.27-1.475-.27-1.09 0-1.98.53-.88.53-1.5 1.58-.62 1.04-.96 2.6-.33 1.53-.33 3.57z" style="line-height:1.25;-inkscape-font-specification:'8514fix'" font-family="8514fix" letter-spacing="0" word-spacing="0"/>
  <path fill="#0f0" d="M143.797 151.533H130.63v-2.598h5.39v-15.3l-5.02 2.727-1.027-2.373 6.672-3.52h2.47v18.46h4.682z" style="line-height:1.25;-inkscape-font-specification:Consolas" font-size="32.843" font-family="Consolas" letter-spacing="0" word-spacing="0"/>
  <path fill="green" d="M179.975 141.06q0 2.407-.48 4.395-.482 1.973-1.46 3.4-.978 1.41-2.438 2.197-1.443.77-3.4.77-1.683 0-3.062-.626-1.38-.64-2.358-1.956-.978-1.315-1.507-3.352-.53-2.037-.53-4.827 0-2.4.482-4.39.497-1.99 1.46-3.4.977-1.42 2.437-2.19 1.45-.78 3.39-.78 1.68 0 3.06.64 1.38.63 2.36 1.96.97 1.32 1.5 3.35.53 2.04.53 4.83zm-2.822.097q0-.545-.048-1.074-.032-.545-.08-1.06l-8.87 6.592q.242.834.61 1.54.37.706.883 1.22.53.496 1.187.785.673.272 1.523.272 1.09 0 1.973-.53.9-.528 1.53-1.57.63-1.043.96-2.583.34-1.56.34-3.6zm-9.59-.192v.994q.016.49.064.96l8.87-6.56q-.242-.82-.61-1.49-.37-.68-.883-1.16-.513-.5-1.17-.77-.658-.27-1.476-.27-1.09 0-1.988.53-.882.53-1.508 1.58-.625 1.04-.962 2.6-.337 1.53-.337 3.57zM35.26 182.115q0 2.405-.48 4.393-.48 1.973-1.46 3.4-.978 1.41-2.437 2.197-1.443.77-3.4.77-1.684 0-3.063-.626-1.38-.65-2.357-1.96-.978-1.32-1.508-3.35-.53-2.04-.53-4.83 0-2.41.482-4.4.497-1.99 1.46-3.4.978-1.43 2.437-2.2 1.46-.79 3.4-.79 1.684 0 3.063.64 1.38.62 2.357 1.95.98 1.31 1.508 3.35.53 2.04.53 4.83zm-2.82.095q0-.545-.05-1.074-.032-.545-.08-1.06l-8.868 6.592q.24.834.61 1.54.368.706.88 1.22.53.496 1.188.785.674.272 1.524.272 1.09 0 1.972-.53.898-.528 1.524-1.57.625-1.043.962-2.583.337-1.555.337-3.592zm-9.59-.192v.994q.015.497.063.962l8.868-6.56q-.24-.817-.6-1.49-.37-.674-.88-1.155-.51-.5-1.17-.77-.66-.28-1.47-.28-1.09 0-1.99.53-.88.53-1.5 1.58-.622 1.04-.96 2.6-.335 1.54-.335 3.57zm48.59.096q0 2.406-.48 4.394-.483 1.973-1.46 3.4-.98 1.41-2.438 2.197-1.444.77-3.4.77-1.684 0-3.063-.626-1.38-.65-2.36-1.96t-1.51-3.35q-.53-2.04-.53-4.83 0-2.41.48-4.4.49-1.99 1.46-3.4.98-1.43 2.43-2.2 1.46-.79 3.4-.79 1.68 0 3.06.64 1.38.62 2.35 1.95.98 1.31 1.51 3.35t.53 4.83zm-2.823.096q0-.545-.048-1.074-.04-.545-.08-1.06l-8.87 6.592q.24.834.61 1.54.37.706.88 1.22.53.496 1.18.785.67.272 1.52.272 1.09 0 1.97-.53.89-.528 1.52-1.57.62-1.043.96-2.583.34-1.555.34-3.592zm-9.59-.192v.994q.016.497.064.962l8.87-6.56q-.24-.817-.61-1.49-.37-.674-.88-1.155-.51-.5-1.17-.77-.66-.28-1.47-.28-1.09 0-1.99.53-.88.53-1.51 1.58-.62 1.04-.96 2.6-.33 1.54-.33 3.57z" style="line-height:1.25;-inkscape-font-specification:'8514fix'" font-family="8514fix" letter-spacing="0" word-spacing="0"/>
  <path fill="#0f0" d="M107.618 192.586H94.452v-2.598h5.388v-15.3l-5.02 2.727-1.025-2.373 6.67-3.512h2.47v18.458h4.683z" style="line-height:1.25;-inkscape-font-specification:Consolas" font-size="32.843" font-family="Consolas" letter-spacing="0" word-spacing="0"/>
  <path fill="green" d="M143.797 182.114q0 2.406-.48 4.394-.482 1.973-1.46 3.4-.98 1.41-2.438 2.197-1.45.77-3.4.77-1.69 0-3.07-.626-1.38-.65-2.36-1.96-.98-1.32-1.51-3.35-.53-2.04-.53-4.83 0-2.41.48-4.4.49-1.99 1.46-3.4.98-1.43 2.43-2.2 1.46-.79 3.4-.79 1.68 0 3.06.64 1.38.62 2.36 1.95.98 1.31 1.51 3.35t.53 4.83zm-2.823.096q0-.545-.048-1.074-.032-.545-.08-1.06l-8.868 6.592q.24.834.61 1.54.368.706.88 1.22.53.496 1.188.785.674.272 1.523.272 1.09 0 1.97-.53.9-.528 1.52-1.57.62-1.043.96-2.583.33-1.555.33-3.592zm-9.59-.192v.994q.017.497.065.962l8.86-6.56q-.24-.817-.61-1.49-.37-.674-.88-1.155-.52-.5-1.17-.77-.66-.28-1.48-.28-1.09 0-1.99.53-.88.53-1.51 1.58-.63 1.04-.96 2.6-.34 1.54-.34 3.57zm48.59.096q0 2.406-.48 4.394-.48 1.973-1.46 3.4-.977 1.41-2.437 2.197-1.443.77-3.4.77-1.683 0-3.062-.626-1.38-.65-2.358-1.96-.978-1.32-1.507-3.35-.53-2.04-.53-4.83 0-2.41.482-4.4.497-1.99 1.46-3.4.977-1.43 2.437-2.2 1.45-.79 3.39-.79 1.68 0 3.06.64 1.38.62 2.36 1.95.97 1.31 1.5 3.35t.53 4.83zm-2.82.096q0-.545-.05-1.074-.03-.545-.08-1.06l-8.87 6.592q.243.834.61 1.54.37.706.884 1.22.53.496 1.187.785.673.272 1.523.272 1.09 0 1.973-.53.9-.528 1.53-1.57.63-1.043.96-2.583.34-1.555.34-3.592zm-9.59-.192v.994q.015.497.063.962l8.87-6.56q-.242-.817-.61-1.49-.37-.674-.883-1.155-.513-.5-1.17-.77-.658-.28-1.476-.28-1.09 0-1.988.53-.882.53-1.508 1.58-.625 1.04-.962 2.6-.337 1.54-.337 3.57z" style="line-height:1.25;-inkscape-font-specification:'8514fix'" font-family="8514fix" letter-spacing="0" word-spacing="0"/>
</svg>
