<?xml version="1.0" encoding="UTF-8"?>
<svg width="12px" height="16px" viewBox="0 0 12 16" version="1.1" xmlns="http://www.w3.org/2000/svg" xmlns:xlink="http://www.w3.org/1999/xlink">
    <!-- Generator: Sketch 53.2 (72643) - https://sketchapp.com -->
    <title>icon</title>
    <desc>Created with Sketch.</desc>
    <g id="Explorations" stroke="none" stroke-width="1" fill="none" fill-rule="evenodd">
        <g id="Print---option-B" transform="translate(-1132.000000, -259.000000)">
            <g id="actions-bar" transform="translate(1124.000000, 253.000000)">
                <g id="button">
                    <g id="icon" transform="translate(6.000000, 6.000000)">
                        <rect id="Rectangle" x="0" y="0" width="16" height="16"></rect>
                        <path d="M13.2363636,16 C13.4424242,16 13.6212121,15.9250094 13.7727273,15.7750281 C13.9242424,15.6250469 14,15.448069 14,15.2440945 L14,11.5545557 C13.9272727,11.3385827 13.8060606,11.2185977 13.6363636,11.1946007 C13.4666667,11.1706037 13.2909091,11.2425947 13.1090909,11.4105737 L13.0727273,11.4465692 C12.7454545,11.7225347 12.3515152,11.8605174 11.8909091,11.8605174 C11.3939394,11.8365204 10.9636364,11.6655418 10.6,11.3475816 C10.2363636,11.0296213 10.0181818,10.6306712 9.94545455,10.1507312 L9.92727273,10.1507312 L9.92727273,9.6287964 L9.94545455,9.6287964 C10.0181818,9.14885639 10.2363636,8.74990626 10.6,8.43194601 C10.9636364,8.11398575 11.3939394,7.94300712 11.8909091,7.91901012 C12.3515152,7.91901012 12.7454545,8.05699288 13.0727273,8.33295838 L13.1090909,8.36895388 C13.2787879,8.52493438 13.4515152,8.58792651 13.6272727,8.55793026 C13.8030303,8.52793401 13.9272727,8.41694788 14,8.22497188 L14,4.80539933 C14,4.63742032 13.9454545,4.48443945 13.8363636,4.34645669 C13.7272727,4.20847394 13.5939394,4.11548556 13.4363636,4.06749156 C13.3878788,4.07949006 12.2969697,4.07949006 10.1636364,4.06749156 C9.90909091,4.09148856 9.70606061,4.05849269 9.55454545,3.96850394 C9.4030303,3.87851519 9.32424242,3.75853018 9.31818182,3.60854893 C9.31212121,3.45856768 9.38181818,3.3055868 9.52727273,3.1496063 L9.56363636,3.1136108 C9.84242424,2.78965129 9.98181818,2.39970004 9.98181818,1.94375703 C9.95757576,1.45181852 9.78484848,1.02587177 9.46363636,0.66591676 C9.14242424,0.305961755 8.73939394,0.0899887514 8.25454545,0.0179977503 L8.25454545,0 L7.72727273,0 L7.72727273,0.0179977503 C7.24242424,0.0899887514 6.83939394,0.305961755 6.51818182,0.66591676 C6.1969697,1.02587177 6.02424242,1.45181852 6,1.94375703 C6,2.39970004 6.13939394,2.78965129 6.41818182,3.1136108 L6.45454545,3.1496063 C6.6,3.3055868 6.67575758,3.45856768 6.68181818,3.60854893 C6.68787879,3.75853018 6.61818182,3.87851519 6.47272727,3.96850394 C6.32727273,4.05849269 6.10909091,4.09148856 5.81818182,4.06749156 L4.21818182,4.08548931 C3.13939394,4.08548931 2.58787879,4.07949006 2.56363636,4.06749156 C2.39393939,4.11548556 2.25757576,4.20847394 2.15454545,4.34645669 C2.05151515,4.48443945 2,4.63742032 2,4.80539933 L2,15.2440945 C2,15.448069 2.07272727,15.6250469 2.21818182,15.7750281 C2.36363636,15.9250094 2.53939394,16 2.74545455,16 L13.2363636,16 Z" id="Path" fill="#FFFFFF"></path>
                    </g>
                </g>
            </g>
        </g>
    </g>
</svg>