<?xml version="1.0" encoding="UTF-8"?>
<svg width="20px" height="20px" viewBox="0 0 20 20" version="1.1" xmlns="http://www.w3.org/2000/svg" xmlns:xlink="http://www.w3.org/1999/xlink">
    <!-- Generator: Sketch 53.2 (72643) - https://sketchapp.com -->
    <title>icon</title>
    <desc>Created with Sketch.</desc>
    <g id="Explorations" stroke="none" stroke-width="1" fill="none" fill-rule="evenodd">
        <g id="Print---option-B" transform="translate(-1300.000000, -257.000000)">
            <g id="actions-bar" transform="translate(1124.000000, 253.000000)">
                <g id="icon" transform="translate(176.000000, 4.000000)">
                    <rect id="Rectangle" x="0" y="0" width="20" height="20"></rect>
                    <path d="M19.3781973,8.6 C19.001989,8.21204526 18.4849059,7.99311701 17.94481,7.99311701 C17.4047142,7.99311701 16.8876311,8.21204526 16.5114228,8.6 L8.7102,16.41 L8.81008762,16.31 C8.47800164,16.0518959 8.28877045,15.6507201 8.30066078,15.23 L8.30066078,13.85 L4.14533598,13.85 L4.14533598,10.38 L2.76688689,10.38 C2.39372787,10.4034336 2.02837952,10.2659397 1.76304493,10.0022176 C1.49771033,9.73849547 1.35773663,9.37373832 1.37844903,9 C1.35773663,8.62626168 1.49771033,8.26150453 1.76304493,7.99778244 C2.02837952,7.73406034 2.39372787,7.5965664 2.76688689,7.62 L4.14533598,7.62 L4.14533598,4.15 L8.30066078,4.15 L8.30066078,2.77 C8.27725351,2.39642113 8.41459293,2.03066173 8.67801865,1.76502861 C8.94144436,1.49939548 9.30579157,1.35926429 9.67910987,1.38 C10.0532354,1.35955025 10.4183833,1.49941714 10.6833241,1.76465597 C10.9482648,2.02989479 11.0879745,2.39545351 11.0675477,2.77 L11.0675477,4.15 L15.2128838,4.15 L15.2128838,6.23 C13.972586,6.22144083 12.8792771,7.04313597 12.5413045,8.23787142 C12.203332,9.43260686 12.7039142,10.7062048 13.7645133,11.35 L14.7633895,10.35 C14.15657,10.2145453 13.7350405,9.66172044 13.7645133,9.04 C13.7440713,8.6681042 13.8827236,8.30507905 14.1457955,8.04171115 C14.4088674,7.77834325 14.7714846,7.63953498 15.1429624,7.66 L16.5314003,7.66 L16.5314003,2.77 L12.4459968,2.77 C12.4459968,1.24017124 11.2072193,9.36749945e-17 9.67910987,0 C8.15100041,-9.36749945e-17 6.91222293,1.24017124 6.91222293,2.77 L2.76688689,2.77 L2.76688689,6.23 C1.23877745,6.23000003 1.87139437e-16,7.47017127 0,9 C-1.87139437e-16,10.5298287 1.23877745,11.77 2.76688689,11.77 L2.76688689,15.23 L6.91222293,15.23 C6.91149251,16.28273 7.51328383,17.2427926 8.46048097,17.7 L8.1408406,19.28 L7.99100917,20 L8.7102,19.85 L11.4271431,19.31 L11.5769746,19.31 L19.3781973,11.5 C19.7752123,11.1224121 20,10.5982229 20,10.05 C20,9.50177706 19.7752123,8.97758793 19.3781973,8.6 Z M18.5291526,10.6 L10.9876376,18.17 L9.52927845,18.46 L9.81895253,17 L17.3604675,9.45 C17.5130823,9.29046258 17.7241603,9.20024548 17.94481,9.20024548 C18.1654598,9.20024548 18.3765378,9.29046258 18.5291526,9.45 C18.6859452,9.60418071 18.7742683,9.81497511 18.7742683,10.035 C18.7742683,10.2550249 18.6859452,10.4658193 18.5291526,10.62 L18.5291526,10.6 Z" id="Shape" fill-rule="nonzero"></path>
                </g>
            </g>
        </g>
    </g>
</svg>