<?xml version="1.0" encoding="UTF-8"?>
<svg width="32px" height="29px" viewBox="0 0 32 29" version="1.1" xmlns="http://www.w3.org/2000/svg" xmlns:xlink="http://www.w3.org/1999/xlink">
    <!-- Generator: Sketch 53.2 (72643) - https://sketchapp.com -->
    <title>button copy 2</title>
    <desc>Created with Sketch.</desc>
    <g id="Explorations" stroke="none" stroke-width="1" fill="none" fill-rule="evenodd">
        <g id="Message-Box-(color-options)" transform="translate(-120.000000, -521.000000)">
            <g id="notes-copy-7" transform="translate(80.000000, 479.000000)">
                <g id="button-copy-2" transform="translate(40.000000, 40.000000)">
                    <g id="icon">
                        <rect id="Rectangle" x="0" y="0" width="32" height="32"></rect>
                        <path d="M0,2 L0,25.113325 L5.71428571,25.113325 L5.71428571,31 L7.57142857,29.483188 L12.9642857,25.113325 L32,25.113325 L32,2 L0,2 Z M2.28571429,4.3113325 L29.7142857,4.3113325 L29.7142857,22.8019925 L12.1785714,22.8019925 L11.8571429,23.0547945 L8,26.1606476 L8,22.8019925 L2.28571429,22.8019925 L2.28571429,4.3113325 Z M14.8571429,6.62266501 L14.8571429,8.93399751 L17.1428571,8.93399751 L17.1428571,6.62266501 L14.8571429,6.62266501 Z M14.8571429,11.24533 L14.8571429,20.49066 L17.1428571,20.49066 L17.1428571,11.24533 L14.8571429,11.24533 Z" id="Shape" fill="#E6D273" fill-rule="nonzero"></path>
                    </g>
                </g>
            </g>
        </g>
    </g>
</svg>