<?xml version="1.0" encoding="UTF-8"?>
<svg width="16px" height="16px" viewBox="0 0 16 16" version="1.1" xmlns="http://www.w3.org/2000/svg" xmlns:xlink="http://www.w3.org/1999/xlink">
    <!-- Generator: Sketch 53.2 (72643) - https://sketchapp.com -->
    <title>icon</title>
    <desc>Created with Sketch.</desc>
    <g id="Explorations" stroke="none" stroke-width="1" fill="none" fill-rule="evenodd">
        <g id="Print---option-B" transform="translate(-1168.000000, -259.000000)">
            <g id="actions-bar" transform="translate(1124.000000, 253.000000)">
                <g id="button" transform="translate(38.000000, 0.000000)">
                    <g id="icon" transform="translate(6.000000, 6.000000)">
                        <rect id="Rectangle" x="0" y="0" width="16" height="16"></rect>
                        <path d="M13.4858195,8.38883144 L14.0692449,8.00827301 L13.4858195,7.62771458 C13.204911,7.45122372 12.9834254,7.27197518 12.8213628,7.08996898 C12.6593002,6.90796277 12.524248,6.68183385 12.4162063,6.41158221 C12.3081645,6.14133058 12.2298343,5.8104102 12.1812155,5.4188211 C12.1325967,5.02723199 12.1082873,4.54739745 12.1082873,3.97931748 C12.1082873,3.4112375 12.0974831,2.97828335 12.0758748,2.68045502 C12.0434622,2.31644261 11.9786372,2.04067563 11.8813996,1.85315408 C11.7625537,1.62150982 11.5896869,1.46156498 11.3627993,1.37331954 C11.2007366,1.30713547 10.9792511,1.25749741 10.6983425,1.22440538 C10.601105,1.20234402 10.5146716,1.14443295 10.4390424,1.05067218 C10.3634131,0.95691141 10.3255985,0.810754912 10.3255985,0.612202689 C10.3255985,0.413650465 10.3634131,0.270251637 10.4390424,0.182006205 C10.5578883,0.0606687349 10.790178,1.77635684e-15 11.1359116,1.77635684e-15 C11.5896869,1.77635684e-15 11.9840393,0.0910031024 12.3189687,0.273009307 C12.6538981,0.455015512 12.9186004,0.71423647 13.1130755,1.05067218 C13.3075506,1.38710789 13.4047882,1.78145467 13.4047882,2.23371251 C13.4480049,4.20820407 13.4966237,5.31127198 13.5506446,5.54291624 C13.6586863,5.99517408 13.826151,6.35367115 14.0530387,6.61840745 C14.258318,6.85005171 14.506814,7.05411927 14.7985267,7.23061013 C15.003806,7.36297828 15.1550645,7.48431575 15.252302,7.59462254 C15.3063229,7.66080662 15.3333333,7.79869011 15.3333333,8.00827301 C15.3333333,8.27300931 15.2360958,8.46604619 15.0416206,8.58738366 C14.6094537,8.86315064 14.2907305,9.11134092 14.0854512,9.3319545 C13.8585635,9.57462944 13.6965009,9.87797311 13.5992634,10.2419855 C13.5236341,10.5618752 13.4750153,11.0196484 13.453407,11.6153051 L13.4047882,13.7497415 C13.393984,14.4446743 13.1860037,14.9934505 12.7808471,15.3960703 C12.3756906,15.7986901 11.8273788,16 11.1359116,16 C10.8333947,16 10.6173112,15.9448466 10.4876611,15.8345398 C10.3796194,15.7352637 10.3255985,15.5863495 10.3255985,15.3877973 C10.3255985,15.2554292 10.3445058,15.139607 10.3823204,15.0403309 C10.4201351,14.9410548 10.4660528,14.8721131 10.5200737,14.8335057 C10.5740945,14.7948983 10.6335175,14.7700793 10.6983425,14.7590486 C10.9900552,14.7259566 11.2169429,14.6763185 11.3790055,14.6101344 C11.6166974,14.5108583 11.7895641,14.3343675 11.8976059,14.0806618 C11.9948435,13.8821096 12.0542664,13.611858 12.0758748,13.2699069 C12.0974831,12.9831093 12.1082873,12.5639435 12.1082873,12.0124095 C12.1190915,11.2182006 12.1623082,10.6059979 12.2379374,10.1758014 C12.3027624,9.78972768 12.4297115,9.45604964 12.6187845,9.17476732 C12.8078576,8.89348501 13.0968692,8.63150638 13.4858195,8.38883144 L13.4858195,8.38883144 Z M2.57900552,13.7828335 C2.5898097,14.2240607 2.68974831,14.6128921 2.87882136,14.9493278 C3.06789441,15.2857635 3.33259669,15.5449845 3.67292818,15.7269907 C4.01325967,15.9089969 4.41031308,16 4.8640884,16 C5.1990178,16 5.42590546,15.9393313 5.54475138,15.8179938 C5.63118478,15.7297484 5.67440147,15.5863495 5.67440147,15.3877973 C5.67440147,15.1892451 5.63658686,15.0430886 5.56095764,14.9493278 C5.48532842,14.855567 5.39889503,14.797656 5.30165746,14.7755946 C5.02074893,14.7535333 4.79926335,14.7094105 4.63720074,14.6432265 C4.41031308,14.5439504 4.23744629,14.3784902 4.11860037,14.1468459 C4.0213628,13.9593244 3.95653775,13.6890727 3.92412523,13.336091 C3.90251688,13.027232 3.89171271,12.5915202 3.89171271,12.0289555 C3.89171271,11.4663909 3.86740331,10.9865564 3.81878453,10.5894519 C3.77016575,10.1923475 3.69183548,9.86142709 3.58379374,9.5966908 C3.475752,9.3319545 3.33799877,9.10582558 3.17053407,8.91830403 C3.00306937,8.73078249 2.78428484,8.54877628 2.51418048,8.37228542 L1.93075506,7.99172699 L2.51418048,7.61116856 C2.90313076,7.36849362 3.19214242,7.10651499 3.38121547,6.82523268 C3.57028852,6.54395036 3.69723757,6.21027232 3.76206262,5.82419855 C3.83769184,5.39400207 3.88090853,4.78731472 3.89171271,4.0041365 C3.89171271,3.44157187 3.90251688,3.01689073 3.92412523,2.73009307 C3.94573358,2.38814202 3.99975445,2.11789038 4.08618785,1.91933816 C4.20503376,1.66563254 4.38330264,1.49465701 4.62099448,1.40641158 C4.78305709,1.32919683 5.00994475,1.27404343 5.30165746,1.2409514 C5.3664825,1.22992072 5.42590546,1.20510169 5.47992634,1.16649431 C5.53394721,1.12788694 5.57986495,1.05894519 5.61767956,0.95966908 C5.65549417,0.860392968 5.67440147,0.744570838 5.67440147,0.612202689 C5.67440147,0.413650465 5.6203806,0.270251637 5.51233886,0.182006205 C5.38268877,0.0606687349 5.16660528,0 4.8640884,0 C4.17262124,0 3.62430939,0.204067563 3.21915285,0.612202689 C2.81399632,1.02033781 2.60061387,1.56635643 2.57900552,2.25025853 L2.546593,4.38469493 C2.52498465,4.99138228 2.47636587,5.4546708 2.40073665,5.7745605 C2.30349908,6.12754223 2.14143646,6.4308859 1.9145488,6.68459152 C1.69846532,6.89417442 1.37434009,7.13684936 0.942173112,7.41261634 C0.758502149,7.53395381 0.666666667,7.72699069 0.666666667,7.99172699 C0.666666667,8.20130989 0.693677103,8.33919338 0.747697974,8.40537746 C0.844935543,8.51568425 0.996193984,8.63702172 1.2014733,8.76938987 C1.493186,8.94588073 1.74168201,9.15546363 1.94696133,9.39813857 C2.17384899,9.65184419 2.34131369,10.0103413 2.44935543,10.4736298 C2.5033763,10.6942434 2.546593,11.7973113 2.57900552,13.7828335 Z" id="Shape" fill-rule="nonzero"></path>
                    </g>
                </g>
            </g>
        </g>
    </g>
</svg>