<?xml version="1.0" encoding="UTF-8"?>
<svg width="32px" height="32px" viewBox="0 0 32 32" version="1.1" xmlns="http://www.w3.org/2000/svg" xmlns:xlink="http://www.w3.org/1999/xlink">
    <!-- Generator: Sketch 53.2 (72643) - https://sketchapp.com -->
    <title>button copy 2</title>
    <desc>Created with Sketch.</desc>
    <g id="Explorations" stroke="none" stroke-width="1" fill="none" fill-rule="evenodd">
        <g id="Message-Box-(color-options)" transform="translate(-1200.000000, -519.000000)">
            <g id="notes-copy-8" transform="translate(1160.000000, 479.000000)">
                <g id="button-copy-2" transform="translate(40.000000, 40.000000)">
                    <g id="icon">
                        <rect id="Rectangle" x="0" y="0" width="32" height="32"></rect>
                        <path d="M32,0 L32,32 L0,32 L0,0 L32,0 Z M2.912,29.088 L29.088,29.088 L29.088,2.912 L2.912,2.912 L2.912,29.088 Z M24.728,7.264 L24.728,10.176 L7.272,10.176 L7.272,7.264 L24.728,7.264 Z M24.728,14.544 L24.728,17.456 L7.272,17.456 L7.272,14.544 L24.728,14.544 Z M16,21.824 L16,24.728 L7.272,24.728 L7.272,21.824 L16,21.824 Z" id="Combined-Shape" fill="#95BDE6" fill-rule="nonzero"></path>
                    </g>
                </g>
            </g>
        </g>
    </g>
</svg>