<?xml version="1.0" encoding="UTF-8"?>
<svg width="140px" height="140px" viewBox="0 0 140 140" version="1.1" xmlns="http://www.w3.org/2000/svg" xmlns:xlink="http://www.w3.org/1999/xlink">
    <!-- Generator: Sketch 54.1 (76490) - https://sketchapp.com -->
    <title>Slice</title>
    <desc>Created with Sketch.</desc>
    <g id="Microbit---May-10-2" stroke="none" stroke-width="1" fill="none" fill-rule="evenodd">
        <g id="Group-5" transform="translate(12.500000, 13.000000)">
            <g id="Group-3" transform="translate(0.500000, 0.000000)">
                <g id="Group-Copy-28" transform="translate(0.000000, 66.422680)">
                    <rect id="Rectangle-Copy-6" x="0" y="0" width="46.8292683" height="46.8865979"></rect>
                    <path d="M13.5348772,35.8137084 C11.8244706,35.8137084 10.2196822,35.1393863 9.03074227,33.9182401 C7.40321506,32.2390548 5.67598406,32.804671 5.16786366,35.172286 C4.06878291,40.3081313 4.17158213,43.4894223 5.22782138,44.7995034 C5.42860913,45.0488392 5.63484817,45.1965418 5.84541318,45.2781721 C5.9714452,45.3270314 6.07593418,45.3440622 6.14039739,45.3440671 L36.6749608,45.4231833 C39.853554,45.4231833 42.4225194,42.9473651 42.4225194,39.9356598 L42.4225865,20.7274516 L42.4313902,19.8079012 C42.4314803,19.7998385 42.4314803,19.7998385 42.4315703,19.7917777 C42.433973,19.5764394 42.433973,19.5764394 42.4360666,19.362765 C42.460715,16.6616663 42.2590079,15.3984405 41.6550553,14.7880293 C41.2661058,14.3930592 40.7109027,14.3175568 39.8992521,14.6641086 C38.4763231,15.2730757 36.0671774,15.3368581 33.3459899,15.033574 C32.2683779,14.913471 31.2441925,14.7400367 30.4958016,14.5523129 C30.0725077,14.4461353 29.7346591,14.336135 29.4683428,14.2057123 C29.1969158,14.0727868 28.9772343,13.9201798 28.7797714,13.6541974 C28.305542,13.0154104 28.3872414,12.1274467 28.9928548,11.59139 C30.2594494,10.4669163 30.9797818,8.8995509 30.9797821,7.28900078 C30.9774526,4.08857005 28.2524206,1.46341463 24.8781128,1.46341463 C21.506561,1.46341463 18.7822969,4.08850406 18.7822969,7.28500515 C18.7822969,8.85368185 19.5136229,10.3578731 21.0672527,11.8333362 C21.5767556,12.3435148 21.5905256,12.9145179 21.4116214,13.4162209 C21.3452756,13.6022751 21.2540276,13.7584879 21.1431554,13.9055041 C20.9901932,14.1083314 20.7899916,14.3006997 20.558642,14.4734232 C20.0531843,14.8507933 19.4085579,15.1312341 18.6795972,15.2541691 C16.3015811,15.6542248 14.0833387,15.4258464 11.0145104,14.7207616 C10.7668965,14.6638706 10.642344,14.6345717 10.1347228,14.5144538 C7.80407207,13.9645171 6.91046689,13.9592512 6.60440747,14.2706701 C5.01920194,15.8763282 4.15342742,18.9712168 5.1818842,24.1765875 C5.57512799,26.1891656 6.18501123,27.3542606 7.09650816,27.3542606 C7.45861187,27.3542606 7.84960482,27.1658578 8.31844463,26.7700809 C8.46142316,26.6493839 8.56658233,26.5517056 8.80583298,26.3219687 C13.1007154,22.1846598 19.6339175,24.7410828 19.6339164,29.9974855 C19.629979,33.2265391 16.8770267,35.8137084 13.5348772,35.8137084 Z M8.1908868,30.1352571 C9.19783431,30.3632388 10.2120218,30.9316539 11.1300928,31.8788662 C11.7645911,32.5305491 12.6126049,32.8868792 13.5348772,32.8868792 C15.3004561,32.8868792 16.7051714,31.5667559 16.7070882,29.995701 C16.7070882,27.3766174 13.30974,26.0472449 10.8347053,28.4314713 C10.5494831,28.7053548 10.4123708,28.832713 10.2064102,29.0065772 C9.56739688,29.5460081 8.91141828,29.9374901 8.1908868,30.1352571 Z" id="Path" stroke="#FFFFFF" stroke-width="2.92682927" opacity="0.5" fill-rule="nonzero"></path>
                </g>
                <g id="Group-2-Copy-28" transform="translate(66.341463, 66.422680)">
                    <rect id="Rectangle" x="0" y="0" width="46.8292683" height="46.8865979"></rect>
                    <path d="M10.5691057,8.67673739 L10.5691057,17.6933908 L9.10569106,17.6933908 C5.96208699,17.6933908 3.41463415,20.2617985 3.41463415,23.443299 C3.41463415,26.6248006 5.96208631,29.1932071 9.10569106,29.1932071 L10.5691057,29.1932071 L10.5691057,38.2098605 L21.300813,38.2098605 L21.300813,39.6732752 C21.300813,42.8547768 23.8482652,45.4231833 26.9918699,45.4231833 C30.1354758,45.4231833 32.6829268,42.8547774 32.6829268,39.6732752 L32.6829268,38.2098605 L43.4146341,38.2098605 L43.4146341,28.513375 L41.300813,28.513375 C38.3589255,28.513375 36.2601626,26.3973481 36.2601626,23.443299 C36.2601626,20.4892499 38.3589255,18.373223 41.300813,18.373223 L43.4146341,18.373223 L43.4146341,8.67673739 L32.6829268,8.67673739 L32.6829268,7.21332276 C32.6829268,4.03182162 30.1354751,1.46341463 26.9918699,1.46341463 C23.8482659,1.46341463 21.300813,4.0318223 21.300813,7.21332276 L21.300813,8.67673739 L10.5691057,8.67673739 Z" id="Path" stroke="#FFFFFF" stroke-width="2.92682927" opacity="0.5" fill-rule="nonzero"></path>
                </g>
                <g id="Group-2-Copy-13" transform="translate(0.000000, -0.000000)">
                    <rect id="Rectangle" x="0" y="0" width="46.8292683" height="46.8865979"></rect>
                    <path d="M10.5691057,8.67673739 L10.5691057,17.6933908 L9.10569106,17.6933908 C5.96208699,17.6933908 3.41463415,20.2617985 3.41463415,23.443299 C3.41463415,26.6248006 5.96208631,29.1932071 9.10569106,29.1932071 L10.5691057,29.1932071 L10.5691057,38.2098605 L21.300813,38.2098605 L21.300813,39.6732752 C21.300813,42.8547768 23.8482652,45.4231833 26.9918699,45.4231833 C30.1354758,45.4231833 32.6829268,42.8547774 32.6829268,39.6732752 L32.6829268,38.2098605 L43.4146341,38.2098605 L43.4146341,28.513375 L41.300813,28.513375 C38.3589255,28.513375 36.2601626,26.3973481 36.2601626,23.443299 C36.2601626,20.4892499 38.3589255,18.373223 41.300813,18.373223 L43.4146341,18.373223 L43.4146341,8.67673739 L32.6829268,8.67673739 L32.6829268,7.21332276 C32.6829268,4.03182162 30.1354751,1.46341463 26.9918699,1.46341463 C23.8482659,1.46341463 21.300813,4.0318223 21.300813,7.21332276 L21.300813,8.67673739 L10.5691057,8.67673739 Z" id="Path" stroke="#FFFFFF" stroke-width="2.92682927" opacity="0.5" fill-rule="nonzero"></path>
                </g>
                <g id="Group-Copy-15" transform="translate(66.341463, -0.000000)">
                    <rect id="Rectangle-Copy-6" x="0" y="0" width="46.8292683" height="46.8865979"></rect>
                    <path d="M13.5348772,35.8137084 C11.8244706,35.8137084 10.2196822,35.1393863 9.03074227,33.9182401 C7.40321506,32.2390548 5.67598406,32.804671 5.16786366,35.172286 C4.06878291,40.3081313 4.17158213,43.4894223 5.22782138,44.7995034 C5.42860913,45.0488392 5.63484817,45.1965418 5.84541318,45.2781721 C5.9714452,45.3270314 6.07593418,45.3440622 6.14039739,45.3440671 L36.6749608,45.4231833 C39.853554,45.4231833 42.4225194,42.9473651 42.4225194,39.9356598 L42.4225865,20.7274516 L42.4313902,19.8079012 C42.4314803,19.7998385 42.4314803,19.7998385 42.4315703,19.7917777 C42.433973,19.5764394 42.433973,19.5764394 42.4360666,19.362765 C42.460715,16.6616663 42.2590079,15.3984405 41.6550553,14.7880293 C41.2661058,14.3930592 40.7109027,14.3175568 39.8992521,14.6641086 C38.4763231,15.2730757 36.0671774,15.3368581 33.3459899,15.033574 C32.2683779,14.913471 31.2441925,14.7400367 30.4958016,14.5523129 C30.0725077,14.4461353 29.7346591,14.336135 29.4683428,14.2057123 C29.1969158,14.0727868 28.9772343,13.9201798 28.7797714,13.6541974 C28.305542,13.0154104 28.3872414,12.1274467 28.9928548,11.59139 C30.2594494,10.4669163 30.9797818,8.8995509 30.9797821,7.28900078 C30.9774526,4.08857005 28.2524206,1.46341463 24.8781128,1.46341463 C21.506561,1.46341463 18.7822969,4.08850406 18.7822969,7.28500515 C18.7822969,8.85368185 19.5136229,10.3578731 21.0672527,11.8333362 C21.5767556,12.3435148 21.5905256,12.9145179 21.4116214,13.4162209 C21.3452756,13.6022751 21.2540276,13.7584879 21.1431554,13.9055041 C20.9901932,14.1083314 20.7899916,14.3006997 20.558642,14.4734232 C20.0531843,14.8507933 19.4085579,15.1312341 18.6795972,15.2541691 C16.3015811,15.6542248 14.0833387,15.4258464 11.0145104,14.7207616 C10.7668965,14.6638706 10.642344,14.6345717 10.1347228,14.5144538 C7.80407207,13.9645171 6.91046689,13.9592512 6.60440747,14.2706701 C5.01920194,15.8763282 4.15342742,18.9712168 5.1818842,24.1765875 C5.57512799,26.1891656 6.18501123,27.3542606 7.09650816,27.3542606 C7.45861187,27.3542606 7.84960482,27.1658578 8.31844463,26.7700809 C8.46142316,26.6493839 8.56658233,26.5517056 8.80583298,26.3219687 C13.1007154,22.1846598 19.6339175,24.7410828 19.6339164,29.9974855 C19.629979,33.2265391 16.8770267,35.8137084 13.5348772,35.8137084 Z M8.1908868,30.1352571 C9.19783431,30.3632388 10.2120218,30.9316539 11.1300928,31.8788662 C11.7645911,32.5305491 12.6126049,32.8868792 13.5348772,32.8868792 C15.3004561,32.8868792 16.7051714,31.5667559 16.7070882,29.995701 C16.7070882,27.3766174 13.30974,26.0472449 10.8347053,28.4314713 C10.5494831,28.7053548 10.4123708,28.832713 10.2064102,29.0065772 C9.56739688,29.5460081 8.91141828,29.9374901 8.1908868,30.1352571 Z" id="Path" stroke="#FFFFFF" stroke-width="2.92682927" opacity="0.5" fill-rule="nonzero"></path>
                </g>
            </g>
        </g>
    </g>
</svg>